<?xml version="1.0" encoding="UTF-8"?><svg id="Layer_2" xmlns="http://www.w3.org/2000/svg" viewBox="0 0 74.07 99.04"><defs><style>.cls-1{fill:#ee2424;}.cls-2{fill:#fff;}.cls-3{fill:#ffd15b;}.cls-4{fill:#3a1312;}</style></defs><g id="Layer_15"><path class="cls-3" d="m7.28,77.08c-.15,1.41-.34,2.84-.1,4.07.19-.67.57-.94.83-1.47-.42-.29-.89-.55-.75-1.09.17-.02.24-.24.43-.2.43.11.51.37.77.56.14-.28.54-.55.48-.8-.41-.42-1.05-.74-1.65-1.07Z"/><path class="cls-3" d="m7.35,71.3c.06.52-.08,1.03-.2,1.62,1,.76,2.02,1.63,2.88,2.25.23-.6.45-1.2.68-1.8-.75-.9-2.33-2.07-3.36-2.07Z"/><path class="cls-3" d="m13.7,64.58c.1-.32.07-.59.17-.92-1.06-.63-2.24-1.15-3.24-1.85-.87-.61-2.05-1.41-2.27-2.28,1.01-.38,1.76.82,2.59,1.42.93.67,2.03,1.13,3,1.76.18-.82.05-1.49.14-2.27-1.45-1.22-3.05-2.38-5.62-3.1-.22,1.33-.18,2.55-.5,3.92,2.43.61,3.35,2.46,5.72,3.32Z"/><path class="cls-3" d="m13.06,67.46c.13-.64.41-1.35.47-1.97-2.35-.88-3.35-2.38-5.43-3.39-.09.78-.11,1.52-.14,2.27,2.58.63,3.58,1.97,5.09,3.08Z"/><path class="cls-3" d="m9.95,75.94c-1.03-.2-1.69-1.48-2.65-1.72.09.54.08,1.13-.04,1.77.78.43,1.49.88,2.17,1.35.09-.57.59-.98.53-1.41Z"/><path class="cls-3" d="m37.16,89.06c-.25.49,0,1.49,0,2.14,0,.79-.21,1.53.07,2.17,1.19-2.25,2.72-4.51,3.8-6.52-.59.99-3.38,1.24-3.87,2.2Z"/><path class="cls-3" d="m43,83.31c-1.94.93-3.96,1.67-5.7,3.03-.08.51.01.94-.11,1.48,1.5-.46,2.79-1.38,4.18-2.09.11-.03.25-.02.42.07.22-1.04,1.29-1.72,1.21-2.49Z"/><path class="cls-3" d="m7.88,65.33c-.07.57.05,1.06-.09,1.66,2.25.42,2.87,2.11,4.7,2.94.28-.65.44-1.24.49-1.78-1.83-.38-2.47-2.37-5.1-2.82Z"/><path class="cls-3" d="m7.48,67.86c-.01.81-.1,1.56-.12,2.37,1.7.55,2.93,1.35,3.7,2.2.22-.6.45-1.2.68-1.8-.93-.42-2.17-2.35-4.26-2.77Z"/><path class="cls-3" d="m44.7,80.2c-2.32.9-4.71,1.62-6.88,2.85-.1.67-.49,1.47-.31,2.03,1.97-1.09,3.85-2.39,6.19-2.67.23-.87.96-1.41,1.01-2.21Z"/><path class="cls-3" d="m10.14,43.22c-.21.38-.03.58-.17.92,1.02.64,2.16,1.23,3.24,1.85.25-1.5-1.97-1.88-3.07-2.77Z"/><path class="cls-3" d="m10.18,40.74c.08.46.03.98-.03,1.51.9.5,1.86.97,2.64,1.53-.09-1.32-1.02-2.61-2.61-3.04Z"/><path class="cls-3" d="m14.11,59.46c.03-.47.07-.94.19-1.45-1.69-1.25-3.83-2.64-5.6-3.63.08.61-.05,1.32-.13,2,2.35.79,4.48,1.7,5.54,3.07Z"/><path class="cls-3" d="m11.85,40.56c-.27-1.3-.52-2.62-1.07-3.8-.13.95-.39,1.95-.57,2.92.76.2,1.1.58,1.63.88Z"/><path class="cls-3" d="m14.04,51.84c-.18-.39-.03-.94-.32-1.28-1.29-.97-2.52-1.97-4.13-2.81-.15.53-.21,1-.29,1.5,2.03.62,3.29,1.93,4.74,2.59Z"/><path class="cls-3" d="m14.26,55.05c-1.35-1.23-3.71-2-5.14-3.19-.14.5-.12.92-.27,1.42,1.65,1.25,3.68,2.32,5.36,3.54.12-.64.08-1.2.05-1.77Z"/><path class="cls-3" d="m11.14,52.17c1.13.58,2.48,1.13,3.08,1.79.09-.28-.09-.43,0-.72-1.51-1.05-2.75-2.22-4.86-2.99-.16.51-.21.96-.16,1.37.59-.62,1.27.21,1.93.55Z"/><path class="cls-3" d="m49.95,64.4c1.71-.39,3.34-.95,5.05-1.31.26.03.25.19.44.25.48-.66,1.02-1.17,1.5-1.85-2.68.1-5.35.97-6.99,2.9Z"/><path class="cls-3" d="m52.06,19.54c.85-1.12,1.66-2.38,2.45-3.63-.78-.34-1.07-.88-2.06-1.14-.18.47-.35.94-.53,1.41.9.51.47,2.06.14,3.36Z"/><path class="cls-3" d="m53.09,23.15c.66-.29,1.83-1.04,2.25-.04-.38.54-1.17.48-1.8.75-.74.31-2.83,1.2-3.27,1.81-.41.56-.5,1.49-.78,2.3.61-.56,1.31-1.05,2.04-1.38.73-.32,1.58-.61,2.41-.7.16.12.14.32.16.51-1.49,1.06-3.29,1.21-4.52,2.85-.18.09-.37-.11-.48.18-.12.31-.24.63-.35.94.14-.38,1.4-.77,2.26-1.11.81-.32,1.82-.87,2.59-.63.1.69-.7.9-1.15,1.08-1.81.72-4.25,1.11-5.2,3.31,1.62-.73,3.12-1.69,4.94-1.98.7.76-.84,1.12-1.41,1.35-1.8.72-3.98,1.27-4.67,3.6.83-.25,1.51-.65,2.4-1.15.22-.12,2.58-1.53,2.23-.23-.11.43-.61.28-.97.44-.4.17-1.15.69-1.95,1.14-1.24.71-2.38,1.13-2.99,2.72,1.48-.6,2.76-1.65,4.43-1.81.08.16.2.3.17.51-1.68,1.06-3.61,1.57-5.19,2.87-.15.54-.58,1.21-.54,1.67,1.15-.57,1.98-1.83,3.33-1.96.16.12.15.33.17.51-1.39,1.66-3.87,1.67-4.59,4.35,1.25-.98,2.45-2.03,4.06-2.22.67.77-.63.94-1.08,1.2-.97.55-2.5,1.56-3.17,2.2-.14.21-.65-.22-.75.07-.11.28-.22.57-.33.86,1.12-.09,2.36-1.45,3.92-1.11.02.17.15.32.13.5-1.26.76-2.89.82-3.96,1.99-.12.16-.51-.27-.63.03-.08.21-.26.7-.26.7.95.36.86.32,1.2.45.56-.88.96-.82,1.49-1.09.15-.47.37-.84.8-.7.78,1.12-.96,1.65-1.46,2.21.39.23.88.47,1.33.5.77-1.75,1.49-3.46,2.32-5.2.38-.8.93-1.47,1.31-2.28,3.88-8.32,7.88-16.53,11.95-24.8.51-1.05,1.22-2.32,1.46-3.65-1.24-.35-2.39-.52-3.62-.83-1.69,4.44-4.25,6.95-6.46,10.25.58-.05,1.39-.58,2.23-.95Z"/><path class="cls-3" d="m49.84,52.39c.25-.56.75-1,1.01-1.5,4.43-8.57,8.87-17.21,13.73-25.02-1.66-1.07-3.85-1.89-5.39-3.01-.1-.02-.13.09-.17.2-4.4,9.12-9.16,18.74-13.42,27.99,1.42.46,3.04,1.36,4.23,1.33Zm1.75-8.19c-.18-.07-.28.05-.5-.1-.25-.2-.04-.89.27-.97.16.06.31.12.47.18.15.18-.02.74-.25.89Zm1.47-7.93c.66-1.3,1.53-2.53,2.28-4.14.82-1.77,1.79-3.04,2.42-4.27.32-.63.48-1.61.87-2.08.09-.09.21-.19.33-.15.13.05.26.1.39.15-.82,2.96-2.35,5.28-3.69,7.9-.91,1.76-1.61,2.67-2.53,4.59-.25.51-.51,2.1-1.21,1.78-.72-.33.79-3.07,1.15-3.77Zm-5.2,13.31c.48-.97.95-2.32,1.43-3.09.09-.1.29-.4.4-.36.13.05.26.1.39.15,0,1.09-.52,1.57-.84,2.24-.43.88-.86,2.67-1.66,2.27-.59-.3.1-.86.27-1.21Z"/><path class="cls-3" d="m40.83,31.12c-1.96,5.21-4.13,10.97-6.25,15.33,1.65.68,2.98,1.43,4.64,2.11.38-1.49,1.19-2.83,1.67-3.84,1.02-2.15,1.59-4.89,2.69-7.21.5-1.04,1.15-2.01,1.48-3.01,1.24-3.75,3.15-7.29,4.23-11,.55-1.87.76-3.75,1.38-5.56.02-.14.06.04-.07-.02-1.68-.48-3.54-.48-4.56-.65-1.71,4.54-3.47,9.2-5.22,13.85Zm5.44-12.6c.04-.14.13-.18.24-.18,1.1.36-.27,2.08-.61,2.81-1.01,2.15-2.03,5.4-3.07,8.13-.38,1-.69,2.29-1.24,2.12-.78-.24.97-4,1.3-4.87,1.24-3.29,2.04-5.58,3.38-8.01Zm-5.9,16.36c-.26-.06-.26-.23-.41-.33.07-.63.59-.64.91-.28.04.35-.21.6-.5.62Zm-1.28,1.49c.09-.09.18-.15.31-.15.81.17.03,1.55-.32,2.47-.72,1.9-1.35,3.57-2.07,5.48-.37.98-.71,2.29-1.36,1.99-.5-.23.19-1.43.49-2.23.87-2.29,2.16-5.88,2.95-7.55Z"/><path class="cls-3" d="m48.17,12.27c.97-.58,1.63-1.84,2.9-1.77.15.12.15.32.16.51-1.2,1.29-3.47,1.67-3.76,4.03.71-.85,1.82-1.42,2.6-2.15.3-.28.41-.9.98-.7.49.94-.62,1.53-1.19,1.97-.68.52-1.34,1.09-1.86,1.62.93.07,2.36-.8,2.84-1.61,1.21-2.02,1.62-5.27,2.85-6.88-2.27-.53-4.71-.69-6.68-1.27-.27.73-.55,1.46-.82,2.19.94.4,1.39-.19,2.09.16,1.37.68-.57,2.62-.12,3.89Z"/><path class="cls-3" d="m27.66,44.37c-.01-1.1.93-1.46.97-2.58-.73.73-1.53,1.28-2.22,2.11.42.16.83.32,1.25.47Z"/><path class="cls-3" d="m60.73,21.83c.53-.99,1.3-1.43,1.96-2.12-.57-.17-1.26-.58-1.75-.57-.25.84-.64,1.36-.91,2.16.22.18.38.39.69.53Z"/><path class="cls-3" d="m24.77,43.28c.24.09.47.18.71.27,1.72-1.54,4.42-3.62,4.58-6.23-1.72,2.08-3.55,3.34-5.29,5.96Z"/><path class="cls-3" d="m31.14,45.33c.06-.36.2-.86.64-.74.46.12.27,1.54,1.12,1.05-.79-1.29-1.53-2.6-1.42-4.29.91-.6.71.42.85.94.2.76,1.26,2.23,1.16,2.49.31-.81.61-1.62.92-2.42.05-.13-.09-.6-.16-.86-.35-1.29-1.79-2.27-1.57-3.72.17-.02.29-.11.47-.09.41.73,1.07,1.69,1.45,2.43.11.21.35.82.43.61.14-.36.28-.73.41-1.09-.46-1.68-1.34-3.19-1.89-4.82.17-.02.22-.25.41-.2.91.5,1.03,1.43,1.34,2.2.21.51.69,1.34.72,1.25.2-.52.39-1.04.59-1.56-.62-1.25-1.48-2.56-1.73-4.05.16-.08.28-.2.49-.17.46.34.62,1.02.87,1.58.22.49.82,1.46.85,1.39.16-.42.31-.83.47-1.25.05-.14-.51.11-.59-.22-.19-.2-.03-.57-.17-.78-.42-.31-.6-1.08-.9-1.68-.21-.42-.95-1.6.33-1.48.4,1.18.97,2.21,1.62,3.38.33-.89.67-1.77,1-2.66-.9-.51-.89-1.11-1.27-1.73-.29-.49-.92-1.55.22-1.7.4.86.62,1.68,1.4,2.49.19-.49.37-.99.56-1.48-.7-1.04-1.11-1.6-1.42-2.5-.74-.17-.76-1.4.03-1.33.29.38.6.85.92,1.33.28.43.54,1.13.9,1.14.48-2.19-1.44-3.29-1.73-5.12.9-.33,1.62,1.16,2.05,2.02.18.37.49,1.19.55,1.01.22-.6.45-1.2.68-1.8-.84-.68-.91-1.91-1.3-2.81-.25-.56-.87-.92-.71-1.61,1.51-.78,1.38,3.22,2.43,3.33.29-.75.57-1.51.86-2.27-.77-.87-.99-2.12-1.56-3.09-.27-.45-1.03-.87-.59-1.56.12.02.21-.07.32-.06,1.28.96,1.56,2.53,2.24,3.61.29-.76.57-1.51.86-2.27-.5-1.56-2.28-2.33-1.86-4.19.86-.3.71.71,1.02,1.28.16.3.58.64.85,1.04.55.81.42,1.31,1.3,1.03.57-1.83.8-3.52,1.18-5.27-1.99-.39-3.78-.33-5.64-.43-3.43,11.47-7.49,23.23-11.71,35.07.37.3,1.25.6,1.72.65Z"/><path class="cls-3" d="m61.54,22.31c.33.13.5.34.91.43.82-.72,1.4-1.98,2.54-1.99.43,1.05-1.31,1.5-1.74,2.47.43.11.54.36.99.46.61-.55,1.61-2.71,2.22-1.4-.29.75-1.37,1.26-1.27,1.94.68.04.61-1.08,1.28-.77.54.25.09,1.02-.42,1.36,1.1,1.56-1.3,3.27-1.84,5.11.5.16.66.48,1.19.63.63-2.88,2.55-6.34,2.25-8.8-1.62-.53-2.65-1.31-4.32-1.81-.18,1.16-1.4,1.19-1.79,2.36Z"/><path class="cls-3" d="m42.57,71.89c1.7-.43,3.93-1.42,5.94-1.78.41-.08,2.08-.65,1.95.29-.06.47-1.71.58-2.22.68-2.41.47-4.56,1.52-6.65,2.23-.4.65-.72,1.47-1.09,2.18,2.58-1.32,6.15-1.7,8.98-2.96,1.01-1.77,2.42-3.43,3.17-5.33-2.11.45-4.39.99-6.4,1.79-1.56.62-2.88,1-3.68,2.9Z"/><path class="cls-3" d="m47.4,65.94c-.9.48-1.57,1.54-2.19,2.48,1.76-.76,4.07-1.48,6.16-1.88,1.66-.31,2.81-.62,3.46-2.54-1.63.41-3.86,1.1-5.59,1.56-.67.17-1.43.15-1.84.38Z"/><path class="cls-3" d="m16.37,38.06c.66-1.14.62-2.61.87-3.96.77-4.24,1.98-8.64,2.67-12.76.01-.05.02-.09-.05-.11-1.56-.15-3.38.37-5.22.09-.9,4.95-1.61,9.81-1.35,14.23,1.14.79,2.06,1.66,3.08,2.5Zm-1.79-3.54c-.3.04-.38.01-.66-.16-.33-1.06,1.42-.67.66.16Zm-.77-2.7c-.76-.66-.14-2.15.05-3.2.28-1.64.66-3.29.85-4.86.99-.82.79,1.04.7,1.69-.13.97-.57,2.24-.77,3.46-.21,1.22-.05,2.64-.83,2.9Z"/><path class="cls-3" d="m39.85,77.12c-.23.6-.45,1.2-.68,1.8,2.5-.83,5.33-2.25,8.2-2.98.33-.79,1.13-1.38,1.28-2.11-2.91,1.17-5.93,1.47-8.8,3.29Z"/><path class="cls-3" d="m58.1,40.67c1.05-1.35,2.21-2.64,3.32-3.84.32-.35.66-1.04,1.25-.96.61.84-.54,1.42-.97,1.87-1.25,1.31-2.45,3.16-3.77,4.3-.29.23-.45-.51-.58-.13-.3.53-.85,1.28-.89,1.89,1.17-1.39,3.07-2.71,4.28-4.01.16-.17.79-1.52,1.3-1.3.67.28-.31,1.52-.46,1.7-.86.97-2.06,1.95-3.35,3.2-1.16,1.12-3,2.41-3.49,4.05,1.46-1.33,2.96-2.56,4.52-3.92.2-.18,1.21-1.37,1.61-1.18.48.23.05.83-.26,1.15-.82.87-2.24,2.01-3.1,2.76-2.15,1.88-4.1,2.72-5.07,5.41,1.42-1.35,3.31-2.4,4.64-3.79.41-.43.79-1.35,1.6-1.18.3.93-.77,1.44-1.27,1.94-1.76,1.77-3.82,3.15-5.57,4.6.58.04,1.09-.08,1.64-.09.05-.28-.29-.39-.08-.74,1.21-.2,2.04-1.98,3.29-1.62.23,1.11-1.84,1.41-2.18,2.22.9-.21,2.01.03,2.77-.48,3.53-6.41,6.73-13.53,10.71-18.92-1.56-.72-3.33-1.35-4.62-2.19-1.9,2.68-3.65,6.48-5.28,9.27Z"/><path class="cls-3" d="m57.91,58.92c-1.09.68-2.53,1.11-3.25,1.99,1.15-.39,2.59-.06,3.55-.89.65-.56.81-1.5,1.49-2.3-.72-.03-1.14.79-1.79,1.2Z"/><path class="cls-3" d="m46.55,76.97c-2.58,1.24-5.33,2.09-7.98,3.15-.27.6-.37,1.12-.54,1.68,2.53-.95,5.02-1.99,7.6-2.85.22-.76.89-1.28.92-1.98Z"/><path class="cls-3" d="m61.36,52.62c2.48-2.75,4.13-7.32,6.2-10.98-.77-.28-1.2-.71-1.94-1-2.25,3.84-4.33,8.02-6.5,12.02.79.07,1.47-.09,2.25-.05Z"/><path class="cls-3" d="m24.83,41.7c.87-1.13,2.01-2.17,3.04-3.32,1.78-1.98,3.81-3.4,3.98-5.82-1.19.86-2.22,1.96-3.46,3.25-1.64,1.7-3.43,3.21-3.57,5.89Z"/><path class="cls-3" d="m29.33,21.24c-.27.4-.88.82-.87,1.37.21-.47.96-1.2.87-1.37Z"/><path class="cls-3" d="m23.43,17.68c.46-.63.93-1.54,1.68-1.6.43.9-.56,1.6-1.04,2.29-.66.94-1.47,1.89-1.89,3.13-.11.34-.72.14-.63.48-.05.63-.4,1.39-.29,1.94.64-1.01,1.32-2.23,2.05-3.07.33-.37.9-.93,1.46-.79.45.7-.44.99-.79,1.4-1.56,1.82-3.4,4.55-3.72,7.26.9-1.41,2.28-2.68,3.17-3.9.3-.42.47-1.27,1.16-1.17.59.74-.38,1.54-.77,2.03-1.49,1.9-3.16,3.68-4.36,5.87.04.78-.59,1.86-.44,2.6.96-1.52,1.9-3.01,2.92-4.17.46-.54,1.22-1.29,1.95-1.14,0,.07.03.12.12.14.02.7-.79.92-1.25,1.4-.64.68-1.36,1.77-2.04,2.8-.87,1.33-2.27,2.63-2.14,4.02.63-.68,1.17-1.58,1.78-2.36.59-.76,1.17-1.64,2.03-1.83.66.73-.36,1.15-.78,1.58-.93.98-1.68,2.55-2.74,3.7-.32.34-.8.49-.83,1.03.06.4.45.66.81.93.44-.5.67-.94,1.23-1.59.31-.37,1.02-1.44,1.5-1.13.66.42-.41,1.32-.73,1.69-.55.64-.93,1.1-1.33,1.64.56.51,1.66.77,2.52,1.13.54-2.31,1.05-4.79,1.68-7.05,2.25-8.08,3.55-15.99,4.62-23.63.01-.05.02-.1-.05-.11-1.69-.16-3.23.02-4.84.05-.27,2.76-1.46,5.94-1.45,8.57.44-.68.94-1.46,1.43-2.14Z"/><path class="cls-3" d="m28.93,18.5c.91-1.38,2.65-1.69,3.13-3.56-1.01,1.14-2.78,1.89-3.13,3.56Z"/><path class="cls-3" d="m32.83,12.2c-1.04,1.45-3.43,1.79-3.49,4.04,1.04-.94,2-2.08,3.17-2.73.11-.44.53-1.02.31-1.31Z"/><path class="cls-3" d="m29.98,11.93c-.03.49-.02.96-.22,1.53.98-.47,1.72-1.22,2.62-1.96.94-.78,1.59-1.37,1.84-2.97-1.44,1.07-2.95,1.99-4.23,3.41Z"/><path class="cls-3" d="m13.42,47.32c-1-.73-2.02-1.47-3.44-2.01-.18.54-.14.97-.3,1.49,1.6.68,2.79,1.9,4.06,2.51-.14-.65-.23-1.32-.32-2Z"/><path class="cls-2" d="m19.1,42.67c-.67-.36-1.3-1.17-1.97-1.64-.96-.66-1.49-1.33-2.2-1.99-.66-.61-1.3-1.15-2-1.56.25,2.7,1.86,5.44,2.11,8.39.08.99.03,1.92.55,2.8-.04.26-.22.18-.26.44.86,4.43.79,9.29.21,14.38.38.12.69-.21,1.13.07.77.48.31,2.68-.81,2.37-.31-.12-.44-.32-.62-.5-.02.94-.66,2.16-.51,3.02,1.69-1.19,1.7,2.75.12,2.28-.32-.1-.44-.61-.7-.53-1.7,5.43-3.94,9.22-6.17,13.04,1.29.39,1.91,1.08,2.98,1.57.14-1.73,2.82-.5,1.32.77.77.7,1.92.95,3.01,1.49.56.28,1,.76,1.58,1.04.7.35,1.53.5,2.27.85,3.83,1.83,7.88,2.81,11.39,3.67.11-1.48,2.48-.91,1.64.62,1.01.09,2.24.66,3.28.79-.14-2.94.04-6.03.22-9.12-.22.75-.54.97-1.04.86-1.19-.26-.55-1.9.16-2.8.4-.11.92-.01,1.2.36.06-.86.55-1.89.64-2.89.04-.47-.19-.71,0-1.16.15-.37.56-.52.77-.87,1.41-2.26,1.5-6,3.51-7.16.45-1.01,1.13-1.52,1.63-2.42-.61-.5.02-2.45,1.36-1.72,1.09-1.68,2.62-2.58,3.97-3.42,2.21-1.39,4.2-3.39,6.35-4.75.91-.57,1.91-.97,2.81-1.53.4-.24.61-.47.99-.72,1.05-.7,2.3-1.1,3.05-1.91-.05-.02-.1-.04-.16-.06-3.44-.2-6.82.22-10.21.55-.29.57-.72,2.25-1.66,2.02-1.12-.27-.6-1.82.2-2.66-.97-.6-2.74-1.82-4.25-1.99-.43-.05-.68.23-1.03.13-.31-.09-.44-.38-.77-.57-1.68-.94-3.52-1.61-5.41-2.49-4.83-2.25-10.16-3.4-14.94-5.64-1.36-.64-2.81-.9-3.75-1.42Zm29.28,17.12c-.37.75-.69,1.62-1.26,1.93-2.68-.19.65-4.51,1.26-1.93Zm-2.59,3.31c1.41.38-.03,2.5-1.15,1.62-.77-.61.25-1.86,1.15-1.62Zm-30.51,9.58c.59,1.16-1.2,2.54-1.76,1.12,0-1.06.88-2,1.76-1.12Zm-1.66,4.65c.61.23.87,1.1.24,1.97-1.55.97-1.94-2.61-.24-1.97Zm-1.77,3.98c.15-.44.29-.66,1-.52.23.05.57.22.65.42.57,1.52-2.13,1.53-1.65.09Zm8.46,2.92c-.86-.23-.31-1.09-.11-1.38.69-.97,2.74-2.08,3.67-3.08.11.05.22.1.27.01.07.12.26.19.33.3-.85,1.35-2.43,2.26-3.6,3.38-.12.4-.27.75-.56.77Zm4.77-2.22c-.31.53-.73.82-1.22,1.33-.32.34-.8,1.27-1.23,1.14-.41-.12-.27-.63-.07-1.01.4-.75,1.95-2.03,2.67-2.57.21.08.46.14.52.28-.05.09-.03.15.02.19-.12.45-.44.46-.69.63Zm6.8,9.45c-.78-.32-.66-1.58.25-1.6,1.49-.04.85,2.05-.25,1.6Zm.9-4.75c.4-.51,1.49-.3,1.59.51-.36,2.32-2.72.92-1.59-.51Zm10.73-30.8c.2.06.19.21.33.3-.05.09-.04.15.02.19-.77.99-1.79,1.78-2.74,2.54-.92.72-1.75,1.77-2.96,1.92-.53-.8.5-.98.95-1.34.59-.46,1.31-1.09,2.08-1.72.89-.72,1.53-1.69,2.32-1.89Zm-5.79,2.55c1.5-1.28,3.89-3.65,5.49-4.36.33.07.39.26.46.44-.4.64-1.11.94-1.69,1.42-1.08.87-2.17,1.76-3.28,2.78-.47.44-1.09,1.15-1.86.91-.3-.77.48-.83.89-1.18Zm-12.44,3.62c.69-.5.83-1.09,1.38-1.53,1.97-1.61,5.76-.9,7.49,1.22.92,1.13,1.41,2.68.51,4.57.74.59,1.87.6,2.55,1.05,1.33.88,1.85,3.56.52,5.73-.59.96-2.66,2.08-3.98,2.25-.82.11-1.79-.16-2.52-.41-.42,1.96-2.72,2.63-4.04,2.41-1.68-.28-3.14-1.73-4.09-2.89-.67-.8-.79-1.91-.9-2.84-3.53-1.35-5.86-4.38-4.73-7.59.57-1.63,2.51-2.11,3.88-2.47,1.17-.31,2.07-.48,3.92.5Zm-2.24-8.26c.24.09.24.28.38.41-.22.72-.88,1.12-1.35,1.46-.43.3-1.03.89-1.7.7.03-.07-.07-.09-.13-.13.48-1.26,1.94-1.52,2.79-2.43Zm-5.65,7.16c-1.34.7-1.75-1.47-.86-2.2.94-.78,2.21.65.86,2.2Zm1.45-5.97c-.84,1.69-2.55-1.17-.8-1.2.75,0,1.13.54.8,1.2Zm.99-4.28c-.73,1.85-2.75-1.12-.83-1.11.85,0,1.05.54.83,1.11Zm.2-6.44c.09-.14.28-.43.91-.28.34.08.63.36.66.61.21,1.7-2.41,1.03-1.57-.33Zm.03,2.06c.68,1.7-2.07,1.6-1.6.2.2-.59.93-.78,1.6-.2Z"/><path class="cls-1" d="m22.41,69.67c1.71-1.54,4.03-3.25,5.75-5.08.52-.55,1.08-1.69,2.1-1.31-.1.86-.99,1.37-1.53,1.94-1.81,1.91-3.89,3.4-5.63,5.21.74-.11.63.59.7.98,1.8-2.12,3.98-3.79,5.9-5.46.6-.52,1.32-1.56,2.15-1.42,0,.07.03.12.13.14-.67,1.61-2.39,2.44-3.93,3.79-.62.55-1.25,1.19-1.98,1.94-.86.87-2.81,2.17-1.44,3.12,1.61-1.75,3.42-3.38,5.09-4.96.54-.52,1.07-1.24,1.85-1.35.6.79-.6,1.41-1.05,1.84-1.78,1.68-3.73,3.45-5.33,5.14.31.2.46.48.71.71,1.79-1.41,3.38-4.05,5.26-5.17.32-.19.87-.49,1.3-.14.13.75-.7.79-1.13,1.1-1.63,1.15-3.02,3.24-4.55,4.72.42.22.74.19,1.07.22.01-.66.54-.65.99-.97.25-.18.68-.54.83-.76.17-.26.12-.69.35-.94.26-.27.76-.18,1.02-.33.82-.48,1.43-2.01,2.17-1.5.7.48-1.15,1.55-1.48,2.03,1.71,1.12,3.35-.06,4.56-.96.69-1.39.61-2.44.07-3.28-.74-.15-1.37-.68-2.27-.85-.5-.1-1,.18-1.45-.19-.8-.65.62-1.9.81-3.09.39-2.5-3.56-4.22-5.33-3.17-.57.34-.96.75-1.42,1.87-.08.29.38.29.1.67-1.63,1.89-3.57,3.63-5.02,5.26.21.08.42.16.63.24Z"/><path class="cls-3" d="m33.26,28.35c-1.08.91-2.06,1.98-3.24,3.15-1.58,1.55-3.31,2.43-3.81,5.35,1.93-2.23,3.98-4.21,6.16-5.9.26-.86.81-1.84.89-2.61Z"/><path class="cls-1" d="m19.31,67.23c.68-.58,1.43-1.31,2.17-1.95.72-.63,1.47-1.53,2.38-1.34.15.08.08.27.12.4-1.33,1.22-2.99,2.47-4.14,3.62.3.38.71.72,1.12,1.05,1.33-1.61,2.87-2.75,4.17-4.41-.55-.25-.45-.83-.91-1.15-1.39-.97-4.4-.08-5.02.97-.46.78-.45,2.14.1,2.81Z"/><path class="cls-3" d="m28.38,9.54c1.11-1.12,2.54-1.87,3.7-2.71.4-.29.85-.93,1.45-.53-.03.12.08.18.07.29-1.17,1.42-2.79,1.86-4.04,3.12.44.14.4.51.71.72.85-.75,2-1.69,2.92-2.3.37-.24.69-.58,1.01-.78.34-.22.76-.19,1-.52.29-.4.45-1.05.4-1.55-2.07.29-4.33.19-6.76-.32-.86,1.71-.62,2.92-1.26,4.53.3.08.51-.03.79.03Z"/><path class="cls-3" d="m36.1,14.42c.05.87-.91,1.23-1.47,1.77-1.11,1.06-2.06,2.11-2.27,3.88,1.24-1.19,2.05-3.32,3.83-3.29-.03.17.16.23.12.4-.14.45-.69.49-1.01.78-.63.57-1.27,1.47-1.94,2.31-.91,1.11-1.87,2.11-2.23,3.54.54-.65,1.08-.96,1.78-1.65.3-.29,1.42-1.74,1.91-1.51.89.42-1.23,2.04-1.63,2.43-1.51,1.44-3.26,2.49-3.75,5.2.6-.88,1.49-1.53,2.25-2.19.78-.68,1.45-1.62,2.48-1.84.47.82-.57,1.31-.99,1.68-1.83,1.64-4.3,3.29-5.21,6.25,1.93-1.75,3.67-3.93,5.81-5.22,1.64-4.75,3.43-9.79,4.42-14.33-1.15-.06-2.57-.71-3.48-.24-.54,1.3-.87,2.51-1.12,3.68.83-.57,1.27-1.96,2.5-1.65Z"/><path class="cls-3" d="m28.63,20.71c.73-1.35,2.16-1.91,2.67-3.28-.9.9-2.35,2.04-2.67,3.28Z"/><path class="cls-3" d="m30.04,20.53c.11-.29.63-.41.48-.8-.08.35-.58.53-.48.8Z"/><path class="cls-3" d="m27.18,28.83c-.33.21-.52,1.26-.46,1.7.1-.54.72-1.32.46-1.7Z"/><path class="cls-1" d="m14.78,59.32c.08-1.98-.08-4.01-.39-6.05.45-4.83-1.87-9.98-2.2-14.73-.07-.61-.49-.92-.94-.97-.13-.77-1.37-.83-1.45,0-.08.91-.14,1.83-.18,2.73-.19.13-.33.32-.36.58-.29,2.15-.12,4.27.22,6.39-.25,1.72-.49,3.45-.55,5.18-.02.45-.02.9,0,1.37-.11.92-.23,1.85-.37,2.76-.37,2.38-.67,4.87-.55,7.31-.11,1.4-.2,2.8-.3,4.19-.16,2.26.11,5.03-.03,7.57-.33,1.31-.53,2.45-.68,3.79-.11.99,1.25,1.22,1.64.28h.01c2.81-6.57,5.84-13.29,6.14-20.42Z"/><path class="cls-1" d="m51.02,72.33c1.89-3.21,4.22-6.11,6.14-9.3.24-.4.54-.66.86-.82.72-1.3,1.4-2.62,2.02-3.94.3-.63-.49-1.22-1.03-.82-.44.32-.86.67-1.27,1.03-.19-.19-.49-.28-.78-.18-5.33,1.95-10.16,7.27-13.47,11.77-4.51,6.11-6.15,13.74-6.81,21.15-.15,1.73,2.32,2.63,3.02.88,1.71-4.3,4.56-7.97,7.22-11.75,1.3-2.72,2.59-5.45,4.11-8.02Z"/><path class="cls-4" d="m60.83,7.84c-.32.8-1.06,1.63-.78,2.3.56.29.94-.48,1.17-.99.7-1.47,1.52-3.74.89-4.49-.31-.38-.76-.45-.95-.09-.11.22.28.88.27,1.18-.02.56-.33,1.4-.61,2.09Z"/><path class="cls-4" d="m57.21,4.87c.5.34,1.32,1.47,1.18,2.32-.11.71-.91,1.23-.1,1.93.56-.11.95-1.31,1.02-1.76.27-1.7-1.36-3.18-2.97-3.98-1.3.56.14.99.87,1.49Z"/><path class="cls-4" d="m38.41,2.15c.68,1.22,2.54,2.03,3.94,1.4.68-.31,2.31-2.13.84-2.45-.38.18-.25.55-.35.94-.85,1.36-3.25.93-3.71-.6-.15-.5.24-1.06-.26-1.44-1.13.35-.72,1.68-.45,2.15Z"/><path class="cls-4" d="m18.07,12.71c-.14.63-.38,1.79.47,2.05.61-.62.25-1.45.52-2.31.71-2.32,2.57-4.41,3.88-5.78.27-.16.93-.08.84-.58-.97-1.16-2.47.86-3.33,1.96-1.02,1.31-2.08,3.27-2.38,4.64Z"/><path class="cls-4" d="m17.32,9.74c.81-.37,1.11-1.43,1.62-2.16.56-.81,1.28-1.15,1.76-1.84-.08-.18-.25-.32-.57-.39-1.15.42-1.87,1.58-2.6,2.86-.24.43-.98,1.14-.22,1.53Z"/><path class="cls-4" d="m41.58,31.4c.55.16.87-1.12,1.24-2.12,1.04-2.74,2.06-5.98,3.07-8.13.35-.73,1.72-2.44.61-2.81-.11,0-.2.04-.24.18-1.35,2.43-2.14,4.73-3.38,8.01-.33.87-2.08,4.64-1.3,4.87Z"/><path class="cls-4" d="m51.91,40.03c.7.32.96-1.27,1.21-1.78.92-1.92,1.62-2.83,2.53-4.59,1.35-2.62,2.87-4.94,3.69-7.9-.13-.05-.26-.1-.39-.15-.11-.04-.24.05-.33.15-.39.47-.56,1.46-.87,2.08-.62,1.23-1.6,2.49-2.42,4.27-.75,1.61-1.62,2.84-2.28,4.14-.36.7-1.87,3.43-1.15,3.77Z"/><path class="cls-4" d="m69.53,45.43c-.2.28-.7.57-.46.99,1.17.55,1.93-1.82,2.41-3.56.42-1.48,1.34-5.55-.36-4.96.3,2.14-.46,4.75-1.59,7.53Z"/><path class="cls-4" d="m72.37,43.8c.76-.79,1.81-2.62,1.68-3.76-.16-.06-.31-.12-.47-.18,0,0-.06-.15-.08-.01-.3.26-.47,1.15-.76,1.77-.39.84-1.4,1.92-.38,2.18Z"/><path class="cls-4" d="m15.41,25.46c.09-.66.29-2.51-.7-1.69-.2,1.57-.57,3.22-.85,4.86-.18,1.05-.8,2.54-.05,3.2.78-.27.62-1.68.83-2.9.2-1.22.64-2.5.77-3.46Z"/><path class="cls-4" d="m39.95,34.54c.15.11.15.28.41.33.29-.01.54-.27.5-.62-.32-.35-.84-.34-.91.28Z"/><path class="cls-4" d="m35.64,46.14c.65.3.99-1.01,1.36-1.99.72-1.91,1.35-3.57,2.07-5.48.35-.92,1.13-2.3.32-2.47-.13,0-.23.05-.31.15-.79,1.68-2.08,5.27-2.94,7.56-.3.8-.99,2-.49,2.23Z"/><path class="cls-4" d="m51.36,43.13c-.32.08-.52.76-.27.97.22.15.31.03.5.1.22-.15.39-.71.25-.89-.16-.06-.31-.12-.47-.18Z"/><path class="cls-4" d="m47.54,50.89c.8.41,1.27-1.49,1.7-2.37.33-.67.85-1.15.84-2.24-.13-.05-.26-.1-.39-.15-.11-.04-.32.26-.4.36-.48.77-.91,2.02-1.4,2.99-.17.34-.95,1.12-.35,1.42Z"/><path class="cls-4" d="m14.58,34.53c.76-.82-.98-1.21-.66-.16.28.17.36.19.66.16Z"/><path class="cls-4" d="m21.59,44.59c-.03-.25-.32-.53-.66-.61-.63-.15-.82.14-.91.28-.84,1.35,1.78,2.02,1.57.33Z"/><path class="cls-4" d="m38.69,58.73c1.11-1.02,2.2-1.91,3.28-2.78.58-.47,1.3-.78,1.69-1.42-.07-.18-.13-.37-.46-.44-1.6.71-3.99,3.08-5.49,4.36-.41.35-1.19.41-.89,1.18.77.25,1.39-.47,1.86-.91Z"/><path class="cls-4" d="m20.05,46.33c-.66-.58-1.4-.39-1.6.2-.48,1.4,2.27,1.5,1.6-.2Z"/><path class="cls-4" d="m39.11,59.51c-.45.36-1.48.54-.95,1.34,1.21-.15,2.04-1.2,2.96-1.92.95-.75,1.98-1.55,2.74-2.54-.05-.04-.06-.1-.02-.19-.14-.09-.13-.24-.33-.3-.8.21-1.43,1.17-2.32,1.89-.77.62-1.49,1.26-2.08,1.72Z"/><path class="cls-4" d="m2.93,66.59c.8-.71.6-1.94.64-2.89.11-3.05.37-6.07.55-9.26.16-2.99.2-5.93.84-9.33.14-.78.65-2.92-.09-3.07-.11,0-.2.04-.24.18-.36.35-.39,1.44-.54,2.39-.69,4.2-.72,7.7-.92,11.45-.09,1.62-.44,3.19-.5,4.64-.06,1.47.03,3-.1,4.52-.03.41-.34,1.23.37,1.39Z"/><path class="cls-4" d="m47.12,61.73c.57-.31.89-1.19,1.26-1.93-.62-2.58-3.94,1.74-1.26,1.93Z"/><path class="cls-4" d="m18.99,49.6c-1.92,0,.1,2.96.83,1.11.22-.57.02-1.11-.83-1.11Z"/><path class="cls-4" d="m20.37,56.37c.67.2,1.26-.39,1.7-.7.48-.34,1.14-.73,1.35-1.46-.14-.13-.14-.32-.38-.41-.85.91-2.32,1.17-2.79,2.43.06.04.16.06.13.13Z"/><path class="cls-4" d="m44.65,64.72c1.12.88,2.56-1.24,1.15-1.62-.89-.24-1.92,1.02-1.15,1.62Z"/><path class="cls-4" d="m58,68.42c-.07-.1-.17-.18-.37-.23-1.84,1.33-3.43,4.04-5.19,6.44-1.85,2.51-3.37,4.58-4.57,7.13-.24.51-1.24,2.63-.64,2.89.63.26.82-.98.86-1.1,1.21-3.08,3.27-5.97,5.26-8.74,1.21-1.69,2.38-3.43,3.63-4.88.38-.44,1.08-.81,1.01-1.5Z"/><path class="cls-4" d="m18.03,53.79c-1.75.02-.04,2.89.8,1.2.33-.66-.05-1.2-.8-1.2Z"/><path class="cls-4" d="m17.48,64.04c-1.13,3.22,1.2,6.25,4.73,7.59.1.93.23,2.04.9,2.84.95,1.15,2.42,2.61,4.09,2.89,1.32.22,3.62-.45,4.04-2.41.73.26,1.71.52,2.52.41,1.32-.17,3.39-1.29,3.98-2.25,1.33-2.18.81-4.86-.52-5.73-.68-.45-1.81-.47-2.55-1.05.9-1.89.41-3.44-.51-4.57-1.73-2.12-5.52-2.83-7.49-1.22-.55.45-.69,1.04-1.38,1.53-1.85-.98-2.75-.8-3.92-.5-1.37.36-3.31.83-3.88,2.47Zm9.33.13c.28-.39-.17-.41-.09-.71.47-1.13.84-1.52,1.42-1.86,1.77-1.05,5.72.68,5.32,3.18-.19,1.19-1.61,2.44-.81,3.09.45.37.95.09,1.45.19.89.18,1.53.7,2.27.86.54.84.62,1.88-.07,3.28-1.21.9-2.85,2.08-4.56.96.33-.49,2.18-1.55,1.48-2.03-.74-.5-1.35,1.02-2.17,1.5-.26.15-.76.06-1.02.33-.23.25-.18.68-.35.94-.15.22-.58.59-.83.76-.45.31-.98.3-.99.97-.34-.03-.65,0-1.07-.22,1.53-1.48,2.92-3.57,4.55-4.72.43-.31,1.26-.34,1.13-1.1-.43-.36-.98-.05-1.3.14-1.88,1.11-3.47,3.76-5.26,5.17-.25-.23-.4-.51-.71-.71,1.6-1.69,3.55-3.45,5.33-5.14.45-.43,1.65-1.05,1.05-1.84-.78.11-1.31.84-1.85,1.35-1.67,1.59-3.48,3.21-5.09,4.96-1.36-.95.58-2.25,1.44-3.12.73-.74,1.36-1.39,1.98-1.94,1.55-1.35,3.26-2.17,3.93-3.79-.09-.02-.13-.07-.13-.14-.82-.14-1.55.91-2.14,1.42-1.92,1.66-4.1,3.34-5.9,5.46-.07-.39.04-1.09-.7-.98,1.74-1.81,3.82-3.3,5.63-5.21.54-.57,1.43-1.07,1.53-1.92-1.03-.38-1.57.73-2.09,1.28-1.72,1.83-4.04,3.54-5.75,5.08-.21-.08-.42-.16-.63-.24,1.46-1.63,3.39-3.37,5.02-5.26Zm-7.6.25c.62-1.05,3.63-1.94,5.02-.97.46.32.35.89.91,1.15-1.3,1.66-2.84,2.8-4.17,4.41-.41-.33-.82-.66-1.12-1.05,1.15-1.15,2.8-2.4,4.14-3.62-.04-.13.03-.32-.12-.4-.91-.19-1.66.71-2.38,1.34-.74.64-1.49,1.37-2.17,1.95-.55-.67-.56-2.03-.1-2.81Z"/><path class="cls-4" d="m.9,58.23c.6-.89.03-2.15,0-3.31-.03-1.28.56-2.61.14-3.7,0-.24-.31-.03-.42-.07-.69,1.85-.74,3.95-.48,5.54.08.52.11,1.37.76,1.54Z"/><path class="cls-4" d="m16.52,58.76c-.89.73-.48,2.9.86,2.2,1.35-1.56.08-2.98-.86-2.2Z"/><path class="cls-4" d="m54.18,76.63c-.06.11-.18.09-.24.18-.42.35-.8,1.19-1.21,1.78-.55.8-1.54,1.55-1.29,2.46.88.16,1.33-1,1.78-1.65.52-.75,1.08-1.57,1.44-2.41-.14-.13-.19-.3-.49-.36Z"/><path class="cls-4" d="m15.29,72.68c-.88-.88-1.76.06-1.76,1.12.56,1.41,2.35.04,1.76-1.12Z"/><path class="cls-4" d="m24.14,79.77c-.05.09-.16.04-.27-.01-.93,1-2.98,2.11-3.67,3.08-.2.29-.76,1.15.11,1.38.29-.02.43-.37.56-.77,1.17-1.11,2.75-2.03,3.6-3.38-.07-.12-.26-.19-.33-.3Z"/><path class="cls-4" d="m25.75,81.18c-.06-.14-.31-.2-.52-.28-.72.54-2.27,1.82-2.67,2.57-.2.38-.34.88.07,1.01.43.13.91-.8,1.23-1.14.49-.51.91-.8,1.22-1.33.25-.17.57-.18.69-.63-.05-.04-.07-.1-.02-.19Z"/><path class="cls-4" d="m13.87,79.29c.63-.87.36-1.74-.24-1.97-1.69-.64-1.3,2.94.24,1.97Z"/><path class="cls-4" d="m34.38,87.21c-.1-.81-1.19-1.02-1.59-.51-1.13,1.43,1.24,2.83,1.59.51Z"/><path class="cls-4" d="m12.86,80.79c-.71-.14-.85.08-1,.52-.48,1.44,2.22,1.43,1.65-.09-.08-.21-.42-.38-.65-.42Z"/><path class="cls-4" d="m32.13,89.85c-.91.02-1.03,1.29-.25,1.6,1.1.44,1.74-1.64.25-1.6Z"/><path class="cls-4" d="m16.23,93.41c-.06.42.76.63,1.34.95,3.08,1.72,9.07,4.11,12.5,4.53.9.11,2.15.4,2.56-.38-.02-.47-.54-.39-.76-.37-2.75.16-9.2-2.15-12.6-3.77-.4-.19-.89-.61-1.52-.93.4.21-1.38-.94-1.51-.03Z"/><path class="cls-4" d="m25.74,9.43c-1.24.48-3.32-.59-3.97.82-.2.43-.07,1.48-.19,2.16-.41,2.38-1.25,5.05-1.31,7.01-1.02-.21-2.02.23-3.05.28-1.24.06-2.54-.34-3.71.12-.72,1.4-.95,2.76-1.16,4.03-.56,3.37-.58,6.75-.89,9.94-2.53-1.79-2.12,1.63-2.4,3.29-.16.94-.4,1.75-.48,2.68-.32,4.26-.69,8.71-1.35,13.07-.4,2.62-.52,5.32-.81,7.83-.1.88-.01,1.7-.07,2.56-.43,6.27-.7,12.7-1.1,18.8.2.38.31.81.32,1.28.57.91,1.51,1.22,2.63,1.79,1.59.82,3.07,2.06,4.65,2.83.49.24,1.02.33,1.49.56.59.29,1.08.78,1.65,1.07.78.39,1.56.51,2.35.89,2.48,1.19,4.8,2.07,7.51,2.83.76.21,1.59.23,2.41.46,2.71.79,5.86,2,8.27,2.23.68-.64,1.39-.64,1.9-1.25.95-1.13,1.58-2.91,2.55-4.4,1.87-2.86,3.4-5.48,4.82-8.28.7-1.39,1.52-2.77,2.28-4.14.72-1.31,1.66-2.44,2.47-3.71,2.59-4.03,4.73-7.92,7.48-11.3,1.95-2.39,3.44-4.84,5.02-7.4.65-1.04,2.11-2.43.65-3.15.79-.95,1.35-2.05,1.98-3.36,1.25-2.59,2.84-5.21,3.87-7.65-.26-1.11-2.29-1.43-3.06-2.32.64-1.27,1.64-2.95,2.62-4.1.36-.42.96-.77,1.03-1.31.17-1.26-2.02-1.53-3.14-2.34.41-2.23,1.7-4.97,2.26-7.19.22-.88.57-2.82-.05-3.41-.55-.54-1.56-.61-2.32-.97-1.57-.74-3.52-1.51-5.15-2.21.35-1.24,1.34-2.77,1.04-3.72-1.17-.97-3.11-1.04-4.39-1.39-.56-.15-1.02-.44-1.36-.42-1.1.04-1.15,1.33-1.81,2.44-.58-.52-1.56-.85-2.17-1.36.78-2.54,1.94-4.23,2.97-6.21-.2-.6-.73-.9-1.62-1.15-1.56-.43-4.47-.57-6.12-1.06-.69-.2-1.58-.69-2.07-.42-1.06.57-.88,2.54-1.71,3.82-.79-.02-2.03.03-2.91-.11-.46-.08-.99-.4-1.37-.16-.92.58-.66,2.21-1.27,3.36-1.22-.44-2.6-.48-3.49-.69.24-.96.76-1.72,1.16-2.6.41-.89,1.29-2.6,1.08-3.34-.23-.79-1.43-.76-2.3-.78-1.87-.03-2.91.19-5.02-.2-.66-.12-2.15-.56-2.58-.26-1.21.86-1.22,3.65-1.48,4.62-.11.43-.39.97-.59,1.57Zm2.55,1.77c.07.01.06.06.05.11-1.07,7.64-2.38,15.55-4.62,23.63-.63,2.27-1.13,4.74-1.68,7.05-.87-.37-1.97-.63-2.52-1.13.41-.54.79-1,1.33-1.64.32-.37,1.39-1.27.73-1.69-.48-.31-1.19.76-1.5,1.13-.55.66-.78,1.1-1.23,1.59-.36-.27-.74-.53-.81-.93.03-.54.52-.69.83-1.03,1.05-1.15,1.8-2.73,2.74-3.7.42-.43,1.44-.86.78-1.58-.86.18-1.44,1.07-2.03,1.83-.61.78-1.15,1.68-1.78,2.36-.13-1.39,1.27-2.69,2.14-4.02.68-1.04,1.4-2.12,2.04-2.8.46-.48,1.27-.7,1.25-1.4-.09-.02-.13-.07-.12-.14-.73-.16-1.49.6-1.95,1.14-1.01,1.17-1.95,2.66-2.92,4.17-.14-.74.48-1.82.44-2.6,1.2-2.18,2.87-3.97,4.36-5.87.39-.49,1.35-1.3.77-2.03-.69-.1-.85.75-1.16,1.17-.88,1.22-2.27,2.49-3.17,3.9.32-2.71,2.17-5.45,3.72-7.26.35-.41,1.24-.69.79-1.4-.56-.14-1.13.42-1.46.79-.72.84-1.41,2.06-2.05,3.07-.11-.56.24-1.31.29-1.94-.09-.34.52-.14.63-.48.43-1.24,1.23-2.19,1.89-3.13.49-.69,1.48-1.39,1.04-2.29-.75.06-1.22.97-1.68,1.6-.5.68-.99,1.45-1.43,2.14-.01-2.63,1.18-5.81,1.45-8.57,1.61-.03,3.15-.21,4.84-.05Zm4.22,2.31c-1.17.65-2.13,1.79-3.17,2.73.06-2.25,2.45-2.59,3.49-4.04.22.29-.21.87-.31,1.31Zm-.45,1.44c-.48,1.87-2.22,2.18-3.13,3.56.35-1.67,2.12-2.41,3.13-3.56Zm.32-3.45c-.9.75-1.63,1.49-2.62,1.96.2-.56.19-1.03.22-1.53,1.28-1.41,2.79-2.34,4.23-3.41-.25,1.6-.9,2.19-1.84,2.97Zm-3.05,9.75c.08.17-.66.9-.87,1.37-.01-.55.6-.97.87-1.37Zm-14.69.09c1.83.28,3.65-.24,5.22-.09.07.01.06.06.05.11-.68,4.12-1.9,8.52-2.67,12.76-.25,1.35-.21,2.81-.87,3.96-1.02-.84-1.94-1.71-3.08-2.5-.26-4.42.45-9.28,1.35-14.23Zm-3.85,15.43c.55,1.18.8,2.49,1.07,3.8-.53-.3-.87-.68-1.63-.88.18-.97.43-1.97.57-2.92Zm-.61,3.97c1.59.43,2.52,1.72,2.61,3.04-.78-.56-1.73-1.03-2.64-1.53.06-.52.12-1.05.03-1.51Zm-.05,2.48c1.1.89,3.32,1.27,3.07,2.77-1.08-.61-2.22-1.2-3.24-1.85.14-.34-.05-.54.17-.92Zm-.16,2.09c1.43.54,2.44,1.27,3.44,2.01.09.67.18,1.35.32,2-1.27-.62-2.45-1.83-4.06-2.51.16-.53.11-.96.3-1.49Zm-.39,2.44c1.61.83,2.83,1.84,4.13,2.81.29.34.14.89.32,1.28-1.45-.66-2.71-1.97-4.74-2.59.09-.49.14-.97.29-1.5Zm4.63,5.5c-.09.28.09.44,0,.72-.61-.66-1.95-1.21-3.08-1.79-.66-.34-1.34-1.17-1.93-.55-.06-.41,0-.86.16-1.37,2.11.78,3.35,1.95,4.86,2.99Zm-5.11-1.39c1.43,1.19,3.8,1.96,5.14,3.19.03.57.08,1.13-.05,1.77-1.68-1.22-3.71-2.3-5.36-3.54.14-.5.13-.92.27-1.42Zm-.41,2.53c1.77.99,3.91,2.38,5.6,3.63-.12.51-.16.98-.19,1.45-1.07-1.38-3.19-2.28-5.54-3.07.08-.68.21-1.39.13-2Zm-.22,2.95c2.57.72,4.17,1.88,5.62,3.1-.09.78.05,1.45-.14,2.27-.97-.63-2.07-1.08-3-1.76-.83-.6-1.58-1.8-2.59-1.42.22.88,1.39,1.67,2.27,2.28.99.7,2.18,1.22,3.24,1.85-.09.33-.07.6-.17.92-2.37-.85-3.28-2.7-5.72-3.32.31-1.38.28-2.59.5-3.92Zm-.37,4.77c2.08,1.01,3.08,2.5,5.43,3.39-.06.61-.34,1.32-.47,1.97-1.51-1.11-2.52-2.45-5.09-3.08.03-.75.05-1.49.14-2.27Zm.35,16.84c-.26-.19-.35-.45-.77-.56-.19-.05-.26.18-.43.2-.14.53.33.8.75,1.09-.25.54-.63.8-.83,1.47-.24-1.23-.04-2.66.1-4.07.61.33,1.24.65,1.65,1.07.05.26-.34.52-.48.8Zm.96-1.61c-.68-.47-1.39-.93-2.17-1.35.12-.64.13-1.23.04-1.77.96.23,1.62,1.51,2.65,1.72.06.42-.44.84-.53,1.41Zm.61-2.18c-.86-.61-1.77-1.45-2.77-2.21.11-.59.04-1.19-.01-1.7,1.03,0,2.71,1.21,3.46,2.11-.23.6-.45,1.2-.68,1.8Zm1.03-2.74c-.77-.85-1.9-1.61-3.59-2.16.02-.81-.1-1.64-.09-2.45,2.08.42,3.43,2.39,4.36,2.81-.23.6-.45,1.2-.68,1.8Zm-3.28-5.43c.14-.61.02-1.09.09-1.66,2.63.45,3.27,2.43,5.1,2.82-.05.54-.21,1.13-.49,1.78-1.83-.82-2.45-2.52-4.7-2.94Zm29.45,26.39c-.29-.64-.08-1.39-.07-2.17,0-.66-.25-1.65,0-2.14.49-.97,3.28-1.22,3.87-2.2-1.08,2.01-2.61,4.27-3.8,6.52Zm4.56-7.57c-.18-.1-.31-.1-.42-.07-1.39.71-2.68,1.62-4.18,2.09.12-.53.03-.96.11-1.48,1.74-1.36,3.76-2.11,5.7-3.03.08.77-.98,1.45-1.21,2.49Zm1.9-3.39c-2.34.28-4.22,1.58-6.19,2.67-.17-.55.22-1.36.31-2.03,2.17-1.23,4.57-1.95,6.88-2.85-.05.8-.78,1.34-1.01,2.21Zm1.93-3.47c-2.57.86-5.06,1.91-7.6,2.85.16-.55.27-1.08.54-1.68,2.65-1.07,5.41-1.91,7.98-3.15-.04.69-.7,1.22-.92,1.98Zm1.74-3.01c-2.87.73-5.71,2.15-8.2,2.98.22-.6.45-1.2.68-1.8,2.87-1.82,5.89-2.12,8.8-3.29-.14.73-.94,1.32-1.28,2.11Zm2.11-3.4c-2.83,1.26-6.4,1.63-8.98,2.96.37-.71.69-1.53,1.09-2.18,2.09-.71,4.24-1.76,6.65-2.23.51-.1,2.16-.21,2.22-.68.13-.93-1.53-.36-1.95-.29-2.02.36-4.25,1.35-5.94,1.78.81-1.9,2.13-2.28,3.68-2.9,2-.8,4.29-1.33,6.4-1.79-.75,1.9-2.16,3.56-3.17,5.33Zm1.9-5.99c-2.09.4-4.39,1.12-6.16,1.88.61-.94,1.29-2,2.19-2.48.41-.22,1.17-.2,1.84-.38,1.72-.45,3.96-1.14,5.59-1.56-.65,1.92-1.8,2.22-3.46,2.54Zm4.07-3.2c-.19-.07-.18-.22-.44-.25-1.72.36-3.35.92-5.05,1.31,1.64-1.93,4.31-2.8,6.99-2.9-.48.67-1.02,1.19-1.5,1.85Zm2.77-3.33c-.96.83-2.4.51-3.55.89.72-.88,2.16-1.31,3.25-1.99.65-.41,1.07-1.23,1.79-1.2-.68.79-.85,1.74-1.49,2.3Zm9.34-18.37c-2.07,3.66-3.72,8.23-6.2,10.98-.78-.05-1.46.12-2.25.05,2.17-4,4.26-8.19,6.5-12.02.74.29,1.18.72,1.94,1Zm.44-8.05c-3.98,5.4-7.18,12.52-10.71,18.92-.76.51-1.87.26-2.77.48.33-.81,2.41-1.11,2.18-2.22-1.25-.36-2.08,1.41-3.29,1.62-.21.35.12.46.08.74-.55.01-1.06.14-1.64.09,1.76-1.45,3.81-2.83,5.57-4.6.49-.5,1.56-1.01,1.27-1.94-.82-.17-1.19.75-1.6,1.18-1.34,1.39-3.22,2.44-4.64,3.79.98-2.69,2.93-3.53,5.07-5.41.86-.75,2.27-1.9,3.1-2.76.31-.33.73-.93.26-1.15-.4-.19-1.41,1.01-1.61,1.18-1.56,1.37-3.05,2.6-4.52,3.92.49-1.63,2.33-2.92,3.49-4.05,1.3-1.26,2.49-2.24,3.35-3.2.16-.18,1.13-1.42.46-1.7-.51-.22-1.13,1.12-1.3,1.3-1.22,1.31-3.11,2.62-4.28,4.01.05-.62.59-1.37.89-1.89.12-.38.29.36.58.13,1.31-1.14,2.52-2.99,3.77-4.3.42-.45,1.58-1.03.97-1.87-.59-.09-.93.61-1.25.96-1.11,1.19-2.28,2.48-3.32,3.84,1.64-2.79,3.38-6.58,5.28-9.27,1.29.84,3.06,1.47,4.62,2.19Zm-.36-11.84c.31,2.46-1.62,5.92-2.25,8.8-.53-.15-.69-.47-1.19-.63.54-1.85,2.94-3.55,1.84-5.11.52-.34.96-1.11.42-1.36-.66-.31-.6.81-1.28.77-.1-.68.97-1.18,1.27-1.94-.61-1.31-1.62.85-2.22,1.4-.45-.1-.56-.35-.99-.46.43-.97,2.17-1.42,1.74-2.47-1.14.01-1.72,1.27-2.54,1.99-.41-.09-.58-.3-.91-.43.39-1.17,1.6-1.21,1.79-2.36,1.67.5,2.7,1.28,4.32,1.81Zm-6.7-2.62c.49,0,1.18.41,1.75.57-.67.69-1.44,1.12-1.96,2.12-.31-.14-.48-.35-.69-.53.26-.8.66-1.32.91-2.16Zm-1.92,3.92c.03-.11.07-.23.17-.2,1.53,1.12,3.73,1.94,5.39,3.01-4.86,7.81-9.29,16.46-13.73,25.02-.26.5-.76.94-1.01,1.5-1.2.03-2.82-.87-4.23-1.33,4.26-9.25,9.02-18.88,13.42-27.99Zm-1.71-9.22c1.22.31,2.38.48,3.62.83-.24,1.33-.95,2.59-1.46,3.65-4.06,8.27-8.07,16.48-11.95,24.8-.38.81-.93,1.48-1.31,2.28-.82,1.74-1.55,3.45-2.32,5.2-.45-.03-.94-.27-1.33-.5.5-.55,2.24-1.1,1.47-2.22-.43-.14-.65.25-.81.72-.53.27-.92.21-1.49,1.09-.34-.13-.24-.09-1.2-.45,0,0,.18-.49.26-.7.12-.31.53.13.65-.02,1.07-1.16,2.68-1.24,3.94-2,.01-.18-.14-.34-.16-.51-1.56-.34-2.77,1.03-3.9,1.12.11-.29.22-.57.33-.86.11-.29.61.14.75-.07.67-.64,2.15-1.67,3.12-2.22.46-.26,1.78-.42,1.1-1.19-1.6.19-2.8,1.25-4.04,2.23.71-2.68,3.2-2.68,4.59-4.34-.02-.18,0-.39-.16-.51-1.35.13-2.18,1.39-3.33,1.96-.03-.46.4-1.13.54-1.67,1.58-1.29,3.51-1.8,5.19-2.87.03-.21-.08-.35-.17-.51-1.68.16-2.95,1.22-4.43,1.81.61-1.58,1.75-2.01,2.99-2.72.79-.46,1.55-.97,1.95-1.14.36-.15.85,0,.97-.44.35-1.3-2.02.11-2.23.23-.89.5-1.58.9-2.4,1.15.68-2.33,2.86-2.88,4.66-3.6.56-.23,2.1-.58,1.4-1.35-1.81.29-3.33,1.25-4.94,1.98.95-2.2,3.37-2.59,5.18-3.32.46-.18,1.23-.41,1.13-1.09-.76-.24-1.72.33-2.53.65-.86.34-2.11.73-2.26,1.11.12-.31.24-.63.35-.94.1-.28.3-.09.48-.18,1.23-1.64,3.09-1.77,4.58-2.83-.02-.19-.04-.4-.19-.52-.83.08-1.69.37-2.42.69-.73.32-1.43.81-2.04,1.38.28-.81.36-1.74.77-2.3.44-.61,2.53-1.49,3.27-1.81.63-.26,1.42-.21,1.8-.75-.42-.99-1.59-.25-2.25.04-.84.37-1.65.9-2.23.95,2.2-3.31,4.77-5.81,6.46-10.25Zm-4.87.93c1,.25,1.28.79,2.05,1.13-.79,1.25-1.58,2.51-2.43,3.64.33-1.29.75-2.85-.15-3.36.18-.47.35-.94.53-1.41Zm-1.84,3.15c.13.07.17-.09.15.06-.62,1.81-.87,3.67-1.42,5.54-1.09,3.71-3.03,7.25-4.26,10.99-.33,1-1.01,1.96-1.5,3.01-1.1,2.32-1.7,5.05-2.72,7.2-.48,1-1.34,2.33-1.72,3.82-1.66-.67-2.91-1.4-4.56-2.08,2.11-4.36,4.28-10.12,6.25-15.33,1.75-4.65,3.51-9.31,5.22-13.85,1.02.17,2.88.17,4.56.65Zm-3.59-11.9c1.96.58,4.41.74,6.68,1.27-1.23,1.61-1.65,4.86-2.86,6.87-.48.81-1.91,1.69-2.84,1.61.52-.53,1.19-1.1,1.87-1.62.56-.44,1.67-1.02,1.19-1.97-.57-.21-.68.42-.98.7-.78.73-1.89,1.29-2.6,2.15.29-2.36,2.56-2.75,3.76-4.03-.02-.19-.01-.38-.16-.51-1.27-.08-1.93,1.18-2.9,1.77-.46-1.27,1.49-3.21.12-3.89-.71-.35-1.15.23-2.09-.16.27-.73.55-1.46.82-2.19Zm-.24,4.02c-.38,1.75-.62,3.44-1.18,5.27-.88.28-.76-.22-1.31-1.03-.27-.39-.7-.74-.86-1.04-.31-.56-.14-1.57-1-1.27-.42,1.86,1.36,2.63,1.86,4.19-.29.76-.57,1.51-.86,2.27-.68-1.08-.97-2.66-2.25-3.62-.11-.01-.2.08-.31.06-.44.69.33,1.12.6,1.57.57.96.78,2.22,1.55,3.08-.29.76-.57,1.51-.86,2.27-1.05-.11-.94-4.11-2.45-3.34-.16.69.5,1.07.75,1.62.4.91.45,2.13,1.29,2.81-.23.6-.46,1.2-.68,1.8-.07.18-.37-.65-.56-1.01-.42-.87-1.13-2.35-2.03-2.02.29,1.84,2.2,2.93,1.72,5.12-.36-.01-.63-.72-.91-1.15-.31-.48-.65-.96-.93-1.33-.79-.07-.75,1.16-.01,1.33.31.9.72,1.47,1.42,2.5-.19.5-.37.99-.56,1.48-.78-.82-1.02-1.64-1.42-2.5-1.14.15-.48,1.23-.18,1.72.37.61.35,1.21,1.25,1.72-.33.89-.67,1.77-1,2.66-.65-1.17-1.22-2.21-1.63-3.38-1.28-.11-.52,1.07-.32,1.49.3.6.46,1.37.88,1.67.14.22,0,.59.19.79.08.33.63.07.58.22-.16.42-.32.83-.47,1.25-.02.06-.63-.9-.86-1.4-.25-.56-.4-1.24-.86-1.58-.2-.03-.32.1-.48.18.24,1.49,1.1,2.79,1.72,4.04-.2.52-.39,1.04-.59,1.56-.03.08-.53-.75-.73-1.26-.31-.77-.43-1.7-1.34-2.2-.19-.04-.24.19-.4.21.54,1.64,1.42,3.14,1.87,4.82-.13.36-.27.73-.41,1.09-.08.21-.33-.4-.44-.61-.38-.74-1.02-1.69-1.43-2.42-.18-.02-.33.06-.49.08-.22,1.45,1.23,2.44,1.58,3.72.07.26.21.73.16.86-.31.81-.61,1.62-.92,2.42.1-.27-.96-1.73-1.16-2.49-.14-.53.08-1.54-.83-.94-.11,1.69.63,3,1.41,4.29-.85.48-.67-.93-1.13-1.05-.44-.11-.57.38-.64.74-.47-.05-1.35-.35-1.73-.65,4.23-11.84,8.29-23.6,11.71-35.07,1.87.11,3.65.04,5.64.43Zm-19.11,34.33c-.42-.16-.83-.32-1.25-.47.69-.83,1.5-1.38,2.22-2.11-.04,1.12-.99,1.49-.97,2.58Zm-2.19-.83c-.24-.09-.47-.18-.71-.27,1.73-2.62,3.57-3.88,5.29-5.96-.16,2.6-2.86,4.69-4.58,6.23Zm2.39-5.16c-1.03,1.15-2.17,2.19-3.04,3.32.14-2.69,1.93-4.19,3.57-5.89,1.24-1.29,2.27-2.39,3.46-3.25-.17,2.43-2.2,3.84-3.98,5.82Zm4.49-7.42c-2.18,1.69-4.22,3.67-6.16,5.9.5-2.92,2.23-3.8,3.81-5.35,1.19-1.17,2.16-2.24,3.24-3.15-.08.77-.63,1.75-.89,2.61Zm2.36-18.59c.91-.47,2.33.18,3.48.24-.98,4.53-2.78,9.58-4.42,14.33-2.14,1.29-3.88,3.47-5.81,5.22.91-2.96,3.38-4.62,5.21-6.25.42-.37,1.47-.85.99-1.68-1.03.22-1.69,1.16-2.48,1.84-.76.66-1.65,1.3-2.25,2.19.49-2.71,2.24-3.76,3.75-5.2.4-.39,2.52-2.01,1.63-2.43-.49-.23-1.61,1.22-1.91,1.51-.71.69-1.24,1.01-1.78,1.65.36-1.43,1.32-2.43,2.23-3.54.67-.83,1.31-1.74,1.94-2.31.32-.29.87-.33,1.01-.78.04-.17-.15-.23-.12-.4-1.79-.03-2.59,2.1-3.83,3.29.2-1.77,1.16-2.82,2.27-3.88.56-.54,1.52-.9,1.47-1.77-1.22-.32-1.67,1.08-2.5,1.65.25-1.17.58-2.38,1.12-3.68Zm-11.87,31.71c4.78,2.23,10.11,3.38,14.94,5.64,1.88.87,3.73,1.55,5.41,2.48.33.18.46.47.77.56.35.1.6-.2,1.04-.15,1.51.17,3.29,1.37,4.26,1.97-.81.84-1.3,2.34-.18,2.61.93.22,1.32-1.35,1.61-1.92,3.4-.33,6.78-.75,10.21-.55.05.02.1.04.16.06-.75.81-1.99,1.21-3.05,1.91-.38.26-.63.58-1.03.83-.9.56-1.89.9-2.79,1.48-2.15,1.36-4.12,3.34-6.34,4.73-1.34.84-2.87,1.73-3.96,3.4-1.34-.73-1.97,1.21-1.36,1.71-.5.9-1.18,1.4-1.63,2.42-2.01,1.16-2.1,4.9-3.51,7.16-.22.35-.62.5-.77.87-.18.45.05.69,0,1.16-.09.99-.58,2.03-.64,2.88-.28-.38-.81-.47-1.2-.36-.71.89-1.35,2.54-.16,2.8.49.11.82-.11,1.04-.86-.18,3.09-.36,6.18-.22,9.12-1.03-.13-2.26-.7-3.28-.79.83-1.53-1.53-2.1-1.64-.62-3.51-.86-7.56-1.84-11.39-3.67-.74-.35-1.57-.5-2.27-.85-.57-.28-1.02-.76-1.58-1.04-1.09-.54-2.24-.79-3.01-1.49,1.5-1.27-1.17-2.5-1.32-.77-1.07-.49-1.7-1.18-2.98-1.57,2.22-3.82,4.47-7.61,6.17-13.04.26-.08.38.43.7.53,1.57.47,1.57-3.47-.12-2.28-.14-.86.49-2.08.51-3.02.18.18.31.38.62.5,1.11.31,1.57-1.9.81-2.37-.44-.28-.75.05-1.13-.07.58-5.08.66-9.94-.21-14.38.03-.26.22-.18.26-.44-.52-.88-.47-1.81-.55-2.8-.24-2.95-1.86-5.69-2.11-8.39.7.41,1.34.95,2,1.56.71.66,1.24,1.33,2.2,1.99.68.47,1.3,1.27,1.97,1.64.95.52,2.39.78,3.76,1.42Zm3.86-13.55c-.05-.45.14-1.49.46-1.7.26.38-.37,1.16-.46,1.7Zm3.33-10c-.1-.27.4-.45.48-.8.15.39-.37.52-.48.8Zm-1.41.18c.31-1.24,1.77-2.38,2.67-3.28-.51,1.37-1.94,1.93-2.67,3.28Zm.22-15.73c2.43.5,4.69.61,6.76.32.04.5-.12,1.15-.4,1.55-.24.33-.66.29-1,.52-.32.2-.64.54-1.01.78-.92.6-2.07,1.55-2.92,2.3-.31-.21-.27-.57-.71-.72,1.24-1.27,2.86-1.7,4.04-3.12.01-.11-.09-.18-.07-.29-.6-.4-1.05.24-1.45.53-1.16.84-2.59,1.59-3.7,2.71-.29-.06-.5.05-.79-.03.64-1.61.4-2.82,1.26-4.53Z"/></g></svg>