<?xml version="1.0" encoding="UTF-8"?><svg id="Layer_2" xmlns="http://www.w3.org/2000/svg" viewBox="0 0 78.14 81.59"><defs><style>.cls-1{fill:#f26b5b;}.cls-2{fill:#ffd15b;}.cls-3{fill:#dfa826;}.cls-4{fill:#3a1312;}</style></defs><g id="Layer_15"><path class="cls-1" d="m58.31,17.16c.76-1.05,1.48-2.11,2.17-3.2-.85-1.28-1.82-2.92-2.16-4.76,1.64-2.57,2.36,2.84,3.48,3.65.5-.6,1.92-.72,2.6-1.23.41-3.34-2.34-7.16-4.59-8.13-3.38.52-4.79,2.56-5.89,4.17-1.2,1.75-2.82,3.51-3.72,5.25,3.15.58,4.93,3.74,8.12,4.24Zm-1.48-9.69c.21-.22.93-.7,1.16.08.08.29-.17.4-.46.49-.02.5-.28,1.06-.25,1.74.02.73.66,1.77-.24,2.08-.72-.75-.91-3.66-.21-4.4Zm-1.88,6.43c-.93-.27-1.65-.92-2.17-1.96.44-.86,2.83,1.24,2.17,1.96Z"/><path class="cls-1" d="m28.41,42.59c-.92,1.07-2.09,2.01-2.98,3.1.38,3.61,2.93,5.22,3.64,9.03,2.04-1.98,4.4-3.78,5.94-6.02-2.08-1.92-3.94-5.58-6.59-6.11Zm-.33,6.05c.42,1,1.25,1.86,1.72,3.06.02.06-.11.23-.04.45.08.25.62.68-.07.9-.4-.26-.76-.83-1.02-1.35-1.07-2.06-2.46-4.53-1.69-6.65.04-.09.2-.11.19-.23.24-.08.36.07.55.09.15,1.26-.22,2.36.36,3.74Z"/><path class="cls-1" d="m29.82,41.19c2.54,1.27,4.28,4.04,6.3,6.29,1.56-1.47,3.11-2.94,4.16-4.69-1.51-3.08-3.91-4.48-5.06-8.24-2.15,2.03-3.52,4.47-5.4,6.64Zm7.9,1.51c-.59,0-.54-.82-.71-1.18-.64-1.39-1.88-2.47-2.61-3.66.05-.46.57-.53.94-.37.37.87,1.4,1.85,1.97,2.72.46.72,1.3,2.12.41,2.49Z"/><path class="cls-2" d="m12.56,72.45c.53.36,1.34.66,2.04.95,1.63.67,2.71,1.17,4.96.49-.15-.62-.5-1.33-.49-1.86-3.87.18-6.84-4.96-6.28-9.36-.51-.57-.91-1.8-1.15-2.89-.17-.8-.4-1.85.03-2.19,1.15.26.55,2.35,1.35,3.26.72-1.3-.1-3.75-.73-5.81-.18-.59-.69-1.46-.04-1.83.95.07.5,2.28,1.11,2.98.08-.76.74-1.34.59-1.84-.21-.67-.49-1.61-.76-2.48-.24-.77-.56-1.98.36-2.21.77.65,1.04,2.48,1.54,3.64.3-.24.7-.28.91-.45-.36-.81-.34-1.87-.55-2.8-.21-.9-.93-1.96-.34-2.61.61-.04.67.73.83,1.23.45,1.4.69,2.88,1.07,4.04.35-.33.9-.64.96-1.17.21-1.78-2.05-5.01-1.26-6.52.86.11,1.15,1.33,1.43,2.27.33,1.06.66,2.16.93,3.04-.04-.13.67-.78.89-1.24-.28-.8-.86-1.56-1.23-2.51-.28-.72-.99-2.3-.28-2.45.74-.16.85,1.67,1.16,2.44.29.73.62,1.11.73,1.87.49-.28,1.25-.98,1.51-1.6-.35-.93-.45-1.77-.88-2.88-.27-.68-1.42-2.62-.52-2.81.69-.15.77,1.26.99,1.8.35.89.85,2.25,1.14,3.06.31-.5-.72-.36,1.08-1.38-.3-.98-.55-1.81-.93-3.04-.22-.71-1.05-2.63-.25-2.72.93-.1,1.14,3.84,1.75,4.18-.1-.97.92-1.35,1.31-2.06-.22-.35-.32-1.62-.53-2.63-.12-.55-.66-1.37.04-1.59,1.25.57.63,2.58,1.39,3.95.53-.07.94.08,1.54-.12-.12-.92-.49-1.88-.88-3.14-.22-.73-1.24-2.75-.42-2.84.64-.07.81,1.77,1,2.4.34,1.13.58,1.89.86,2.8-.05-.17.67-.78,1.05-1.11-.41-.82-.69-2.11-1.05-3.26-.33-1.08-1.09-2.41-.39-3.03,1.24.81,1.29,3.89,2.18,5.37.26-.55.87-.92,1.02-1.54-.45-1.16-.76-2.85-1.25-4.08-.13-.32-.89-1.27-.2-1.51.64-.23,1.06,1.27,1.23,1.72.41,1.1.6,2.12.93,3.04.32-.21.4-.55.63-.81-.09-.97-.63-2.05-1.03-3.09-.39-1-1.17-2.28-.48-3,.79.13.79,1.33,1.08,2.11.37.99.91,2.04,1.14,3.15.55-.29.81-.73,1.24-1.08-.07-.5-.49-1.14-.65-1.55-.33-.83-1.73-4.69-.97-4.86.96-.22,1.04,3.21,1.73,3.93-.07-.74.8-1.2.68-2.05-.13-1.01-1.53-2.81-1.87-3.54,1.32-1.07,1.79,1.56,2.39,2.68.35,0,.7-.5,1.1-.69-.2-.75-2.02-3.71-.99-3.81.76-.07,1.31,2.74,1.76,3.48.28-.02.54,0,.8.02-.12-.89-.48-1.84-.85-3.06-.23-.77-1.33-2.65-.63-2.87.7-.22.86,2,1.05,2.65.39,1.28.66,2.16.98,3.2-.16-.54,1.65-1.16,1.66-2.08,0-.88-.63-2.37-.96-3.47-.35-1.15-.62-2.58-.09-3.29.84.28,1.38,1.49,1.7,2.54.33,1.09.69,2.25.98,3.2-.1-.31.36-.77.56-1.31-.42-1.1-.89-2.55-1.38-3.78-.17-.44-1.08-1.52-.5-1.86.67-.39,1.14,1.44,1.3,1.87.44,1.13.53,2.04.88,2.96.38-.18.62-1,.95-1.43-.29-1.44-1.17-2.73-1.66-3.95-.19-.47-.68-1.68-.04-1.83.68-.15.77,1.25.96,1.72.4,1,1.09,2.06,1.38,3.07.61-.29.26-1.03.3-1.58.03-.42.31-.8.22-1.29-.14-.77-.88-1.71-1.21-2.51-.2-.48-.64-1.28.02-1.67.54.04.5.71.69,1.1.38.81.9,1.64,1.24,2.33.35-.53.82-.99,1.3-1.45-.23-.61-.32-1.21-.56-1.84-.46-1.17-1.7-2.32-.9-3.22.58-.06.55.61.74,1,.49,1,1.18,2.06,1.45,3.31.28-.34.69-1.2.94-1.78-.4-.78-.57-1.64-1.13-2.54-.17-.27-1.45-1.64-.36-1.73.41-.03,1.4,1.71,1.71,2.45.12.28.19.68.29.96.93-.67,1.73-1.98,2.3-3.06-.59-.29-.93-1.03-1.64-1.07.01,1,1.35,2.05.55,2.37-.83.33-1.08-1.41-1.47-2.52-1.07-.83-3.02.03-4.19.58-1.37.65-2.71,2.17-3.73,3.51-1.11,1.46-1.99,3.3-3.36,4.44-1.06,1.8-2.35,3.55-3.62,5.31-2.07,2.87-4.57,5.27-6.84,8.22-1.94,2.53-4.37,5.01-6.5,7.32-2.84,3.09-6.08,5.97-8.35,9.29-.81,1.19-1.78,2.21-2.49,3.3-1.05,1.62-1.68,3.04-2.26,4.89-1.05,3.35-1.54,6.81-.61,11.12.12.59.31,1.21.54,1.76,1.05,2.58,2.61,5.52,4.54,6.83Z"/><path class="cls-2" d="m40.84,44.9c-.82,1.32-2.2,2.36-3.18,3.6,1.28.51,3.59-.51,3.95-1.65-.29-.59-.3-1.7-.77-1.95Z"/><path class="cls-1" d="m25.41,58.46c.72-.75,1.26-1.6,2.19-2.25-.22-2.89-2.43-5.61-3.8-8.98-1.6,2.1-3.7,3.93-5.02,6.17,2.27,1.57,3.87,4.4,6.62,5.05Zm-1.03-6.22c.16-.05.32-.1.48-.15.22-.07,1.77,2.61.91,2.96-.71.28-1.56-2.76-1.39-2.81Z"/><path class="cls-2" d="m50.29,32.65c2.39-.52,3.03-2.32,2.48-4.17-.76,1.38-2.09,2.81-2.48,4.17Z"/><path class="cls-2" d="m62.61,14.36c-.11,2.11-.19,4.58-3.53,4.75-.9,1.52-2.27,2.69-3.15,4.29-.17.32-.18.76-.37,1.08-.5.83-1.46,1.32-1.45,2.11,0,.49.33.95.42,1.36.72,3.52-1.12,6.6-5.47,6.4-2.08,3.09-4.62,5.94-6.78,8.98.29,1.46,1.03,2.55,1.02,3.62-.03,2.56-4.81,4.2-6.97,2.92-.91,1.15-2.05,2.34-3.37,3.57-1.21,1.12-2.75,2.28-3.65,3.48-.34.45-.57,1.09-.91,1.59-.37.53-.69,1.15-1.23,1.43-.34.17-.97.15-1.3.31-.76.37-1.72,1.58-2.44,2.32-.83.86-1.52,1.75-2,2.62-.85,1.55-.92,3.75-.85,5.51.13,3.06,1.89,5.57,3.63,7.55.89.17,1.19,1.04,1.9,1.34,1.26.54,2.7.39,4.55,0,1.43-.3,2.62-.99,3.52-1.34.64-.25,1.27-.31,1.76-.54,1.34-.64,2.63-1.77,3.9-2.68,1.29-.93,2.59-1.82,3.8-2.74,1.26-.97,2.63-1.77,3.8-2.74,1.15-.96,1.92-2.27,3.04-3.21,4.78-3.99,8.5-8.65,11.69-12.94-1.1-1.2-1.39-3.93-2.16-5.9-.52-1.32-1.25-2.58-1.74-3.66-.27-.61-.89-1.5-.38-2.07.91.12.98,1.23,1.3,1.96,1.12,2.55,2.64,5.66,3.35,8.94.57-.57,1.32-1.62,1.78-2.47-1.06-2.48-2.37-5.61-3.59-7.73-.24-.42-1.7-2.23-.86-2.53.62-.23,1.58,2.02,1.77,2.34,1.19,2.05,2.24,4.68,3.27,6.96.37-.44,1.16-1.08,1.18-1.85.03-1.32-1.31-3.44-2.05-4.97-.27-.56-2.53-4.38-1.58-4.59.42-.09,1.08,1.45,1.25,1.8,1.21,2.39,2.13,4.29,3.04,6.76,1.56-1.5,1.89-3.4,2.56-5.33.73-2.11,1.78-3.87,2.24-6.11.57-2.78,1.06-5.67,1.01-8.7-.87.1-.82-.99-1.17-1.83-.29-.7-.81-1.5-1.19-2.17-.43-.76-1.19-1.46-.8-2.03.91-.04,1.36,1.08,1.8,1.9.48.88.91,1.93,1.36,2.73-.28-2.64-1.61-5.63-2.75-7.82-.71-1.37-1.37-2.7-2.04-3.22-1.19-.94-3.41-.59-5.17.54Zm-39.15,53.97c-.07.88.24,1.96.06,2.78.17.56.45,1.17,0,1.4-1.15-.22-.8-1.78-.96-2.85-.08-.57.02-1.27.12-1.61.59-1.98,2.49-3.72,3.33-5.39.33-.16.49,0,.66.15-.2,1.54-1.53,2.57-2.34,3.78-.38.57-.34,1.27-.86,1.75Zm5.01,8.94c.04.72.18,1.24-.27,1.67-.82-.09-.72-1.23-.75-1.86-.05-1.25,0-2.09-.53-3.71-.08-.2.19.19.31.15.1-.03.21-.07.32-.1.61-.19.85,2.46.92,3.85Zm2.6-1.21c.06,1.03.19,2.42-.67,2.66-.61-.72-.15-1.72-.23-2.73-.12-1.59-.85-3.26-1.2-5.05.12-.04.24-.4.38-.2.63.09.66,1.02.83,1.58.41,1.33.82,2.53.89,3.75Zm-2.77-15.59c.18-.28.65-.06.71.31-.06.77-1.38.21-.71-.31Zm4.83,14.61c.12.86.6,2.19-.25,2.61-.74-.7-.57-1.89-.72-2.93-.15-1.03-.29-2.17-.55-3.24-.23-.92-.68-1.85-.78-2.82.04-.25.38-.29.62-.28.92,2.15,1.41,4.6,1.69,6.65Zm2.72.04c.09.56.4,1.45-.39,1.61-.74-.25-.36-.81-.42-1.36-.24-2.25-1.6-5.56-2.06-7.85-.15-.3.23-.32.49-.41,1.14,2.04,1.97,5.58,2.37,8.02Zm1.27-4.41c.28,1.21.48,1.84.59,3.05.06.7.22,1.57-.28,1.66-.87.16-.62-2.32-.77-3.08-.36-1.78-1.04-4.14-1.47-5.93,0-.13.07-.23.17-.31,1.08-.33,1.44,3.21,1.76,4.62Zm2.96,1.1c.11.7.6,1.81-.34,2.03-.66-.92-.48-2.34-.81-3.78-.48-2.09-1.75-4.18-1.89-6.15.3-.1.2-.16.48-.15.65.54.68,1.55,1.02,2.48.67,1.85,1.23,3.71,1.53,5.56Zm-5.93-16.19c-.8.83-1.4,1.78-2.38,2.48-.24-.06-.39-.27-.46-.65.96-1.01,2.39-2.71,3.42-3.67.13-.12.56-.19.8.02.07.86-.87,1.3-1.37,1.82Zm8.21,14.8c.23.85.54,2.14,0,2.27-.7.18-.61-1.04-.7-1.44-.5-2.25-1.92-5.57-2.35-7.94-.07-.2.05-.29.14-.39.73-.38.96,1.14,1.25,2.07.58,1.91,1.14,3.45,1.67,5.43Zm1.51-3.35c.15.65.38,1.44-.12,1.88-.86-.11-.54-.74-.68-1.37-.25-1.13-.85-2.78-1.35-4.4-.48-1.56-1.18-3.42-1.12-4.22.04-.09.11-.15.21-.17.05-.02.11-.03.16-.05.56-.17,1.12,2.52,1.57,4,.47,1.53,1.04,3.06,1.33,4.34Zm1.96-2.17c.17.9.61,2.73.11,2.94-.83.34-.82-1.9-.89-2.35-.45-2.61-1.49-6.26-2.41-8.71.12-.04.24-.4.38-.2.48.1.9,1.12,1.12,1.67.79,1.95,1.33,4.76,1.69,6.65Zm2.35-1.76c.2.87.5,1.98.11,2.63-.94-.13-.73-1.29-.92-2.15-.56-2.57-1.93-5.96-2.71-7.72-.08-.2,0-.42.12-.45.13-.04.27-.08.4-.12,1.18,1.75,2.4,5.12,3.01,7.81Zm2.97.83c.1.48.34,1.25-.33,1.5-.7-.21-.48-1.13-.62-1.73-.74-3.29-2.55-6.91-3.49-9.68.18-.29.38-.2.72-.22.54.45.57,1.18.88,2,.89,2.38,2.33,5.7,2.84,8.13Zm1.56-3.19c.05.41.09,1.08-.58,1.23-.55-.38-.3-1.09-.46-1.78-.17-.74-.42-1.56-.71-2.32-.82-2.17-2.09-4.26-2.53-5.96.3-.1.2-.16.48-.15.94,1.09,1.87,3.21,2.65,5.22.47,1.2,1.01,2.67,1.15,3.76Zm1.48-.02c-1.05-.26-.9-1.87-1.15-2.88-.73-3.04-2.37-6.38-3.53-8.36.52-1.22,1.76,1.12,2.27,2.28,1.02,2.28,1.83,5.16,2.41,7.57.14.58.57,1.09,0,1.4Zm1.91-1.46c-.77.07-.82-.96-.99-1.53-.6-1.96-1.22-4.54-1.98-6.47-.47-1.19-1.32-2.03-1.41-2.89,0-.13.06-.23.17-.31.7-.15,1.73,1.96,2.15,3.01.72,1.83,1.34,4.36,1.96,6.39.19.62.65,1.4.11,1.8Zm-7.59-19.36c-.79.95-1.67,1.87-2.34,2.64-.05.06-1.21,2.13-1.69,1.04-.15-.35.69-1.26,1.13-1.74,1.25-1.39,3.07-3.53,3.87-4.77.16-.24.54-.48.85-.09-.19,1.06-1.06,2.01-1.82,2.92Zm9.52,17.37c-.71.28-1.23-2.31-1.43-2.97-.43-1.41-.6-2.31-1.08-3.52-.65-1.59-1.71-2.9-1.94-4.04.41-1.16,1.29.65,1.66,1.41.85,1.74,1.54,3.62,2.24,5.87.31,1.01,1.15,3.01.56,3.24Zm2.03-1.93c-.65.04-1-2.23-1.23-2.86-.38-1.09-1.07-2.67-1.72-4.19-.65-1.52-1.63-2.98-1.75-4.01,0-.13.06-.23.17-.31.55-.26,1.34,1.67,1.69,2.37.97,1.96,1.64,3.76,2.49,6.14.28.79,1.29,2.81.35,2.87Zm2.14-36.68c.14-.1.38-.2.55.09.62,1.1-1.53.58-.55-.09Zm-4.49,7.32c-.5.53-1.05,1.38-1.75,1.15-.19-.79.63-1.25,1.05-1.72.44-.5.87-1.07,1.39-1.47.56-.51.9-1.55,1.43-2.19.28-.34,1.16-.97,1.44-.44.22.41-.42.69-.66.99-.78.95-1.84,2.55-2.89,3.68Zm10.27,17.83c-.69.28-1.13-1.29-1.36-1.86-.81-2.04-1.81-4.24-2.82-5.78.69-1.21,1.45.64,2.04,1.82.65,1.31,1.08,2.28,1.66,3.69.27.67,1.03,1.66.48,2.13Zm1.02-2.67c-.82.03-.71-.75-.9-1.21-1.01-2.46-2.58-4.77-3.54-7.57,0-.13.06-.23.17-.31.22-.13.32,0,.5-.07,1.04,2.28,2.36,4.76,3.48,7.07.3.62.83,1.49.29,2.1Zm1.19-4.39c.16.68.54,1.67-.29,1.92-.65-.78-.72-2.46-1.28-3.89-.46-1.19-1.04-2.35-1.64-3.35-.6-1-1.47-1.9-1.51-2.95.62-.54.91.41,1.25.93,1.21,1.88,2.79,4.33,3.47,7.33Zm.77-2.33c-.67.13-.65-.63-.85-1.05-1.21-2.64-2.97-5.69-3.97-8.4.15-.1.17-.27.43-.31,1.12,1.14,1.71,3.09,2.61,4.8.41.78.82,1.69,1.21,2.52.36.77,1.19,1.7.57,2.45Zm1.1-3.83c-.92.68-1.08-.68-1.29-1.35-.85-2.78-1.98-4.73-3.12-6.74.16-.07.09-.26.25-.34.46-.23,1.3,1.21,1.72,1.92.99,1.66,2.11,4.53,2.44,6.51Zm-6.54-15.92c.89-.09,2.44.55,1.69,1.23-.62.04-1.1-.2-1.6-.38-.51.28-1.68,1.4-2,.61-.18-.45,1.17-1.39,1.91-1.46Z"/><path class="cls-1" d="m23.76,59.93c-.16-.4-.68-.51-1.02-.74-1.71-1.17-3.21-3.1-4.92-4.35-.08.02-.11-.04-.18-.03-.39.71-2.24,3.11-2.14,4.15.14,1.44,3.51,4.86,1.56,5.38-.81.22-.86-.59-1.24-1.19-.41-.66-1.03-1.21-1.23-1.72-.83,3.24.83,8.88,4.38,8.88-.66-4.66,1.78-7.66,4.78-10.38Zm-4.5-2.99c.81.7,1.24,2.12,2.02,2.88-.12.11-.04.33-.22.42-1.11.08-1.43-1.35-2.01-2.27-.19-.23-.63.01-.79-.28-.29-.68.54-.81,1-.74Zm-2.63,9.11c-.72-.2-2.36-2.04-1.16-2.09.87-.04.95,1.53,1.85,1.18.35-.13.51-.63.99-.48.57.96-.62,1.68-1.67,1.39Z"/><path class="cls-1" d="m36.63,33.16c-.01.53.37,1.31.51,1.68,1.01,2.59,3.1,4.23,4.28,6.56,2.01-2.35,4.3-5.12,5.98-7.87-2.42-1.71-4.14-4.71-7.25-5.12-.57.69-1.05,1.49-1.86,2.49-.58.72-1.66,1.73-1.67,2.26Zm5.72-2.45c1.15.6,2.41,2.44,3.07,3.43-.1.08-.16.18-.17.31-.94.29-1.31-.91-1.76-1.47-.61-.74-1.27-1.42-2.1-1.72-.4.08-.79.13-1-.13.07-1.13,1.39-.73,1.97-.43Z"/><path class="cls-1" d="m55.57,21.06c.55-.81,1.19-1.52,1.62-2.42-1.12-.11-1.73-.87-2.61-1.39-.47-.28-.84.16-1.27-.15-1.09-.79-2.01-1.76-3.39-1.34-.05.02-.11.03-.16.05-1.09.33-1.79,1.92-2.4,3.29,1.46,3,3.59,4.25,5.59,6.25,1.11-1.28,1.72-2.98,2.62-4.29Zm-5.83-1.62c-.17-.38-.51-1.19.3-1.32.27.16.45.49.56.97.64,1.2,2.5,1.28,2.63,2.6-.5.43-1.27-.31-1.89-.73-.6-.41-1.37-1.01-1.6-1.52Z"/><path class="cls-2" d="m37.52,28.34c-.16.47-.91.99-.49,1.55.15-.48,1.04-.92.49-1.55Z"/><path class="cls-1" d="m41.3,27.01c2.98.53,4.71,3.4,7.07,5.09,1.3-1.77,2.26-3.71,3.67-5.41-2.04-2.13-4.29-3.84-6.03-6.55-1.35,2.41-3.28,4.5-4.72,6.86Zm6.06,3.22c-.27.14-.41.03-.61.01-.2-.31-.05-.15.05-.43-1.02-.97-2.75-1.66-2.65-3.8.13-.04.26-.08.4-.12.37-.11.31.44.51.79.57,1.03,1.5,1.58,2.2,2.33-.32.63.46.64.11,1.22Z"/><path class="cls-3" d="m66.51,23.47s-.03,0-.05-.01c-1.93,6.29-4.38,12.28-7.68,17.81-2.67,3.57-5.7,6.92-8.57,10.23-1.01,1.17-1.98,2.4-2.93,3.65-2.77,2.45-5.69,4.73-8.46,7.18-2.37,2.09-4.21,5.14-6.66,7.27-.56-.09-1.16.04-1.57.43-.51.48-.83.87-1.09,1.32-.28.13-.57.24-.87.34-1.58.51-1.3,2.68.33,2.83.02,0,.05,0,.07,0,.55,1.01,1.83,1.65,2.99,1.4,8.93-1.97,14.4-10.54,19.68-17.67,1.18-.99,2.33-2,3.43-3.08,4.66-4.57,8.25-10.12,11.26-15.87,2.39-4.56,5.23-10.57,3.93-15.79-.53-2.13-3.2-1.78-3.81-.04Z"/><path class="cls-3" d="m48.38,7.27c-3.04.31-4.97,5.52-6.3,7.71-3.38,5.57-7.51,10.94-11.59,16.01-5.74,7.14-15.34,14.09-17.4,23.47-.12.57.6,1.13,1.05.63,3.16-3.51,5.82-7.43,9.08-10.89,3.3-3.5,6.74-6.83,9.87-10.48,3.32-3.87,6.22-8.13,9.15-12.3,2.77-3.96,6.13-8.24,6.88-13.16.07-.45-.19-1.06-.75-1Z"/><path class="cls-4" d="m48.64.45c-.42-1.16-3.57.19-2.22,1.03.68-.66,1.97-.28,2.22-1.03Z"/><path class="cls-4" d="m44.6,3.53c2.28-1.01,4.51-1.33,5.86-.83.35.13.79.71,1.21.24.2-.37-.16-.78-.37-.93-.2-.14-1.22-.42-1.81-.49-1.93-.24-5.16,1.15-6.63,2.03-.48.29-1.2.6-1.06,1.11.96.54,1.85-.7,2.8-1.12Z"/><path class="cls-4" d="m55.31,2.25c.78-.5,2.03-1.18,2.97-1.17.69,0,1.26.89,1.98.18-.35-1.02-1.38-.77-2.09-1.11-.93.21-2.08.67-2.51.94-.73.47-1.91.77-1.97,1.57.63.66,1.21-.15,1.62-.41Z"/><path class="cls-4" d="m10.2,72.74c2.84,1.92,5.59,4,10.11,2.76.49,1.52,1.48,2.58,2.27,3.41.27.28.51.68.69.84.19.17.61.27.94.5.33.24.56.56.83.71,2.47,1.34,6.1.36,9.57-1.01.51-.2,1.09-.26,1.68-.51,1.03-.45,2.32-1.38,3.52-2.22,2.21-1.54,4.09-3.19,6.14-4.51,1.1-.7,2.12-1.4,2.96-2.04.86-.66,1.38-1.87,2.1-2.57.98-.95,2.1-1.66,3.05-2.6.91-.9,1.79-1.83,2.63-2.82,1.66-1.95,3.49-3.74,5.06-5.75.74-.94,1.35-2.08,2.11-3.1,1.52-2.06,2.96-4.08,4.22-6.19.67-1.11,1.52-2.12,2.01-3.15.34-.72.44-1.82.72-2.76.39-1.23,1.23-2.35,1.68-3.66.53-1.55.92-3.52,1.32-5.39.19-.91.21-1.96.23-2.96.02-1.03.22-2.04.23-2.96.04-3.5-1.24-7.22-2.97-10.54-1.45-2.77-2.6-4.5-5.15-4.81.07-2-.89-4.93-2.25-6.74-.66-.88-2.91-2.89-3.87-2.92-.97-.04-3.07.7-3.95,1.12-1.36.65-2.02,2.11-3.05,2.86-.62-.29-1.04-.95-1.69-1.23-.63-.27-2.45-.7-3.1-.71-1.17-.03-3.3.89-4.21,1.38-2.17,1.16-3.43,3.35-4.75,5.04-.53.68-.99,1.49-1.59,2.23-.88,1.1-1.51,2.1-2.35,3.17-.56.7-1.11,1.42-1.61,2.16-2.02,2.95-4.59,5.53-6.79,8.38-1.12,1.45-2.21,2.89-3.54,4.14-2.6,2.45-4.93,5.41-7.52,7.99-1.27,1.27-2.49,2.65-3.56,4.07-1.44,1.91-2.94,3.92-4.06,5.88-.32.57-.79,1.06-1.02,1.54-.83,1.77-1.49,4.6-1.75,6.83-.08.64-.28,1.28-.31,1.84-.28,4.93,2.18,10.83,4.99,14.3Zm8.79-2.43c-3.55,0-5.21-5.65-4.38-8.88.2.51.81,1.06,1.23,1.72.38.61.43,1.41,1.24,1.19,1.95-.52-1.42-3.94-1.56-5.38-.1-1.04,1.75-3.44,2.14-4.15.07,0,.1.06.18.03,1.71,1.25,3.21,3.18,4.92,4.35.33.23.85.34,1.02.74-2.99,2.72-5.44,5.72-4.78,10.38Zm-.2-16.9c1.31-2.25,3.42-4.08,5.02-6.17,1.38,3.37,3.58,6.09,3.8,8.98-.93.64-1.47,1.49-2.19,2.25-2.76-.66-4.36-3.48-6.62-5.05ZM67.78,13.82c.67.53,1.33,1.86,2.04,3.22,1.13,2.18,2.47,5.17,2.75,7.82-.46-.8-.88-1.85-1.36-2.73-.44-.81-.89-1.93-1.8-1.9-.39.57.37,1.27.8,2.03.38.67.89,1.47,1.19,2.17.35.84.3,1.93,1.17,1.83.05,3.03-.44,5.92-1.01,8.7-.45,2.24-1.51,4-2.24,6.11-.67,1.93-1,3.83-2.56,5.33-.91-2.47-1.83-4.37-3.04-6.76-.18-.35-.83-1.89-1.25-1.8-.95.21,1.31,4.03,1.58,4.59.73,1.53,2.08,3.65,2.05,4.97-.02.76-.81,1.41-1.18,1.85-1.03-2.28-2.08-4.91-3.27-6.96-.18-.32-1.15-2.57-1.77-2.34-.84.3.62,2.11.86,2.53,1.22,2.12,2.53,5.25,3.59,7.73-.45.85-1.21,1.9-1.78,2.47-.71-3.28-2.23-6.39-3.35-8.94-.32-.73-.4-1.84-1.3-1.96-.51.57.11,1.46.38,2.07.48,1.08,1.22,2.34,1.74,3.66.77,1.96,1.05,4.7,2.16,5.9-3.18,4.29-6.9,8.94-11.69,12.94-1.12.94-1.89,2.25-3.04,3.21-1.17.97-2.53,1.77-3.8,2.74-1.2.92-2.51,1.81-3.8,2.74-1.27.91-2.55,2.05-3.9,2.68-.49.23-1.12.29-1.76.54-.9.35-2.1,1.05-3.52,1.34-1.85.38-3.29.53-4.55,0-.71-.31-1-1.17-1.9-1.34-1.74-1.98-3.5-4.48-3.63-7.55-.07-1.75,0-3.96.85-5.51.48-.87,1.16-1.76,2-2.62.71-.74,1.68-1.95,2.44-2.32.33-.16.96-.14,1.3-.31.54-.27.86-.89,1.23-1.43.34-.5.57-1.14.91-1.59.9-1.2,2.44-2.36,3.65-3.48,1.32-1.22,2.46-2.42,3.37-3.57,2.16,1.28,6.94-.36,6.97-2.92.01-1.07-.73-2.17-1.02-3.62,2.16-3.05,4.7-5.89,6.78-8.98,4.35.2,6.19-2.88,5.47-6.4-.08-.41-.41-.87-.42-1.36,0-.79.96-1.28,1.45-2.11.19-.32.2-.76.37-1.08.87-1.6,2.24-2.76,3.15-4.29,3.34-.18,3.42-2.64,3.53-4.75,1.76-1.12,3.98-1.48,5.17-.54Zm-29.48,17.08c.81-1.01,1.28-1.8,1.86-2.49,3.11.41,4.84,3.42,7.25,5.12-1.68,2.75-3.97,5.52-5.98,7.87-1.19-2.33-3.27-3.97-4.28-6.56-.15-.37-.53-1.15-.51-1.68,0-.53,1.09-1.54,1.67-2.26Zm-.78-2.56c.55.63-.34,1.07-.49,1.55-.42-.56.33-1.08.49-1.55Zm14.53-1.66c-1.41,1.7-2.38,3.65-3.67,5.41-2.36-1.69-4.09-4.57-7.07-5.09,1.43-2.36,3.37-4.46,4.72-6.86,1.73,2.7,3.99,4.42,6.03,6.55Zm-4.68-7.59c.61-1.37,1.31-2.96,2.4-3.29.05-.02.11-.03.16-.05,1.38-.42,2.3.55,3.39,1.34.43.31.89.18,1.37.46.88.52,1.45,1.12,2.56,1.23-.43.9-1.09,1.54-1.64,2.34-.9,1.31-1.52,2.97-2.63,4.25-2-2-4.14-3.29-5.6-6.29Zm5.41,9.37c.54,1.85-.09,3.66-2.48,4.17.39-1.36,1.72-2.79,2.48-4.17Zm-11.16,18.37c-.36,1.14-2.67,2.16-3.95,1.65.98-1.24,2.36-2.27,3.18-3.6.47.24.48,1.36.77,1.95Zm-1.33-4.05c-1.05,1.74-2.6,3.22-4.16,4.69-2.02-2.24-3.76-5.02-6.3-6.29,1.88-2.17,3.25-4.61,5.4-6.64,1.15,3.76,3.55,5.16,5.06,8.24Zm-5.27,5.9c-1.53,2.24-3.9,4.04-5.94,6.02-.72-3.8-3.26-5.41-3.64-9.03.9-1.09,2.06-2.03,2.98-3.1,2.66.53,4.52,4.19,6.59,6.11ZM53.91,7.67c1.1-1.6,2.51-3.65,5.89-4.17,2.26.97,5,4.78,4.59,8.13-.67.51-2.09.63-2.6,1.23-1.12-.81-1.84-6.23-3.48-3.65.33,1.84,1.31,3.47,2.16,4.76-.68,1.09-1.41,2.15-2.17,3.2-3.19-.5-4.97-3.66-8.12-4.24.91-1.74,2.53-3.5,3.72-5.25ZM7.48,63.87c-.92-4.31-.44-7.77.61-11.12.58-1.85,1.21-3.27,2.26-4.89.71-1.09,1.67-2.11,2.49-3.3,2.26-3.32,5.51-6.21,8.35-9.29,2.12-2.31,4.56-4.8,6.5-7.32,2.26-2.95,4.76-5.34,6.84-8.22,1.28-1.76,2.56-3.51,3.62-5.31,1.37-1.14,2.25-2.98,3.36-4.44,1.02-1.34,2.37-2.86,3.73-3.51,1.17-.55,3.13-1.41,4.19-.58.39,1.11.65,2.85,1.47,2.52.8-.32-.53-1.36-.55-2.37.71.05,1.05.79,1.64,1.07-.57,1.08-1.37,2.39-2.3,3.06-.1-.28-.17-.67-.29-.96-.31-.74-1.3-2.48-1.71-2.45-1.09.09.19,1.46.36,1.73.55.89.73,1.76,1.13,2.54-.26.58-.66,1.43-.94,1.78-.28-1.26-.96-2.31-1.45-3.31-.19-.39-.15-1.05-.74-1-.8.9.43,2.05.9,3.22.25.63.33,1.23.56,1.84-.49.46-.96.92-1.3,1.45-.34-.69-.86-1.53-1.24-2.33-.19-.39-.14-1.06-.69-1.1-.66.38-.21,1.19-.02,1.67.33.8,1.07,1.74,1.21,2.51.09.49-.19.87-.22,1.29-.04.55.31,1.29-.31,1.58-.28-1.01-.98-2.08-1.38-3.07-.19-.47-.28-1.86-.96-1.72-.64.14-.15,1.35.03,1.83.48,1.22,1.36,2.52,1.65,3.96-.33.43-.58,1.25-.96,1.43-.35-.92-.47-1.82-.91-2.96-.17-.43-.68-2.25-1.35-1.86-.58.34.23,1.44.4,1.89.48,1.23,1.15,2.61,1.57,3.71-.2.54-.66,1-.56,1.31-.29-.95-.65-2.11-.98-3.2-.32-1.05-.82-2.28-1.66-2.55-.54.72-.02,2.07.33,3.22.34,1.1.79,2.64.78,3.52,0,.92-1.92,1.57-1.76,2.11-.32-1.04-.59-1.92-.98-3.2-.2-.65-.36-2.86-1.05-2.65-.69.21.31,2.13.55,2.89.37,1.22.78,2.16.89,3.05-.25-.03-.49-.05-.77-.03-.46-.74-1-3.55-1.76-3.48-1.03.09.8,3.06,1,3.81-.4.18-.75.69-1.1.69-.61-1.11-1.07-3.75-2.39-2.68.34.72,1.74,2.52,1.87,3.54.11.84-.75,1.31-.68,2.04-.69-.72-.77-4.15-1.73-3.93-.76.18.64,4.03.97,4.86.16.41.58,1.05.65,1.55-.44.35-.69.79-1.24,1.08-.23-1.11-.77-2.16-1.14-3.15-.29-.78-.3-1.98-1.08-2.11-.69.71.09,2,.48,3,.41,1.04.95,2.13,1.03,3.09-.23.26-.31.6-.63.8-.33-.91-.53-1.93-.93-3.04-.17-.46-.59-1.95-1.23-1.72-.69.25.07,1.2.2,1.51.49,1.23.8,2.92,1.25,4.08-.15.61-.75.98-1.02,1.54-.89-1.48-.93-4.56-2.17-5.37-.7.62.07,1.95.4,3.02.35,1.15.6,2.45,1.01,3.28-.38.33-1.11.94-1.05,1.11-.28-.9-.51-1.67-.86-2.8-.19-.63-.36-2.48-1-2.4-.81.09.17,2.12.39,2.85.38,1.26.77,2.22.89,3.14-.6.21-1,.05-1.53.12-.76-1.37-.13-3.39-1.38-3.95-.7.22-.15,1.04-.04,1.59.22,1.02.32,2.28.55,2.63-.39.71-1.4,1.09-1.29,2.06-.61-.34-.85-4.28-1.78-4.18-.81.09.03,2.01.25,2.72.38,1.23.63,2.06.93,3.04-1.8,1.02-.77.88-1.08,1.38-.29-.82-.82-2.16-1.17-3.05-.21-.54-.28-1.95-.97-1.8-.9.2.26,2.13.52,2.81.43,1.11.53,1.94.88,2.88-.26.62-1.03,1.32-1.52,1.6-.12-.76-.45-1.13-.75-1.87-.31-.77-.44-2.6-1.18-2.44-.71.15-.05,1.74.23,2.47.37.95,1.04,1.68,1.33,2.48-.23.46-.94,1.11-.89,1.24-.27-.88-.61-1.98-.93-3.04-.29-.94-.58-2.16-1.43-2.27-.79,1.51,1.57,4.71,1.36,6.49-.06.52-.65.85-1,1.18-.38-1.16-.64-2.63-1.09-4.04-.16-.51-.22-1.28-.83-1.23-.59.65.14,1.7.35,2.61.22.93.23,1.98.59,2.79-.2.17-.53.19-.83.43-.5-1.16-.93-2.94-1.7-3.59-.92.23-.6,1.44-.36,2.21.27.87.55,1.81.76,2.48.15.5-.5,1.08-.59,1.84-.61-.71-.31-2.87-1.26-2.94-.65.37-.07,1.21.11,1.8.63,2.06,1.49,4.49.77,5.8-.79-.91-.18-3.01-1.33-3.26-.42.35-.19,1.39-.02,2.19.24,1.09.64,2.31,1.15,2.88-.57,4.39,2.41,9.53,6.28,9.35-.01.53.33,1.25.49,1.86-2.25.68-3.33.18-4.96-.49-.7-.29-1.51-.59-2.04-.95-1.93-1.3-3.49-4.25-4.54-6.83-.23-.55-.41-1.17-.54-1.76Z"/><path class="cls-4" d="m57.27,9.78c-.02-.67.23-1.24.25-1.74.29-.09.54-.21.46-.49-.23-.78-.95-.3-1.16-.08-.7.74-.51,3.65.21,4.4.9-.31.26-1.35.24-2.08Z"/><path class="cls-4" d="m17.64,33.39c1.01-1.22,2.31-2.11,3.57-3.19.81-.69,1.51-1.58,2.33-2.38,2.29-2.23,5.04-4.64,6.97-6.94.48-.57.91-1.38,1.4-2,.45-.58,1.53-1.24,1-2.14-.12-.06-.31,0-.51.07-1.89,2.94-4.47,5.38-7.09,7.94-.56.54-.97,1.18-1.58,1.71-.62.54-1.18,1.1-1.76,1.68-1.67,1.67-3.4,3.01-4.82,4.54-.35.37-1.03.85-.49,1.55.6.16.73-.53.97-.82Z"/><path class="cls-4" d="m54.95,13.91c.66-.72-1.73-2.82-2.17-1.96.52,1.04,1.25,1.69,2.17,1.96Z"/><path class="cls-4" d="m23.97,24.37c1.15-.92,2.3-2.14,2.44-3.46-.14-.16-.33-.22-.58-.17-.73,1.12-1.4,2.15-2.56,3.06-.66.52-1.74,1.09-1.4,2,.79-.04,1.41-.88,2.1-1.43Z"/><path class="cls-4" d="m53.23,21.69c-.14-1.32-1.99-1.41-2.63-2.6-.11-.47-.28-.81-.56-.97-.81.13-.47.94-.3,1.32.23.51,1,1.11,1.6,1.52.62.42,1.39,1.16,1.89.73Z"/><path class="cls-4" d="m63.6,16.15c.31.78,1.49-.34,2-.61.51.18.98.42,1.6.38.75-.68-.8-1.32-1.69-1.23-.74.08-2.09,1.01-1.91,1.46Z"/><path class="cls-4" d="m71.42,12.88c-.26.49.31.68.56.97,1.95,2.24,3.7,7.12,3.91,10.78.1,1.56-.21,3.4-.38,5.02-.09.82-.13,1.7-.2,2.51-.03.36.05.88.05,1.3,0,.36-.48.98.29.96.84-.09.4-1.09.45-1.97.03-.6.16-1.24.2-1.9.05-.62.13-1.25.2-1.9.13-1.13.34-2.56.28-3.93-.14-3.05-1.5-7.39-3.04-9.91-.6-.99-1.6-2.66-2.33-1.91Z"/><path class="cls-4" d="m62.74,18.78c-.17-.3-.41-.2-.55-.09-.98.68,1.17,1.19.55.09Z"/><path class="cls-4" d="m45.05,26.67c-.2-.35-.14-.9-.51-.79-.13.04-.27.08-.4.12-.09,2.15,1.64,2.83,2.65,3.8-.09.28-.21.25,0,.56.19.01.31.06.59-.07.35-.59-.44-.62-.12-1.26-.71-.76-1.64-1.33-2.21-2.36Z"/><path class="cls-4" d="m61.25,21.33c-.29-.53-1.16.1-1.44.44-.52.64-.86,1.68-1.43,2.19-.52.4-.95.98-1.39,1.47-.42.47-1.24.93-1.05,1.72.7.23,1.25-.61,1.75-1.15,1.05-1.14,2.11-2.73,2.89-3.68.25-.31.88-.58.66-.99Z"/><path class="cls-4" d="m76.25,17.78c.68,1.25.92,3.23.92,4.44,0,.69-.22,1.54.33,1.91.94-.35.69-3.07.3-4.73-.28-1.17-.95-2.69-1.55-1.62Z"/><path class="cls-4" d="m41.39,31.27c.83.3,1.49.98,2.1,1.72.46.56.82,1.76,1.76,1.47,0-.13.07-.23.17-.31-.66-.99-1.91-2.83-3.07-3.43-.58-.3-1.9-.7-1.97.43.22.26.61.21,1,.13Z"/><path class="cls-4" d="m67.89,22.18c-.16.07-.09.26-.25.34,1.13,2.01,2.26,3.96,3.12,6.74.21.67.37,2.04,1.29,1.35-.33-1.98-1.45-4.85-2.44-6.51-.42-.71-1.27-2.15-1.72-1.92Z"/><path class="cls-4" d="m69.17,29.48c-.89-1.71-1.49-3.65-2.61-4.8-.26.04-.28.21-.43.31,1,2.71,2.76,5.76,3.97,8.4.2.42.18,1.18.85,1.05.61-.75-.22-1.67-.57-2.45-.39-.83-.8-1.73-1.21-2.52Z"/><path class="cls-4" d="m34.4,37.87c.73,1.19,1.97,2.27,2.61,3.66.17.36.12,1.17.71,1.18.88-.37.05-1.78-.41-2.49-.57-.87-1.6-1.85-1.97-2.72-.37-.15-.88-.09-.94.37Z"/><path class="cls-4" d="m65.46,28.52c.05,1.05.91,1.95,1.51,2.95.6,1,1.18,2.16,1.64,3.35.55,1.43.63,3.12,1.28,3.89.82-.25.44-1.25.29-1.92-.68-3-2.26-5.45-3.47-7.33-.33-.52-.62-1.47-1.25-.93Z"/><path class="cls-4" d="m65.22,32.01c-.19.06-.28-.07-.5.07-.1.08-.16.19-.17.31.97,2.8,2.53,5.11,3.54,7.57.19.46.07,1.25.9,1.21.54-.61,0-1.48-.29-2.1-1.12-2.3-2.43-4.79-3.48-7.07Z"/><path class="cls-4" d="m49.46,37.1c-.8,1.24-2.62,3.38-3.87,4.77-.44.48-1.28,1.4-1.13,1.74.48,1.09,1.64-.98,1.69-1.04.67-.77,1.55-1.69,2.34-2.64.76-.91,1.63-1.86,1.82-2.92-.31-.39-.69-.16-.85.09Z"/><path class="cls-4" d="m27.17,44.8c.01.12-.15.14-.19.23-.77,2.12.62,4.59,1.69,6.65.27.52.62,1.09,1.02,1.35.69-.22.16-.65.07-.9-.07-.22.06-.39.04-.45-.48-1.19-1.31-2.05-1.72-3.06-.57-1.38-.21-2.48-.36-3.74-.19-.02-.31-.17-.55-.09Z"/><path class="cls-4" d="m5.6,69.69c-.38-.71-.88-1.39-1.17-2.09-1.71-4.29-1.59-9.05-1.07-12.35.18-.36.62-.82.11-1.35-1.23.1-.96,1.86-1.16,3.07-.43,2.51-.1,5.81.56,8.66.44,1.9,1.22,3.27,1.93,4.57.36.67.78,1.93,1.6,1.52.13-.66-.44-1.37-.8-2.03Z"/><path class="cls-4" d="m65.84,38.02c-.59-1.18-1.35-3.03-2.04-1.82,1.01,1.55,2.01,3.75,2.82,5.78.22.57.67,2.14,1.36,1.86.56-.47-.2-1.45-.48-2.13-.57-1.41-1-2.38-1.66-3.69Z"/><path class="cls-4" d="m.61,58.54c-.29-.03-.27.07-.56.17-.21,1.7.34,4.19.93,6.18.17.56.2,1.47.89,1.48.58-.79-.32-2.21-.56-3.24-.37-1.62-.14-3.47-.71-4.59Z"/><path class="cls-4" d="m25.77,55.05c.86-.35-.68-3.03-.91-2.96-.16.05-.32.1-.48.15-.17.05.68,3.09,1.39,2.81Z"/><path class="cls-4" d="m57.2,46.35c-.35-.7-1.14-2.63-1.69-2.37-.1.08-.16.18-.17.31.13,1.03,1.1,2.49,1.75,4.01.65,1.52,1.34,3.11,1.72,4.19.23.63.58,2.9,1.23,2.86.94-.06-.07-2.08-.35-2.87-.86-2.38-1.53-4.18-2.49-6.14Z"/><path class="cls-4" d="m19.05,57.96c.58.92.9,2.35,2.01,2.27.18-.08.1-.3.22-.42-.78-.76-1.21-2.18-2.02-2.88-.46-.07-1.29.07-1,.74.16.3.6.06.79.28Z"/><path class="cls-4" d="m55.23,48.18c-.37-.77-1.25-2.57-1.66-1.41.23,1.13,1.29,2.44,1.94,4.04.48,1.21.65,2.11,1.08,3.52.2.66.73,3.25,1.43,2.97.59-.23-.25-2.23-.56-3.24-.69-2.25-1.39-4.13-2.24-5.87Z"/><path class="cls-4" d="m54.02,51.09c-.42-1.05-1.45-3.17-2.15-3.01-.1.08-.16.19-.17.31.09.86.94,1.71,1.41,2.89.77,1.93,1.38,4.51,1.98,6.47.18.57.22,1.61.99,1.53.54-.4.08-1.19-.11-1.8-.62-2.03-1.24-4.57-1.96-6.39Z"/><path class="cls-4" d="m34.73,53.77c-1.04.96-2.46,2.66-3.42,3.67.07.38.23.59.46.65.99-.7,1.59-1.65,2.38-2.48.5-.52,1.44-.96,1.37-1.82-.23-.21-.67-.13-.8-.02Z"/><path class="cls-4" d="m51.78,51.78c-.52-1.15-1.75-3.5-2.27-2.28,1.15,1.98,2.8,5.32,3.53,8.36.24,1.01.1,2.62,1.15,2.88.58-.32.15-.82,0-1.4-.58-2.41-1.38-5.29-2.41-7.57Z"/><path class="cls-4" d="m48.9,51.79c-.28-.01-.18.05-.48.15.44,1.7,1.71,3.79,2.53,5.96.29.76.54,1.58.71,2.32.16.7-.09,1.41.46,1.78.68-.15.64-.82.58-1.23-.14-1.09-.69-2.56-1.15-3.76-.78-2.01-1.71-4.13-2.65-5.22Z"/><path class="cls-4" d="m47.42,53.81c-.34.02-.54-.07-.72.22.94,2.78,2.76,6.39,3.49,9.68.14.61-.09,1.53.62,1.73.67-.25.43-1.02.33-1.5-.51-2.43-1.96-5.76-2.84-8.13-.31-.82-.34-1.55-.88-2Z"/><path class="cls-4" d="m71.34,46.83c-.22-.08-.59-.23-.67.11-.07,1.66-1.53,2.58-2.11,3.97-1.03.79-1.65,1.92-2.29,2.8-.38.53-.85,1.03-1.28,1.53-.45.53-.75,1.13-1.15,1.66-.46.61-1.08,1.13-1.58,1.71-.5.58-1.17,1.13-1.45,1.84,1.1.62,1.87-.91,2.42-1.53,2.16-2.43,3.81-5.33,6.11-7.47.44-1.66,2.51-2.46,1.99-4.63Z"/><path class="cls-4" d="m17.32,65.14c-.9.35-.98-1.22-1.85-1.18-1.2.05.44,1.89,1.16,2.09,1.05.29,2.24-.43,1.67-1.39-.48-.16-.64.35-.99.48Z"/><path class="cls-4" d="m29.01,60.77c-.06-.36-.53-.59-.71-.31-.67.51.65,1.07.71.31Z"/><path class="cls-4" d="m44.77,55.44c-.12.04-.2.27-.12.46.78,1.76,2.15,5.12,2.7,7.69.19.86,0,2.05.93,2.18.39-.65.08-1.79-.12-2.66-.61-2.69-1.82-6.05-3-7.8-.13.04-.27.08-.4.12Z"/><path class="cls-4" d="m43.02,56.56c-.14-.2-.26.17-.38.2.92,2.45,1.96,6.09,2.41,8.71.07.44.06,2.69.89,2.35.5-.21.06-2.04-.11-2.94-.36-1.89-.9-4.71-1.69-6.65-.22-.54-.65-1.56-1.12-1.67Z"/><path class="cls-4" d="m26.65,62.8c-.17-.14-.33-.31-.66-.15-.84,1.67-2.74,3.41-3.33,5.39-.1.34-.21,1.04-.12,1.61.16,1.07-.19,2.63.96,2.85.45-.23.18-.84,0-1.4.18-.82-.13-1.9-.06-2.78.52-.48.48-1.18.86-1.75.81-1.21,2.14-2.24,2.34-3.78Z"/><path class="cls-4" d="m40.97,58.72c-.06.02-.11.03-.16.05-.09.03-.17.08-.21.17-.06.8.65,2.69,1.13,4.25.5,1.62,1.09,3.25,1.34,4.38.14.63-.19,1.25.68,1.36.5-.44.27-1.23.12-1.88-.29-1.28-.86-2.81-1.33-4.34-.45-1.48-1.01-4.17-1.57-4Z"/><path class="cls-4" d="m39.45,62.9c-.09.11-.22.2-.14.39.42,2.37,1.85,5.69,2.35,7.94.09.4,0,1.62.7,1.44.54-.14.23-1.42,0-2.27-.53-1.98-1.08-3.52-1.67-5.43-.28-.92-.51-2.45-1.25-2.07Z"/><path class="cls-4" d="m37.53,63.75c-.28-.01-.18.05-.48.15.14,1.97,1.41,4.07,1.89,6.15.33,1.43.14,2.86.81,3.78.94-.22.46-1.33.34-2.03-.3-1.86-.86-3.72-1.53-5.56-.34-.94-.37-1.94-1.02-2.48Z"/><path class="cls-4" d="m35.35,66.08c-.1.08-.16.18-.17.31.43,1.79,1.11,4.15,1.47,5.93.15.77-.1,3.25.77,3.08.5-.09.34-.95.28-1.66-.11-1.22-.31-1.85-.59-3.05-.32-1.41-.68-4.95-1.76-4.62Z"/><path class="cls-4" d="m32.99,67.5c.45,2.3,1.81,5.6,2.06,7.85.06.55-.33,1.11.42,1.36.78-.15.48-1.05.39-1.61-.4-2.44-1.23-5.98-2.37-8.02-.25.09-.64.11-.49.41Z"/><path class="cls-4" d="m30.82,68.69c.1.97.55,1.9.78,2.82.26,1.08.41,2.21.55,3.24.15,1.03-.02,2.23.72,2.93.85-.42.37-1.75.25-2.61-.28-2.05-.77-4.5-1.69-6.65-.23-.02-.58.02-.62.28Z"/><path class="cls-4" d="m29.34,70.72c-.14-.19-.26.17-.38.2.34,1.8,1.08,3.46,1.2,5.05.08,1.01-.39,2.01.23,2.73.86-.24.73-1.63.67-2.66-.07-1.22-.48-2.42-.89-3.75-.17-.56-.21-1.5-.83-1.58Z"/><path class="cls-4" d="m27.23,73.51c-.12.04-.41-.42-.33-.23.52,1.62.55,2.68.6,3.94.02.64-.17,1.46.65,1.55.45-.43.38-.71.35-1.44-.07-1.39-.33-4.11-.94-3.93-.11.03-.21.07-.32.1Z"/><path class="cls-4" d="m58.39,63.91c-1.74.98,1.31,1.06,0,0h0Z"/><path class="cls-4" d="m54.78,68.69c.3-.29,1.2-.84,1.01-1.27-.17-.38-.44-.22-.66-.15-.04.01-.14.02-.16.05-1.19,1.27-2.83,2.61-4.59,4.12-1.85,1.59-3.41,3.31-5.55,4.41-.97.5-1.71,1.32-2.58,1.84-.36.22-2.54,1.01-2.29,1.66.19.47.69.15,1.19-.1,1.69-.86,2.82-1.91,3.95-2.52,1.59-.86,2.28-1.38,3.61-2.51,2.12-1.8,4.07-3.58,6.08-5.54Z"/><path class="cls-4" d="m49.68,76.29c.56-.43,1.17-.83,1.8-1.25,1.27-.85,2.18-2.11,2.95-2.92.62-.64,2.71-2.16,1.12-2.62-.08.07-.16.14-.19.24-.23.14-.1.48-.33.63-.81.61-1.39,1.43-2.12,2.22-.99,1.08-2.24,1.81-3.53,2.75-.58.41-1.47.84-1.5,1.68.6.45,1.26-.32,1.79-.72Z"/></g></svg>