<?xml version="1.0" encoding="UTF-8"?><svg id="Layer_2" xmlns="http://www.w3.org/2000/svg" viewBox="0 0 79.35 83.11"><defs><style>.cls-1{fill:#f26b5b;}.cls-2{fill:#fee56b;}.cls-3{fill:#ffd15b;}.cls-4{fill:#dfa826;}.cls-5{fill:#93c83e;}.cls-6{fill:#3a1312;}</style></defs><g id="Layer_15"><path class="cls-2" d="m63.07,67.49c2.62-.79,4.58-3.73,4.94-7.21-1.03.1-2.56.26-3.59.64-1.09.4-1.94,1.45-2.93,2.16-1.59,1.14-3.29,1.94-4.59,2.94,2.41.91,4.25,2.04,6.17,1.46Zm-3.96-1.58c.69-.28,1.75.26,2.58.31.58-.21,1.92-.98,2.64-1.65.42-.39,1.11-1.31,1.32-.38-.66,1.15-2.56,2.86-4.03,2.89-.19,0-.53-.17-.73-.2-.66-.11-1.97.09-1.77-.97Z"/><path class="cls-3" d="m32.93,61.6c1.03,2.13,3.44,3.67,4.54,5.77-.23.74-.94,1.69-.17,2,.61.16.59-1.11,1.01-1.4.29.37.83.63,1.02,1.04-.32.66-.52,1.58-.91,2.06-2.09-2.47-4.81-4.67-6.55-7.29.38-.66.52-1.88,1.05-2.19Z"/><path class="cls-3" d="m40.44,72.34c.66.21.75-1,1.16-1.79.38.27.94.46,1.34.71-.19.85-1.28,2.09-.24,2.42.58-.14.7-1.36,1.07-2,3.04.65,5.24,1.1,7.36.05.5-.24.9-.65,1.43-.87,1.54-.63,3.36-1.03,5.12-1.11-.48,1.48-1.44,3.23-1.7,4.27-.33-.03-.96.71-1.02.31.49-.99,1.78-2.87,1.22-3.75-.87.11-.93,1.43-1.35,2.26-.44.88-1.22,1.56-1.35,2.25-1.64.06-3.26,1.3-5.19,1.27-.88-.02-2.7-.54-3.67-.83-2.85-.88-2.37-1.75-5.91-3.79.32-.8.64-1.61.96-2.41-.01.02.68.42.98.57-.28.91-.96,2.2-.21,2.44Z"/><path class="cls-3" d="m59.98,69.15c.06.04.07.1.02.19-.59,1.19-1.23,3.09-1.97,3.81-.12.12-.79.49-.8.22.77-1.66,1.32-4.6,2.75-4.21Z"/><path class="cls-3" d="m60.9,69.33c.61-.02,1.25,0,1.83-.08-.56,1.29-1.93,2.12-2.07,3.4-.54-.06-.93.22-1.44.23.67-.93,1.18-2.24,1.69-3.55Z"/><path class="cls-3" d="m32,60.78c-.3.75-.6,1.5-.9,2.25-.9-.51-.78-.79-1.65-1.38.19-.47.37-.93.56-1.4.91.46,1.96.58,1.99.52Z"/><path class="cls-3" d="m29.62,57.04c.09,1.16.29,2.62-.49,3.94-.36-.51-.84-.97-1.1-1.52.94.14.86-2.09,1.6-2.43Z"/><path class="cls-5" d="m30.86,53.49c-.03-.92-.24-2.39-.07-3.21.14-.66.21-1.19.96-3.07,0,0,.07.03.07.03,2.02,5.16,4.91,9.07,8.22,13.03-3.17-1.39-5.8-1.05-8.58-1.51.45-1.59-.58-3.01-.67-4.63-.02-.23.08-.37.07-.63Z"/><path class="cls-3" d="m65.53,54.08c-1.04,1.16-1.51,4.32-2.41,5.61-.17.24-.93.76-1.01.5,1.09-2.09,1.33-6.34,3.42-6.11Z"/><path class="cls-3" d="m40.54,58.97c-.42-.59-.94-1.14-1.38-1.72.95-1.59,1.47-4.17,2.49-5.58.21.62.89,1.03,1.15,1.63-.87,1.9-1.38,3.98-2.26,5.67Z"/><path class="cls-3" d="m28.09,55c.25.4.52.81.78,1.21-.42.91-.72,2.11-1.22,2.84-.27-.42-.62-.81-.96-1.19.64-.56.84-2.14,1.41-2.86Z"/><path class="cls-1" d="m55.07,67.01c-1.27.43-2.59.76-4.12.61.01.25.04.39-.14.58-1.61,1.21-3.78,2.38-6.54,1.26-.81-.33-1.6-1.18-2.33-1.83-.58-.51-2.19-1.69-1.39-2.17,1.46.34,2.3,2.36,3.9,3.09,2.25,1.01,3.99.27,5.59-.92-1.4-.5-2.55-.4-4.27-1.25-1.53-.76-2.17-2.2-3.36-2.87-1.3-.73-3.07-1.06-4.52-1.53-1.08-.35-2.01-.89-3.08-.87-.03.74.61,1.09,1.07,1.6,2.18,2.38,4.08,5.33,7.88,7.1,1.67.78,3.9,1.08,5.54.77.94-.17,1.58-.87,2.48-1.26,1.68-.73,3.4-1.06,5.34-1.2-.27-.51-1.87-.78-2.08-1.1Zm-16.23-2.87c.86-1.58,1.12,1.24,0,0h0Z"/><path class="cls-3" d="m62.21,72.37c-.21-.13-.54.23-.61-.06,1.2-.87,1.71-3.31,3.1-3.71-.77,1.41-1.71,2.39-2.49,3.77Z"/><path class="cls-3" d="m61.43,61c-1.25.8-2.43,1.74-3.69,2.49-1.26.73-2.49,1.68-3.83,2.16-1.63.58-3.96.33-6.03-.24-3.47-.96-4.31-3.94-6.63-5.71.98-1.69,1.18-3.59,2.09-5.47.46.41.91.81,1.2,1.29-.1.83-1.94,3.63-1.13,3.96.85.34,1.11-2.27,1.66-3.03,1.96,1.71,4.02,5.61,7.84,5.38,1.26-.07,2.55-.89,3.56-1.46,1.38-.92,2.47-3.32,4.03-3.34.02.78-1.93,3.81-1,4.1.62.19,1.17-1.69,1.43-2.49.37-1.09.41-1.82.82-2.73.41-.24.76-.61,1.21-.78-.29.71-.58,1.75-1.02,3.01-.51,1.45-1.19,2.41-.51,2.86Z"/><path class="cls-3" d="m66.51,54.11c.31.17.49.03.76.12-.51,1.55-1.55,3.33-1.7,4.72-.4.11-.78.27-1.26.22.72-1.72,1.35-3.65,2.2-5.06Z"/><path class="cls-3" d="m68.08,58.15c.57-1.42,1.13-2.85,1.7-4.27.12-.31,1.04-.18,1.42-.33-.31.65-.36,1.45-.77,2.3-.46.96-1.33,2.03-.78,2.39.9.6,1.72-2.49,2.17-3.09.04-.08.14-.02.06.11-.33,1.11-1.06,2.18-1.53,3.35-.77-.53-2.33-.3-2.27-.46Z"/><path class="cls-3" d="m67.74,59.01c.58-1.45,1.15-2.9,1.73-4.35.06-.14.09-.23.12-.31-.58,1.45-1.15,2.9-1.73,4.35-.01.03-.23.58-.12.31Z"/><path class="cls-3" d="m22.92,48.79c-.44.97-.76,2.22-1.28,3-.79-.7.06-2.76.53-3.57.08.26.56.36.76.57Z"/><path class="cls-3" d="m17.09,44.22c-.16.24-.19.76-.42.82-.02-.05.36-.99.42-.82Z"/><path class="cls-3" d="m18.66,30.57c.27-1.19,1.29-3.32,1.24-3.34.38.15.77.31,1.16.46-.06-.02-1.77,2.78-.85,3.04.89.26,1.34-2.95,2.05-3.79.4,0,.79-.28,1.29-.08-.6,1.59-1.15,3.65-1.83,5.06-1.25-.41-2.01-.87-3.06-1.36Z"/><path class="cls-3" d="m18.98,42.18c-.47,1.43-.66,3.07-1.28,4.35-.58-.44-.03-1.29.28-2.05.33-.84.64-1.77,1.01-2.3Z"/><path class="cls-5" d="m14.25,29.23c.05-.09.1-.18.22-.09,1.62,1.14,3.34,2.25,5.16,3.32.1,1.31,1.31,2.14.33,3.91-1.62-.76-3.35-1.48-4.95-2.24.17-1.81-.3-3.35-.75-4.89Z"/><path class="cls-2" d="m23.55,35.91c-.58.98-.77,2.09-1.08,3.17-.21.71-.67,1.73.24,1.89.72-.97.71-3.04,1.51-4.26.14.33.51.55.53.93-.14.91-2.3,4.47-1.36,4.77.95.3,1.44-3.48,2.05-3.78.14.49-.13,1.33-.35,2.02-.35,1.07-1.59,3.05-.88,3.34.63.26.93-1.21,1.16-1.79.38-.95.79-1.73,1.01-2.21.1.36.73.74.61,1.05-.25.63-.6,1.5-.93,2.33-.29.72-1.14,1.71-.31,2.04.79-.5.98-2.31,1.54-3.35.29.24.68.67.67,1.17,0,1.22-1.27,3.03-.61,3.99,1.07-.2.92-2.21,1.23-3.11.55.34.61.9,1.01,1.3-.32,1.76.33,3.46-.78,5.35-1-.81-1.73-1.88-3.03-2.56-.78-.4-1.72-.55-2.43-1.14-1.51-1.27-1.59-3.4-2.69-4.76.08-1.23-.58-2.58.1-4.1.12-.28.42-.49.57-.76.78-1.4.87-2.67.49-3.94-.08-.04-.02-.12.11-.05.59.8.93,1.7,1.63,2.45Z"/><path class="cls-3" d="m19.07,37.9c-.15.37-.09.64-.22.99-.68-.54-1.11-1.2-1.51-1.86.64.26,1.38.48,1.72.87Z"/><path class="cls-3" d="m6.26,40.44c1.64,2.19,6.21,3.61,8.85,3.53,1.04-.99,1.51-2.43,2.37-3.91-1.16-.65-2.5-.69-3.73-1.04-.38.52-1.34,4.59-2.22,3.97-.7-.49,1.23-3.32,1.31-4.24-.45-.33-2-.94-2.05-.82-.26.66-.61,1.54-.93,2.33-.29.72-.4,1.75-1.1,1.72-.57-.44.12-1.35.42-2.08.33-.83.73-1.65.82-2.28-.17-.44-.59-.77-.99-1.11-.64,1.33-.53,3.94-1.92,4.36-.52-.48.09-1.25.29-1.86.23-.69.94-2.59.96-3.31.01-.41-.33-.61-.34-.95-.99,1.82-.81,3.7-1.73,5.7Zm7.84,1.33c.42-.8.53-1.96,1.19-2.32.43.07.42.34.5.56-.66,1.51-1.16,3.4-2.35,3.65-.57-.52.29-1.18.66-1.9Z"/><path class="cls-3" d="m20.32,45.6c-.41.89-.71,2.05-1.19,2.76-1.31-.9.21-3.35.43-4.69.19.67.58,1.25.76,1.92Z"/><path class="cls-3" d="m25.14,51.12c.1.37.46.61.61.96-.32,1.18-1.62,3.38-.82,3.63.91.29.88-1.95,1.46-2.75.42.36.64.8.96,1.2-.46.99-.78,2.27-1.32,3.08-.81-.88-1.6-1.76-2.36-2.66.79-.98.76-2.74,1.47-3.46Z"/><path class="cls-3" d="m23.69,49.55c.09.29.3.52.63.7-.57,1.07-.49,2.84-1.49,3.28-.16-.3-.28-.61-.56-.85.58-.8.85-2.33,1.42-3.12Z"/><path class="cls-3" d="m29.05,53.49c-.22-.25-.5-.47-.59-.78.33.2.78.24.59.78Z"/><path class="cls-3" d="m38.36,56.21s-.71-1.08-.98-1.65c.52-1.75,1.2-3.96,2.08-5.65.42.55,1.28,1.32,1.16,1.63-.75,1.89-1.51,3.78-2.26,5.67Z"/><path class="cls-3" d="m20.98,46.67c.12.25.3.47.43.71-.46,1.03-.72,1.98-.87,2.89-.36-.23-.49-.56-.75-.84.55-.68.44-2.2,1.2-2.76Z"/><path class="cls-3" d="m30.98,44.36c-.14-.29-.68-.57-.66-1.07.05-.97,2.48-5.86,2.79-6.54.22.57.77,1,.89,1.61-1.37,1.15-1.95,4.14-3.02,6Z"/><path class="cls-3" d="m13.37,23.3c-.23.36-.04.87-.32,1.04.1-.3,0-.86.32-1.04Z"/><path class="cls-3" d="m14.12,25.94c-.66-.81.29-2.31.27-3.4,1.1.62-.1,2.23-.27,3.4Z"/><path class="cls-3" d="m13.79,21.13c-.09.23.29.64-.17.65.11-.2-.14-.57.17-.65Z"/><path class="cls-3" d="m71.99,51.43c.51-.34,1.18-1,1.4-1.69.32-1.03-.57-2.93-1.07-3.85-.75-1.36-1.82-2.76-2.79-4.08-1.93-2.64-3.69-5.35-5.6-8.08-.94-1.34-2.11-2.55-3.03-3.91-1.72-2.53-3.56-5.42-5.6-8.08-.9-1.18-1.97-2.4-3-3.98-.74-1.15-2.23-3.1-2.06-4.33.24-1.66,1.78-3,2.06-4.49.52-2.7-4.25-4.57-7.24-4.86-1.96-.19-3.27.19-4.98.53-2.18.43-4.54.52-6.42,1.67-1.55.63-2.82,1.08-4.07,1.62-1.28.55-2.35,1.37-3.8,2.08-1.94.96-4.85,1.71-7.11,2.93-.83.44-1.8.65-2.26,1.16-.83.94-1.37,2.94-1.47,3.92-.1.96.31,2.7.61,3.21.72,1.23,3.82,3.23,6.06,3.77,1.57.38,3.41-.55,5.22.46.66.37,1.09,1.25,1.63,2,.51.71,1.1,1.35,1.67,1.93,1.27,1.29,2.17,2.75,2.89,4.03,1.59,2.83,3.61,5.58,5.1,8.42,1.07,2.03,1.5,4.03,2.73,6.03.75,1.23,2.01,2.61,3,3.98.5.7.96,1.32,1.56,1.97.59.63.9,1.43,1.37,1.99.55.64,1.3,1.32,1.98,2.05,1.17,1.27,2.09,2.37,3.94,2.29.47-.02,1.31-.28,1.83-.53,1.37-.66,2.35-2.21,3.58-3.34.89-.81,2.3-1.5,3.52-2.29,1.22-.78,2.57-1.56,3.8-1.63.77-.05,1.6.18,2.45.17,1.52-.03,2.85-.21,4.11-1.06ZM23.62,14.07c-2.05.7-3.48,2.09-4.43,4.8.22.88.87,1.5,1.63,2,0,.44-.48.67-.84.75-.8-.88-1.63-1.75-1.71-2.93,1.42-3.74,3.66-5.57,6.61-5.74.68.83-.73.94-1.26,1.12Zm-.42,7.84c-.3.09-.99.06-1.12-.36.13-1.02,1.85-.3,1.12.36Zm28.67,29.43c-1.1-.08-4.21.22-3.49-1.39.37-.83,3.11-.35,3.99-.3,1.53.09,3.54-.36,4.42.41.35.31.46.64.21,1.07-.36.62-1.23.22-1.97.2-.83-.02-1.88.09-3.15,0Zm-8.49-2.85c.17-.02.23-.27.48-.08.75.48,1.24,1.73,1.87,2.54,1.48,1.94,2.88,3.69,4.66,5.46.19.19,1.25.96.98,1.38-.48.74-1.95-1.01-2.25-1.35-1.87-2.06-3.77-4.46-5.01-6.4-.32-.5-.92-.86-.73-1.55Zm-2.32-4.34c.13-.44.41-.31.54-.23.97.57-.85,1.26-.54.23Zm-10.05-16.34c.28-.55.73-.1.87.08,1.25,1.61,2.59,3.76,3.65,5.96,1.03,2.12,2.56,4.03,3.55,6,.39.79.63,1.68.7,2.53-1.21.25-1.17-1.5-1.54-2.23-1.38-1.97-2.48-3.9-3.56-6.19-.46-.99-1.22-1.89-1.95-3.03-.15-.25-1.89-2.78-1.73-3.12Zm14.52-11.58c-.32.6-1.05.26-1.79.19-2.81-.26-6.48.64-9.69-.53-.54-1.74,1.2-1.24,2.53-1.15,2.61.17,5.83-.28,7.73.02.98.15,1.59.78,1.21,1.47Zm3.14,5.22c-.27.49-1.36.39-2.14.4-4.08.06-7.88-.22-11.97-.45-1.14-.06-4.62,0-4.1-1.45.33-.92,1.44-.53,1.98-.47,4.68.53,9.33.6,13.6.65.87,0,1.95-.15,2.42.25.31.26.48.58.2,1.07Zm3.85,6.39c-.42.6-2.89.23-3.88.25-2.64.06-5.65-.47-8.27-.69-1.06-.09-4.78.19-4.24-1.33.36-1.02,2.56-.46,3.83-.36,2.78.22,5.86.69,8.27.69,1.08,0,3.53-.32,4.19.32.25.24.42.66.1,1.12Zm6.56,6.57c-.46.84-3.85.47-4.66.39-3.47-.31-6.57-.24-9.94-.36-1.1-.04-4.85.12-3.99-1.5.3-.56,1.16-.36,2.11-.33,4.64.16,9.4.58,13.74.53.82-.01,1.98-.19,2.46.17.35.26.56.59.28,1.1Zm1.36,6.3c-.41.48-2.9.28-3.8.29-2.69,0-5.49-.56-8.21-.84-1.07-.11-4.85.41-4.05-1.35.34-.76,2.59-.4,3.72-.31,2.68.2,5.78.76,8.13.81,1.13.03,3.24-.47,4.06.18.4.31.52.79.14,1.23Zm3.92,6.42c-.53,1-3.47.16-4.72.1-4.16-.22-8.24-.75-12.42-.9-.7-.02-2.08.11-2.02-.8.1-1.46,3.16-.82,4.26-.74,1.6.13,3.33.27,4.8.38,3.54.26,6.59.27,9.59.76.09.01-.01-.02.08.03.45.26.72.64.44,1.16Z"/><path class="cls-1" d="m13.1,27.6c-1.32,1.65.05,2.83.24,4.6.11,1.02-.32,2.67.27,3.16.51.43,1.37.3,1.68.76-.38.58.24,1.38.05,1.46-1.23-.06-2.78-.89-4.21-1.41-1.83-1.92-3.79-4.7-1.7-8.15.22-.37.72-.83,1.05-1.29.32-.44.66-1.05,1.19-.97.54.33.92,1.27,1.43,1.83Z"/><path class="cls-3" d="m5.57,39.72c-.26-.12-.25-.36-.21-.62.17.1.3.11.42.08-.1.29-.01.34-.22.54Z"/><path class="cls-3" d="m7.37,33.15c-.06.16.17.18.03.37-.1.11-1.1,3.16-.65,1.63.08-.6.17-1.19.48-1.88.04-.05.06-.15.14-.13Z"/><path class="cls-3" d="m15.07,27.4c-.52-.83.41-2.62.71-3.59.05.15.21.25.41.34-.33,1.06-.61,2.11-1.11,3.25Z"/><path class="cls-3" d="m35.88,52.61c.97-1.7,1.55-4.28,2.58-5.81.07.41.56.67.51,1.19-.14,1.65-2.08,4.06-2.1,5.73-.41-.1-.69-.76-1-1.11Z"/><path class="cls-3" d="m26.92,37.61c-.37-.33-.55-.75-.7-1.18,1.05-1.64,1.82-3.94,2.77-5.82.88.57.33,1.19-.12,2.11-.71,1.46-1.34,3.62-1.95,4.89Z"/><path class="cls-3" d="m27.2,30.14c.29.11.72.02.74.4-.78,2.02-1.48,3.73-2.42,5.39-.37-.12-.5-.02-.74-.19.86-1.8,2.39-5.61,2.25-5.66.05.02.1.04.16.06Z"/><path class="cls-3" d="m31.47,34.11s.07.03.08.03c.2.6.58,1.12.96,1.64-1.02,2.03-1.83,4.52-2.77,6.72-.53-.52-.87-1.13-1.09-1.78,1.19-2.02,1.51-4.94,2.82-6.62Z"/><path class="cls-3" d="m35.39,51.6c-.33-.3-.6-.76-.56-1.31.08-.99,2.2-5.27,2.57-6,.88,1.06.2,1.97-.49,3.5-.56,1.24-1.02,2.68-1.51,3.81Z"/><path class="cls-3" d="m34.15,49.49c-.24-.44-1.07-1-.98-1.83.14-1.22,2.26-5.34,2.86-6.06.2.54.91,1.01.75,1.74-.06.32-.38.6-.56.95-.74,1.51-1.36,3.71-2.07,5.21Z"/><path class="cls-3" d="m32.62,46.81c-.21-.37-.97-.86-.92-1.54.07-1.04,2.36-5.81,2.9-6.14.28.59.72,1.1.94,1.72-1.32,1.17-1.98,3.87-2.91,5.95Z"/><path class="cls-3" d="m27.36,38.32c1.28-1.31,1.67-4.71,2.94-6.02.2.33.53.6.5,1.01-.13,1.73-2.31,4.41-2.69,6.3-.33-.14-.54-.88-.75-1.29Z"/><path class="cls-3" d="m25.39,27.01c-.2.38-.46,1.42-.63,1.36.2-.38.46-1.42.63-1.36Z"/><path class="cls-3" d="m17.94,29.44c-.14-.26-.65-.36-.84-.6.26-1.08.85-2.3,1.28-3.45.28.2.64.37,1.06.51-.52,1.14-.91,2.58-1.5,3.54Z"/><path class="cls-3" d="m26.43,27.34c.11.27.27.53.4.79-.59,1.95-1.57,4.07-2.34,6.09-.3-.17-.34-.45-.55-.67,1.04-2.01,1.46-4.86,2.48-6.21Z"/><path class="cls-3" d="m17.53,25.05c-.41,1.1-.98,2.27-1.22,3.29-.29-.05-.25-.23-.52-.3.53-1.17.81-2.24,1.14-3.32.22.1.52.16.59.33Z"/><path class="cls-3" d="m24.28,30.26c-.21.38-.46,1.42-.64,1.36.2-.38.46-1.42.64-1.36Z"/><path class="cls-4" d="m17.5,21.69c2.02,3.4,4.8,4.08,7.96,6,2.4,1.46,3.38,3.92,4.88,6.2,3.51,5.35,6.89,10.67,10.14,16.18,2.7,4.57,7.59,13.62,14.09,10.97,3.16-1.29,5.13-4.18,8.57-5.15,2.02-.57,4.04-.98,6.14-1,1.37,0,1.43,1.79.47,2.38-2.64,1.62-5.67,1.81-8.16,3.8-2.73,2.17-5.2,4.5-8.81,4.9-5.71.63-10.57-5.03-13.61-9.08-4.2-5.61-7.42-11.96-11.33-17.79-1.24-1.85-2.52-3.69-3.63-5.63-.99-1.74-3.18-2.27-4.89-3.15-2.89-1.47-5.27-4.11-5.53-7.39-.18-2.22,2.53-3.23,3.71-1.24Z"/><path class="cls-4" d="m5.31,33.77c.94-1.76,3.31-.51,3.33,1.13.03,3.1,3.16,5.48,6.18,4.61.85-.25,1.67.35,2.08,1.03,5.45,9.11,12.67,18.27,19.83,26.13,1.74,1.91,3.72,3.51,5.87,4.94,3,2,6.09.74,9.14-.15,2.65-.78,7.55-2.82,10.09-.91.28.21.43.64.19.94-.8,1.01-1.16.97-2.54,1.25-3.06.61-6.34,2.05-9.26,3.12-4.86,1.78-8.5.29-12.47-2.72-5.12-3.88-8.88-9.5-12.59-14.65-3.63-5.04-7.61-9.72-10.91-14.99-5.1.39-11.76-4.42-8.93-9.73Z"/><path class="cls-6" d="m57.37,3.67c-.29-.35-.85-.49-.71-.91.1-.32.37-.39.81-.22.65.25,1.82,2.17,1.13,2.8-.75-.09-.8-1.15-1.23-1.66Z"/><path class="cls-6" d="m56.32,9.01c-.47-.16-.15-.69-.14-1.22,0-.93-.29-2.65-.77-3.28-.72-.96-2.12-1.86-3.09-2.4-.37-.2-1.19-.22-1.06-.96.49-.52,1.04-.01,1.52.25,1.08.59,2.79,1.7,3.5,2.74.58.86.57,1.79.67,3.06.04.5.21,2.12-.63,1.82Z"/><path class="cls-6" d="m41.87.1c.98.6-.72,1.03-1.19.97-.62.48-1.37.53-2.11.78-.49.17-1.2.6-1.5-.06.25-.8,1.55-.76,2.71-1.17.69-.24,1.53-.86,2.09-.52Z"/><path class="cls-6" d="m27.49,4.12c.58.23-1.33,1.9-2.37,2.55-.89.55-1.66.96-2.5,1.29-.98.39-2.65.8-3.73.78-.47,0-1.15-.12-1.35-.67.3-.71,1.06-.28,1.55-.3,1.13-.04,2.12-.4,3.18-.53,1.7-1.03,3.49-1.64,4.82-3.29.13.05.26.1.39.15Z"/><path class="cls-6" d="m22.06,5.79c-.83.25-2.05.63-2.48-.09.34-.59,1.07-.53,1.92-.76.62-.17,1.58-.83,2.09-.52,1.01.61-1.16,1.26-1.53,1.37Z"/><path class="cls-6" d="m62.95,22.18c1.38,2.52,2.62,5.19,4.4,7.69,1.31,1.84,3.19,3.4,5.03,4.98.49.42,1.54.93,1.27,1.77-.78.31-1.23-.65-1.66-1.02-1.29-1.1-2.45-2-3.53-3.12-2-2.07-3.66-4.69-4.89-7.16-.6-1.22-1.68-2.51-1.46-4.01.17-.05.34-.1.61.06.18.22.18.53.22.81Z"/><path class="cls-6" d="m43.74,16.42c-2.81-.26-6.48.64-9.69-.53-.54-1.74,1.2-1.24,2.53-1.15,2.61.17,5.83-.28,7.73.02.98.15,1.59.78,1.21,1.47-.32.6-1.05.26-1.79.19Z"/><path class="cls-6" d="m46.52,21.84c-4.08.06-7.88-.22-11.97-.45-1.14-.06-4.62,0-4.1-1.45.33-.92,1.44-.53,1.98-.47,4.68.53,9.33.6,13.6.65.87,0,1.95-.15,2.42.25.31.26.48.58.2,1.07-.27.49-1.36.39-2.14.4Z"/><path class="cls-6" d="m23.62,14.07c-2.05.7-3.48,2.09-4.43,4.8.22.88.87,1.5,1.63,2,0,.44-.48.67-.84.75-.8-.88-1.63-1.75-1.71-2.93,1.42-3.74,3.66-5.57,6.61-5.74.68.83-.73.94-1.26,1.12Z"/><path class="cls-6" d="m48.63,28.09c-2.64.06-5.65-.47-8.27-.69-1.06-.09-4.78.19-4.24-1.33.36-1.02,2.56-.46,3.83-.36,2.78.22,5.86.69,8.27.69,1.08,0,3.53-.32,4.19.32.25.24.42.66.1,1.12-.42.6-2.89.23-3.88.25Z"/><path class="cls-6" d="m54.41,34.8c-3.47-.31-6.57-.24-9.94-.36-1.1-.04-4.85.12-3.99-1.5.3-.56,1.16-.36,2.11-.33,4.64.16,9.4.58,13.74.53.82-.01,1.98-.19,2.46.17.35.26.56.59.28,1.1-.46.84-3.85.47-4.66.39Z"/><path class="cls-6" d="m74.85,40.87c-1.21-1.29,1.62-.77,0,0h0Z"/><path class="cls-6" d="m11.87,15.32c.06.01.1.05.16.06.1.09.14.2.14.33-.26.9-.85,2.52-1.41,3.76-.82,1.82-1.88,3.83-3.22,2.86.28-.76.73-.5,1.26-1.12.27-.32.56-.86.88-1.54.63-1.35,1.37-4.52,2.19-4.35Z"/><path class="cls-6" d="m22.07,21.55c.13-1.02,1.85-.3,1.12.36-.3.09-.99.06-1.12-.36Z"/><path class="cls-6" d="m31.88,27.89c1.25,1.61,2.59,3.76,3.65,5.96,1.03,2.12,2.56,4.03,3.55,6,.39.79.63,1.68.7,2.53-1.21.25-1.17-1.5-1.54-2.23-1.38-1.97-2.48-3.9-3.56-6.19-.46-.99-1.22-1.89-1.95-3.03-.15-.25-1.89-2.78-1.73-3.12.28-.55.73-.1.87.08Z"/><path class="cls-6" d="m56.63,40.99c-2.69,0-5.49-.56-8.21-.84-1.07-.11-4.85.41-4.05-1.35.34-.76,2.59-.4,3.72-.31,2.68.2,5.78.76,8.13.81,1.13.03,3.24-.47,4.06.18.4.31.52.79.14,1.23-.41.48-2.9.28-3.8.29Z"/><path class="cls-6" d="m76.89,49.52c0-.89-.28-1.79.12-2.56.13-.05.31.02.5.11.64,2.53.22,7.99-1.46,11.12-.21.38-.48,1.15-1.29.75-.17-.54.26-.76.47-1.17,1.41-2.87,1.64-6.03,1.67-8.25Z"/><path class="cls-6" d="m78.77,50.45c.14-.06.37.06.57.14.05,1.5-.31,3.8-1.1,5.23-.13-.06-.25-.08-.34-.05-.49-1.08.42-2.57.57-3.91.05-.52-.19-1.07.29-1.41Z"/><path class="cls-6" d="m59.63,47.23c-4.16-.22-8.24-.75-12.42-.9-.7-.02-2.08.11-2.02-.8.1-1.46,3.16-.82,4.26-.74,1.6.13,3.33.27,4.8.38,3.54.26,6.59.27,9.59.76.09.01-.01-.02.08.03.45.26.72.64.44,1.16-.53,1-3.47.16-4.72.1Z"/><path class="cls-6" d="m41.6,43.91c.97.57-.85,1.26-.54.23.13-.44.41-.31.54-.23Z"/><path class="cls-6" d="m48.38,49.94c.37-.83,3.11-.35,3.99-.3,1.53.09,3.54-.36,4.42.41.35.31.46.64.21,1.07-.36.62-1.23.22-1.97.2-.83-.02-1.88.09-3.15,0-1.1-.08-4.21.22-3.49-1.39Z"/><path class="cls-6" d="m43.86,48.41c.75.48,1.24,1.73,1.87,2.54,1.48,1.94,2.88,3.69,4.66,5.46.19.19,1.25.96.98,1.38-.48.74-1.95-1.01-2.25-1.35-1.87-2.06-3.77-4.46-5.01-6.4-.32-.5-.92-.86-.73-1.55.17-.02.23-.27.48-.08Z"/><path class="cls-6" d="m2.93,33.9c.28,0,.18.06.46.18-1.32,4.6-.11,8.64,2.58,11.38.35.37,1.15.63.98,1.38-.99.26-1.79-.9-2.35-1.57-1.79-2.15-2.86-5.34-2.71-8.1.06-1.12.27-2.43,1.04-3.28Z"/><path class="cls-6" d="m15.3,39.46c.43.07.42.34.5.56-.66,1.51-1.16,3.4-2.35,3.65-.57-.52.29-1.18.66-1.9.42-.8.53-1.96,1.19-2.32Z"/><path class="cls-6" d="m68.92,66.59c.52-1.04,1.53-2.78,2.23-2.44.09.11.2.21.11.4-.9,1.06-1.8,3.15-2.57,5.09-.36.92-.54,1.94-1.14,2.42-.91-.33-.19-1.57.2-2.53.37-.93.76-2.1,1.18-2.95Z"/><path class="cls-6" d="m.97,37.7c-.15,1.53.14,2.87.83,4.02.24.41.72.71.67,1.26-.15-.05-.15.24-.28.25-.96-.26-1.83-2.14-2.09-3.35-.17-.85-.24-2.91.87-2.18Z"/><path class="cls-6" d="m64.32,64.58c.42-.39,1.11-1.31,1.32-.38-.66,1.15-2.56,2.86-4.03,2.89-.19,0-.53-.17-.73-.2-.66-.11-1.97.09-1.77-.97.69-.28,1.75.26,2.58.31.58-.21,1.92-.98,2.64-1.65Z"/><path class="cls-6" d="m13.18,48.6c1.74.86,2.51,1.87,3.59,2.96.52.52,1.53,1.08,1.01,1.75-1.05-.14-1.66-1.29-2.5-2.08-1.15-1.07-2.79-2.14-4.1-2.36.11-1.19,1.36-.6,2-.28Z"/><path class="cls-6" d="m38.85,64.14c.86-1.58,1.12,1.24,0,0h0Z"/><path class="cls-6" d="m25.48,61.78c.39.73.99,1.38,1.52,2.05.49.61,1.2,1.18,1.29,1.95-.81.51-1.41-.72-2.08-1.55-.56-.69-2.45-2.61-.73-2.45Z"/><path class="cls-6" d="m38.16,76.47c1,.99,2.34,2.01,4.11,2.54,2.59.78,5.3.8,7.35.32.85-.2,1.73-.74,2.28-.53.13.21.17.2.11.4-.25.89-3.21,1.23-4.47,1.28-1.64.07-3.8-.12-5.26-.57-2.37-.73-3.46-1.51-4.61-2.65-.5-.49-1.32-1.1-1.01-1.75.75-.24,1.14.6,1.51.96Z"/><path class="cls-6" d="m40.47,81.08c1.51.73,3.42.81,4.5,1.35.08.03.07.1.12.14-.08.32-.05.25-.22.54-.68-.16-1.73-.18-2.7-.45-1.21-.34-3.55-1.04-3.1-2.14.58-.11.89.31,1.4.56Z"/><path class="cls-6" d="m6,42.68c1.31,1.13,3.7,2.13,5.36,2.59,1.16.31,2.63.06,3.62.63.69.4,1.71,1.92,2.35,2.92.72,1.14,1.52,2.1,2.24,2.96.78.93,1.42,2.03,2.13,3.01,1.49,2.04,3.43,3.52,4.94,5.66.74,1.04,1.47,2,2.35,2.91,2.44,2.53,4.51,5.11,6.98,7.55.65.65,1.11,1.48,1.71,2.03.34.31.83.58,1.25.95,1.24,1.1,2.69,2.52,5.01,3.26.59.19,1.38.31,2.09.47.72.16,1.56.38,2.13.4,1.33.05,2.68-.49,4.02-.83,1.4-.36,2.8-.6,3.96-1.13,2.5-1.14,5.25-1.58,7.92-2.06,1.1-2.35,3.59-3.85,4.56-6.28.32-.79.72-1.81,1.15-2.87.56-1.41.59-3.02.55-4.28,1.99.98,1.66-.52,2.24-1.99.32-.79.5-1.32.73-2.05.52-1.69,1.79-3.64,2.09-5.47.05-.31-.15-.59-.2-1.07-.04-.41.07-.84.01-1.17-.53-3.2-3.01-6.07-4.95-8.81-1.09-1.54-2.28-3.19-3.34-4.93-1.15-1.89-2.6-3.62-4.02-5.48-.57-.73-.98-1.54-1.51-2.31-1.02-1.48-2.15-2.88-3.24-4.53-.93-1.4-2.07-3.05-3.31-4.56-1-1.21-2.9-3.68-2.8-4.71.19-1.96,2.01-3.01,2.07-4.76.06-1.73-1.43-3.7-3.17-4.68-2.91-1.64-6.74-1.97-9.15-1.66-.72.09-1.44.42-2.2.56-.75.13-1.55.11-2.27.27-1.48.33-2.84.9-4.19,1.48-1.36.58-2.79.98-4.14,1.59-1.38.63-2.57,1.44-3.91,2.13-1.58.81-3.22,1.14-4.87,1.84-.7.29-1.55.75-2.34,1.13-1.4.67-2.47.85-3.32,2.46-.52.98-.86,2.34-1.25,3.37-.67,1.79-1.91,4.71-1.95,6.69-1.01.24-1.52,1-2.37,2.11-.28.36-.68.63-.93.98-.25.35-.31.84-.57,1.21-.49.71-1.64,1.67-2.09,2.77-.21.52-.22,1.29-.37,1.83-.35,1.27-.76,2.46-.99,3.84-.2,1.25-.59,2.69-.31,3.48.21.58,1.77,2.07,2.32,2.54Zm-.64-3.59c.17.1.3.11.42.08-.1.29-.01.34-.22.54-.26-.12-.25-.36-.21-.62Zm1.87-5.82c.04-.05.06-.15.14-.13-.06.16.17.18.03.37-.1.11-1.1,3.16-.65,1.63.08-.6.17-1.19.48-1.88Zm4.43-7.5c.54.33.92,1.27,1.43,1.83-1.32,1.65.05,2.83.24,4.6.11,1.02-.32,2.67.27,3.16.51.43,1.37.3,1.68.76-.38.58.24,1.38.05,1.46-1.23-.06-2.78-.89-4.21-1.41-1.83-1.92-3.79-4.7-1.7-8.15.22-.37.72-.83,1.05-1.29.32-.44.66-1.05,1.19-.97Zm2.73-3.23c1.1.62-.1,2.23-.27,3.4-.66-.81.29-2.31.27-3.4Zm-1.35,1.8c.1-.3,0-.86.32-1.04-.23.36-.04.87-.32,1.04Zm.57-2.56c.11-.2-.14-.57.17-.65-.09.23.29.64-.17.65Zm59.77,27.96c-.22.69-.89,1.35-1.4,1.69-1.26.86-2.59,1.04-4.11,1.06-.85.02-1.69-.22-2.45-.17-1.23.08-2.58.85-3.8,1.63-1.22.78-2.63,1.47-3.52,2.29-1.23,1.13-2.21,2.68-3.58,3.34-.53.25-1.36.51-1.83.53-1.85.07-2.77-1.02-3.94-2.29-.68-.72-1.43-1.41-1.98-2.05-.47-.55-.78-1.35-1.37-1.99-.59-.65-1.05-1.28-1.56-1.97-.98-1.37-2.25-2.75-3-3.98-1.22-2.01-1.66-4-2.73-6.03-1.49-2.85-3.52-5.6-5.1-8.42-.72-1.28-1.62-2.74-2.89-4.03-.57-.58-1.15-1.22-1.67-1.93-.54-.75-.97-1.63-1.63-2-1.81-1.01-3.65-.08-5.22-.46-2.24-.54-5.35-2.54-6.06-3.77-.3-.51-.71-2.25-.61-3.21.1-.97.63-2.98,1.47-3.92.46-.52,1.44-.72,2.26-1.16,2.26-1.21,5.17-1.97,7.11-2.93,1.44-.71,2.51-1.53,3.8-2.08,1.26-.54,2.52-.99,4.07-1.62,1.88-1.14,4.24-1.24,6.42-1.67,1.71-.34,3.02-.73,4.98-.53,2.99.29,7.76,2.16,7.24,4.86-.29,1.49-1.82,2.84-2.06,4.49-.18,1.23,1.32,3.18,2.06,4.33,1.03,1.59,2.1,2.81,3,3.98,2.04,2.66,3.88,5.55,5.6,8.08.93,1.36,2.09,2.56,3.03,3.91,1.9,2.73,3.66,5.44,5.6,8.08.97,1.32,2.03,2.72,2.79,4.08.51.92,1.4,2.82,1.07,3.85ZM16.18,24.15c-.33,1.06-.61,2.11-1.11,3.25-.52-.83.41-2.62.71-3.59.05.15.21.25.41.34Zm.76.57c.22.1.52.16.59.33-.41,1.1-.98,2.27-1.22,3.29-.29-.05-.25-.23-.52-.3.53-1.17.81-2.24,1.14-3.32Zm1,4.72c-.14-.26-.65-.36-.84-.6.26-1.08.85-2.3,1.28-3.45.28.2.64.37,1.06.51-.52,1.14-.91,2.58-1.5,3.54Zm7.45-2.43c-.2.38-.46,1.42-.63,1.36.2-.38.46-1.42.63-1.36Zm-1.11,3.25c-.21.38-.46,1.42-.64,1.36.2-.38.46-1.42.64-1.36Zm2.15-2.92c.11.27.27.53.4.79-.59,1.95-1.57,4.07-2.34,6.09-.3-.17-.34-.45-.55-.67,1.04-2.01,1.46-4.86,2.48-6.21Zm.61,2.74c.05.02.1.04.16.06.29.11.67.15.69.53-.78,2.02-1.42,3.59-2.36,5.25-.37-.12-.44-.15-.69-.33.86-1.8,2.34-5.47,2.2-5.52Zm-.12,7.53c-.37-.33-.55-.75-.7-1.18,1.05-1.64,1.82-3.94,2.77-5.82.88.57.33,1.19-.12,2.11-.71,1.46-1.34,3.62-1.95,4.89Zm1.18,2c-.33-.14-.54-.88-.75-1.29,1.28-1.31,1.67-4.71,2.94-6.02.2.33.53.6.5,1.01-.13,1.73-2.31,4.41-2.69,6.3Zm3.36-5.5s.07.03.08.03c.2.6.58,1.12.96,1.64-1.02,2.03-1.83,4.52-2.77,6.72-.53-.52-.87-1.13-1.09-1.78,1.19-2.02,1.51-4.94,2.82-6.62Zm1.15,12.7c-.21-.37-.97-.86-.92-1.54.07-1.04,2.36-5.81,2.9-6.14.28.59.72,1.1.94,1.72-1.32,1.17-1.98,3.87-2.91,5.95Zm1.54,2.68c-.24-.44-1.07-1-.98-1.83.14-1.22,2.26-5.34,2.86-6.06.2.54.91,1.01.75,1.74-.06.32-.38.6-.56.95-.74,1.51-1.36,3.71-2.07,5.21Zm1.23,2.11c-.33-.3-.6-.76-.56-1.31.08-.99,2.2-5.27,2.57-6,.88,1.06.2,1.97-.49,3.5-.56,1.24-1.02,2.68-1.51,3.81Zm1.49,2.12c-.41-.1-.69-.76-1-1.11.97-1.7,1.55-4.28,2.58-5.81.07.41.56.67.51,1.19-.14,1.65-2.08,4.06-2.1,5.73Zm2.58-4.82c.42.55,1.28,1.32,1.16,1.63-.75,1.89-1.51,3.78-2.26,5.67,0-.03-.71-1.08-.98-1.65.52-1.75,1.2-3.96,2.08-5.65Zm21.97,12.09c-1.25.8-2.43,1.74-3.69,2.49-1.26.73-2.49,1.68-3.83,2.16-1.63.58-3.96.33-6.03-.24-3.47-.96-4.31-3.94-6.63-5.71.98-1.69,1.18-3.59,2.09-5.47.46.41.91.81,1.2,1.29-.1.83-1.94,3.63-1.13,3.96.85.34,1.11-2.27,1.66-3.03,1.96,1.71,4.02,5.61,7.84,5.38,1.26-.07,2.55-.89,3.56-1.46,1.38-.92,2.47-3.32,4.03-3.34.02.78-1.93,3.81-1,4.1.62.19,1.17-1.69,1.43-2.49.37-1.09.41-1.82.82-2.73.41-.24.76-.61,1.21-.78-.29.71-.58,1.75-1.02,3.01-.51,1.45-1.19,2.41-.51,2.86Zm-4.28,7.11c-1.94.14-3.66.47-5.34,1.2-.9.39-1.54,1.09-2.48,1.26-1.64.31-3.87,0-5.54-.77-3.8-1.77-5.7-4.72-7.88-7.1-.47-.51-1.1-.86-1.07-1.6,1.07-.03,2,.52,3.08.87,1.45.47,3.22.8,4.52,1.53,1.19.67,1.83,2.11,3.36,2.87,1.71.85,2.87.75,4.27,1.25-1.6,1.19-3.34,1.94-5.59.92-1.6-.73-2.44-2.75-3.9-3.09-.8.49.81,1.67,1.39,2.17.73.65,1.52,1.5,2.33,1.83,2.75,1.12,4.93-.05,6.54-1.26.18-.18.15-.32.14-.58,1.53.15,2.84-.18,4.12-.61.22.31,1.81.59,2.08,1.1Zm-16.61-9.14c-.42-.59-.94-1.14-1.38-1.72.95-1.59,1.47-4.17,2.49-5.58.21.62.89,1.03,1.15,1.63-.87,1.9-1.38,3.98-2.26,5.67Zm24.99-4.89c-1.04,1.16-1.51,4.32-2.41,5.61-.17.24-.93.76-1.01.5,1.09-2.09,1.33-6.34,3.42-6.11Zm.98.03c.31.17.49.03.76.12-.51,1.55-1.55,3.33-1.7,4.72-.4.11-.78.27-1.26.22.72-1.72,1.35-3.65,2.2-5.06Zm3.08.24c-.58,1.45-1.15,2.9-1.73,4.35-.01.03-.23.58-.12.31.58-1.45,1.15-2.9,1.73-4.35.06-.14.09-.23.12-.31Zm-1.52,3.8c.57-1.42,1.13-2.85,1.7-4.27.12-.31,1.03-.18,1.41-.34-.31.65-.24,1.5-.65,2.35-.46.96-1.41,1.99-.87,2.35.9.6,1.66-2.52,2.11-3.12.04-.08.06-.05-.01.08-.34,1.11-.94,2.22-1.41,3.39-.77-.53-2.34-.3-2.28-.46Zm-6.48,14.16c1.2-.87,1.71-3.31,3.1-3.71-.77,1.41-1.71,2.39-2.49,3.77-.21-.13-.54.23-.61-.06Zm-2.39.57c.67-.93,1.18-2.24,1.69-3.55.61-.02,1.25,0,1.83-.08-.56,1.29-1.93,2.12-2.07,3.4-.54-.06-.93.22-1.44.23Zm.77-3.74c.06.04.07.1.02.19-.59,1.19-1.23,3.09-1.97,3.81-.12.12-.79.49-.8.22.77-1.66,1.32-4.6,2.75-4.21Zm-3.08-3.12c1.3-1,3-1.81,4.59-2.94,1-.71,1.84-1.76,2.93-2.16,1.03-.38,2.55-.54,3.59-.64-.36,3.48-2.32,6.42-4.94,7.21-1.91.58-3.76-.55-6.17-1.46Zm-17.24,3.3s.68.42.98.57c-.28.91-.96,2.2-.21,2.44.66.21.75-1,1.16-1.79.38.27.94.46,1.34.71-.19.85-1.28,2.09-.24,2.42.58-.14.7-1.36,1.07-2,3.04.65,5.24,1.1,7.36.05.5-.24.9-.65,1.43-.87,1.54-.63,3.36-1.03,5.12-1.11-.49,1.48-1.45,3.23-1.71,4.27-.33-.03-.96.71-1.02.31.48-.99,1.78-2.87,1.22-3.75-.87.11-.95,1.42-1.36,2.25-.44.88-1.24,1.55-1.37,2.24-1.64.06-3.3,1.28-5.23,1.25-.88-.02-2.6-.5-3.57-.8-2.85-.88-2.37-1.75-5.91-3.79.32-.8.64-1.61.96-2.41Zm-6.74-7.73c1.03,2.13,3.44,3.67,4.54,5.77-.23.74-.94,1.69-.17,2,.61.16.59-1.11,1.01-1.4.29.37.83.63,1.02,1.04-.32.66-.52,1.58-.91,2.06-2.09-2.47-4.81-4.67-6.55-7.29.38-.66.52-1.88,1.05-2.19Zm-2.92-1.34c.91.46,1.96.58,1.99.52-.3.75-.6,1.5-.9,2.25-.9-.51-.78-.79-1.65-1.38.19-.47.37-.93.56-1.4Zm.77-6.14c-.02-.23.18-.62.17-.88-.02-.92-.33-2.14-.17-2.96.14-.66.21-1.19.96-3.07,0,0,.07.03.07.03,2.02,5.16,4.91,9.07,8.22,13.03-3.17-1.39-5.9-.8-8.67-1.26.45-1.59-.48-3.26-.58-4.88Zm-2.76,5.35c.94.14.86-2.09,1.6-2.43.09,1.16.29,2.62-.49,3.94-.36-.51-.84-.97-1.1-1.52Zm-1.34-1.61c.64-.56.84-2.14,1.41-2.86.25.4.52.81.78,1.21-.42.91-.72,2.11-1.22,2.84-.27-.42-.62-.81-.96-1.19Zm1.78-5.14c.33.2.78.24.59.78-.22-.25-.5-.47-.59-.78Zm5.54-14.35c-1.37,1.15-1.95,4.14-3.02,6-.14-.29-.68-.57-.66-1.07.05-.97,2.48-5.86,2.79-6.54.22.57.77,1,.89,1.61Zm-8.86,12.76c.1.37.46.61.61.96-.32,1.18-1.62,3.38-.82,3.63.91.29.88-1.95,1.46-2.75.42.36.64.8.96,1.2-.46.99-.78,2.27-1.32,3.08-.81-.88-1.6-1.76-2.36-2.66.79-.98.76-2.74,1.47-3.46Zm-2.87,1.55c.58-.8.85-2.33,1.42-3.12.09.29.3.52.63.7-.57,1.07-.49,2.84-1.49,3.28-.16-.3-.28-.61-.56-.85Zm-.11-4.45c.08.26.56.36.76.57-.44.97-.76,2.22-1.28,3-.79-.7.06-2.76.53-3.57Zm-1.18-1.55c.12.25.3.47.43.71-.46,1.03-.72,1.98-.87,2.89-.36-.23-.49-.56-.75-.84.55-.68.44-2.2,1.2-2.76Zm-1.42-2.99c.19.67.58,1.25.76,1.92-.41.89-.71,2.05-1.19,2.76-1.31-.9.21-3.35.43-4.69Zm-1.59.81c.33-.84.64-1.77,1.01-2.3-.47,1.43-.66,3.07-1.28,4.35-.58-.44-.03-1.29.28-2.05Zm3.94-11.03c.59.8.93,1.7,1.63,2.45-.58.98-.77,2.09-1.08,3.17-.21.71-.67,1.73.24,1.89.72-.97.71-3.04,1.52-4.26.13.33.51.55.53.93-.14.91-2.3,4.47-1.36,4.77.95.3,1.44-3.47,2.05-3.78.14.49-.12,1.34-.35,2.02-.35,1.06-1.58,3.06-.87,3.34.64.26.96-1.2,1.19-1.78.38-.95.74-1.75.96-2.23.1.36.73.74.61,1.05-.25.63-.6,1.5-.93,2.33-.29.72-1.14,1.71-.31,2.04.79-.5.92-2.34,1.48-3.37.29.23.7.67.7,1.18,0,1.21-1.26,3.04-.6,3.99,1.07-.2.93-2.21,1.24-3.11.55.34.61.9,1.01,1.31-.32,1.76.33,3.46-.78,5.35-1.01-.81-1.73-1.88-3.03-2.56-.77-.4-1.72-.55-2.42-1.15-1.51-1.27-1.59-3.4-2.69-4.76.08-1.23-.58-2.58.1-4.1.12-.28.42-.49.57-.76.78-1.4.87-2.67.49-3.94-.08-.04-.02-.12.11-.05Zm-4.83,10.77c-.16.24-.19.76-.42.82-.02-.05.36-.99.42-.82Zm4.65-12.35c-1.25-.41-2.03-.81-3.08-1.3.27-1.19,1.29-3.32,1.24-3.34.38.15.77.31,1.16.46-.06-.02-1.77,2.78-.85,3.04.89.26,1.45-3.19,2.15-4.04.4,0,.75-.16,1.24.05-.61,1.59-1.18,3.72-1.86,5.13Zm-1.79,4.49c-1.62-.76-3.35-1.48-4.95-2.24.17-1.81-.3-3.35-.75-4.89.05-.09.1-.18.22-.09,1.62,1.14,3.34,2.25,5.16,3.32.1,1.31,1.31,2.14.33,3.91Zm-1.1,2.53c-.68-.54-1.11-1.2-1.51-1.86.64.26,1.38.48,1.72.87-.15.37-.09.64-.22.99Zm-12.59,1.55c.92-2,.74-3.88,1.73-5.7.01.34.36.54.34.95-.03.72-.73,2.62-.96,3.31-.2.62-.82,1.38-.29,1.86,1.39-.43,1.29-3.03,1.92-4.36.4.34.82.67.99,1.12-.09.63-.5,1.45-.83,2.28-.29.73-.97,1.65-.4,2.09.7.04.81-1,1.1-1.72.32-.8.67-1.67.93-2.33.05-.12,1.6.49,2.05.82-.08.92-1.99,3.76-1.3,4.25.88.62,1.83-3.45,2.22-3.97,1.23.35,2.56.38,3.72,1.03-.85,1.49-1.33,2.92-2.37,3.91-2.65.08-7.21-1.34-8.85-3.53Z"/></g></svg>