<?xml version="1.0" encoding="UTF-8"?><svg id="Layer_2" xmlns="http://www.w3.org/2000/svg" viewBox="0 0 87.03 75.36"><defs><style>.cls-1{fill:#f6a1b9;}.cls-2{fill:#fff;}.cls-3{fill:#f382a2;}.cls-4{fill:#ffd15b;}.cls-5{fill:#c1e7f1;}.cls-6{fill:#3a1312;}</style></defs><g id="Layer_15"><path class="cls-4" d="m79.95,55.49c-.91,1.14-2.17,2.39-2.01,3.84.64-.74,1.35-1.64,2.15-2.59.96-1.14,2.37-2.43,1.83-3.99-.64.85-1.21,1.79-1.97,2.74Z"/><path class="cls-4" d="m56.26,67.12c-.53-.77-1.45-1.68-2.19-2.36-1.17-1.06-2.05-1.98-4.04-1.57-1.73.36-1.75.95-2.73,1.9-.55.53-1.21,1.18-1.68,1.53-.76.55-1.81.89-2.79.65-3.36-.83-4.09-5.6-5.78-8.86-.75-.33-.88-1.01-1.81-1.14-.94-.14-1.97.3-3.03,0,0,.08.02.17.03.25.35,3.19,1.63,5.47,3.48,7.1.62.55,1.09,1.29,1.71,1.74,1.04.77,2.57,1.4,3.96,2,3.53,1.52,7.73,2.23,11.95,2.54.91.07,1.84.03,2.78.11,1.33.12,2.64.7,3.98.23-2.31-.26-2.67-2.44-3.83-4.12Z"/><path class="cls-4" d="m77.67,61.29c-1.18.36-1.12,1.19-1.98,1.57-4.14,1.81-3.9-4.42-6.57-4.4-.85,0-1.53.96-1.78,1.54-.42,1.02-.47,2.55-.74,4.04-.13.77-.5,1.68-.73,2.52-.29,1.03-.25,2.03-.55,2.67-.36.78-1.22,1.24-1.74,1.79,3.33-.25,5.33-1.28,7.82-2.3,2.98-1.22,5.37-2.77,7.4-4.52.17-.25-.33-.29-.25-.73,1.64-1.29,3.49-2.81,3.55-5.1-1.21,1.73-2.44,3.45-4.18,4.75-1.08-.52.46-1.41.91-1.87,1.38-1.42,2.74-3.41,3.63-4.61-.04-.33-.07-.66-.11-1-1.86,1.75-3.31,3.7-4.69,5.65Z"/><path class="cls-4" d="m23.18,47.15c.93-.41,1.9-1.14,2.75-1.73.85-.59,2.18-1.17,2.02-2.24-.61.54-1.27,1.23-2,1.65-1.16.67-2.73.97-4.14,1.38-.54.16-1.28.75-1.42.07-.1-.44.58-.74,1-.87,2.6-.81,4.99-1.2,5.96-3.1-1.9.4-2.02,1.74-3.64,2.09-1.34.28-2.29-.35-3.05-.93-1.1-.84-2.02-2.01-2.72-3.31-.73-1.34-1.25-2.93-2.06-4.15-.25-.37-.69-.76-.93-.82-.74-.18-1.97.57-2.81.48.08.51,1.18.54,1.4,1.19-.14.09-.1.32-.3.37-.83.21-1.56-.94-2.56-1.06-.46-.06-.92.16-1.33.15-1.1-.04-1.65-.69-2.38-1,1.89,1.47,4.46,2.35,6.75,3.2.76.29,1.68.46,2.23,1.1-.4.98-1.47.12-2.03-.11-2.2-.9-4.65-1.67-6.53-2.72.07.54.23.98.41,1.38.01-.19.4-.08.57-.15,2.05.91,4.32,1.53,6.19,2.68.56,0,1.05.07,1.09.72-.06.03-.09.08-.06.18-.97.38-1.79-.37-2.52-.73-1.62-.81-3.3-1.35-5.09-1.88-.03.81.91,1.2,1.51,1.51,1.35.71,2.79,1.34,4.32,1.79.6.18,2.18.29,2.19.85.01.48-.61.47-1.13.38-2.39-.43-4.4-1.7-6.34-2.58.11.44.29.77.39,1.22,1.07.37,2.15.93,3.34,1.31,1.16.38,2.68.26,3.42,1.3-.14.09-.1.32-.3.37-2.17-.38-4.05-1.12-6-1.77.13.72.53,1.1.77,1.68,1.13.12,1.86.47,3.04.84.45.14,2.87.6,2.9,1.11.03.59-.77.44-1.13.38-1.38-.25-2.81-1.08-3.83-1.17.74.31,1,1.11,1.76,1.49,1.02.51,2.45.23,3.31,1.06.25.23-.22.39-.18.69,2.23.78,4.66,1.3,7.25,1.63,1.44-.81,3.06-1.48,4.27-2.49-.06-.4.07-.65-.04-1.09-.91.65-1.75,1.08-2.92,1.75-.52.3-2.93,1.73-3.09.93-.09-.44.72-.81,1.31-1.07.65-.29,1.14-.6,1.59-.85,1.75-.98,3.26-1.37,3.45-3.07-1.87,1.05-3.57,3.04-6.14,3.04,0-.11-.06-.18-.11-.24.2-.7,1.02-.6,1.59-.85Z"/><path class="cls-4" d="m27.66,49.68c-.89.5-1.7,1.06-2.6,1.55,1.3.07,2.29-.6,2.6-1.55Z"/><path class="cls-4" d="m81.72,50.15c-.08,0-.17.02-.25.03-1.09,1.15-2.44,3.17-3.28,4.83.06.53.12,1.05.17,1.58.87-1.42,2.55-3.38,3.82-5.22-.1-.48-.28-1.23-.46-1.21Z"/><path class="cls-4" d="m60.36,41.09c-.6-.02-1.2,1.26-1.5,1.68-.45.63-.99,1.44-1.58,1.69-1.61.68-3.06-.11-3.88-.83-.74-.66-1.09-1.95-1.91-2.06-1.49-.19-2.99,1.98-2.9,3.43.12,1.84,1.51,1.92,2.8,2.47.89.38,1.53.66,2.36.75,1.15.13,2.74-.26,3.98-.53,2.63-.58,5.28-1.98,6.02-4.12-.83-.2-1.49-.24-2.11-.86-.41-.4-.71-1.6-1.27-1.63Zm-10.62,3.62c.02-.27.13-.62.61-.57.57,1.37,1.67,2.07,3.42,1.98-.04.24.14.2.13.41-1.24,1.41-4.25-.69-4.15-1.81Zm5.41,2.51c-.04-1.87,1.63.51,0,0h0Z"/><path class="cls-4" d="m77.67,50.86c.52-.72,1.11-1.39,1.34-2.34-1.27-.45-1.63,1.31-1.34,2.34Z"/><path class="cls-4" d="m80.46,49.46c-.27-.07-.4-.32-.71-.34-.29,1.78-2.32,2.19-2.12,4.36,1.14-.88,2.09-2.57,2.83-4.02Z"/><path class="cls-1" d="m61.44,23.56c-2.05.46-3.93,1.53-5.93,1.92-2.45.48-5.13.74-7.41.65-.79-.03-1.57-.24-2.37-.16-3.26.34-5.95,2.7-7.33,4.43-.37.46-.56,1.07-.92,1.53-.38.49-1.08,1.08-1.68,1.53-.64.48-1.26,1.12-1.87,1.38-.73.32-1.51.38-2.01.81-1.11.96-2.32,4.51-2.32,6.4,0,1.01.14,1.88.06,2.77-.08.8-.44,1.58-.49,2.41-.17,2.83.72,6.83,2.14,7.92,1.04.8,2.52.23,3.91.32,1.04.07,2.53,1.07,3.14,1.84,1.53,1.9,1.78,5.64,3.33,7.29.35.37,1.55,1.11,2.13,1.02.67-.1,1.98-1.52,2.32-1.86.72-.72,1.3-1.58,2.22-1.93,1.73-.65,3.91-.46,4.98.12,1.45.79,3.45,2.93,4.35,4.31,1.3,2.02,1.6,4.15,5.07,3.22,1.22-.65,1.02-1.54,1.27-2.92.19-1.02.76-2.24.95-3.55.2-1.31.41-2.78.77-3.7.6-1.55,2.42-3.09,4.45-2.34.83.3,2.13,1.54,2.62,2.4.61,1.09.68,2.08,1.65,2,.52-.04,1.13-.7,1.38-1.16,1.64-3.06-1.96-11.75,1.64-13.3,1.87-.81,2.62.54,3.9,1,.01-.59.77-.6.98-1.03.29-1.07.51-2.08.13-3.38-.11-.38-.45-.8-.65-1.27-.42-1.01-.89-2-1.16-2.9-.31-1.04-.26-2.22-.61-3.21-.12-.32-.42-.56-.52-.87-.21-.62-.14-1.25-.37-1.81-.34-.84-1.38-2.28-2.44-3.01-1.38-.96-3.47-1.38-5.01-2.73-.73-.64-1.43-1.15-2.21-1.69-.85-.59-1.56-1.32-2.29-1.68-1.33-.65-4.05-1.18-5.81-.79Zm-6.41,12.74c1.13-.28,3.29-.33,4.42-.32.85,0,1.7.31,2.42.57.74.27,1.69.53,1.73,1.24-.5.9-1.26-.19-1.72-.4-2.01-.9-6.66-.41-9.2.43-.8.26-1.68,1.04-2.38.52.41-1.26,3.07-1.62,4.74-2.04Zm-16.06-4.53c.59-.95,2.01-2.63,2.87-2.93.81-.28,2.41-.55,3.1-.09-.27.93-2.04.61-2.83.99-.94.44-1.94,1.76-2.41,2.54-.28.46-.27,1.56-1.2,1.31-.2-.51.14-1.28.47-1.82Zm-1.63,3.46c.01.08.11.05.17.07.26.29.16.6.02.92-.31.09-.39.1-.68,0-.22-.4-.03-.94.48-.98Zm-5.72,6.1c-.04-1.13.51-3.63,1.5-3.95.78-.25,2.24-.53,2.71.2-.32.73-1.63.34-2.21.58-1.52.63-.65,3.13-1.26,4.51-.77.14-.72-.8-.74-1.35Zm21.63,16.78c-.73,0-1.49.11-2.18.07-1.17-.07-2.49-.65-3.81-.93-.83-.17-1.71-.04-2.38-.24-.33-.1-.69-.39-1.07-.55-1.34-.58-2.35-1.27-3.75-1.94-1.94-.94-3.37-1.85-4.91-3.32-.65-.62-1.77-1.38-1.61-2.34.54-.3.9.36,1.17.63,1.78,1.76,3.42,3.14,5.86,4.31,1.36.66,2.25,1.27,3.66,1.87.32.14.6.4.9.49.65.19,1.56.07,2.38.24,1.2.25,2.38.8,3.46.88.64.05,1.66.01,2.44-.02.53-.02,1.5-.45,1.73.4-.39.65-1.28.46-1.88.46Zm5.65-.63c-.61-.49.16-1.45.66-.83.1.53-.07.85-.66.83Zm11.52-5.32c-1.91,1.43-3.47,2.76-6.14,3.79-.37.14-.93.65-1.33.15.23-.99,1.43-1.09,2.2-1.42,2.23-.98,4.72-3.03,6.22-4.56.15-.15.61-.42.84,0-.11.93-1.06,1.5-1.79,2.05Zm2.78-3c-.68-.47.29-1.29.61-.57-.01.34-.14.59-.61.57Zm5.78-10.06c.33.63-.26,1.09-.49,1.65-.72,1.78-1.2,4.01-2.45,5.23-.27.27-1.1,1.1-1.71.44.09-.65.61-.7.98-1.03,1.69-1.53,1.9-4.09,2.94-6.13.02-.11.13-.15.14-.27.3-.09.45,0,.6.1Zm-1.17-4.5c.42.7-.06,1.55-.25,2.3-.19.76-.44,1.53-.67,2.26-.78,2.39-1.57,4.18-2.95,6.05-.35.47-.99,1.52-1.75.95-.09-.66.55-.86.87-1.27,1.89-2.41,3.44-6.75,4.17-10.14.09-.23.35-.2.57-.15Zm-2.06-1.87c.15,2.82-.9,5.62-1.9,7.87-.32.72-.5,1.77-1.29,1.99-.75-.71.23-1.54.52-2.16,1-2.17,1.52-4.85,2.03-7.46-.12-.35.49-.34.65-.24Zm-3.2-.82c.32-.08.24-.07.58-.06.65,2.34-.27,4.96-.72,7.15-.13.65-.24,1.76-1.17,1.56-.38-.5.15-.86.28-1.29.24-.81.4-1.91.6-2.93.29-1.47.37-2.77.44-4.42Zm-2.1-1.45c.05-.12.16-.17.32-.2.76.27.58,1.38.57,2.12,0,.76-.08,1.64-.17,2.29-.18,1.35-.43,3.22-1.56,3.37-.31-.52.08-1.1.24-1.63.17-.56.3-1.13.39-1.81.18-1.34.2-2.7.21-4.14Zm-1.07-.52c.51.97.35,2.05.27,3.19-.07,1,0,2.56-.95,2.79-.31-1.7.27-3.88.19-5.92.16-.02.33-.04.5-.05Zm-2.14-1.06c.12-.01.31-.35.41-.13.55.27.56,1.47.59,2.29.04.88.01,2.07-.87,2.03-.18-.94-.13-2.9-.13-4.19Zm-2.35-.75c-.03-.34.42-.3.65-.24.39.59.96,3.22.02,3.19-.7-.33-.48-2.29-.66-2.95Zm-1.21,18.64c-1.16.94-3.4,2.09-5.44,2.54-3.23.71-5.31.72-7.6-.25-1.91-.81-3.68-1.39-3.74-4.13-.05-2.43,2.16-5.52,5.08-5.02,1.6.27,2.24,3.6,4.45,2.96,1.55-.45,1.58-3.9,4.31-3.59,1.29.15,1.38,1.96,2.54,2.49.99.45,1.7-.27,2.36.75-.11,2.14-.8,3.31-1.97,4.25Zm1.49-7.82c.1,1.81-1.81-.53,0,0h0Z"/><path class="cls-2" d="m6.38,29.92c.3,1.38,1.36,3.96,2.26,4.46,1.82,1.02,4.88-1.5,6.97-.86.63.19,1.47,1.22,1.79,1.74.71,1.15,1.39,3.05,2.27,4.54.68,1.15,2.32,3.09,3.52,2.97,1.15-.11,1.78-1.65,3.06-2.02.55-.16,1.36.03,1.81-.37.45-1.71,1.19-3.59,1.81-4.91-.99.3-2.51.92-3.2-.06.36-.73,2.09-.2,2.95-.67.3.06.38.49.41.63.64-1.02,1.61-1.79,3.22-2.04.94-1.02,1.93-1.35,2.7-2.23.47-.54.71-1.27,1.14-1.81,1.71-2.11,4.37-4.2,7.7-4.89,2.14-.44,3.61.09,5.8-.05,1.12-.08,2.78-.02,3.9-.43.84-.31,1.6-1.72,2.17-2.43.82-1.02,1.75-1.61,2.35-2.36,1.28-1.61,1.93-4.26,1.69-6.75-.27-2.82-1.96-4.92-3.81-6.31-2.51-1.88-5.97-2.61-9.58-2.97-7.42-.76-17.46,1.31-23.5,3.53-2.99,1.1-5.57,2.9-7.98,4.67-4.78,3.52-8.15,8.38-9.96,14.06.3,1.29.17,3.01.51,4.57Zm18.4,5.95c-.08-.06-.07-.22-.19-.23-.12-1.46,1.75.19.19.23ZM58.72,11.16c-.45,2.68-2.29,5.1-3.55,7.38-.45.8-.81,1.67-1.35,2.25-.48.52-1.31,1.33-2.24,1.09-.16-.25-.07-.36-.07-.66.22-.22.35-.33.73-.25,1.83-1.76,3.45-4.74,4.74-7.34.4-.82.63-3.2,1.75-2.47Zm-2.36-3.1c.28-.1.36.05.52.11-.21,2.24-1.31,4.41-2.24,6.39-.46,1-1.03,1.92-1.62,2.87-.54.87-1.04,2.06-2.18,2.35-.61-.43-.1-1.14.44-1.31,2.2-2.91,3.62-6.45,4.85-10.13.03-.13.11-.22.22-.28Zm-2.45-1.66c.05-.08.22.59.2-.44.05,0,.11-.01.16-.02.78,1.97.19,2.44-.13,3.37-.65,1.93-1.67,3.62-2.59,5.46-.38.76-.64,2.16-1.69,2.18-.19-1,.6-1.75.98-2.52.78-1.54,1.78-3.39,2.39-5,.34-.89.41-2.03.67-3.04Zm-2.7-.8c.05-.08.14-.14.23-.19.2-.04.27.1.43.12.01.92-.41,1.77-.63,2.68-.43,1.82-.96,3.43-1.53,5.13-.25.73-.45,1.82-1.38,2-.9-.42-.05-.83.27-1.37.55-.95.88-2.69,1.3-4.18.44-1.54.7-3.23,1.3-4.18Zm-2.67-.63c.22-.18.24-.16.57-.15.53,2.2-.2,4.71-.77,6.73-.18.63-.26,1.56-1.08,1.63-.54-.44.01-1.06.17-1.53.61-1.85.93-4.33,1.11-6.68Zm-2.73,3.41c.27-1.46.56-2.19.45-3.51.01-.09.16-.11.16-.11.05,0,.11-.01.16-.02.54-.06.58.87.58,1.46,0,.71-.35,1.72-.54,2.72-.12.6-.22,2.4-.73,2.5-1,.19-.16-2.62-.08-3.04Zm-1.96-3.31c.02-.11.13-.15.14-.27.27-.08.39.01.59.02.36,1.51.55,3.51-.55,4.1-.78-.23-.07-1.18-.05-1.93.02-.64-.28-1.42-.13-1.92Zm-1.4-.52c.33-.08.25-.07.58-.06.29.65.8,2.54-.4,2.48-.29-.48-.34-1.82-.18-2.42Zm-12.48,12.57c1.69-.31,2.56-1.96,4.42-2.68,3.19-1.23,5.36.18,6.43,2.65.97,2.25.16,4.62-1.12,5.84-1.68,1.62-5.16,2.85-8.28,3.44-2.5.47-4.71.09-6.65-.78-1.27-1.11-1.6-1.93-1.46-4.04.05-.8.08-1.34.3-1.88.35-.88,1.66-2.35,2.73-2.66,1.3-.37,2.44.32,3.63.1Zm-8.45-7.89c.96-.42,2.23-1.22,3.05-1.35.25-.04.56-.14.78.17.09.69-.83.85-1.31,1.07-1.11.5-2.26.93-3.36,1.55-.49.28-1.03.75-1.54.51-.06-.99,1.35-1.49,2.39-1.95Zm-4.79,3.81c.09.5-.39.87-.85.68-.51-.65.52-1.33.85-.68Zm-7.67,8.93c.79-2.86,3.03-5.68,5.05-7.54.39-.11.56.06.7.26-.07.65-.73.99-1.11,1.38-.94.97-1.99,2.16-2.66,3.32-.76,1.31-.95,2.85-1.44,4.45-1.07-.07-.65-1.49-.54-1.87Zm-.05,4.88c.07-.02.08.02.1.07,1.11.69,1.8,1.78,2.73,2.64,1.78,1.65,3.92,3.09,6.49,3.91.62.2,1.4.23,2.07.44.44.14,1.4.31,1.37,1.03-.58.67-1.41-.14-1.96-.29-1.3-.34-2.45-.5-3.55-.95-1.96-.81-3.92-2.44-5.48-3.93-.78-.75-1.64-1.57-2.14-2.62.14-.09.22-.23.39-.3Z"/><path class="cls-4" d="m57.91,22.86c1.29-.28,2.3-.79,3.68-1,.37-.87.26-2.51-.07-3.69-.72,1.95-2.49,3.05-3.6,4.69Z"/><path class="cls-4" d="m24.98,23.15c.45,1.5,2.9,1.77,3.81,1.77,3.51,0,8.7-1.72,10.11-3.65.75-1.03.83-2.45.18-3.72-.61-1.17-1.48-1.98-2.64-1.81-.55.08-1.09.17-1.56.34-1.88.69-2.77,2.48-4.65,2.79-1.17.19-2.13-.49-3.22-.23-1.62.39-2.54,2.79-2.02,4.51Zm12.22-2.03c.31.7-.53.91-.78.51-.16-.57.44-.77.78-.51Zm-2.01.81c.17-.08.6.03.71.34-.14.62-1.18.89-2.06,1.15-.85.26-1.92.5-2.71.64-1.1.19-3,.7-3-.51,2.1-.27,5.42-.82,7.06-1.62Z"/><path class="cls-3" d="m63.34,26.95c-.87,0-1.64,1.05-1.28,1.88.92,2.11,2.4,3.13,4.2,4.56,2.57,2.04,3.37,4.73,3.48,7.87.17,4.48-3.02,8.45-6.47,10.89-7.59,5.38-19.36,5.46-25.56-2.06-.27-.33-.81,0-.56.36,6.45,9.58,19.76,10.15,29.12,4.59,4.68-2.78,8.03-7.63,8.39-13.12.44-6.57-3.85-14.98-11.32-14.97Z"/><path class="cls-5" d="m41.72,5.2c-.41.16-.6.73-.22,1.04,2.3,1.85,5.41,1.59,7.42,4.04,1.58,1.94,3.19,5.52,1.92,7.99-.12.13-.23.27-.32.44-.11.18-.21.37-.32.56-1.62,2.84,2.74,4.8,4.45,2.2,4.99-7.59-4.32-19.51-12.93-16.26Z"/><path class="cls-6" d="m23.87,4.09c2.63-1.27,6.73-2.19,10.29-2.74,1.47-.23,3.15,0,3.85-.93-.14-.52-.36-.41-.8-.41-1.15-.02-2.72.45-4.13.71-2.68.49-4.68.87-6.89,1.6-.83.27-1.78.52-2.51.87-.73.34-1.62.74-1.77,1.46.73.63,1.36-.27,1.96-.55Z"/><path class="cls-6" d="m43.01,4.49c-.34,0-.26-.02-.58.06-.15.6-.1,1.95.18,2.42,1.19.05.68-1.84.4-2.48Z"/><path class="cls-6" d="m44.01,8.93c1.1-.59.91-2.59.55-4.1-.2,0-.32-.1-.59-.02,0,.12-.12.16-.14.27-.15.5.14,1.28.13,1.92-.02.75-.73,1.7.05,1.93Z"/><path class="cls-6" d="m45.88,11.41c.52-.1.61-1.92.73-2.52.2-1,.54-1.97.54-2.68,0-.59-.05-1.52-.58-1.46-.05,0-.11.01-.16.02,0,0-.15.02-.16.11.11,1.32-.17,2.08-.45,3.55-.08.42-.92,3.17.08,2.98Z"/><path class="cls-6" d="m47.25,13.19c.82-.07.9-1,1.08-1.63.57-2.02,1.29-4.53.77-6.73-.33-.02-.35-.03-.57.15-.18,2.35-.5,4.83-1.11,6.68-.16.47-.7,1.09-.17,1.53Z"/><path class="cls-6" d="m64.59,13.29c.03.44-.26,1.19.4,1.3.58.03.54-.82.53-1.32-.06-3.3-.92-5.04-2.12-7-.57-.94-1.8-3.48-2.62-2.4.92,1.78,2.91,3.5,3.43,5.93.21.98.31,2.42.39,3.49Z"/><path class="cls-6" d="m20.65,10.67c1.1-.62,2.25-1.05,3.36-1.55.48-.22,1.4-.38,1.31-1.07-.21-.31-.53-.2-.78-.17-.82.13-2.09.92-3.05,1.35-1.04.46-2.45.96-2.39,1.95.51.24,1.05-.23,1.54-.51Z"/><path class="cls-6" d="m48.33,15.34c.92-.18,1.13-1.27,1.38-2,.57-1.7,1.11-3.31,1.53-5.13.22-.91.64-1.76.63-2.68-.16-.02-.23-.16-.43-.12-.09.05-.18.11-.23.19-.59.96-.86,2.64-1.3,4.18-.43,1.49-.76,3.23-1.3,4.18-.32.55-1.17.95-.27,1.37Z"/><path class="cls-6" d="m49.87,17.02c1.06-.02,1.32-1.36,1.7-2.12.92-1.84,1.92-3.65,2.58-5.58.32-.93.91-1.41.13-3.37-.05,0-.11.01-.16.02.01,1.02-.15.35-.2.44-.27,1.02-.33,2.17-.67,3.06-.61,1.6-1.62,3.41-2.39,4.95-.38.77-1.16,1.61-.97,2.61Z"/><path class="cls-6" d="m67.02,10.91c.47-.44.26-1.4.1-2.11-.26-1.18-.81-2.83-1.9-2.73-.14.79.76,1.76,1,2.92.14.7-.13,1.91.8,1.93Z"/><path class="cls-6" d="m50.84,19.77c1.14-.29,1.64-1.47,2.18-2.35.59-.95,1.15-1.87,1.62-2.87.92-1.98,2.03-4.15,2.24-6.39-.16-.06-.24-.21-.52-.11-.11.06-.19.15-.22.28-1.23,3.68-2.65,7.22-4.85,10.13-.54.17-1.05.88-.44,1.31Z"/><path class="cls-6" d="m16.71,13.05c-.33-.64-1.36.04-.85.68.46.19.94-.19.85-.68Z"/><path class="cls-6" d="m7.9,14.78c-1.83.48.99,1.46,0,0h0Z"/><path class="cls-6" d="m9.58,23.85c.5-1.6.68-3.14,1.44-4.45.67-1.17,1.72-2.35,2.66-3.32.37-.39,1.04-.73,1.11-1.38-.14-.2-.31-.37-.7-.26-2.02,1.87-4.26,4.69-5.05,7.54-.11.38-.53,1.8.54,1.87Z"/><path class="cls-6" d="m2.96,28.7c-.15-4.56,1.12-7.98,3.29-10.54.29-.34.92-.67.78-1.26-.27-.38-.59-.14-.76,0-2.81,2.44-4.38,6.89-4.12,12.15.03.5-.13,1.21.34,1.56.95-.13.49-1.13.46-1.9Z"/><path class="cls-6" d="m52.24,20.96c-.38-.08-.52.03-.73.25,0,.3-.08.41.07.66.93.24,1.76-.57,2.24-1.09.54-.58.9-1.45,1.35-2.25,1.26-2.28,3.1-4.7,3.55-7.38-1.11-.73-1.34,1.65-1.75,2.47-1.29,2.6-2.9,5.58-4.74,7.34Z"/><path class="cls-6" d="m23.58,19.69c-.22.54-.24,1.09-.3,1.88-.14,2.12.19,2.93,1.46,4.04,1.94.86,4.14,1.25,6.65.78,3.12-.59,6.6-1.82,8.28-3.44,1.27-1.23,2.09-3.6,1.12-5.84-1.07-2.47-3.24-3.88-6.43-2.65-1.85.71-2.72,2.36-4.42,2.68-1.19.22-2.33-.47-3.63-.1-1.07.31-2.38,1.77-2.73,2.66Zm3.42-1.05c1.1-.26,2.05.42,3.22.23,1.88-.31,2.77-2.1,4.65-2.79.47-.17,1.01-.26,1.56-.34,1.16-.17,2.03.64,2.64,1.81.66,1.27.58,2.69-.18,3.72-1.41,1.92-6.6,3.65-10.11,3.65-.91,0-3.36-.27-3.81-1.77-.52-1.72.4-4.12,2.02-4.51Z"/><path class="cls-6" d="m1.27,19.47c-.37.57-.73,1.34-1.01,2.3-.19.66-.68,1.98.53,1.79.09-1.52.79-2.55,1.17-3.83-.14-.2-.31-.37-.7-.26Z"/><path class="cls-6" d="m37.2,21.12c-.34-.26-.94-.06-.78.51.25.4,1.1.19.78-.51Z"/><path class="cls-6" d="m31.13,24.06c.79-.13,1.86-.38,2.71-.64.87-.26,1.92-.53,2.06-1.15-.11-.31-.54-.43-.71-.34-1.64.8-4.95,1.35-7.06,1.62,0,1.21,1.9.69,3,.51Z"/><path class="cls-6" d="m16.22,33.71c1.1.45,2.25.61,3.55.95.55.15,1.39.95,1.96.29.02-.71-.94-.89-1.37-1.03-.67-.21-1.44-.25-2.07-.44-2.57-.81-4.71-2.25-6.49-3.91-.93-.86-1.62-1.95-2.73-2.64-.01-.05-.03-.1-.1-.07-.16.07-.25.2-.39.3.5,1.05,1.36,1.87,2.14,2.62,1.56,1.5,3.52,3.13,5.48,3.93Z"/><path class="cls-6" d="m72.42,24.7c.15.45-.14,1.4.66,1.36.68-1.1-.04-2.37-.77-3.11-.85-.87-2.96-2.2-3.39-.97,1.2.8,2.98,1.14,3.5,2.72Z"/><path class="cls-6" d="m39.7,32.28c.48-.78,1.47-2.1,2.41-2.54.8-.38,2.57-.06,2.83-.99-.69-.46-2.29-.19-3.1.09-.86.3-2.29,1.98-2.87,2.93-.33.53-.67,1.3-.47,1.82.93.25.93-.85,1.2-1.31Z"/><path class="cls-6" d="m65.56,31.1c.95.03.37-2.61-.02-3.19-.22-.06-.68-.1-.65.24.18.66-.03,2.63.66,2.95Z"/><path class="cls-6" d="m68.24,31.05c-.03-.82-.03-2.02-.59-2.29-.1-.22-.28.12-.41.13,0,1.29-.05,3.26.13,4.19.88.04.9-1.15.87-2.03Z"/><path class="cls-6" d="m68.69,35.85c.96-.22.89-1.64.97-2.64.08-1.14.23-2.29-.28-3.26-.16.02-.33.04-.5.05.08,2.04-.51,4.15-.19,5.85Z"/><path class="cls-6" d="m24.59,35.64c.12,0,.12.17.19.23,1.55-.04-.31-1.69-.19-.23Z"/><path class="cls-6" d="m69.61,38.05c1.13-.15,1.38-2.02,1.56-3.37.08-.65.16-1.53.17-2.29,0-.74.19-1.85-.57-2.12-.16.03-.27.09-.32.2-.02,1.44-.03,2.8-.21,4.14-.09.68-.22,1.25-.39,1.81-.16.52-.55,1.11-.24,1.63Z"/><path class="cls-6" d="m37.53,36.22c.14-.32.24-.63-.02-.92-.06-.01-.16.01-.17-.07-.52.04-.7.58-.48.98.28.11.36.1.68,0Z"/><path class="cls-6" d="m71.23,40.56c.93.2,1.04-.91,1.17-1.56.46-2.19,1.38-4.8.72-7.15-.34,0-.26-.02-.58.06-.06,1.66-.15,2.96-.44,4.42-.2,1.02-.36,2.12-.6,2.93-.13.43-.66.8-.28,1.29Z"/><path class="cls-6" d="m33.62,38.17c.58-.24,1.89.15,2.21-.58-.47-.74-1.94-.46-2.71-.2-.99.32-1.53,2.82-1.5,3.95.02.54-.03,1.48.74,1.35.61-1.39-.25-3.88,1.26-4.51Z"/><path class="cls-6" d="m73.07,40.44c-.29.62-1.27,1.45-.52,2.16.8-.22.97-1.27,1.29-1.99,1.01-2.24,2.05-5.04,1.9-7.87-.15-.1-.77-.11-.65.24-.51,2.61-1.03,5.29-2.03,7.46Z"/><path class="cls-6" d="m87.03,40.4c.01-1.08-1.04-.8-1.67-1.4-1.46-1.4-1.24-4.53-1.73-6.53-.14.02-.28.03-.41.05-.33.04-.3.72-.29,1.2.06,3.16,1.42,7.24,4.11,6.68Z"/><path class="cls-6" d="m52.68,37.82c2.55-.84,7.19-1.33,9.2-.43.47.21,1.22,1.3,1.72.4-.04-.71-1-.97-1.73-1.24-.72-.26-1.57-.56-2.42-.57-1.13-.01-3.29.04-4.42.32-1.67.42-4.33.78-4.74,2.04.7.53,1.58-.25,2.38-.52Z"/><path class="cls-6" d="m72.19,46.17c.76.57,1.4-.48,1.75-.95,1.38-1.87,2.16-3.65,2.95-6.05.24-.73.48-1.5.67-2.26.18-.75.67-1.6.25-2.3-.22-.05-.49-.08-.57.15-.73,3.38-2.28,7.73-4.17,10.14-.32.41-.96.61-.87,1.27Z"/><path class="cls-6" d="m11.73,50.86c-1.52-.76-3.05-2.46-4.05-3.92-.09-.13-2-3.19-2.13-1.78-.06.64,1.1,1.9,1.54,2.52,1.01,1.43,2.27,2.58,3.67,3.55.57.39,1.55,1.19,2.05.28-.34-.75-.56-.38-1.08-.64Z"/><path class="cls-6" d="m63.29,41.78c-1.16-.53-1.26-2.35-2.54-2.49-2.73-.31-2.76,3.14-4.31,3.59-2.21.65-2.86-2.68-4.45-2.96-2.92-.5-5.13,2.59-5.08,5.02.06,2.74,1.83,3.31,3.74,4.13,2.29.97,4.37.96,7.6.25,2.04-.45,4.28-1.6,5.44-2.54,1.17-.95,1.86-2.11,1.97-4.25-.66-1.02-1.36-.3-2.36-.75Zm-5.56,5.92c-1.24.27-2.83.65-3.98.53-.83-.09-1.47-.37-2.36-.75-1.28-.55-2.67-.62-2.8-2.47-.1-1.46,1.41-3.63,2.9-3.43.82.11,1.17,1.4,1.91,2.06.82.72,2.27,1.51,3.88.83.58-.25,1.13-1.06,1.58-1.69.3-.42.9-1.7,1.5-1.68.56.02.86,1.22,1.27,1.63.63.62,1.29.66,2.11.86-.74,2.13-3.38,3.54-6.02,4.12Z"/><path class="cls-6" d="m65.17,38.96c-1.81-.53.1,1.81,0,0h0Z"/><path class="cls-6" d="m78.24,39.28c-1.04,2.04-1.25,4.6-2.94,6.13-.37.33-.89.39-.98,1.03.62.65,1.44-.18,1.71-.44,1.25-1.22,1.73-3.45,2.45-5.23.22-.56.81-1.02.49-1.65-.15-.09-.3-.19-.6-.1,0,.12-.12.16-.14.27Z"/><path class="cls-6" d="m53.76,46.11c-1.74.09-2.84-.61-3.42-1.98-.48-.05-.59.3-.61.57-.1,1.12,2.91,3.22,4.15,1.81.01-.2-.17-.16-.13-.41Z"/><path class="cls-6" d="m7.74,50.54c.34-.54-.03-1.02-.44-.96-.55.08-.46,1.18.44.96Z"/><path class="cls-6" d="m53.4,57.26c-.78.03-1.8.07-2.44.02-1.08-.08-2.26-.62-3.46-.88-.82-.17-1.73-.05-2.38-.24-.29-.09-.58-.35-.9-.49-1.41-.6-2.3-1.21-3.66-1.87-2.44-1.18-4.08-2.55-5.86-4.31-.27-.26-.63-.93-1.17-.63-.16.96.96,1.72,1.61,2.34,1.55,1.47,2.97,2.39,4.91,3.32,1.4.67,2.4,1.36,3.75,1.94.38.16.74.46,1.07.55.67.2,1.55.07,2.38.24,1.32.27,2.64.86,3.81.93.69.04,1.45-.07,2.18-.07.6,0,1.49.19,1.88-.46-.23-.84-1.2-.42-1.73-.4Z"/><path class="cls-6" d="m55.15,47.22c1.63.51-.04-1.87,0,0h0Z"/><path class="cls-6" d="m21.71,54.38c.16-.84-.93-.74-1.77-.81-1.06-.08-2.46-.78-2.58.2.07.01.1.06.1.16,1.09.46,3.02.8,4.25.45Z"/><path class="cls-6" d="m73.2,49.17c.47.02.59-.23.61-.57-.32-.72-1.29.1-.61.57Z"/><path class="cls-6" d="m71.37,50.13c-1.51,1.53-4,3.58-6.22,4.56-.77.34-1.97.43-2.2,1.42.4.5.96,0,1.33-.15,2.67-1.03,4.23-2.36,6.14-3.79.73-.55,1.68-1.12,1.79-2.05-.23-.41-.69-.14-.84,0Z"/><path class="cls-6" d="m58.9,57.49c.59.02.76-.3.66-.83-.5-.62-1.28.35-.66.83Z"/><path class="cls-6" d="m36.24,69.34c-.15-.75-.99-1.02-1.5-1.43-1.56-1.25-3.38-2.67-4.07-4.85-.24-.74-.13-1.76-.83-2.18-.21.01-.34.08-.4.21.06,3.4,2.49,5.7,4.33,7.17.73.59,1.66,1.63,2.47,1.07Z"/><path class="cls-6" d="m85.82,56.86c-.09.05-.18.11-.23.19-.45,1.13-.66,2.52-1.02,3.73-.9,3.07-2.67,5.01-5.22,6.8-.88-.13-.93.84-.46,1.14,1.06-.29,1.95-1.16,2.74-1.82,2.84-2.36,4.05-5.65,4.73-9.69-.16-.15-.3-.33-.55-.36Z"/><path class="cls-6" d="m86.55,62.66c-.15-.09-.3-.19-.6-.1-.12.75-1.75,1.52-.77,2.19.82-.41,1.42-.99,1.37-2.09Z"/><path class="cls-6" d="m65.87,74.13c-.83-.49-2.23.44-3.66.32-.49-.04-1.95-1.07-1.95-.12,0,.6,1.57,1,2.13,1.03,1.23.04,3.57-.31,3.48-1.23Z"/><path class="cls-6" d="m4,25.89c-.08,1.86.45,4.02.65,5.9.22,1.96.62,3.75,1.02,5.44.83,3.47,1.91,6.85,3.39,9.3.68,1.12,2.57,2.39,3.71,3.12,4.02,2.59,9.42,3.31,15.42,3.25.01,1.56,1.37,2.39,1.73,3.43.15.44.19.99.33,1.48.43,1.52.71,2.98,1.32,4.31,1.76,3.86,5.28,6.18,8.94,7.76,3.81,1.64,8.7,2.52,13.51,2.79,1.7.1,3.38.44,4.93.46,2.29.04,5.25-.25,7.57-.76,1.52-.33,3.07-1.09,4.52-1.68,3.08-1.24,5.56-2.61,7.85-4.32,1.98-1.48,3.42-3.27,4.36-5.45.87-2.02.72-4.58.52-7.46-.1-1.41-.58-3.08-.42-4.58.07-.62.63-1.16.8-1.86.26-1.02.42-2.66-.04-4.2-.19-.61-.72-1.19-.97-1.91-.26-.73-.61-1.43-.83-2.18-.32-1.07-.31-2.18-.61-3.21-.13-.45-.4-.83-.56-1.28-.17-.5-.23-1.04-.41-1.47-.61-1.43-1.79-2.87-2.94-3.71-1.09-.81-2.5-1.08-3.73-1.77-1.11-.63-2.01-1.66-3.21-2.42-1.17-.74-2.11-1.67-3.44-2.23-1.23-.51-2.53-.64-4.05-.9.47-2.27-.42-6.24-.85-8.4-.42-2.12-.5-3.68-1.42-5.23-1.82-3.06-4.86-4.83-8.91-5.99-2.55-.73-6.11-1.11-9.53-.96-2.8.12-6.82.52-9.46,1.13-3.72.87-7.84,1.61-10.85,3.05-4.53,2.17-8.46,4.95-11.52,8.34-2.16,2.4-3.88,4.49-5.22,7.56-.62,1.43-1.53,3.29-1.59,4.63Zm21.06,25.34c.91-.49,1.71-1.05,2.6-1.55-.32.95-1.3,1.62-2.6,1.55Zm-3.36-2.99c2.57,0,4.27-1.98,6.14-3.04-.18,1.7-1.7,2.1-3.45,3.07-.44.25-.93.55-1.59.85-.59.27-1.4.63-1.31,1.07.16.8,2.57-.63,3.09-.93,1.16-.67,2.01-1.11,2.92-1.75.11.44-.03.68.04,1.09-1.2,1.01-2.82,1.68-4.27,2.49-2.59-.33-5.02-.86-7.25-1.63-.04-.3.42-.46.18-.69-.87-.83-2.29-.55-3.31-1.06-.76-.38-1.02-1.18-1.76-1.49,1.02.09,2.45.92,3.83,1.17.37.07,1.17.22,1.13-.38-.03-.51-2.45-.97-2.9-1.11-1.17-.37-1.9-.72-3.04-.84-.24-.58-.65-.96-.77-1.68,1.95.65,3.83,1.4,6,1.77.19-.05.16-.28.3-.37-.74-1.04-2.26-.93-3.42-1.3-1.19-.39-2.28-.94-3.34-1.31-.09-.45-.28-.78-.39-1.22,1.95.87,3.95,2.15,6.34,2.58.53.09,1.15.1,1.13-.38-.01-.56-1.59-.67-2.19-.85-1.53-.45-2.97-1.08-4.32-1.79-.6-.32-1.54-.7-1.51-1.51,1.79.53,3.46,1.07,5.09,1.88.73.36,1.55,1.11,2.52.73-.02-.09,0-.15.06-.18-.03-.65-.53-.72-1.09-.72-1.86-1.15-4.14-1.77-6.19-2.68-.17.07-.56-.04-.57.15-.18-.41-.33-.84-.41-1.38,1.87,1.05,4.32,1.83,6.53,2.72.57.23,1.63,1.09,2.03.11-.55-.64-1.46-.81-2.23-1.1-2.28-.85-4.86-1.74-6.75-3.2.73.31,1.28.96,2.38,1,.41.01.87-.21,1.33-.15,1,.12,1.72,1.28,2.56,1.06.19-.05.16-.28.3-.37-.22-.65-1.31-.68-1.4-1.19.84.09,2.07-.66,2.81-.48.24.06.68.45.93.82.81,1.21,1.33,2.81,2.06,4.15.71,1.3,1.62,2.48,2.72,3.31.76.57,1.71,1.21,3.05.93,1.62-.34,1.74-1.69,3.64-2.09-.98,1.9-3.36,2.29-5.96,3.1-.42.13-1.09.43-1,.87.14.67.87.09,1.42-.07,1.4-.42,2.98-.71,4.14-1.38.73-.42,1.39-1.11,2-1.65.16,1.07-1.17,1.65-2.02,2.24-.85.6-1.83,1.32-2.75,1.73-.57.25-1.38.15-1.59.85.05.06.1.13.11.24Zm34.4,22.76c-.94-.09-1.88-.04-2.79-.11-4.22-.32-8.44-1.03-11.97-2.54-1.39-.6-2.97-1.23-4-1.99-.62-.46-1-1.21-1.62-1.75-1.85-1.63-3.12-3.91-3.48-7.1,0-.08-.02-.17-.03-.25,1.06.3,2.08-.14,3.03,0,.93.14,1.15.8,1.89,1.14,1.69,3.26,2.38,8.03,5.73,8.87.98.24,2.02-.09,2.77-.64.47-.35,1.12-1,1.67-1.53.99-.95.99-1.54,2.73-1.9,2-.41,2.88.51,4.04,1.57.75.68,1.66,1.59,2.2,2.36,1.16,1.68,1.51,3.86,3.82,4.12-1.34.47-2.65-.11-3.98-.23Zm26.37-14.36c-.89,1.2-2.24,3.19-3.63,4.61-.45.46-1.94,1.34-.85,1.86,1.74-1.31,2.94-3.02,4.16-4.75-.06,2.3-1.93,3.82-3.57,5.11-.08.43.41.47.24.73-2.03,1.75-4.43,3.3-7.41,4.52-2.48,1.02-4.49,2.05-7.82,2.3.52-.55,1.38-1.01,1.74-1.79.29-.64.26-1.64.54-2.67.24-.85.59-1.76.73-2.52.26-1.49.31-3.01.73-4.03.24-.59.92-1.53,1.77-1.54,2.67-.02,2.41,6.22,6.54,4.41.86-.38.85-1.21,2.03-1.57,1.38-1.95,2.83-3.9,4.69-5.65.04.33.07.66.11,1Zm-2.38.1c-.8.95-1.51,1.85-2.15,2.59-.16-1.45,1.1-2.7,2.01-3.84.76-.95,1.33-1.89,1.97-2.74.54,1.56-.86,2.84-1.83,3.99Zm2.08-5.37c-1.27,1.84-2.94,3.81-3.82,5.22-.06-.53-.12-1.05-.17-1.58.84-1.66,2.19-3.68,3.28-4.83.08,0,.17-.02.25-.03.18-.02.36.74.46,1.21Zm-2.42-2.25c.31.02.44.27.71.34-.74,1.45-1.7,3.13-2.83,4.02-.19-2.17,1.83-2.57,2.12-4.36Zm-.74-.59c-.23.95-.81,1.62-1.34,2.34-.29-1.03.07-2.78,1.34-2.34Zm-11.76-24.18c.73.36,1.44,1.09,2.29,1.68.78.53,1.48,1.05,2.21,1.69,1.54,1.35,3.64,1.77,5.01,2.73,1.06.73,2.09,2.17,2.44,3.01.23.56.16,1.19.37,1.81.1.31.4.54.52.87.35.99.29,2.17.61,3.21.27.9.74,1.89,1.16,2.9.2.47.53.89.65,1.27.38,1.3.15,2.31-.13,3.38-.21.44-.97.44-.98,1.03-1.28-.45-2.03-1.81-3.9-1-3.6,1.56,0,10.24-1.64,13.3-.25.47-.87,1.12-1.38,1.16-.97.08-1.04-.91-1.65-2-.49-.87-1.8-2.1-2.62-2.4-2.03-.75-3.85.8-4.45,2.34-.35.92-.57,2.4-.77,3.7-.2,1.32-.77,2.53-.95,3.55-.25,1.38-.05,2.26-1.27,2.92-3.46.93-3.76-1.2-5.07-3.22-.89-1.38-2.89-3.52-4.35-4.31-1.07-.58-3.25-.77-4.98-.12-.92.35-1.51,1.21-2.22,1.93-.34.34-1.65,1.75-2.32,1.86-.59.09-1.78-.65-2.13-1.02-1.55-1.65-1.81-5.38-3.33-7.29-.61-.77-2.11-1.76-3.14-1.84-1.38-.1-2.87.47-3.91-.32-1.42-1.09-2.31-5.09-2.14-7.92.05-.83.41-1.61.49-2.41.08-.89-.06-1.76-.06-2.77,0-1.89,1.21-5.44,2.32-6.4.5-.43,1.29-.49,2.01-.81.61-.27,1.23-.9,1.87-1.38.6-.45,1.3-1.05,1.68-1.53.36-.46.55-1.07.92-1.53,1.38-1.73,4.08-4.09,7.33-4.43.8-.09,1.58.13,2.37.16,2.29.09,4.96-.18,7.41-.65,2-.39,3.88-1.46,5.93-1.92,1.75-.4,4.47.13,5.81.79Zm-5.66-2.48c-1.38.21-2.38.72-3.68,1,1.11-1.64,2.88-2.74,3.6-4.69.34,1.18.44,2.83.07,3.69ZM15.84,11.29c2.41-1.77,4.98-3.57,7.98-4.67,6.04-2.22,16.07-4.29,23.5-3.53,3.61.37,7.07,1.1,9.58,2.97,1.85,1.39,3.54,3.49,3.81,6.31.24,2.49-.41,5.14-1.69,6.75-.59.75-1.53,1.34-2.35,2.36-.57.71-1.33,2.12-2.17,2.43-1.12.42-2.78.35-3.9.43-2.19.15-3.66-.39-5.8.05-3.33.69-5.99,2.78-7.7,4.89-.44.54-.68,1.27-1.14,1.81-.77.89-1.76,1.21-2.7,2.23-1.61.25-2.58,1.01-3.22,2.04-.03-.14-.1-.57-.41-.63-.86.46-2.59-.07-2.95.67.69.98,2.21.36,3.2.06-.63,1.32-1.36,3.2-1.81,4.91-.45.4-1.25.21-1.81.37-1.28.37-1.91,1.91-3.06,2.02-1.21.12-2.85-1.82-3.52-2.97-.88-1.49-1.56-3.39-2.27-4.54-.32-.52-1.16-1.54-1.79-1.74-2.09-.64-5.15,1.88-6.97.86-.9-.5-1.96-3.07-2.26-4.46-.34-1.56-.21-3.28-.51-4.57,1.81-5.67,5.19-10.54,9.96-14.06Z"/></g></svg>