<?xml version="1.0" encoding="UTF-8"?><svg id="Layer_2" xmlns="http://www.w3.org/2000/svg" viewBox="0 0 69.16 66.21"><defs><style>.cls-1{fill:#ffd15b;}.cls-2{fill:#dfa826;}.cls-3{fill:#3a1312;}</style></defs><g id="Layer_15"><path class="cls-1" d="m60.24,36.06c.5,1.14,1.03,2.36,2.18,1.98,1.25-.41,1.94-2.61,2.58-3.86.69-1.33,1.57-2.71,1.82-3.96.52-2.56.31-5.01-1.95-8.1-1.39,2.24-2.71,4.5-4.34,6.69.95,1.2,3.12.89,3.39,2.48-.69.14-1.43-.26-2.05-.56-.62-.3-1.27-.78-1.86-1.18-.41.25-.48.58-.73.87.58.62,4.25,1.58,3.48,2.93-1.35-.29-2.44-1.78-3.82-1.91.28,1.32.54,2.89,1.3,4.63Zm1.83-8.25c.17-.11.13-.25.38-.34.58.58,2,.81,1.9,1.86-.85.13-2.04-.55-2.28-1.52Zm-2.67,5.41c.28-1.38,2.34.32,2.54,1.15-1.06.64-1.67-.87-2.54-1.15Z"/><path class="cls-1" d="m56.36,26.82c-.34.77-.4,1.61-.86,2.36.38.68.84.99,1.31,1.25,1.82-1.79,3.24-3.54,4.59-5.83.98-1.68,2.31-3.16,2.82-4.57.47-1.3.31-2.39-1.1-3.69-1.35-1.25-3.66-2.12-5.2-2.35-.12.08-.24.15-.36.23.16,1.11.66,2.9.61,4.32.55.98,2.3,1.54,1.88,2.6-.76.17-1.27-.81-1.88-1.37-.18.37-.08.79-.25,1.15.46.53,2.72,1.43,1.85,2.09-.6.45-1.4-1.03-2.07-1.05-.68,1.15,1.23.99,1.72,1.88.03.12,0,.24-.07.35-.87.5-1.4-.62-2.17-.59-.72.84,2.08,1.65,1.13,2.36-.55.41-.93-.54-1.45-.86-.3.01-.23.54-.29.79.34.22,1.33.8.87,1.33-.45.33-.72-.19-1.06-.4Zm5.23-9.46c-.3-.32-.72-.16-.97-.57.39-2.04,3.61,1.74,1.75,2.25-.51-.43-.32-1.19-.79-1.68Z"/><path class="cls-1" d="m15.96,33.94c1.53,1.51,3.41,3.34,5.33,5.31.62.64,1.24,1.32,2.03,2.07.56.53,1.61,1.76,2.02,1.88.53.16,1.63-.3,2.56-.66,1.01-.39,1.95-.57,2.61-.89,2.92-1.43,6.5-3.81,8.52-5.91.68-.7,1.11-1.57,1.72-2.11.33-.29.69-.4.98-.64.6-.48,1.4-1.2,1.81-1.97.61-1.15.57-3.16.18-4.49-.47-1.61-1.27-3.29-1.88-5.06-.56-1.64-1.22-3.31-1.72-4.97-.16-.54-.12-.99-.28-1.51-.19-.64-.89-2.33-1.37-3.5-.64-1.57-1.23-2.84-1.9-3.55-.54-.57-2.04-1.33-2.83-1.45-.93-.15-2.74.14-3.79.46-1.06.32-2.34.85-3.57,1.41-3.28,1.5-7.56,3.57-10.88,5.35-.46.24-1.46.77-2.08,1.25-3.03,2.3-4.98,5.93-4.79,9.07.09,1.5.93,3.71,2.33,5.46,1.02,1.26,2.58,2.07,3.69,3.09.45.41.84.93,1.28,1.36Zm22.45-14.23c-1.01-2.01-2.12-5.59-3.39-7.86-.39-.7-1.1-1.66-1.69-2-.42-.24-.9,0-1.36-.41-.11-.51.46-.73.75-.69,3.46.5,4.76,7.24,6.51,10.53.44.83,1.16,1.13.62,1.89-.77,0-1.12-.83-1.44-1.46Zm-25.39,4.77c3.14.98,6.75,1.15,9.98,1.41.87.07,2.02-.31,2.69.45-.66.79-1.87.44-2.75.38-2.79-.2-5.94-.25-8.52-.86-.63-.15-1.4-.3-1.79-.93-.12-.21.21-.32.4-.46Zm5.6-3.82c.79.03,1.61.14,2.38.15.81,0,1.86-.37,2.34.38-.53.77-1.62.45-2.39.45-1.77,0-3.4-.12-5.15-.26-.56-.04-2.32.02-2.5-.47-.16-.43.28-.53.54-.55,1.24-.09,2.99.22,4.78.3Zm22.1,4.62c-.22-.27-.17-.8.22-.74.82-.18.4,1.19-.22.74Zm-11.5-15.16c-.09-.16-.06-.57.24-.55,1.16-.12.2,1.37-.24.55Zm6.8,26.06c-.28-.52.7-.86,1.32-1.35,2.33-1.82,3.66-3.97,3.4-6.28.3-.29.53-.22.77-.2.73,2.64-1.38,5.48-3.81,7.34-.66.5-1.42.97-1.68.49Zm-13.66-16.95c-.17.96-.81.37-1.32.26-1.33-.28-3.79.02-4.96-.58.15-1.15,2.65-.43,3.34-.37,1.2.11,2.34-.14,2.94.69Zm2.75,4.4c-.42.42-1.21.48-1.75.53-3.5.31-7.07-.51-10.3-1-.53-.08-1.28,0-1.64-.53-.07-.59.47-.48.7-.45,3.33.35,7.68,1.37,11.33,1.04.57-.05,1.24-.59,1.66.41Zm-1.3,14.77c.26-1.17,1.75-.49,2.7-.45.91.04,1.8-.26,2.24.24-.18,1.04-1.57.63-2.3.59-.91-.05-1.98,0-2.64-.38Zm-2.83-1.75c.03-.24-.03-.49.38-.65,2.29.25,4.88.51,7.25.29.43-.05.94-.36,1.3.15-.05.05-.04.11.02.19-.46.68-1.47.61-2.19.62-.75.01-1.57-.11-2.27-.12-1.5-.03-3.22.36-4.49-.48Zm-2.32-2.98c.19-.08.07-.23.3-.3,2.56.59,4.93.7,7.58.48.74-.06,1.81-.32,2.48.29-.42.87-1.67.55-2.49.61-1.95.16-3.65.22-5.43-.07-.85-.14-2.09-.15-2.44-1Zm-2.77-2.59c.03-.23-.02-.49.38-.64,2.22.46,4.55.6,7,.65,1.71.04,3.39.36,5.05.42.45.01,1.4-.29,1.38.6-.4.58-1.16.21-1.67.19-.59-.03-1.18-.01-1.74-.07-3.48-.38-7.14-.01-10.4-1.14Zm-2.48-3.37c-.06-.22.07-.39.36-.53,1.18.39,2.44.38,3.75.56,1.12.15,2.24.51,3.5.63,1.77.16,3.5.23,5.33.23.15,0,1.58-.23,1.75.25.3.82-1.36.63-1.58.63-3.41,0-6.35-.44-9.5-.83-1.25-.15-2.69-.19-3.6-.95Z"/><path class="cls-1" d="m18.71,51.88c1.25.08,2.4.22,3.65-.37-.04-.25.22-.44.26-.67-.89,0-1.99.3-3.3.44-.78.08-2.77.54-3.13-.06-.03-.06.03-.12-.03-.18.87-.76,2.17-.55,3.41-.71.78-.1,2.82-.08,3.55-.61.67-.48.94-2.01,1.06-2.88.11-.82-.06-1.4.07-2.14-4.76-4.1-8.63-10.07-14.28-13.16-.05-.07-.09-.14-.14-.21-3.76,3.59-3.29,8.19-4.5,12.47.27.9.44,1.61.72,2.52.56-.98,1.77-.68,2.84-.84,1.49-.23,2.9-.59,4.46-.8.59-.08,1.92-.39,2.13-.09.63.91-1.49.91-1.78.95-2.29.3-4.77.73-7.02,1.15-.22,0-.45.03-.6-.31.07,2.3,2.35,3.65,3.98,3.7.23-.13.11-.34.4-.46,2.11.17,5.13-.5,7.78-1.05.65-.13,1.93-.59,2.18-.32.74.81-1.22.97-1.61,1.04-2.3.47-4.61.98-6.81,1.32,2.01.97,4.32,1.11,6.68,1.25Zm-5.97-10.77c-.54.69-1.7.72-2.54.85-.9.14-1.96.46-2.67.03.3-1.07,1.89-.77,3.05-.98.84-.14,1.93-.69,2.16.1Zm1.62,1.74c-.37.67-1.23.53-1.89.62-1.45.21-2.9.52-4.28.78-.67.12-1.47.57-2.09.16-.08-.46.34-.64.59-.78.98-.55,2.67-.4,3.95-.67.64-.14,1.31-.27,1.95-.37.61-.1,1.52-.49,1.76.26Zm8,1.59c-1.68.84-.22-1.83,0,0h0Zm-9.84-8.28c-.76-.63-1.64-1.19-2.18-1.98.71-.97,2.18.85,2.95,1.48,1.43,1.17,2.88,2.6,4.47,3.98.35.31,2.31,1.5,1.73,2.06-.37.36-1.06-.37-1.22-.5-2.05-1.69-3.9-3.52-5.75-5.05Zm4.46,11.36c-2.18.34-4.31,1-6.54,1.44-.93.18-2.43.57-2.92-.5.03-.13.2-.24.38-.34,1.73.42,4.13-.57,6.21-1.03.98-.22,2.03-.38,2.95-.52.85-.12,2.17-.58,2.83.06-.58.81-1.86.72-2.91.89Z"/><path class="cls-1" d="m44.37,23.52c.72,1.69,1.38,3.36,1.26,4.86.19.23.4.39.57.73,1.56.13,3.07.4,4.89.02,1.04-.21,2.12.08,2.82-.73.85-.98.96-2.99,1.33-4.25.41-1.37,1.09-2.73,1.22-4.27.23-2.75-.31-6.31-2.45-8.87-.79-.95-2.05-1.42-3.22-1.6-2.17-.33-5.53.38-8.27,1.07-.89.22-1.51.17-2.33.71.15.82.72,1.73.96,2.56.25.04.34-.33.65-.22,1.17.53,2.33,1.02,3.57,1.37,1.02.29,2.35.09,3.05,1.02-.18.71-.96.28-1.37.19-1.79-.39-3.74-.79-5.49-1.72,0,1.19.5,2.39,1.04,3.91.25.69.42,1.82.74,2.21.57.72,2.41.9,3.27,1.06,1.22.24,2.28.33,3.25.88.25,1.09-.88.52-1.46.35-1.27-.37-3.58-.47-4.55-1.04-.14.27.25.66.21.96.17.08.41-.18.59-.18.57.2,1.47.33,2.47.59.85.23,2.74.48,2.37,1.36-1.82.21-3.33-.99-5.11-.98Zm9.71-6.08c.18-1.48-.38-4.62-2.34-5.46-.41-.18-1.67.02-1.87-.28-.16-.23-.06-.53.15-.69.72-.58,2.84.48,3.35,1.02,2.3,2.45,1.45,4.92,1.43,6.84,0,.64.39,1.52-.37,1.73-.89-.95-.47-2.2-.35-3.16Zm-.26,5.14c-.02-1.9,1.58.54,0,0h0Zm-10.4-4.22c1.11.22,2.22.74,3.4,1.09.98.29,2.48.11,2.88,1.22-.44.53-1.15.09-1.62-.05-.57-.16-1.17-.32-1.71-.49-1.09-.34-2.37-.51-3.32-1.14.03-.24-.03-.49.38-.64Zm6.26.43c-.65.41-1.4-.15-1.99-.3-.66-.18-1.31-.36-1.94-.54-1.22-.35-2.86-.56-3.66-1.81.03-.13.19-.24.38-.35.13-.02.24,0,.35.08.08.19.23.07.3.3,1.08.34,2.28.77,3.51,1.12,1.01.28,2.86.28,3.06,1.5Zm-2.62-5.28c-.35.69-.97.14-1.39,0-1.41-.46-3.08-.64-4.22-1.75.03-.19.18-.36.47-.5.92.4,1.83.77,2.79,1.08.8.26,1.91.33,2.35,1.17Zm6.26,11.98c-.2-.55-.01-1.67.76-1.29.2,1.15.11,2.79-.86,3.44-.68-.65-.06-1.49.1-2.15Zm-4.94,1.9c-.02.16-.05.32-.1.46-.95.18-1.8-.06-2.56-.73.46-1.03,1.9-.04,2.67.27Zm-3.1-2.17c.11-.16.12-.34.4-.46.73.28,1.49.53,2.26.73.64.16,1.64.2,1.84,1-.63.47-1.59.06-2.27-.13-.73-.2-1.7-.45-2.23-1.14Z"/><path class="cls-1" d="m9.16,51.58c-.4,2.44-.09,5.65,2.51,8.33-.12-.68-1.41-1.73-.53-2.05.77-.28,1.23,1.88,2.1,2.33.44,0,.95-.29,1.42-.42-.61-.97-1.79-1.81-2.03-2.67,1.28-.7,1.93,1.54,2.89,2.31.23-.06.48-.19.7-.15-.31-1.07-2.53-1.62-2.05-2.86.63-.1,1.18.58,1.65,1.02.54.5,1.06,1.08,1.53,1.6.97-.47,2.23-.82,3.01-1.35-.54-.64-2.14-1.78-1.66-2.71,1.02-.08,1.61,1.91,2.54,2.24.68-.46,1.51-.88,1.87-1.41-.31-.71-.67-1.44-1.22-2.2-4.46.31-8.68-.53-12.75-2.01Zm6.45,4.59c.13-.18,0-.4.36-.53.35-.1,3.46,2.25,2.49,2.77-.42.22-1.06-.64-1.42-.97-.62-.55-.99-.73-1.42-1.27Z"/><path class="cls-1" d="m14.96,61.47c.68,1.81,2.68,2.49,4.04,2.86-.13-.48-1.36-1.04-.7-1.54.49-.37,1.79.87,1.54,1.59.41.04.82.11,1.27-.03-.35-.52-1.27-1.63-1.15-2.24.85-.61,1.89,1.74,1.75,2.25,1.65-.16,3.21.08,5.1-1.2-.81-2.02-2.77-3.16-4.01-4.97-2.82,2.06-5.26,2.35-7.84,3.28Zm7.49.03c.68-.85,1.87,1.08,1.88,1.67-.2.19-.36.16-.54.24-.43-.58-1.33-1.15-1.34-1.92Zm-1.3.14c.8-1.1,1.89,1.6,2.13,2.21-.14.21-.31.31-.56.36-.42-.42-1.14-1.76-1.57-2.58Z"/><path class="cls-2" d="m43.34,23.6c-.27-1.14-.54-2.32-.85-3.5-1.25-2.18-2.3-4.46-2.9-6.88-.48-1.97,2.74-4.05,4-1.97.08.14.82.2.82.33h0c0,.06-.51.24-.48.3.4-.39.77-.44,1.36-.06,3.39,2.18,4.07,8.76,4.39,12.4.09.99-.63,1.76-1.43,2.03.13,1.07-.76,2.19-1.94,1.95-2.11-.44-2.54-2.77-2.96-4.59Z"/><path class="cls-2" d="m55.25,25.76c.65-1.5,1.27-3.02,1.86-4.54.5-1.26.68-3.06,1.64-4.05.29-.29.71-.37,1.05-.1,1.33,1.06.99,3.28.77,4.75-.31,1.94-.96,3.78-1.62,5.62-.88,2.44-4.76.74-3.7-1.69Z"/><path class="cls-2" d="m59.03,30.5c.37-1.68,1.07-3.74,2.64-4.64.88-.51,2.41-.2,2.42,1.07,0,1.48-.65,2.8-.87,4.25-.11.72-.12,1.44-.35,2.14-.23.73-.54,1.35-.88,2.03-.37.72-1.43.92-1.92.19-1.08-1.59-1.46-3.13-1.04-5.03Z"/><path class="cls-2" d="m15.03,30.54c-.59-.16-1.17-.37-1.75-.63-1.38-.64-1.73-2.38-.82-3.56.16-.21.34-.4.52-.59-1.71-.73-2.6-1.97-1.64-4.07,1.38-3.02,9.04-4.89,11.47-2.56.78.74.27,2.13-.88,1.96-1-.15-3.92.32-5.68,1.2,1.12,0,2.35-.17,3.12-.18,2.09,0,4.17,0,6.25.04,2.75.06,3.29,3.44.89,4.35.57.04,1.13.11,1.68.23,2.32.49,2.43,3.09.87,4.22,1.7.57,1.75,2.76.69,3.91.35.61.42,1.37.2,2.03.13.03.24.05.32.08,2.82,1.06,1.02,5.46-1.63,4.68-2.32-.32-5.48-.49-6.46-3.01-.18-.45-.23-.86-.2-1.24-.37-.13-.74-.28-1.1-.46-.76-.38-1.26-1.15-1.39-1.96-1.4-.06-2.78-.35-4.12-1.27-1.21-.82-1.05-2.2-.33-3.18Z"/><path class="cls-2" d="m8.35,42.19c-.09-.37-.07-.77.12-1.18.34-.73,1.23-1.29,2.05-1.1.13.03,1.44-.15,1.57-.12.32-.46.86-.38,2.71-.64h0c0,.38-.09.93.43,1.31.55.4.47.77,1.11,1.01.96.35,1.02,1.66.63,2.53-.22.49-.73.82-1.16.97,1.66.48,3.27.46,4.96.8,2.32.15,2,3.16.39,4.02-.15.08-.33.14-.5.2-.66,1.29-2.29,1.91-3.62.96-.07,0-.15.01-.29.03-.43.04-.87.11-1.31.13-1.26.05-2.5-.09-3.7-.48-2.2-.73-3.61-2.53-4.84-4.4-1.12-1.72-.08-3.59,1.45-4.05Z"/><path class="cls-2" d="m10.75,57.36c1.6-.93,3.37-1.29,5.17-1.69,1.25-.28,2.49-.87,3.77-1.02,1.48-.19,2.07,1.45,1.37,2.53-1.75,2.72-6.03,2.68-8.65,4.07-2.35,1.24-4.1-2.99-1.66-3.89Z"/><path class="cls-2" d="m15.94,63.47c-.13-1.18.73-2.16,1.87-2.33.91-.14,1.89-.1,2.81-.13,1.1-.04,2.64-.33,3.53.44l-.02.03c.48.35.73.98.43,1.73-.49,1.21-2.09,1.43-3.22,1.7-.96.23-2.08.45-3.07.43-1.15-.03-2.19-.61-2.33-1.87Z"/><path class="cls-3" d="m2.33,22.25c-.84-.86-.3-2.07.04-3.02.54-1.5,1.44-2.46,2.63-4.09.67-.92.97-1.81,1.65-2.37.84-.68,1.94-1.49,2.39-1.54.15-.11.19.23.3.31-.29,1.03-1.53,1.41-2.32,2.1-.64.56-.76,1.24-1.19,1.86-1.21,1.74-2.73,3.42-3.01,5.04-.11.62.35,1.42-.49,1.71Z"/><path class="cls-3" d="m15.92,9.87c-.15.46-.69.48-1.05.68-1.85,1.03-2.98,2.25-4.38,3.53-2.19,2-3.16,2.92-4.01,4.89-.69,1.6-1.05,2.74-.99,4.32.02.45.38,1.16-.16,1.6-.82-.02-.77-1.18-.77-1.79,0-1.84.38-2.7,1.13-4.42.32-.73.8-1.98,1.26-2.51,1.42-1.62,3.88-3.83,5.57-5.09,1.02-.77,3.16-2.46,3.4-1.21Z"/><path class="cls-3" d="m13.09,61.98c1.58,2.83,4.32,4.09,7.02,4.23.53.03,1.11-.16,1.67-.18,1.17-.04,1.73-.04,3.01-.26,1.07-.18,2.48-.56,3.57-1.71.88-2.5-2.89-4.85-4.1-6.81.96-1.16.42-2.65-.77-4.28,1.08-1.95,2-3.69,2.38-6.02.09-.59.14-1.69.49-2.01.44-.41,1.65-.59,2.5-.92.89-.34,1.79-.56,2.42-.87,3.15-1.57,5.99-3.6,8.4-5.63.84-.71,1.31-1.77,2.1-2.45.39-.34.9-.52,1.26-.82,1.23-1,1.98-2.11,2.51-3.51,2.78.4,5.61.54,8.68-.44.88,1.33,1.9,2.02,3.1,1.87.38,1.69.6,2.89,1.44,4.84,1,2.31,2.75,3.46,4.74,2.41,1.54-.82,2.28-2.84,3.05-4.36,1.77-3.5,3.1-7.08,1.34-11.32-.5-1.2-1.63-2.02-2.04-3.16-.28-.76.48-2.45.11-3.36-.53-1.34-2.2-2.58-3.02-3.13-1.65-1.1-3.52-1.74-5.24-2.09-.3,0-.66.27-.98.33-2.76-5.94-7.17-4.65-11.77-4.03-2.15.29-3.61.49-5.49,1.36-2.72-6.33-7.87-5.29-13.06-3.11-2.05.86-3.5,1.44-5.65,2.65-2.02,1.13-4.19,1.88-5.94,2.83-5.22,2.83-8.13,7.64-7.91,11.95.09,1.76,1.18,3.99,2.16,5.8-.33.22-.66.43-.98.64-1.49,2.18-2.59,4.48-3.19,7.22-.22.98-.21,2.12-.5,3.08-.6,2.04-.6,3.11-.19,5.4.31,1.74,1.35,4.47,3.22,4.98-.05,1.06-.27,2.44-.1,3.85.34,2.93,2.91,7.52,5.75,7.04Zm47.15-25.92c-.76-1.75-1.02-3.31-1.3-4.63,1.38.13,2.47,1.62,3.82,1.91.77-1.34-2.9-2.31-3.48-2.93.25-.29.32-.62.73-.87.59.41,1.24.88,1.86,1.18.62.3,1.37.7,2.05.56-.27-1.59-2.44-1.28-3.39-2.48,1.62-2.19,2.94-4.45,4.34-6.69,2.26,3.09,2.47,5.54,1.95,8.1-.25,1.25-1.13,2.63-1.82,3.96-.65,1.25-1.33,3.45-2.58,3.86-1.15.38-1.68-.84-2.18-1.98Zm-4.75-6.88c.46-.75.53-1.58.87-2.35.34.21.61.73,1.06.41.47-.53-.53-1.12-.87-1.33.06-.25-.01-.77.29-.79.52.32.89,1.27,1.45.86.96-.71-1.85-1.52-1.13-2.36.77-.03,1.3,1.09,2.17.59.07-.11.1-.22.07-.34-.49-.89-2.39-.73-1.71-1.88.67.02,1.47,1.51,2.07,1.05.87-.66-1.38-1.56-1.84-2.08.17-.37.07-.78.25-1.14.61.56,1.14,1.57,1.9,1.4.42-1.06-1.37-1.68-1.92-2.66.05-1.42-.45-3.21-.61-4.32.11-.08.24-.15.36-.23,1.53.23,3.84,1.1,5.2,2.35,1.41,1.3,1.53,2.33,1.06,3.63-.51,1.41-1.81,2.93-2.8,4.6-1.35,2.29-2.76,4.06-4.58,5.85-.47-.26-.93-.56-1.31-1.25Zm-9.87-.79c.12-1.5-.54-3.17-1.26-4.86,1.78-.02,3.29,1.18,5.11.98.37-.88-1.52-1.13-2.37-1.36-1-.26-1.9-.38-2.47-.59-.18,0-.42.25-.59.18.04-.3-.35-.68-.21-.96.97.57,3.29.67,4.55,1.04.58.17,1.71.74,1.46-.35-.97-.55-2.03-.64-3.25-.88-.86-.17-2.7-.34-3.27-1.06-.32-.39-.49-1.52-.74-2.21-.53-1.52-1.04-2.72-1.04-3.91,1.75.93,3.7,1.34,5.49,1.72.41.09,1.2.53,1.37-.19-.7-.93-2.03-.73-3.05-1.02-1.24-.35-2.41-.84-3.57-1.37-.31-.11-.4.26-.65.22-.24-.84-.82-1.75-.96-2.56.82-.54,1.44-.49,2.33-.71,2.74-.69,6.1-1.4,8.27-1.07,1.17.18,2.43.65,3.22,1.6,2.14,2.56,2.68,6.12,2.45,8.87-.13,1.54-.81,2.91-1.22,4.27-.37,1.26-.48,3.26-1.33,4.25-.7.81-1.77.51-2.82.73-1.83.38-3.33.11-4.89-.02-.17-.34-.37-.5-.57-.73Zm-24.34,10.87c-1.92-1.98-3.8-3.8-5.33-5.31-.44-.44-.83-.96-1.28-1.36-1.11-1.02-2.67-1.82-3.69-3.09-1.4-1.75-2.24-3.96-2.33-5.46-.2-3.14,1.76-6.77,4.79-9.07.62-.47,1.62-1.01,2.08-1.25,3.32-1.78,7.59-3.85,10.88-5.35,1.23-.56,2.51-1.09,3.57-1.41,1.05-.32,2.86-.61,3.79-.46.79.12,2.29.88,2.83,1.45.67.71,1.26,1.98,1.9,3.55.48,1.17,1.18,2.86,1.37,3.5.16.52.12.97.28,1.51.5,1.65,1.16,3.33,1.72,4.97.61,1.76,1.41,3.45,1.88,5.06.39,1.33.43,3.34-.18,4.49-.41.77-1.21,1.49-1.81,1.97-.29.24-.66.35-.98.64-.61.54-1.05,1.41-1.72,2.11-2.02,2.1-5.6,4.48-8.52,5.91-.66.32-1.6.5-2.61.89-.93.36-2.03.82-2.56.66-.41-.12-1.45-1.35-2.02-1.88-.79-.75-1.41-1.43-2.03-2.07Zm-2.59,12.63c-2.36-.14-4.68-.29-6.68-1.25,2.2-.34,4.51-.85,6.81-1.32.39-.08,2.35-.24,1.61-1.04-.25-.27-1.54.18-2.18.32-2.65.56-5.67,1.22-7.78,1.05-.29.12-.17.33-.4.46-1.63-.04-3.91-1.39-3.98-3.7.15.34.37.31.6.31,2.25-.43,4.72-.85,7.01-1.16.29-.04,2.4-.04,1.77-.95-.21-.3-1.56.02-2.15.09-1.56.21-3,.58-4.49.81-1.07.17-2.33-.1-2.89.88-.29-.91-.35-1.68-.62-2.59,1.21-4.28.73-8.88,4.5-12.47.05.07.09.14.14.21,5.65,3.09,9.51,9.06,14.28,13.16-.13.73.14,1.25.03,2.07-.12.87-.44,2.43-1.11,2.91-.74.53-2.8.52-3.58.62-1.24.16-2.54-.04-3.42.72.06.06,0,.13.03.18.36.61,2.34.15,3.13.06,1.31-.14,2.41-.44,3.3-.44-.04.23-.3.42-.26.67-1.25.58-2.39.44-3.65.37Zm-3.75,9.6c2.58-.93,5.02-1.22,7.84-3.28,1.24,1.81,3.21,2.95,4.01,4.97-1.89,1.28-3.45,1.04-5.1,1.2.14-.5-.9-2.86-1.75-2.25-.12.62.8,1.72,1.15,2.24-.45.14-.86.06-1.27.03.25-.72-1.05-1.96-1.54-1.59-.66.49.57,1.06.7,1.54-1.36-.37-3.36-1.05-4.04-2.86Zm-5.8-9.89c4.07,1.48,8.29,2.32,12.75,2.01.56.76.91,1.48,1.22,2.2-.36.53-1.19.95-1.87,1.41-.94-.32-1.52-2.32-2.54-2.24-.48.93,1.12,2.07,1.66,2.71-.78.53-2.04.87-3.01,1.35-.47-.51-.99-1.1-1.53-1.6-.48-.44-1.03-1.11-1.65-1.02-.48,1.24,1.73,1.79,2.05,2.86-.21-.04-.46.09-.7.15-.96-.78-1.61-3.02-2.89-2.31.24.86,1.42,1.7,2.03,2.67-.47.13-.98.43-1.42.42-.87-.45-1.33-2.61-2.1-2.33-.88.32.4,1.37.53,2.05-2.6-2.68-2.9-5.9-2.51-8.33Z"/><path class="cls-3" d="m40.28,5.66c-.91-.07-.98-.69-1.63-1.14-1.56-1.09-4.64-2.07-6.11-2.22-.69-.07-1.87.15-1.22-.8,2.23-.19,5.85.9,7.85,2.29.48.34,1.67,1.07,1.11,1.87Z"/><path class="cls-3" d="m39.17,2.4c-.5.28-1.55-1.02-2.25-1.33-.45-.2-.87,0-1.22-.5.52-1.14,1.66-.31,2.59.31.39.26,1.62,1.11.88,1.52Z"/><path class="cls-3" d="m29.23,10.12c-.09-.16-.06-.57.24-.55,1.16-.12.2,1.37-.24.55Z"/><path class="cls-3" d="m21.06,19.49c-1.33-.28-3.79.02-4.96-.58.15-1.15,2.65-.43,3.34-.37,1.2.11,2.34-.14,2.94.69-.17.96-.81.37-1.32.26Z"/><path class="cls-3" d="m21.01,20.82c.81,0,1.86-.37,2.34.38-.53.77-1.62.45-2.39.45-1.77,0-3.4-.12-5.15-.26-.56-.04-2.32.02-2.5-.47-.16-.43.28-.53.54-.55,1.24-.09,2.99.22,4.78.3.79.03,1.61.14,2.38.15Z"/><path class="cls-3" d="m35.03,11.85c-.39-.7-1.1-1.66-1.69-2-.42-.24-.9,0-1.36-.41-.11-.51.46-.73.75-.69,3.46.5,4.76,7.24,6.51,10.53.44.83,1.16,1.13.62,1.89-.77,0-1.12-.83-1.44-1.46-1.01-2.01-2.12-5.59-3.39-7.86Z"/><path class="cls-3" d="m23.38,24.16c-3.5.31-7.07-.51-10.3-1-.53-.08-1.28,0-1.64-.53-.07-.59.47-.48.7-.45,3.33.35,7.68,1.37,11.33,1.04.57-.05,1.24-.59,1.66.41-.42.42-1.21.48-1.75.53Z"/><path class="cls-3" d="m13.03,24.48c3.14.98,6.75,1.15,9.98,1.41.87.07,2.02-.31,2.69.45-.66.79-1.87.44-2.75.38-2.79-.2-5.94-.25-8.52-.86-.63-.15-1.4-.3-1.79-.93-.12-.21.21-.32.4-.46Z"/><path class="cls-3" d="m13.78,27.18c1.18.39,2.44.38,3.75.56,1.12.15,2.24.51,3.5.63,1.77.16,3.5.23,5.33.23.15,0,1.58-.23,1.75.25.3.82-1.36.63-1.58.63-3.41,0-6.35-.44-9.5-.83-1.25-.15-2.69-.19-3.6-.95-.06-.22.07-.39.36-.53Z"/><path class="cls-3" d="m53.85,5.85c.17.11,1.91,1.07,1.23,1.6-.51.39-1.14-.48-1.64-.84-.4-.28-1.21-.79-1.68-.91-.78-.19-2.68.34-1.91-.95,1.58-.14,2.61.18,4,1.1Z"/><path class="cls-3" d="m45.67,13.53c-1.41-.46-3.08-.64-4.22-1.75.03-.19.18-.36.47-.5.92.4,1.83.77,2.79,1.08.8.26,1.91.33,2.35,1.17-.35.69-.97.14-1.39,0Z"/><path class="cls-3" d="m10.35,34.18c.71-.97,2.18.85,2.95,1.48,1.43,1.17,2.88,2.6,4.47,3.98.35.31,2.31,1.5,1.73,2.06-.37.36-1.06-.37-1.22-.5-2.05-1.69-3.9-3.52-5.75-5.05-.76-.63-1.64-1.19-2.18-1.98Z"/><path class="cls-3" d="m16.29,30.44c2.22.46,4.55.6,7,.65,1.71.04,3.39.36,5.05.42.45.01,1.4-.29,1.38.6-.4.58-1.16.21-1.67.19-.59-.03-1.18-.01-1.74-.07-3.48-.38-7.14-.01-10.4-1.14.03-.23-.02-.49.38-.64Z"/><path class="cls-3" d="m47.69,18.49c-.66-.18-1.31-.36-1.94-.54-1.22-.35-2.86-.56-3.66-1.81.03-.13.19-.24.38-.35.13-.02.24,0,.35.08.08.19.23.07.3.3,1.08.34,2.28.77,3.51,1.12,1.01.28,2.86.28,3.06,1.5-.65.41-1.4-.15-1.99-.3Z"/><path class="cls-3" d="m51.74,11.99c-.41-.18-1.67.02-1.87-.28-.16-.23-.06-.53.15-.69.72-.58,2.84.48,3.35,1.02,2.3,2.45,1.45,4.92,1.43,6.84,0,.64.39,1.52-.37,1.73-.89-.95-.47-2.2-.35-3.16.18-1.48-.38-4.62-2.34-5.46Z"/><path class="cls-3" d="m1.41,46.54c-.01,1.14,1.03,2.78,1.85,3.78.48.59,1.46.8,1.16,1.64-.61.24-1.27-.44-1.68-.9-1.62-1.85-2.88-4.6-1.79-6.31-.03-.05-.05-.09.02-.12,1.3-.05.44,1.07.44,1.91Z"/><path class="cls-3" d="m18.98,33.38c2.56.59,4.93.7,7.58.48.74-.06,1.81-.32,2.48.29-.42.87-1.67.55-2.49.61-1.95.16-3.65.22-5.43-.07-.85-.14-2.09-.15-2.44-1,.19-.08.07-.23.3-.3Z"/><path class="cls-3" d="m49.7,20.68c-.44.53-1.15.09-1.62-.05-.57-.16-1.17-.32-1.71-.49-1.09-.34-2.37-.51-3.32-1.14.03-.24-.03-.49.38-.64,1.11.22,2.22.74,3.4,1.09.98.29,2.48.11,2.88,1.22Z"/><path class="cls-3" d="m10.2,41.95c-.9.14-1.96.46-2.67.03.3-1.07,1.89-.77,3.05-.98.84-.14,1.93-.69,2.16.1-.54.69-1.7.72-2.54.85Z"/><path class="cls-3" d="m12.47,43.46c-1.45.21-2.9.52-4.28.78-.67.12-1.47.57-2.09.16-.08-.46.34-.64.59-.78.98-.55,2.67-.4,3.95-.67.64-.14,1.31-.27,1.95-.37.61-.1,1.52-.49,1.76.26-.37.67-1.23.53-1.89.62Z"/><path class="cls-3" d="m.07,49.39c.16-.06.32-.17.42.03.5.75,1.48,1.66,1.61,2.34-.84.93-2.47-1.85-2.03-2.37Z"/><path class="cls-3" d="m21.38,36.01c2.29.25,4.88.51,7.25.29.43-.05.94-.36,1.3.15-.05.05-.04.11.02.19-.46.68-1.47.61-2.19.62-.75.01-1.57-.11-2.27-.12-1.5-.03-3.22.36-4.49-.48.03-.24-.03-.49.38-.65Z"/><path class="cls-3" d="m40.95,24.54c.82-.18.4,1.19-.22.74-.22-.27-.17-.8.22-.74Z"/><path class="cls-3" d="m10.45,48.95c-.93.18-2.43.57-2.92-.5.03-.13.2-.24.38-.34,1.73.42,4.13-.57,6.21-1.03.98-.22,2.03-.38,2.95-.52.85-.12,2.17-.58,2.83.06-.58.81-1.86.72-2.91.89-2.18.34-4.31,1-6.54,1.44Z"/><path class="cls-3" d="m26.53,37.96c.91.04,1.8-.26,2.24.24-.18,1.04-1.57.63-2.3.59-.91-.05-1.98,0-2.64-.38.26-1.17,1.75-.49,2.7-.45Z"/><path class="cls-3" d="m67.76,19.35c-.52-.69,0-1.44-.41-2.32-.77-1.69-2.46-2.76-3.24-4.08.19-.08.07-.23.31-.3.13-.02.24,0,.35.08.62.51,1.61,1.29,2.35,2.26,1.15,1.49,2.11,3.84.64,4.37Z"/><path class="cls-3" d="m45.68,24.77c.73.28,1.49.53,2.26.73.64.16,1.64.2,1.84,1-.63.47-1.59.06-2.27-.13-.73-.2-1.7-.45-2.23-1.14.11-.16.12-.34.4-.46Z"/><path class="cls-3" d="m37.35,34.84c2.33-1.82,3.66-3.97,3.4-6.28.3-.29.53-.22.77-.2.73,2.64-1.38,5.48-3.81,7.34-.66.5-1.42.97-1.68.49-.28-.52.7-.86,1.32-1.35Z"/><path class="cls-3" d="m60.63,16.79c.39-2.04,3.61,1.74,1.75,2.25-.51-.43-.32-1.19-.79-1.68-.3-.32-.72-.16-.97-.57Z"/><path class="cls-3" d="m48.38,27.4c-.02.16-.05.32-.1.46-.95.18-1.8-.06-2.56-.73.46-1.03,1.9-.04,2.67.27Z"/><path class="cls-3" d="m53.83,22.59c-.02-1.9,1.58.54,0,0h0Z"/><path class="cls-3" d="m68.64,16.09c-.41-.69-.89-1.82-1.47-2.43.87-1.3,2.97,2.26,1.47,2.43Z"/><path class="cls-3" d="m22.36,44.44c-1.68.84-.22-1.83,0,0h0Z"/><path class="cls-3" d="m53.32,25.5c-.2-.55-.01-1.67.76-1.29.2,1.15.11,2.79-.86,3.44-.68-.65-.06-1.49.1-2.15Z"/><path class="cls-3" d="m44.82,36.68c-.35-.36.98-1.89,1.42-2.41,1.76-2.05,5.1-1.24,6.65-.81.61.17,2.36.79,1.36,1.8-.3.08-.5-.3-.71-.64-1.87-.31-4.51-1.69-6.63.21-.25.22-1.39,2.57-2.09,1.85Z"/><path class="cls-3" d="m36.46,42.68c-.69-.66,1.57-1.34,2.3-1.98.63-.56.69-1.11,1.3-1.54.21-.03.39.05.55.24-.1.67-.69,1.5-1.49,2.16-.66.54-2.24,1.54-2.66,1.12Z"/><path class="cls-3" d="m28.61,46.86c.38-.23,1.13-.67,1.62-.25-.1,1.07-1,.78-1.62,1.34-.99.9-.81,2.59-.79,3.7,0,.57-.07,1.17,0,1.69.07.56.82,3.13.19,3.37-.68.25-.69-1.18-.72-1.43-.31-2.49-1.32-6.82,1.32-8.42Z"/><path class="cls-3" d="m15.96,55.64c.35-.1,3.46,2.25,2.49,2.77-.42.22-1.06-.64-1.42-.97-.62-.55-.99-.73-1.42-1.27.13-.18,0-.4.36-.53Z"/><path class="cls-3" d="m51.24,34.91c-.04.05-.04.11.02.18-.72.51-2.19,1.41-3.07,1.89-.17-.26-.21-.15-.27-.42.44-.94,2.41-2.43,3.31-1.64Z"/><path class="cls-3" d="m62.45,27.46c.58.58,2,.81,1.9,1.86-.85.13-2.04-.55-2.28-1.52.17-.11.13-.25.38-.34Z"/><path class="cls-3" d="m61.94,34.36c-1.06.64-1.67-.87-2.54-1.15.28-1.38,2.34.32,2.54,1.15Z"/><path class="cls-3" d="m23.27,63.86c-.14.21-.31.31-.56.36-.42-.42-1.14-1.76-1.57-2.58.8-1.1,1.89,1.6,2.13,2.21Z"/><path class="cls-3" d="m24.32,63.18c-.2.19-.36.16-.54.24-.43-.58-1.33-1.15-1.34-1.92.68-.85,1.87,1.08,1.88,1.67Z"/><path class="cls-3" d="m28.85,59.25c.15-.25.36-.3.61-.29.95.71,1.85,1.81,2.09,2.93.29,1.3.46,3.39-.67,3.42-.36-.42-.05-1.06-.07-1.65-.02-.67-.05-1.6-.36-2.25-.41-.86-1.32-1.32-1.59-2.16Z"/><path class="cls-3" d="m64.52,42.05c-.79.39-2.46.63-2.61-.5.81-.43,1.33.07,2.11-.27,1.2-.53,2.55-2.16,3.03-3.16.39-.8.11-2.15,1.05-1.77.52,1.65-1.56,4.69-3.58,5.7Z"/><path class="cls-3" d="m32.89,62.42c-.13-.05-.25-.14-.39-.15-.16-.4.08-.71-.36-1.17.39-1.49,2.03.85.75,1.31Z"/></g></svg>