<?xml version="1.0" encoding="UTF-8"?><svg id="Layer_2" xmlns="http://www.w3.org/2000/svg" viewBox="0 0 101.43 101.03"><defs><style>.cls-1{fill:#fff;}.cls-2{fill:#ffd15b;}.cls-3{fill:#d7f0fc;}.cls-4{fill:#dfa826;}.cls-5{fill:#3a1312;}</style></defs><g id="Layer_15"><path class="cls-2" d="m45.92,37.73c2.09-.76,4.21-.39,6.36,1.19.03-.57.28-1.15.36-1.73-2.53-1.77-5.03-2.12-7.47-.74.46.42.39.86.74,1.28Z"/><path class="cls-2" d="m43.42,67.13c.05-.85.68-1.71.7-2.56-.81.87-1.87,1.74-1.76,2.59.36.14.72.13,1.07-.03Z"/><path class="cls-2" d="m44.68,63.37c.21-.81.38-1.63.7-2.44-2.71.34-6.04,4.93-5.54,7.19.48-.33.98-.21,1.46-.57-.14-1.38,1.82-3.82,3.37-4.18Z"/><path class="cls-2" d="m46.77,38.41c1.63-.32,3.31,1.44,4.97,2.41.21-.3.12-.59.27-.89-1.75-1.77-3.76-1.81-5.25-1.51Z"/><path class="cls-2" d="m18.1,51.44c.06.57.44,1.29.74,1.4,0-.27.11-.55.33-.83-.25-1.3.07-3.32,1.23-4.82.59-.78,1.42-1.83,2.24-2.49,1.23-.99,2.99-.92,4.1-1.3-.36-1.79-2.42-1.37-3.51-.79-2.8,1.49-5.38,6.54-5.14,8.84Z"/><path class="cls-2" d="m42.72,61.06c1.2-1.01,3.23-.79,3.37-2.34-2.73-.22-6.02.84-8.11,4.18-1.19,1.91-1.69,4.31-1.08,6,.68-.1,1.36-.44,2.05-.59-.47-2.15,1.54-5.39,3.76-7.26Z"/><path class="cls-3" d="m26.61,40.62c.35-1.04.68-2,1.4-2.93,4.42-5.75,9.84-5.84,14.63-3.54,2.5-3.17,6.12-2.64,9.12-1.85.41-.24.83.04,1.24-.21-1.94-2.33-2.55-4.7-4.27-7.04-1.12.12-2.05.7-3.16,1.15-2.05.82-4.17,1.1-6.07,1.85-4.26,1.67-8.33,3.44-12.72,5.11-.04.04-.08.08-.12.12.04,2.93-1.88,4.85-2.84,7.21.88-.41,1.92-.05,2.82.13Zm21.6-13.46c.12.11.24.23.36.34-.14,1.28-1.65-.16-.36-.34Zm-18.72,6.28c.66-.36,1.69-.58,2.64-.84,1.45-.4,2.87-1.15,4.33-1.54.41-.11.88-.04,1.3-.15.27-.08.53-.29.82-.38.35-.11.74-.04,1.06-.15.7-.24,1.36-.63,2.1-.89.68-.24,1.39-.38,2.05-.59.63-.2,1.44-1.05,2.18-.36-.59.98-1.88,1.16-2.86,1.44-.53.15-1.07.27-1.58.46-.52.19-.99.55-1.52.75-.31.12-.71.04-1.06.15-.31.09-.59.36-.87.44-.4.11-.83,0-1.24.09-.94.22-1.79.78-2.69,1.14-1.47.58-3.09.64-4.46,1.19-.38-.25-.31-.51-.2-.76Z"/><path class="cls-2" d="m52.74,36.24c.32-.13.24-.7.38-1.02-.26-.33-.52-.66-.91-.98-.42-.08-.83-.11-1.26-.5-2.05-.19-4.81-.99-6.66.95-.04.04-.41.34-.28.66.58.57,1.38,0,1.89-.17,2.36-.8,4.43-.63,6.83,1.06Z"/><path class="cls-2" d="m27.18,61.19c.95-.8,2.21-.4,3.3-.44-2.96-1.63-7.37.74-8.33,4.54-.6,2.36.7,4.74,2.19,6.56.35-.12.71-.06,1.06-.38-2.61-2.91-1.77-7.3,1.79-10.28Z"/><path class="cls-2" d="m23.39,71.99c-2.6-2.99-3.12-6.68-.56-9.86,2.39-2.97,5.25-3.17,8.04-2.29.4-.44.57-.88.79-1.32-3.12-1.94-6.57-1.83-9.36,1.62-2.41,2.98-3.49,6.35-2.46,9.29.38,1.09,1.16,1.84,2.27,2.84.43-.04.86-.08,1.29-.27Z"/><path class="cls-2" d="m20.4,59.95c-.17-.17-.43-.34-.43-.52-2.04.48-2.86,2.55-3.02,4.04-.21,1.85,0,5.19,1.43,6.76-1.19-3.38-.64-6.8,2.02-10.29Z"/><path class="cls-2" d="m35.96,69.05c-.54-2-.01-4.69,1.41-6.84.59-.89,1.4-2,2.35-2.73,1.41-1.08,4.34-1.76,5.69-1.75.4,0,.96.15,1-.09-1.32-.87-2.93-.96-4.28-.71-4.05.76-7.99,4.6-8.1,8.68-.03,1.18.29,2.4.93,3.52.34.07.67,0,1-.09Z"/><path class="cls-2" d="m18.98,72.77c-2.65-2.6-3.19-6.43-2.86-9.38.2-1.78,1.05-3.89,3.3-4.82-.32-.35-.21-.7-.5-1.05-.88-.31-1.92.92-2.5,1.67-1.25,1.6-1.51,3.49-1.51,5.24,0,2.14,1.02,5.7,2.57,7.5.32.36.85,1.21,1.5.84Z"/><path class="cls-2" d="m39.28,34.66c-3.25-.79-7.02.24-9.88,4-.97,1.28-1.65,3.04-.83,4.28-.03-1.61,1.9-4.02,3.35-4.88,2.22-1.33,5.42-2.61,7.57-2.04,1.74.46,3.04,1.82,4.8,2.47-.39-1.19-1.71-2.29-2.68-2.88-.52-.32-1.57-.76-2.33-.94Z"/><path class="cls-2" d="m26.91,71.07c-.99-2.44-1.01-7.18,2.67-8.17.19-.4.28-.8.44-1.2-.96-.26-1.88-.2-2.65.49-2.57,2.32-3.21,5.33-2.04,7.75.24.48.81,1.55,1.57,1.14Z"/><path class="cls-2" d="m29.38,63.85c-2.92,1.94-2.3,4.74-1.52,6.96.86-.26,1.72-.4,2.58-.78-.97-2.04-.8-4.11-1.06-6.18Z"/><path class="cls-2" d="m38.13,57.52c1.88-1.09,4-1.5,5.81-1.52,1.06,0,1.9.13,2.8.81.37-.4.29-.8.56-1.2-1.75-1.12-3.52-1.97-5.54-1.56-1.03.21-2.13.75-3.22,1.09-1.19.38-2.29.78-3.21,1.57-1.58,1.36-2.45,2.97-3.13,4.29-.98,1.88-1.13,3.35-.86,5.17.19,1.29-.04,2.42.93,3.52.59-.02,1.18-.21,1.76-.4-1.73-3.48-.75-8.97,4.11-11.76Z"/><path class="cls-2" d="m12.12,72.95c0,.26-.16.52-.27.78.36.13.71-.03,1.06-.03-.39-.21-.44-.73-.79-.75Z"/><path class="cls-1" d="m51.39,75.25c-1.28-1-2.54-2.05-3.81-3.03-1.26-.98-2.35-2.28-3.86-2.73-.28,1.23-.47,2.82-.95,4.4-.48,1.6-1.21,3.1-1.65,4.42-.16.48-.07.89-.44,1.19-.71.58-1.86-.03-2.71.19-2.84.95-5.87,1.67-8.62,2.78-.89.36-1.89.91-2.88.73-.26-1.03,1.44-.91,1.73-1.35-.94.24-1.87.55-2.81,1.02.93.61,1.84.87,2.76,1.46,3.1-1.2,6.41-2.69,9.6-3.69.65-.2,2.86-1.3,3.23-.74.36.54-.74.83-.98.92-3.54,1.24-7.3,2.56-10.66,3.96.48.32.96.38,1.44.79.09-.25.33-.51.57-.61,3.83-1.51,8.11-3.08,11.88-4.53.48-.18,1.21-.68,1.6.02-.17.67-.98.63-1.45.81-4,1.52-7.96,3.12-11.88,4.64.63.44,1.24.63,1.86,1.07,3.71-1.83,7.65-3.19,11.29-4.51.46-.17,1.15-.56,1.65-.16.18.67-.67.84-1.04.97-3.55,1.32-7.47,2.4-10.94,4.26.72.38,1.45,1.06,2.16,1.24-.19-.17,0-.36.16-.54,3.39-1.63,6.96-2.86,10.29-4.18.45-.18,1.03-.49,1.53-.28.33.7-.52.93-.91,1.09-3.36,1.4-6.67,2.37-10,4-.18.09-.51.13-.58.37.58.41,1.17.67,1.75,1.08,1.12-.95,2.11-1.13,3.33-1.57,1.9-.69,3.64-1.44,5.38-2.16.83-.34,1.77-1.05,2.7-.67-.26.98-1.54,1.15-2.33,1.48-2.73,1.17-5.63,2.05-8.24,3.36.44.42.88.54,1.32.91,2.76-1.23,5.84-2.26,8.6-3.37.82-.33,1.97-1.1,2.76-.49-.51.85-1.61,1.02-2.45,1.37-2.67,1.11-5.47,1.92-8.08,3.06.34.19.69.54,1.03.74,2.91-.98,6.21-2.22,9.2-3.15.81-.25,2.44-1.47,2.89-.26-3.16,1.36-6.68,2.43-9.83,3.58-.52.19-1.07.29-1.23.57.54.42,1.09.7,1.62.96,3.52-.96,6.9-3,10.29-4.31.47-.18,1.02-.22,1.53-.39,1.91-.67,3.59-1.52,5.5-2.28.8-.32,1.59-.49,2.34-.89-2.66-2.76-5.34-5.16-8.07-7.52-1.83-1.58-3.83-2.65-5.61-4.04Zm-4.53-1.53c-.4-.33-.99-.55-1.09-.92-.05-.12-.06-.23-.01-.36.31-.49,1.17.15,1.61.49,1.86,1.46,4.61,4.17,6.61,5.91.5.43,1.31.72,1.04,1.45-.87.28-1.62-.74-2.28-1.36-1.86-1.73-4.09-3.75-5.88-5.22Zm10.22,8.06c.59.13.45.95-.09.95-.55-.28-.36-.83.09-.95Zm4.3,3.49c-.15.23-.31.25-.47.37-.63-.42-2.83-1.46-1.72-2.2.7.45,2.02,1.15,2.18,1.83Z"/><path class="cls-3" d="m27.58,80.34c4-1.05,7.88-2.27,11.93-2.4,1.18-2.95,2.18-5.9,2.48-8.82-1.4.52-2.75.95-4.16,1.36-1.37.39-2.8.34-4.18.65-1.4.31-2.78.62-4.17,1-1.41.38-2.8.89-4.22,1.3-4.09,1.18-8.45,1.23-12.54,2.06-.04-.03-.08-.06-.12,0,2.17,2.56,3.73,5.14,5.83,7.7,2.28-.76,4.58-1.04,6.86-2.14.73-.35,1.49-.51,2.29-.71Zm7.7-3.64c0,.62-1,.86-1.28.63-.71-.59.54-1.49,1.28-.63Zm-15.8,3.81c2.58-1.2,5.57-1.49,8.33-2.36.75-.23,2.05-.82,2.55.11-.22.62-.82.33-1.35.45-.73.17-1.52.52-2.41.72-1.61.37-2.89.64-4.7,1.08-.62.15-2.88,1.45-2.42,0Z"/><path class="cls-3" d="m71.94,59.01c0-.28.29-.29.46-.49-1.3-1.9-3.08-4.09-4.3-5.8.57,5.08,1.5,10.55,1.91,15.62.05.58.5,1.69-.42,2.02-.63-.54-.4-1.45-.47-2.18-.47-4.48-1.16-8.79-1.55-13.32-.05-.65-.42-1.94-.18-2.24.26-.32.73.03.64-.19-.94-1.53-1.92-3.06-2.67-4.6-.31,0-.11.39-.1.48.11,1.79.31,3.51.56,5.24.69,4.94,1.53,10,1.83,14.85.06.95.48,2,.02,2.9-.71.2-.73-.79-.74-1.16-.33-5.84-1.36-11.69-2.14-17.44-.26-1.94-.13-3.96-.81-5.83-.01-.16.19-.32.34-.48-.41-.31-.57-.93-.85-1.04-.09.46-.2.91-.38,1.37.52,2.22.36,4.46.54,6.84.3,4.03.52,8.04.63,11.99.07,2.58.69,5.25.98,7.72.05.42.41,1.15-.13,1.6-1.08-.05-.66-1.42-.77-2.11-.22-1.4-.36-2.53-.58-3.89-.15-.95-.33-1.84-.37-2.77-.14-3.7-.42-7.46-.66-11.1-.12-1.87.03-3.74-.33-5.49-.22,1.05-.53,2.1-.92,3.16.23.17.32.35.43.52-.12,1.7.19,3.38.38,5.08.47,4.21.34,8.62.47,12.76.03.85.28,1.77-.05,2.6-1.14.05-.8-1.34-.82-1.93-.03-.8.01-1.71,0-2.42-.12-4.46-.4-8.96-.78-13.28-.03-.38.07-.97-.21-1-.27,1.1-.49,2.15-.68,3.27-.19,1.11-.74,2.21-.74,3.33,0,.41.15.86.16,1.3.03,2.28.19,4.48.36,6.67.06.73.54,1.93-.35,2.43-.61-.27-.42-1.08-.46-1.58-.12-1.78-.25-3.55-.44-5.25-.4.59-.82.17-1.23.45.05,1.61.09,3.57.2,5.26.03.46.28,1.5-.67,1.32-.57-2.13-.17-4.29-.47-6.43-.35.1-.7.24-1.06.27.02,1.24-.1,2.36-.14,3.55-.02.56.28,1.28-.19,1.78-1.29-.6-.52-2.08-.56-3.18-.03-.67-.18-1.26-.11-1.83-2.94.86-5.9.6-8.81,2.14,6.82,5.64,13.92,10.07,20.57,17.06.48-2.43.95-4.84,2.11-7.21.55-1.12,1.05-2.39,1.56-3.59.53-1.24,1.18-2.46,1.62-3.65.35-.95.46-1.98.81-2.92.38-1.03.8-1.97,1.1-2.99-1.23-1.81-.95-4.15-1.53-6.17Zm.03,9.58c-.88.28-.8-.77-.86-1.16-.42-2.53-.54-5.32-.99-7.96-.08-.5-.15-1.08-.22-1.59-.09-.66-.37-1.52,0-1.83.11-.21.24,0,.35-.13.56.71.51,1.67.6,2.52.08.83.3,1.67.42,2.47.26,1.71.27,3.39.43,5.01.09.85.66,1.84.25,2.65Z"/><path class="cls-1" d="m11.9,69.06c-1.19-3.26-1.77-7.71-.07-11.23.9-1.86,3.51-3.89,5.14-4.58-.79-1.7-.61-3.36.15-5.27.64-1.6,1.4-3.15,2.59-4.56-1.18.05-2.49.82-3.69,1.34-1.01.44-3.82,1.06-4.14,2.3-.95,3.72-2.49,7.62-3.52,11.63-1.04,4.06-2.35,7.9-2.82,11.61,1.58.76,3.16,1.81,4.75,2.65.65-1.3.88-2.59,1.61-3.89Zm1.07-19.25c.12.11.24.23.36.34.02.31-.34.94-.74.91-.71-.38-.12-1.21.38-1.25Zm-6.07,18.2c.31-1.31.95-2.76,1.36-4.24.42-1.47.95-2.88,1.48-4.24.72-1.87,1.31-3.97,1.98-5.49.15-.29.31-.08.47-.13.4.69-.02,1.54-.24,2.19-.8,2.39-1.9,4.61-2.58,7.11-.46,1.69-1.12,3.33-1.52,4.89-.14.55.05,1.17-.55,1.55-.73-.37-.52-1.16-.4-1.64Z"/><path class="cls-3" d="m73.79,64.1c.28-.82.51-1.63.7-2.44-.44-.68-.93-1.67-1.65-2.14.55,1.52.5,3.06.95,4.58Z"/><path class="cls-1" d="m54.95,37.07c.05-.16-.13-.31-.01-.48.79-.59,1.61-.06,2.41-.48-.8-.52-1.61-1.45-2.41-1.47-.2,1.21-.54,2.42-.79,3.63,1.21.29,2.48-.45,3.71-.64.6-.09,1.48-.17,1.96.36-.06.06-.02.12-.05.18-.48.6-1.34.28-2,.41-1.27.24-2.56.69-3.82.76-.16.87-.59,1.75-.64,2.62,1.15-.29,2.35-.26,3.53-.45,1.16-.19,2.35-.85,3.54-.45.04.85-1.06.83-1.57.93-1.97.39-4.01.6-5.83.93-.03.49-.35.99-.37,1.49,1.77-.26,3.55-.71,5.41-1.1.19-.04,1.52-.59,1.83-.23.72.83-1.47,1.03-1.86,1.12-1.96.44-4.15,1.03-5.76,1.1-.1.52-.41,1.04-.43,1.55,2.51-.32,5.01-1.25,7.54-1.03.36.99-1.3.85-1.93.94-2.04.3-4.36.75-6,1.11.02.61-.4,1.23-.48,1.85,2.43-.36,4.85-1.56,7.3-1.38-.05.16.13.31.01.48-2.33.8-4.66,1.09-6.99,1.79-.16-.12-.32-.12-.48-.34-.48,1.35-.71,2.7-1.31,4.06,1.9-.04,3.85-.7,5.71-1.05.59-.11,1.4-.59,1.95,0-.07.1,0,.2-.05.3-1.23.53-2.6.76-3.87,1.06-1.29.29-2.64.68-3.95.52-.19.5-.43,1-.49,1.49,1.89-.48,3.89-.83,5.7-1.28.61-.15,1.32-.56,1.95-.23.05.15.06.31.01.47-2.67,1.09-5.36,1.37-8.05,1.94-.09.57-.49,1.15-.48,1.73,2.36-.76,4.73-1.48,7.12-1.32.03.2.04.39.02.59-2.53.43-5.06.96-7.58,1.69,0,.35-.46.72-.32,1.07,1.9-.48,4-.84,5.81-1.4.62-.19,1.34-.72,2-.29.09.93-1.13.88-1.69,1.05-2.17.67-4.5,1.19-6.51,1.66-.05.45-.48.92-.26,1.37,1.14-.4,2.3-.89,3.46-1.22,1.15-.33,2.3-.85,3.47-.75-.05.08.03.16.12.23-.69.93-2.26,1.02-3.69,1.46-.58.18-1.26.47-1.93.7-.67.23-1.65.39-1.99.76-.42.46-.35,1.34-.59,1.97,4.03-1.83,8.12-1.56,12.16-3,1.06-8.27,4.04-16.59,5.82-24.88-1.73-1.12-3.42-1.06-5.15-2.34-1.04.79-2.11.66-3.18.44Zm1.64,14.44c-1.37.44-2.53.97-4.1,1.29-.76.16-2.04.64-2.2-.35.41-.37,1.32-.37,2.11-.53,1.37-.29,2.62-.86,3.98-1.29.63-.2,1.52-.6,2.01-.06-.13.81-1.11.72-1.81.94Zm4.1-12.12c-.86.81-2.02.72-3.29.92-.44.07-1.03.24-1.71.34-.23.04-2.71.53-1.61-.6.24-.25,1.32-.28,1.7-.34,1.12-.18,2.23-.42,3.36-.62.54-.1,1.29-.33,1.55.31Z"/><path class="cls-2" d="m48.59,42.09c-2.39-.91-4.99.18-7.27,2.21-1.91,1.7-3.93,4.39-3.6,6.49.14.91.58,1.61.84,2.52.55-.21,1.1-.17,1.64-.52.02-.81-.14-1.72.05-2.6.73-3.61,4.95-7.76,8.35-8.09Z"/><path class="cls-2" d="m17.33,73.05c-1.24-1.4-1.91-2.69-2.48-4.19-1.21-3.17-1.32-7.51.85-10.14,1.01-1.22,1.99-2.18,2.95-2.27-.1-.59-.22-1.18-.28-1.77-1.64.21-4.41,2.25-5.2,4.28-1.13,2.88-.65,6.08.19,9.04.43,1.53.96,3.09,1.89,4.09.46.49.92.61,1.1,1.15.33-.08.67-.06,1-.2Z"/><path class="cls-2" d="m30.17,56.08c.27,0,.55.11.84.33,1.33-1.19,2.72-.07,4.04-1.59-1.63-1.04-3.53-.82-4.87,1.26Z"/><path class="cls-2" d="m33.52,51.08c.16-.18-.23-1.26-.16-1.42-.8-.19-2.02-.41-3.08-.15-.79.19-2.85,1.21-3.38,1.75-1.21,1.22-1.55,3.12-1.47,4.59.47-.03.94-.18,1.41-.27-.2-2.27,2.11-4.11,3.96-4.55.56-.13,2.59.19,2.72.05Z"/><path class="cls-2" d="m32.9,56.59c-.25.15-.51.05-.76.2.18.09.36.24.54.28.14-.16.24-.32.22-.48Z"/><path class="cls-2" d="m28.85,49.08c1.57-.75,3.31-.45,4.72-.49-.09-.25.12-.52.16-.77-2.13-1.44-5.68-.68-8,1.28-2.76,2.34-3.57,5.76-2.62,7.88.42-.35.85-.49,1.28-.74.25-1.9.28-4.31,2.26-5.92.6-.49,1.56-.93,2.22-1.24Z"/><path class="cls-2" d="m37.47,42.16c.21-.29.42-.36.64-.55-1.57-.36-4.61.23-5.55,2.58.83.06,1.13-.85,1.68-1.29.97-.78,2.31-1.03,3.23-.74Z"/><path class="cls-2" d="m32.32,39.93c2.65-1.54,6.2-1.87,8.8-.42.64-.46,1.29-.32,1.93-.7-1.35-.43-2.37-1.6-3.78-1.97-1.8-.47-3.56.39-5.41,1.33-1.27.65-2.55,1.24-3.76,2.88-.52.71-.97,1.96-.52,2.5.55-1.06,1.49-2.9,2.74-3.62Z"/><path class="cls-2" d="m37.19,40.51c1.04-.03,2.11.42,2.94-.44-1.06-.55-1.86-.61-3.09-.62-2.27-.02-5.26,1.19-6.39,4.08.31.25.6.17.89.27,1.63-2.37,3.55-3.24,5.65-3.28Z"/><path class="cls-2" d="m34.17,53.31c-.12-.39-.34-.78-.39-1.17-1.87-.91-6.18.39-5.94,3.36.47-.04.95.21,1.42.2,1.36-2.25,3.29-2.4,4.9-2.38Z"/><path class="cls-2" d="m50.77,44.16c-3.04,1.08-6.52,5.22-6.93,8.17.31-.1.63.01.95.09.39-2.09,2.88-4.92,5-5.05.17-1.07.83-2.15.98-3.22Z"/><path class="cls-2" d="m25.53,44.56c-2.1-.05-5.05,3.41-5.41,5.47,1.22-2.13,3.61-4.5,5.41-5.47Z"/><path class="cls-2" d="m21.42,58.51c.33-.36.65-.72.98-.92-1.35-2.36-.35-5.63,1.61-8.03,2.45-2.99,6.47-3.88,9.08-3.15.34.09.74.43,1.13.27-3.26-2.14-7.79-1.99-10.95,1.96-2.67,3.35-4.4,6.77-1.86,9.87Z"/><path class="cls-2" d="m47.73,53.94c.96-1.82.99-3.62,1.8-5.43-1.74-.06-3.61,2.74-3.85,4.18.68.32,1.37.95,2.04,1.25Z"/><path class="cls-2" d="m33.93,44.68c.38.07.76.22,1.13.38.41-.72,1.13-1.45,1.6-2.17-.88.12-2.07.6-2.73,1.79Z"/><path class="cls-2" d="m45.04,40c-5.75.87-13.09,8.97-8.49,13.95.36-.13.7-.25,1.06-.38-.84-2.18-1.14-4.1.12-6.33,1.39-2.48,4.4-5.16,6.63-6.04,1.52-.6,3.4-.22,4.85-.02-1.3-1.14-2.87-1.38-4.17-1.19Z"/><path class="cls-2" d="m50.08,42.7c-2.4.15-5.65,1.74-7.79,4.71-1.12,1.56-1.36,3.65-1.16,5.12.56-.34,1.14-.08,1.71-.23.39-1.92,2.04-4.97,4.19-6.86.44-.39,1.11-.73,1.62-1.11.39-.29.71-.69,1.04-.86.54-.27,1.18-.04,1.59-.46-.4-.2-.79.08-1.19-.32Z"/><path class="cls-4" d="m43.81,59.6c.06-2.19-1.72-3.07-3.67-2.37-2,.72-3.34,2.92-4.17,4.75-.65,1.42-1.53,4.37.36,5.3.63.31,1.38-.14,1.21-.89-.37-1.66,1.02-4.74,2.65-6-.08.15-.16.3-.24.44-.6,1.1-1.23,2.19-1.37,3.45-.13,1.18,1.1,1.91,2.13,1.69.08.19.17.38.29.57.85,1.26,3.36,1.09,3.22-.79-.04-.44-.11-.78-.26-1.08-.14-.82.68-2.2.89-2.9.28-.96-.28-1.79-1.06-2.09,0-.02,0-.05,0-.07Z"/><path class="cls-4" d="m47.75,43.66c-1.01-.35-2.15.22-2.24,1.48-.02.23-.03.46-.05.69-.97-.13-2,.95-1.71,1.94.19.67.43,1.32.66,1.97-.69-.11-1.46-.27-1.66-.78-.22-.57-1.08-.11-.83.46.78,1.81,2.32,2.34,3.59,3.73.7.77,1.96.46,2.37-.39,1.01.07,2.03-.69,1.69-1.95-.15-.55-.36-1.05-.61-1.52-.12-.43-.18-.88-.21-1.34.71-.23,1.27-.96,1.15-1.94-.1-.81-.24-1.51-.7-2.2-.33-.51-1.06-.63-1.46-.15Z"/><path class="cls-4" d="m47.93,34.99c-.93-.49-1.89.42-1.44,1.37.68,1.44,2.29,2.17,3.54,3.04.69.48,1.69.18,2.12-.5.48-.78.15-1.6-.5-2.12-1.03-.83-2.55-1.17-3.72-1.79Z"/><path class="cls-4" d="m41.16,36.9c-1.58-.95-3.77.39-5.1,1.29-1.73,1.16-2.84,2.48-3.98,4.18-.6.9.65,1.83,1.42,1.15,1.01-.88,2.67-1.48,3.85-2.14.7-.39,1.4-.77,2.13-1.1.53-.24,1.13-.2,1.62-.55.95-.69,1.23-2.15.07-2.84Z"/><path class="cls-4" d="m32.38,50.61c.03-.78-.19-1.5-.85-2.07-1.24-1.08-2.86-.62-3.84.54-.98,1.14-1.27,2.42-1.58,3.85-.18.86.84,1.3,1.36.61.42-.55.88-1.08,1.32-1.61-.12.2-.23.38-.32.54-.37.7-.76,1.37-1.08,2.1-.68,1.58,1.29,2.49,2.49,2.01.4-.16.75-.39,1.08-.64.3.66,1.04,1.1,1.77,1.05.9.3,1.97,0,2.24-1.08.05-.19.09-.36.17-.54.31-.7-.08-1.49-.69-1.94.02-.5,0-.99-.08-1.5-.14-.83-1.17-1.51-2-1.31Z"/><path class="cls-4" d="m26.67,58.51c-1.78,1-2.51,3.66-2.87,5.52-.43,2.21-.01,6.24,2.67,6.79.72.14,1.1.06,1.51-.96.02.02.04.04.06.05,1.21,1.15,3.42.17,2.97-1.64-.42-1.71.12-3.46-.59-5.13-.12-.28-.37-.44-.66-.49.16-.36.3-.72.41-1.08.67-2.33-1.2-4.34-3.5-3.05Z"/><path class="cls-4" d="m19.25,57.19c-.05-.29-.12-.58-.29-.87-.46-.81-1.53-.95-2.21-.34-1.85,1.65-2.27,4.72-2.52,7.04-.12,1.15-.17,6.11,2.16,5.41.23-.07.49-.25.54-.51.1-.56-.12-1.1-.23-1.65-.18-.89,0-1.89.1-2.79.01-.14.03-.29.05-.44.53.54,1.35.68,2.02.07.37-.34.61-.71.79-1.1.82.06,1.69-.4,1.66-1.42-.03-.97-.25-1.79-.71-2.64-.26-.47-.82-.75-1.37-.76Z"/><path class="cls-4" d="m23.09,43.1c-1.59,1.43-2.25,2.98-2.98,4.9-.25.63.66.94,1.01.46.87-1.17,2.2-2.32,3.26-3.32.93-.88,2.55-1.32,3.05-2.55.09-.21,0-.49-.15-.64-1.28-1.3-3.18.25-4.19,1.16Z"/><path class="cls-5" d="m46.7,16.48c.05-.81-.92-1.07-1.45-1.37-2.38-1.36-4.71-2.46-7.09-4.4-.09.1-.19.2-.29.3-.08.09,0,.28.06.4.03.04.09.1.03.14,2.36,2.25,4.82,3.03,7.05,4.37.46.27,1.06,1.08,1.68.56Z"/><path class="cls-5" d="m85.79,33.79c-.95-.48-1.89-1-2.88-1.46-4.69-2.17-9.43-4.98-14.23-7.71-1.01-.57-2.31-1.02-2.88-1.58-.65-.63-1.18-1.8-1.73-2.67-.6-.94-1.29-1.84-1.85-2.67-2.47-3.68-4.06-7.23-6.68-10.7-1-1.32-1.92-2.79-2.89-4-.32-.4-.83-1.24-1.33-1.03-.47.36.06.85.21,1.12.22.39.54.83.74,1.16,3.27,5.4,6.38,10.99,9.32,16.3-2.61-1.67-5.04-2.74-7.69-4.29-3.91-2.28-7.87-4.09-11.7-6.24-1.02-.57-1.85-1.28-2.33-.94-1.23.87,2.22,2.36,2.91,2.76,1.25.73,2.14,1.1,3.06,1.63,1.71.97,3.03,1.97,4.51,2.77.56.3.99.69,1.56,1.02.41.24.96.31,1.43.55,2.45,1.26,4.79,3.13,7.22,4.53.98.57,2.25,1.04,2.89,1.69.89.93,1.57,2.42,2.4,3.66.8,1.17,1.56,2.45,2.29,3.66,1.61,2.65,3.56,5.07,5.17,7.31,3.68,5.12,7.71,9.76,10.69,14.61.81.17,2.1.88,2.72-.19.43-.74-1.08-2.2-1.68-3.21-.68-1.13-1.26-2.27-1.98-3.26-1.74-2.39-3.47-4.38-4.97-6.43-3.29-4.5-6.58-8.94-9.28-12.93,4.87,3.13,9.98,5.54,14.71,8.05,3.65,1.93,6.74,3.77,10.51,5.68.74.38,1.3.69,2.09.59.52-.06,1.79-.58,1.5-1.46-.18-.52-1.4-.97-2.17-1.36-3.37-1.74-6.6-3.45-9.66-5Z"/><path class="cls-5" d="m10.63,42.54c-.53,1.26.95.27,1.42.08.94-.38,2.26-.23,3.48-.51,1.28-.29,2.57-.8,3.49-2.11.17-.24.39-.56.21-.83-.44-.68-.92.35-1.57.93-1.86,1.66-4.25.99-5.99,1.71-.17.07-.92.44-1.04.74Z"/><path class="cls-5" d="m57.95,6.41c.4-.37-.7-1.72-1.06-2.28-1.14-1.7-2.5-3.14-4.37-4.13-.1.1-.2.2-.29.3-.08.09.07.35.13.47.47.57,1.14.91,1.63,1.31,1.08.88,1.78,1.9,2.41,2.86.31.47,1,1.97,1.55,1.47Z"/><path class="cls-5" d="m54.89.29c.07.1-.05.2-.05.3.87.99,1.66,2.58,2.75,3.18.75-.6-.25-1.35-.64-1.87-.5-.67-.98-1.49-1.65-1.79-.13.09-.27.03-.41.19Z"/><path class="cls-5" d="m13.33,50.16c-.12-.11-.24-.23-.36-.34-.5.04-1.09.88-.38,1.25.4.03.76-.6.74-.91Z"/><path class="cls-5" d="m34.14,33.02c.9-.36,1.75-.91,2.69-1.14.41-.1.84.02,1.24-.09.28-.08.57-.34.87-.44.35-.11.75-.03,1.06-.15.53-.2,1-.56,1.52-.75.51-.19,1.06-.31,1.58-.46.98-.28,2.27-.46,2.86-1.44-.74-.69-1.55.16-2.18.36-.67.21-1.38.35-2.05.59-.74.26-1.41.65-2.1.89-.33.11-.72.04-1.06.15-.29.09-.54.3-.82.38-.41.11-.88.05-1.3.15-1.46.39-2.88,1.14-4.33,1.54-.95.26-1.98.48-2.64.84-.11.26-.18.52.2.76,1.36-.55,2.99-.6,4.46-1.19Z"/><path class="cls-5" d="m.44,67.54c.65-.44.82-1.38,1.06-2.1.22-.64.8-1.59.12-2.19-.84.31-.69,1.45-1,2.28-.27.73-1.01,1.49-.36,1.96.06-.04.12-.02.18.05Z"/><path class="cls-5" d="m2.19,68.85c.34-1.67.95-3.23,1.28-4.89.16-.81.59-1.82-.07-2.48-.16.09-.31.03-.47.25-.15,2.32-1.15,4.68-1.64,6.96-.15.71-.51,1.6.06,2.25.81-.23.68-1.39.83-2.09Z"/><path class="cls-5" d="m7.85,68.11c.4-1.56,1.06-3.2,1.52-4.89.68-2.5,1.78-4.72,2.58-7.11.22-.65.64-1.5.24-2.19-.16.06-.32-.15-.47.13-.67,1.52-1.25,3.63-1.98,5.49-.53,1.36-1.06,2.76-1.48,4.24-.42,1.47-1.05,2.92-1.36,4.24-.11.49-.33,1.28.4,1.64.59-.39.4-1,.55-1.55Z"/><path class="cls-5" d="m48.58,27.51c-.12-.11-.24-.23-.36-.34-1.29.19.23,1.62.36.34Z"/><path class="cls-5" d="m55.22,27.3c-.3-.6-.07-1.32-.81-1.57-.21.01-.49.36-.4.54.17,1.42,1.19,2.49,2.36,4.08.7.96,1.5,1.93,2.26,2.71.78.81,1.75,2.08,2.83,1.76.15-.65-.5-.84-.86-1.16-.55-.48-1.18-1.06-1.76-1.66-1.15-1.19-3-3.44-3.62-4.69Z"/><path class="cls-5" d="m63.4,17.2c-.26.32.26,1,.5,1.29.67.78,2.35,2.44,3.08,2.22.4-.76-1.8-2.18-2.45-2.89-.26-.28-.64-1.24-1.14-.62Z"/><path class="cls-5" d="m59.54,29.78c-1.44-.19.04,2.25.88,1.99.46-.68-.56-1.32-.88-1.99Z"/><path class="cls-5" d="m15.34,84.52c-.97-1.08-1.64-2.34-2.56-2.89-.18.02-.66.41-.34.6,1.3,1.89,3.74,4.68,6.02,6.04.98.59,2.32,1.26,3.03.57-.47-.76-1.56-.78-2.46-1.29-1.23-.7-2.62-1.85-3.69-3.03Z"/><path class="cls-5" d="m59.15,39.08c-1.13.21-2.24.45-3.36.62-.38.06-1.47.09-1.7.34-1.1,1.14,1.38.64,1.61.6.68-.1,1.27-.27,1.71-.34,1.26-.2,2.42-.11,3.29-.92-.26-.65-1.01-.41-1.55-.31Z"/><path class="cls-5" d="m14.08,85.85c-1.74.29,1.16,2.81,1.95,2.07.13-.93-1.53-1.08-1.95-2.07Z"/><path class="cls-5" d="m29.02,78.7c.53-.12,1.13.17,1.35-.45-.5-.93-1.8-.34-2.55-.11-2.76.87-5.75,1.16-8.33,2.36-.46,1.44,1.81.14,2.42,0,1.81-.43,3.09-.71,4.7-1.08.89-.2,1.68-.55,2.41-.72Z"/><path class="cls-5" d="m56.39,50.63c-1.36.43-2.61,1-3.98,1.29-.79.17-1.7.17-2.11.53.16.99,1.43.51,2.2.35,1.57-.33,2.73-.86,4.1-1.29.7-.22,1.67-.13,1.81-.94-.49-.54-1.38-.14-2.01.06Z"/><path class="cls-5" d="m35.29,76.7c-.74-.86-1.99.04-1.28.63.28.24,1.27,0,1.28-.63Z"/><path class="cls-5" d="m55.02,80.29c.27-.73-.55-1.02-1.04-1.45-2-1.74-4.75-4.44-6.61-5.91-.44-.34-1.3-.98-1.61-.49-.05.12-.04.24.01.36.1.37.69.59,1.09.92,1.79,1.47,4.02,3.49,5.88,5.22.66.62,1.42,1.63,2.28,1.36Z"/><path class="cls-5" d="m70.86,58.45c-.09-.85-.04-1.81-.6-2.52-.12.12-.24-.08-.35.13-.38.32-.1,1.18,0,1.83.07.51.14,1.09.22,1.59.44,2.64.57,5.42.99,7.96.06.39-.02,1.44.86,1.16.41-.81-.17-1.81-.25-2.65-.16-1.63-.17-3.31-.43-5.01-.12-.8-.34-1.65-.42-2.47Z"/><path class="cls-5" d="m94.69,34.16c-.08.09.07.34.12.46.7.67,1.67,1.03,2.35,1.65.87.79,1.43,1.82,1.87,2.69.44.86.52,2.11,1.38,2.34.42-.6-.08-1.82-.47-2.63-.91-1.88-2.89-4.04-4.96-4.82-.1.1-.19.2-.29.31Z"/><path class="cls-5" d="m75.98,55.35c-.08.09-.16.11-.23.13-.04.1-.07.2-.05.29.11.67.76,1.45,1.18,2.16,1.21,2.01,2.43,4.42,2.49,6.5.01.39-.37.66.09,1.12,1.15-.03.76-1.6.65-2.26-.33-1.9-1.2-3.7-2.22-5.44-.55-.94-1.08-2.02-1.9-2.49Z"/><path class="cls-5" d="m84.78,55.17c.04-.85-1.04-.68-1.62-.96-1.17-.57-1.52-1.49-2.07-2.31-.94.17-.4,1.23-.07,1.66.95,1.25,3.06,2.29,3.77,1.61Z"/><path class="cls-5" d="m39.73,96.21c-.22-.1-.14.27-.23.36.92,1.29,1.89,1.56,3.07,1.99,1.57.56,2.65.91,4.05,1.07.63.07,1.58.49,1.88-.29-.31-.64-1.13-.49-1.67-.54-.62-.07-1.21-.19-1.84-.36-1.14-.31-2.61-.67-3.7-1.32-.43-.26-.95-1.11-1.57-.9Z"/><path class="cls-5" d="m99.09,35.45c.6.85,1.02,2.56,2.03,3.19.71-.54-.02-1.35-.31-1.91-.33-.63-1.08-1.95-1.37-1.65-.12.12-.23.24-.35.37Z"/><path class="cls-5" d="m79.83,57.85c-.22,0-.44-.08-.64.2.07.1-.06.2-.05.3.94,1.26,1.1,2.54,1.7,3.8,1.54-.21-.53-3.62-1-4.29Z"/><path class="cls-5" d="m57.07,81.77c-.45.12-.65.67-.09.95.55,0,.68-.82.09-.95Z"/><path class="cls-5" d="m45.12,100.73c-.46-.78-1.67-.7-2.57-1.05-.37-.15-.59-.44-1.02-.39-.17.18-.36.36-.16.54,1.01.94,2.52,1.45,3.7,1.08-.04-.06-.03-.12.05-.18Z"/><path class="cls-5" d="m60.9,85.63c.16-.12.31-.14.47-.37-.16-.68-1.48-1.38-2.18-1.83-1.11.74,1.09,1.78,1.72,2.2Z"/><path class="cls-5" d="m71.04,86.71c-.57-.46-1.76,1.35-2.2,1.71-.61.52-1.87,1.39-2.39,1.55-.66.21-1.89-.39-1.99.64,1.65.96,3.73-.42,5.22-1.74.67-.6,1.87-1.76,1.36-2.17Z"/><path class="cls-5" d="m75.68,63.93c.21-.81.67-2.13.58-2.56-.12-.6-.87-1.52-1.42-2.27-.6-.8-1.17-1.68-1.6-2.32-1.13-1.68-2.5-3.26-3.32-4.64-1.94-3.26-3.85-6.14-5.87-9.24-.08-1.38,1.47-3.1.88-4.46-.29-.68-1.12-1.25-1.75-1.55-.76-.35-1.8-.51-2.87-.98-1.02-.46-1.89-1.2-2.95-1.99-.81-.6-1.87-.91-2.47-1.65-.25-.32-.25-.87-.51-1.29-.43-.69-1.03-1.25-1.47-1.97-.37-.6-.63-1.31-1-1.98-.61-1.11-1.43-3.32-2.76-3.77-.55-.19-2.13.38-2.94.79-3.01,1.52-6.11,2.06-8.9,3.2-1.01.41-1.92.99-2.92,1.38-1.93.75-4,1.33-5.91,2.23-.71.33-2.61,1.11-2.97,1.56-.37.45-.31,1.31-.54,1.91-.83,2.21-2.34,4.68-3.07,6.77-1.85,0-4.48,1.19-6.45,2.07-.72.32-1.55.42-2.17.71-.9.42-2.71,1.33-2.95,2.39-.85,3.81-2.63,7.97-3.69,12.16-.49,1.96-1.26,3.95-1.72,6.08-.19.88-.28,1.84-.57,3.03-.21.88-.89,2.58-.74,3.1.32,1.11,1.96,1.48,2.84,1.99,1.22.72,2.24,1.46,3.06,1.75.17.46.08.67.38,1.05.49.62,1.76,1.34,2.54,2.3.76.92,1.45,2.42,2.47,3.59.77.89,2.07,3.18,2.76,3.53.77.4,1.73-.25,2.71-.55.8-.24,2.09-.64,2.7-.55.76.11,1.87.79,2.75,1.23.93.46,1.9.99,2.82,1.4,4.17,1.86,7.23,4.06,11.18,6.55,1.89,1.19,4.06,3.43,5.66,3.51.69.04,1.83-.58,2.69-.9,2.84-1.03,5.49-2.64,8.18-3.65,1.59-.6,3.26-.89,4.57-1.43,1.28-.52,2.5-1.31,3.86-1.76.73-.24,1.96-.25,2.46-.78.6-.64.99-3.03,1.19-4.06.29-1.53.57-2.84,1.13-4.11.58-1.31,1.24-2.74,1.84-4.13.61-1.41,1.37-2.8,1.84-4.13.26-.72.33-1.63.64-2.5.65-1.79,1.32-3.18,1.81-5.08Zm-1.19-2.27c-.19.81-.42,1.63-.7,2.44-.46-1.52-.41-3.06-.95-4.58.72.47,1.21,1.46,1.65,2.14Zm-11.21-22.7c-1.78,8.29-4.76,16.61-5.82,24.88-4.04,1.43-8.13,1.17-12.16,3,.24-.62.17-1.51.59-1.97.34-.37,1.32-.53,1.99-.76.68-.23,1.35-.53,1.93-.7,1.43-.44,3-.53,3.69-1.46-.09-.08-.18-.15-.12-.23-1.17-.1-2.31.42-3.47.75-1.16.33-2.32.82-3.46,1.22-.21-.45.22-.91.26-1.37,2.01-.47,4.35-.99,6.51-1.66.56-.17,1.77-.13,1.69-1.05-.66-.43-1.38.1-2,.29-1.82.56-3.91.92-5.81,1.4-.14-.35.32-.72.32-1.07,2.52-.73,5.05-1.26,7.58-1.69.02-.2.02-.4-.02-.59-2.39-.16-4.76.56-7.12,1.32,0-.57.39-1.15.48-1.73,2.69-.57,5.38-.85,8.05-1.94.05-.16.04-.32-.01-.47-.63-.33-1.33.07-1.95.23-1.81.45-3.81.8-5.7,1.28.06-.49.31-.99.49-1.49,1.31.16,2.66-.23,3.95-.52,1.27-.29,2.64-.53,3.87-1.06.05-.1-.02-.2.05-.3-.56-.6-1.37-.11-1.95,0-1.85.34-3.8,1-5.71,1.05.6-1.36.83-2.7,1.31-4.06.16.22.32.22.48.34,2.33-.7,4.66-.99,6.99-1.79.11-.16-.06-.32-.01-.48-2.45-.18-4.86,1.02-7.3,1.38.08-.61.5-1.24.48-1.85,1.64-.36,3.96-.81,6-1.11.63-.09,2.28.05,1.93-.94-2.53-.22-5.03.71-7.54,1.03.02-.51.33-1.03.43-1.55,1.61-.07,3.8-.67,5.76-1.1.4-.09,2.58-.28,1.86-1.12-.31-.36-1.64.19-1.83.23-1.86.39-3.64.83-5.41,1.1.03-.49.34-.99.37-1.49,1.81-.33,3.86-.54,5.83-.93.51-.1,1.62-.08,1.57-.93-1.19-.4-2.37.26-3.54.45-1.18.19-2.39.16-3.53.45.05-.87.48-1.75.64-2.62,1.26-.07,2.55-.51,3.82-.76.66-.13,1.52.19,2-.41.03-.06,0-.12.05-.18-.48-.53-1.37-.45-1.96-.36-1.23.19-2.5.92-3.71.64.24-1.21.59-2.42.79-3.63.79.03,1.6.95,2.41,1.47-.8.41-1.62-.12-2.41.48-.12.16.06.32.01.48,1.07.22,2.14.34,3.18-.44,1.73,1.28,3.43,1.22,5.15,2.34ZM15.23,72.1c-.92-.99-1.45-2.55-1.89-4.09-.83-2.97-1.32-6.16-.19-9.04.8-2.03,3.56-4.07,5.2-4.28.06.59.18,1.18.28,1.77-.97.08-1.94,1.05-2.95,2.27-2.17,2.63-2.05,6.96-.85,10.14.57,1.5,1.24,2.79,2.48,4.19-.33.14-.67.12-1,.2-.18-.54-.64-.66-1.1-1.15Zm8.05-23.46c3.15-3.95,7.69-4.09,10.95-1.96-.39.16-.79-.17-1.13-.27-2.61-.73-6.63.16-9.08,3.15-1.96,2.4-2.96,5.66-1.61,8.03-.33.2-.65.56-.98.92-2.54-3.1-.81-6.52,1.86-9.87Zm-3.16,1.39c.36-2.06,3.31-5.52,5.41-5.47-1.79.97-4.19,3.34-5.41,5.47Zm24.67,2.4c-.32-.08-.64-.19-.95-.09.41-2.95,3.89-7.09,6.93-8.17-.15,1.07-.8,2.15-.98,3.22-2.13.13-4.61,2.96-5,5.05Zm4.74-3.92c-.81,1.82-.84,3.61-1.8,5.43-.68-.3-1.36-.93-2.04-1.25.23-1.45,2.1-4.24,3.85-4.18Zm.16-5.03c-.33.17-.65.57-1.04.86-.52.38-1.18.71-1.62,1.11-2.14,1.89-3.8,4.94-4.19,6.86-.57.15-1.15-.11-1.71.23-.2-1.46.04-3.56,1.16-5.12,2.14-2.96,5.39-4.56,7.79-4.71.41.4.8.12,1.19.32-.41.42-1.04.18-1.59.46Zm-9.5,9.31c-.54.34-1.1.31-1.64.52-.26-.91-.7-1.61-.84-2.52-.33-2.09,1.69-4.78,3.6-6.49,2.28-2.03,4.88-3.12,7.27-2.21-3.4.34-7.62,4.48-8.35,8.09-.18.88-.03,1.79-.05,2.6Zm4.17-11.59c-2.23.87-5.24,3.56-6.63,6.04-1.26,2.23-.96,4.15-.12,6.33-.35.13-.7.25-1.06.38-4.6-4.98,2.74-13.08,8.49-13.95,1.31-.2,2.87.05,4.17,1.19-1.45-.21-3.33-.58-4.85.02Zm-13.36,15.21c-.28-.22-.56-.33-.84-.33,1.34-2.08,3.25-2.3,4.87-1.26-1.32,1.52-2.71.4-4.04,1.59Zm1.9.18c.01.16-.08.32-.22.48-.18-.04-.36-.19-.54-.28.25-.15.51-.05.76-.2Zm-3.63-.9c-.47,0-.95-.24-1.42-.2-.24-2.97,4.07-4.26,5.94-3.36.05.39.27.78.39,1.17-1.62-.02-3.55.13-4.9,2.38Zm1.53-4.66c-1.85.43-4.16,2.28-3.96,4.55-.47.1-.94.25-1.41.27-.08-1.47.26-3.37,1.47-4.59.53-.54,2.59-1.56,3.38-1.75,1.06-.25,2.28-.04,3.08.15-.07.15.33,1.23.16,1.42-.13.14-2.16-.18-2.72-.05Zm-6.42,5.21c-.43.26-.86.4-1.28.74-.95-2.12-.14-5.54,2.62-7.88,2.32-1.97,5.87-2.72,8-1.28-.03.26-.25.52-.16.77-1.4.04-3.14-.27-4.72.49-.66.31-1.61.75-2.22,1.24-1.98,1.61-2.01,4.02-2.26,5.92Zm12.66-16.79c1.23,0,2.03.07,3.09.62-.83.86-1.9.41-2.94.44-2.09.04-4.02.91-5.65,3.28-.3-.1-.59-.02-.89-.27,1.13-2.89,4.12-4.1,6.39-4.08Zm-7.45,4.11c-.45-.53,0-1.79.52-2.5,1.21-1.64,2.49-2.23,3.76-2.88,1.85-.94,3.61-1.8,5.41-1.33,1.4.37,2.43,1.54,3.78,1.97-.64.38-1.29.24-1.93.7-2.6-1.45-6.15-1.12-8.8.42-1.24.72-2.18,2.56-2.74,3.62Zm4.65-.66c-.55.44-.85,1.35-1.68,1.29.94-2.35,3.98-2.94,5.55-2.58-.21.19-.43.26-.64.55-.92-.29-2.26-.04-3.23.74Zm2.42,0c-.47.72-1.19,1.45-1.6,2.17-.38-.16-.76-.32-1.13-.38.66-1.18,1.85-1.67,2.73-1.79Zm7.63-4.41c-1.76-.65-3.06-2.01-4.8-2.47-2.15-.57-5.35.71-7.57,2.04-1.45.86-3.38,3.27-3.35,4.88-.82-1.24-.15-3,.83-4.28,2.86-3.76,6.63-4.79,9.88-4,.76.18,1.81.62,2.33.94.98.59,2.29,1.69,2.68,2.88Zm-26.82,33.44c-1.55-1.8-2.58-5.36-2.57-7.5,0-1.75.27-3.64,1.51-5.24.57-.74,1.62-1.97,2.5-1.67.29.35.18.7.5,1.05-2.25.93-3.1,3.04-3.3,4.82-.33,2.96.22,6.78,2.86,9.38-.65.37-1.19-.48-1.5-.84Zm-.53-8.44c.16-1.49.98-3.56,3.02-4.04,0,.18.26.35.43.52-2.66,3.48-3.21,6.91-2.02,10.29-1.42-1.57-1.63-4.91-1.43-6.76Zm2.88,5.95c-1.03-2.95.06-6.31,2.46-9.29,2.79-3.44,6.24-3.56,9.36-1.62-.22.44-.39.88-.79,1.32-2.79-.88-5.65-.67-8.04,2.29-2.56,3.18-2.03,6.87.56,9.86-.43.19-.86.23-1.29.27-1.11-1-1.89-1.74-2.27-2.84Zm2.31-4.14c.97-3.8,5.38-6.17,8.33-4.54-1.09.05-2.34-.36-3.3.44-3.55,2.98-4.4,7.37-1.79,10.28-.35.33-.7.26-1.06.38-1.49-1.82-2.79-4.2-2.19-6.56Zm3.2,4.64c-1.17-2.41-.53-5.43,2.04-7.75.76-.69,1.69-.74,2.65-.49-.16.4-.25.8-.44,1.2-3.68,1-3.66,5.74-2.67,8.17-.76.41-1.34-.66-1.57-1.14Zm4.03-6.08c.26,2.06.09,4.14,1.06,6.18-.86.39-1.72.52-2.58.78-.78-2.22-1.39-5.02,1.52-6.96Zm1.96,2.31c-.26-1.82-.12-3.29.86-5.17.69-1.32,1.56-2.93,3.13-4.29.92-.79,2.02-1.19,3.21-1.57,1.09-.34,2.2-.89,3.22-1.09,2.03-.41,3.79.45,5.54,1.56-.27.4-.19.79-.56,1.2-.9-.68-1.75-.82-2.8-.81-1.81.02-3.93.43-5.81,1.52-4.86,2.79-5.84,8.28-4.11,11.76-.58.19-1.17.38-1.76.4-.96-1.1-.74-2.23-.93-3.52Zm2.71-.55c.11-4.08,4.05-7.92,8.1-8.68,1.35-.26,2.96-.17,4.28.71-.04.24-.6.09-1,.09-1.35,0-4.28.67-5.69,1.75-.95.73-1.76,1.84-2.35,2.73-1.42,2.15-1.94,4.84-1.41,6.84-.33.09-.67.16-1,.09-.64-1.13-.96-2.35-.93-3.52Zm3.95-2.71c2.08-3.35,5.37-4.41,8.11-4.18-.14,1.55-2.17,1.33-3.37,2.34-2.22,1.87-4.23,5.11-3.76,7.26-.69.15-1.37.49-2.05.59-.62-1.69-.12-4.09,1.08-6Zm7.4-1.98c-.32.82-.49,1.63-.7,2.44-1.55.36-3.51,2.8-3.37,4.18-.48.36-.98.24-1.46.57-.5-2.26,2.82-6.85,5.54-7.19Zm-1.26,3.64c-.02.85-.65,1.71-.7,2.56-.35.15-.7.16-1.07.03-.1-.85.95-1.72,1.76-2.59Zm8.53-27.38c-.08.57-.34,1.15-.36,1.73-2.15-1.58-4.27-1.95-6.36-1.19-.35-.42-.29-.86-.74-1.28,2.45-1.38,4.94-1.03,7.47.74Zm-8.62-1.83c-.13-.32.24-.62.28-.66,1.84-1.94,4.61-1.14,6.66-.95.43.39.84.41,1.26.5.38.32.65.65.91.98-.14.32-.06.88-.38,1.02-2.4-1.68-4.47-1.85-6.83-1.06-.5.17-1.3.75-1.89.17Zm7.99,4.57c-.15.3-.07.59-.27.89-1.66-.97-3.35-2.73-4.97-2.41,1.49-.29,3.5-.26,5.25,1.51Zm-25.38-6.64s.07-.08.12-.12c4.39-1.67,8.47-3.44,12.72-5.11,1.91-.74,3.95-1.1,6-1.92,1.11-.45,2.08-.99,3.2-1.11,1.72,2.34,2.35,4.72,4.29,7.06-.41.25-.82-.02-1.23.22-3-.8-6.61-1.32-9.11,1.85-4.78-2.3-10.2-2.21-14.62,3.54-.72.94-1.05,1.9-1.4,2.94-.89-.19-1.94-.54-2.82-.13.97-2.35,2.89-4.28,2.85-7.2Zm-3.4,9.32c1.09-.58,3.15-1,3.51.79-1.11.38-2.87.31-4.1,1.3-.82.65-1.64,1.71-2.24,2.49-1.16,1.51-1.47,3.52-1.23,4.82-.22.28-.33.56-.33.83-.3-.11-.69-.83-.74-1.4-.24-2.29,2.33-7.35,5.14-8.84Zm-14.87,16.08c1.03-4.01,2.58-7.91,3.52-11.63.32-1.24,3.13-1.86,4.14-2.3,1.19-.52,2.51-1.29,3.69-1.34-1.19,1.42-1.96,2.96-2.59,4.56-.76,1.91-.94,3.56-.15,5.27-1.63.69-4.24,2.71-5.14,4.58-1.7,3.53-1.12,7.98.07,11.23-.72,1.3-.95,2.59-1.61,3.89-1.58-.84-3.17-1.89-4.75-2.65.47-3.7,1.78-7.55,2.82-11.61Zm4.55,15.01c-.35,0-.7.16-1.06.03.11-.26.28-.52.27-.78.35.01.4.54.79.75Zm5.52,9.49c-2.1-2.56-3.66-5.14-5.83-7.7.04-.06.08-.04.12,0,4.09-.83,8.45-.88,12.54-2.06,1.42-.41,2.81-.91,4.22-1.3,1.38-.38,2.77-.69,4.17-1,1.38-.31,2.82-.25,4.18-.65,1.41-.41,2.76-.84,4.16-1.36-.3,2.92-1.29,5.87-2.48,8.82-4.05.13-7.94,1.35-11.93,2.4-.8.21-1.56.36-2.29.71-2.28,1.1-4.58,1.38-6.86,2.14Zm46.64,3.63c-.75.4-1.54.57-2.34.89-1.9.77-3.58,1.61-5.5,2.28-.51.18-1.06.22-1.53.39-3.39,1.31-6.77,3.35-10.29,4.31-.54-.27-1.08-.54-1.62-.96.16-.28.71-.38,1.23-.57,3.15-1.15,6.68-2.23,9.83-3.58-.45-1.22-2.07,0-2.89.26-2.99.93-6.29,2.18-9.2,3.15-.34-.2-.68-.55-1.03-.74,2.61-1.15,5.41-1.95,8.08-3.06.83-.35,1.94-.52,2.45-1.37-.8-.61-1.95.16-2.76.49-2.76,1.11-5.84,2.14-8.6,3.37-.44-.37-.88-.49-1.32-.91,2.61-1.32,5.52-2.2,8.24-3.36.79-.34,2.07-.51,2.33-1.48-.94-.39-1.87.32-2.7.67-1.74.72-3.48,1.47-5.38,2.16-1.22.44-2.21.62-3.33,1.57-.58-.41-1.16-.67-1.75-1.08.07-.25.4-.28.58-.37,3.34-1.63,6.64-2.6,10-4,.39-.16,1.25-.39.91-1.09-.5-.21-1.08.1-1.53.28-3.33,1.32-6.9,2.56-10.29,4.18-.17.18-.36.37-.16.54-.71-.18-1.44-.87-2.16-1.24,3.47-1.87,7.39-2.94,10.94-4.26.37-.14,1.22-.3,1.04-.97-.5-.4-1.19,0-1.65.16-3.64,1.32-7.58,2.67-11.29,4.51-.62-.44-1.24-.63-1.86-1.07,3.92-1.53,7.88-3.12,11.88-4.64.48-.18,1.28-.14,1.45-.81-.38-.7-1.12-.2-1.6-.02-3.77,1.44-8.04,3.02-11.88,4.53-.25.1-.49.36-.57.61-.48-.41-.96-.47-1.44-.79,3.36-1.4,7.12-2.72,10.66-3.96.24-.09,1.34-.37.98-.92-.38-.57-2.59.54-3.23.74-3.18,1-6.5,2.5-9.6,3.69-.92-.59-1.83-.85-2.76-1.46.94-.47,1.87-.78,2.81-1.02-.3.44-2,.32-1.73,1.35.99.17,1.99-.37,2.88-.73,2.75-1.11,5.78-1.83,8.62-2.78.85-.23,2,.39,2.71-.19.37-.3.28-.71.44-1.19.44-1.32,1.17-2.83,1.65-4.42.48-1.58.67-3.17.95-4.4,1.51.46,2.6,1.75,3.86,2.73,1.26.98,2.53,2.03,3.81,3.03,1.78,1.39,3.79,2.47,5.61,4.04,2.74,2.36,5.42,4.76,8.07,7.52Zm6.49-15.73c-.43,1.19-1.09,2.41-1.62,3.65-.51,1.2-1.01,2.47-1.56,3.59-1.16,2.37-1.63,4.79-2.11,7.21-6.66-6.99-13.75-11.41-20.57-17.06,2.91-1.53,5.88-1.28,8.81-2.14-.07.57.08,1.16.11,1.83.04,1.1-.73,2.58.56,3.18.47-.5.17-1.22.19-1.78.04-1.19.15-2.32.14-3.55.36-.02.7-.17,1.06-.27.3,2.14-.1,4.3.47,6.43.95.18.71-.86.67-1.32-.11-1.69-.16-3.65-.2-5.26.41-.28.83.14,1.23-.45.18,1.71.32,3.47.44,5.25.04.5-.15,1.31.46,1.58.88-.5.4-1.7.35-2.43-.17-2.19-.33-4.4-.36-6.67,0-.43-.16-.89-.16-1.3,0-1.12.55-2.22.74-3.33.19-1.13.4-2.18.68-3.27.27.03.17.62.21,1,.38,4.32.65,8.82.78,13.28.02.71-.03,1.63,0,2.42.03.59-.32,1.98.82,1.93.32-.83.07-1.75.05-2.6-.12-4.14,0-8.55-.47-12.76-.19-1.7-.49-3.37-.38-5.08-.11-.17-.2-.35-.43-.52.38-1.06.7-2.11.92-3.16.35,1.75.2,3.62.33,5.49.25,3.63.52,7.4.66,11.1.04.93.22,1.82.37,2.77.22,1.36.36,2.49.58,3.89.11.68-.31,2.06.77,2.11.54-.44.18-1.18.13-1.6-.29-2.47-.91-5.14-.98-7.72-.11-3.95-.33-7.96-.63-11.99-.18-2.38-.02-4.62-.54-6.84.18-.46.28-.92.38-1.37.28.11.45.74.85,1.04-.15.16-.35.32-.34.48.68,1.88.55,3.9.81,5.83.78,5.75,1.81,11.6,2.14,17.44,0,.37.03,1.36.74,1.16.46-.9.04-1.94-.02-2.9-.3-4.85-1.13-9.92-1.83-14.85-.25-1.74-.45-3.45-.56-5.24,0-.09-.2-.47.1-.48.75,1.54,1.73,3.06,2.67,4.6.09.22-.38-.12-.64.19-.25.3.12,1.59.18,2.24.39,4.53,1.08,8.84,1.55,13.32.07.72-.15,1.63.47,2.18.91-.33.46-1.44.42-2.02-.41-5.07-1.34-10.54-1.91-15.62,1.22,1.7,2.99,3.9,4.3,5.8-.17.2-.47.21-.46.49.58,2.02.3,4.36,1.53,6.17-.3,1.01-.72,1.96-1.1,2.99-.35.95-.46,1.97-.81,2.92Z"/></g></svg>