<?xml version="1.0" encoding="UTF-8"?><svg id="Layer_2" xmlns="http://www.w3.org/2000/svg" viewBox="0 0 88.02 101.38"><defs><style>.cls-1{fill:#fff;}.cls-2{fill:#ffd15b;}.cls-3{fill:#ef3a37;}.cls-4{fill:#c72727;}.cls-5{fill:#dfa826;}.cls-6{fill:#3a1312;}</style></defs><g id="Layer_15"><path class="cls-2" d="m63.24,71.25c.89-1.29,1.5-2.98,2.7-3.81.29-.08.44.5.52.1.18-1.11.58-2.36.33-3.18-.59,0-.76-.13-1.41-.13-.9,2.56-3.16,4.73-4.32,6.69.26.05.52.1.78.15.89-2.01,2.08-3.33,3.14-4.75.33-.44.63-1.36,1.4-1.2,0,.07.05.1.16.11-.5,2.28-3.34,3.66-3.3,6.02Z"/><path class="cls-1" d="m70.45,33.13c.88-.73,1.96-1.66,2.12-3.11-.34-.32-.77-.59-1.5-.64-.52,1.04-3.71.72-5.42.14-.71-.24-.75-1.03-1.11-1.29-.49.06-1.06-.01-1.47.17-.36.43-.52,1.16-.64,1.95.93,2.04,5.43,3.27,8.02,2.77Z"/><path class="cls-1" d="m65.08,37.24c4.83,1.32,9.3.84,11.51-1.42-.88-1.14-1.77-2.28-3.2-3.03-.64.63-1.33,1.59-2.26,2-2.83,1.22-9.05-1.02-10.25-3.38-.59.97-1.62,1.32-2.3,2.17.85,2.03,3.67,2.89,6.5,3.66Z"/><path class="cls-3" d="m65.67,95.99c-.51-.03-1.15-.26-1.73-.33-.57-.06-1.59.16-1.5-.64.9-.77,2.31-.01,3.5.03,1.86.07,3.97-.76,5.71-.72.98-1.11.48-2.57.91-4.32-2.29.51-5.69,1.19-8.18.97-.72-.06-1.72-.18-1.47-.82.21-.54.78-.14,1.29-.12,2.6.11,5.81-.47,8.34-.85.02-.52.04-1.04.12-1.59-2,.48-4.27,1.17-6.82.87-1.14-.13-1.85.05-2.36-.36-.06-1.15,1.31-.67,2.09-.59,2.59.25,5.26-.33,7.2-.98-.02-.44.09-.97-.01-1.35-1.88.62-4.41,1.33-6.68,1.53-.62.05-2.13.22-2.09-.85.59-.36,1.68.02,2.29-.02,2.49-.15,5.05-.94,7.33-1.49.08-.43.16-.87.25-1.3-2.26.46-4.77,1.07-7.1,1.27-.62.05-2.18.33-2.11-.85.34-.42.85-.03,1.26-.03,2.59.02,4.72-1.21,7.22-1.34.15-.76.11-1.41.09-2.05-2.01.47-4.56,1.29-6.78,1.51-.65.06-1.99.4-2.15-.59.63-.61,1.57-.28,2.32-.37,2.33-.28,4.58-1.11,6.76-1.51.09-.6.02-1.08.14-1.69-2.61.47-5.03,1.2-7.96,1.19-.07-.26-.33-.38-.22-.76.55-.46,2.06.03,2.69-.03,2.18-.21,2.69-1.17,7.07-1.27.1-.52.2-1.04.29-1.56-2.23.31-4.65.99-6.61,1.27-.52.07-2.04.33-2.09-.57.38-.61.88-.38,1.42-.45,2.05-.26,3.92-1.09,5.85-1.5.05-.56.31-1.32.19-1.76-.92.48-1.88.66-3.03,1.14-.36.15-2.92,1.43-2.96.34-.02-.54,2.73-1.24,3.14-1.39,1.53-.57,3.19-.69,3.32-2.34-.88.21-1.9.44-2.92.71-.86.22-2.2.83-2.86-.09.19-.68,1.75-.22,2.2-.3,1.52-.28,3.29-.89,5.49-1.03.1-.52.2-1.04.3-1.57-2.25.37-3,.58-4.46.78-.25.04-2.33.34-2.34-.44,0-.58,1.1-.56,1.52-.61,1.72-.23,2.86-.53,4-1.31.19-.28.33-1.15.22-1.49-2.03.65-4.27,1.02-6.49,1.38-.36.09-.5-.61-.61-.2-.19,1.66-.89,3.83-1.06,5.56-.17,1.74-.37,2.5-2.07,2.39-1.35-.08-3.94-.93-5.82-1.1-2.04-.18-1.87-.68-1.64-2.74.12-1.11.29-2.84.3-4.44,0-1.38-.61-3.42-.13-4.07.5-.69,1.13-.14,2.12.22,1.33.49,4.68,1.06,6.52,1.23.92.09,1.39-.05,1.65.76-.06.62.15,1.06.14,1.65,1.85-.54,4.53-.82,6.57-1.46.35,0,.43.02.68.22.06-.59.38-1.37.26-1.84-1.75.45-3.98,1.05-6.05,1.1-.6.02-1.65.21-1.88-.53.46-.79,1.91-.22,2.55-.24,2.27-.06,2.88-1.24,7.16-.81.15-.78.29-1.56.44-2.34-4.31-.21-4.57.99-6.49,1.11-.58.04-2.08.21-2.26-.61.41-.71,1.82-.21,2.45-.26,2.04-.14,2.19-1.48,6.52-1.38.08-.4.15-.81.23-1.22-2.19.09-3.96.69-5.72.81-.82.05-2.57.25-2.97-.65.62-.69,1.45-.31,2.3-.38,1.61-.12,3.01-.61,4.23-1,.25-.05.51-.01.84.07.02-.42.29-1.02.14-1.32-1.43.35-3.26,1.01-4.98,1.04-.33,0-2.6.17-2.49-.65.08-.58,1.24-.36,1.95-.35,2.34.04,4.1-.63,5.79-1.15.1-.59.28-1.06.47-1.53-2.3.06-4.85,1.1-7.27.88-.52-.05-1.71,0-1.81-.88.68-.51,1.44-.07,2.17-.04,1.54.06,4.05-.14,5.46-.41.72-.14.94-.86,2.94.11.15-.81.31-1.62.46-2.43-2.21.19-5.02.52-7.19.53-.61,0-2.16.21-2.2-.69.5-.57,1.88-.23,2.56-.24,2.32-.03,2.71-.75,7.04-.65.12-.61.23-1.21.34-1.82-2.32.74-4.48.92-7.05.74-.61-.04-2.42.09-2.2-.69.19-.69,2.04-.23,2.74-.2.59.03,1.47.04,2.27-.11,1.46-.27,3.36-.9,3.29-1.9-.49.37-1.8.66-2.77.74-2.3.18-4.76.4-7.06.19-2.51-.23-4.86-.33-7.12-.9-1.24-.31-2.13-.49-3.01-.75-1.57-.45-3.42-1.27-4.65-2.05-.67-.43-1.05-1.17-1.66-1.22-.29,5.23-.3,10.15-.84,15.4-.31,3.03-.16,6.12-.39,9.19-.17,2.32-.26,4.7-.52,7.01-.23,2.11-.94,4.08-1.16,6.16-.15,1.44-.13,3-.32,4.53-.3,2.48-1.13,4.94-1.29,7.31-.21,3.16,1.47,3.15,4.48,4.35,1.23.49,2.59,1.03,3.79,1.35.87.22,1.78.27,2.6.49.8.22,1.55.59,2.28.79,4.35,1.17,7.09.08,9.66-1.14-1.86-.1-4.25.82-6.25.71Zm-11.61-35.65c.09-1.29.36-2.32.5-3.59.34-3.09.18-7.57.39-10.63.06-.83-.15-1.79.22-2.12,1.2-.64.64,1.95.57,3.17-.15,2.62.05,7.24-.24,9.85-.11,1.02-.4,2.35-.47,3.42-.02.29.27,2.75-.67,2.57-.5-.1-.34-2.24-.31-2.67Zm.17,4.8c.29-.13.48.26.46.44-.11.98-1.64-.1-.46-.44Zm-3.91,24.98c-1.64.71-.06-2.12,0,0h0Zm.43-4.15c-.49-.49-.13-1.22-.02-1.8.56-2.95,1.14-5.93,1.5-8.89.2-1.65.2-3.31.78-4.12.08-.07.08.42.18.44.06.01.12.02.17.03.68.13-.1,1.99-.27,3.32-.51,4.05-.93,6.34-1.51,9.41-.11.59.11,1.5-.85,1.61Zm11.6,6.69c.31-.49.91-.13,1.37-.1,2.52.16,5.37-.05,7.27-.88,1.88.55-.46,1.27-1.36,1.45-1.62.34-3.26.44-5.11.38-.88-.03-2.21.05-2.18-.86Z"/><path class="cls-2" d="m59.85,70.61c.55-.34.95-1.6,1.3-2.09,1.14-1.63,2.62-3.62,3.49-5.63-.66-.12-1.33-.25-2-.38,0,0-.25.7-.25.85-.36.68-.81,1.69-1.25,2.33-.4.59-1.24,1.27-1.01,2.03.93-1.26,1.43-3.06,2.91-3.51.18.1.2.35.26.54-.98,1.45-2.12,2.69-2.83,4.52-.15.15-.53-.04-.59.26.03.33-.39.98-.03,1.08Z"/><path class="cls-2" d="m60.17,65.63c.38-.73.88-1.29,1.28-2.01-.34-.22-.81-.36-1.36-.44.06.8-.08,1.72.08,2.44Z"/><path class="cls-1" d="m74.28,42.84c-1.24-.09-3-.56-4.27-.72-.5-.06-1.2.17-1.27-.42.14-.87,1.06-.51,1.7-.4,2.23.4,4.17.78,5.83.56,1.43-.19,2.29-1.23,3.5-1.41.37,1.5-1.95,1.74-3.03,2.22,2.08.16,4.11-1.18,4.04-3.28-.04-1.27-1.21-2.12-2.45-2.71-2.13,2.34-5.39,3.43-10.01,2.97-2.01-.2-4.22-.8-6.05-1.32-1.24-.35-2.56-.97-3.54-1.75-.92-.74-2.02-1.75-2.04-2.53-.01-.49.38-.9.09-.95-.03,0-.06,0-.09-.02-1.37-.26-2.97,1.2-2.94,3.66,2.26,5.72,13.9,6.4,20.52,6.11Zm-8.34-1.58c-.02.57-.29.76-.83.56-.4-.55.45-1.14.83-.56Zm-9.23-3.99c.69,1.34,2.83,2.11,4.59,2.85.68.28,1.68.49,1.81,1.33-.47.56-1.21,0-1.75-.24-2.79-1.26-6.01-2.45-6.05-5.55,1.12-.67,1.05.91,1.4,1.61Z"/><path class="cls-1" d="m70.29,18.71c-.22-.93.29-1.72.22-2.57-.07-.82-1.04-1.6-1.19-2.29-.53,1.41-1.23,2.56-1.46,4.4.95.13,1.62.42,2.43.46Z"/><path class="cls-1" d="m81.21,24.73c.82,4-1.8,7.28-4.4,8.52.36.21.46.59.74.86,1.9-1.63,4.24-3.1,4.58-6.6.55-5.71-3.79-9.37-10-10.35-.06,0-.11,0-.1.07.18.07-.08.46.07.55,4.2.63,8.47,3.8,9.12,6.94Z"/><path class="cls-1" d="m69.25,28.04c.03-2.59.13-5.62.04-7.82-.44-.08-.87-.16-1.3-.25-.33,2.11-1.13,5.12-1.78,7.53.91.44,1.82.49,3.05.53Z"/><path class="cls-2" d="m21.47,62.9c.5.14.89-.46.93-.63-.23.32-.67.35-.93.63Z"/><path class="cls-2" d="m21.93,57.6c.37-.22.98-.31,1-.53.06-.74-2.89-1.12-3.63-.78-1.18.54-1.25,1.21-1.69,2.29,1.32-.47,2.09-1.73,3.53-2.03.19.1.21.31.26.5-.51.62-1.22,1.06-1.9,1.53-.64.44-1.68.72-1.75,1.65.6.16,1.03-.53,1.52-.88.66-.49,2.03-1.38,2.67-1.74Z"/><path class="cls-2" d="m23.2,58.02c-1.37.74-2.89,1.81-4.11,2.73-.3.22-1.05.41-.72.94.48.21.99-.29,1.37-.55,1.3-.89,2.62-1.79,3.9-2.59-.2-.14-.04-.52-.44-.53Z"/><path class="cls-1" d="m31.72,34.8c-1.24-.09-3-.56-4.27-.72-.51-.06-1.2.17-1.27-.42.14-.87,1.06-.51,1.7-.4,2.23.4,4.17.78,5.83.56,1.43-.19,2.29-1.23,3.51-1.4.37,1.5-1.95,1.74-3.03,2.22,2.08.16,4.11-1.18,4.04-3.29-.04-1.27-1.21-2.12-2.46-2.71-2.13,2.34-5.39,3.43-10,2.97-2.01-.2-4.22-.8-6.05-1.32-1.24-.35-2.57-.97-3.54-1.75-.92-.74-2.02-1.74-2.04-2.53-.01-.49.38-.9.09-.95-.03,0-.06-.01-.09-.02-1.37-.26-2.97,1.2-2.94,3.65,2.26,5.72,13.9,6.4,20.52,6.11Zm-8.33-1.58c-.02.57-.29.76-.83.56-.4-.55.46-1.13.83-.56Zm-9.23-3.99c.36.7,1.37,1.43,2.17,1.85,1.45.75,3.4.96,4.25,2.24-.36.73-1.26.08-1.77-.15-2.81-1.26-6.01-2.45-6.05-5.55,1.12-.67,1.05.92,1.4,1.61Z"/><path class="cls-2" d="m19.68,62.39c1.74.03,2.44-1.45,3.93-1.78.05-.34.21-.75-.01-.9-1.31.89-2.74,1.61-3.92,2.68Z"/><path class="cls-1" d="m22.53,29.2c4.83,1.32,9.3.84,11.51-1.42-.88-1.14-1.77-2.28-3.2-3.03-.66.65-1.33,1.59-2.27,2-2.8,1.22-9.07-1.02-10.25-3.38-.59.98-1.62,1.32-2.3,2.18.85,2.03,3.67,2.88,6.5,3.66Z"/><path class="cls-2" d="m21.38,87.62c-.57-.07-1.59.16-1.5-.64.9-.78,2.32-.01,3.5.03,1.86.07,3.97-.76,5.71-.72.98-1.11.47-2.57.91-4.32-2.29.51-5.69,1.19-8.19.97-.72-.06-1.72-.18-1.47-.82.21-.54.78-.14,1.28-.12,2.61.11,5.82-.47,8.35-.85.03-.52.05-1.04.12-1.59-1.99.48-4.28,1.17-6.82.87-1.12-.13-1.84.06-2.36-.36-.06-1.15,1.32-.67,2.09-.59,2.58.25,5.26-.33,7.2-.98-.02-.44.09-.97-.01-1.35-1.87.61-4.41,1.34-6.67,1.53-.61.05-2.13.22-2.09-.85.59-.36,1.94.07,2.54.03,2.49-.15,5.31-.89,7.59-1.44.08-.43.16-.87.24-1.3-2.26.46-5.03,1.02-7.37,1.22-.62.05-2.31.31-2.24-.87.32-.41.72-.06,1.11-.06,2.62,0,4.75-1.15,7.27-1.33.15-.76.09-1.41.07-2.05-2.01.47-4.57,1.29-6.78,1.51-.64.06-1.99.4-2.15-.59.63-.61,1.57-.28,2.31-.37,2.33-.28,4.58-1.12,6.76-1.51.09-.6.02-1.08.14-1.69-2.61.46-5.03,1.2-7.96,1.19-.06-.26-.33-.38-.22-.76.55-.46,1.26-.12,1.9-.18,2.18-.21,4-.92,6.27-1.42.1-.52.2-1.04.29-1.56-2.24.31-3.86,1.14-5.82,1.42-.52.07-1.65.4-1.69-.5.43-.62,1.27-.36,1.89-.45,1.98-.29,3.83-1.06,5.67-1.45.05-.56.37-1.31.24-1.75-.93.48-1.86.66-3,1.14-.35.15-2.91,1.43-2.94.34-.02-.54,2.74-1.24,3.14-1.39,1.52-.57,3.19-.69,3.32-2.34-.88.21-1.9.44-2.92.71-.85.22-2.2.83-2.86-.09.19-.68.96-.37,1.41-.45,1.52-.28,2.49-1.04,4.7-1.18.1-.52.2-1.04.3-1.56-.14.77-2.2.72-3.66.93-.25.04-1.94.42-1.94-.37,0-.63.77-.38,1.42-.45,1.69-.19,3.29-.72,4.4-1.42.19-.29.38-1.14.28-1.48-1.53.61-3.61.79-5.43,1.13-.54.1-1.42.61-1.57-.3.82-.75,2.1-.63,3.22-.83,1.14-.21,2.24-.64,3.3-.82.34,0,.43.02.68.22.05-.59.38-1.37.26-1.84-1.76.45-3.98,1.05-6.05,1.1-.6.02-1.66.21-1.88-.53.49-.82,1.15-.35,1.85-.37,2.21-.07,4.11-1.04,6.28-.97.15-.78.29-1.56.44-2.34-2.21.19-3.77,1.14-5.7,1.26-.59.04-1.68.29-1.87-.53.42-.71,1.23-.33,1.85-.37,2.04-.14,3.7-1.19,5.93-1.49.08-.4.15-.81.23-1.21-2.19.09-3.16.84-4.92.96-.82.05-2.18.33-2.58-.58.62-.69,1.66-.28,2.5-.34,1.61-.12,3.11-.59,4.33-.98.24-.05.55,0,.89.08.02-.42.31-1.02.16-1.32-1.43.35-3.25,1.01-4.96,1.04-.33,0-2.59.17-2.49-.65.08-.63,1.22-.36,1.95-.35,2.25.04,4.39-.69,5.8-1.15.1-.59.29-1.06.47-1.53-2.3.07-4.85,1.1-7.27.88-.53-.05-1.7,0-1.81-.88.68-.51,1.43-.07,2.17-.04,1.55.06,3.26-.29,4.67-.56.72-.14,2.25-.61,2.15-.04.15-.81.31-1.62.46-2.43-2.21.18-4.23.66-6.4.68-.61,0-1.76.29-1.81-.61.49-.57,1.31-.34,1.96-.35,2.34-.03,4.21-.48,6.45-.76.11-.61.23-1.22.35-1.82-.22,1.13-3.69,1.07-6.26.89-.61-.04-2.02.17-1.81-.61.19-.69,2.24-.2,2.94-.16.59.03,1.56.06,2.37-.09,1.46-.27,3.4-.89,3.33-1.89-.49.37-1.77.66-2.75.74-2.31.18-4.75.41-7.05.2-2.5-.23-4.85-.33-7.11-.9-1.24-.31-2.12-.5-3.01-.75-1.56-.44-3.43-1.27-4.65-2.05-.68-.43-1.05-1.17-1.66-1.22-.29,5.21-.3,10.14-.84,15.4-.31,3.04-.16,6.13-.39,9.19-.18,2.34-.26,4.69-.52,7.01-.24,2.11-.94,4.08-1.16,6.16-.15,1.44-.13,3-.32,4.53-.3,2.48-1.13,4.94-1.29,7.31-.22,3.16,1.47,3.15,4.48,4.35,1.24.5,2.59,1.03,3.79,1.35.87.23,1.78.27,2.6.49.8.22,1.55.6,2.28.79,4.35,1.17,7.09.08,9.66-1.14-1.87-.1-4.25.82-6.25.71-.52-.03-1.15-.26-1.73-.33Zm-9.87-35.33c.09-1.29.36-2.31.5-3.59.34-3.09.18-7.58.39-10.63.05-.83-.15-1.79.22-2.12,1.21-.64.64,1.95.57,3.17-.15,2.63.05,7.24-.24,9.85-.11,1.02-.4,2.35-.47,3.42-.02.29.27,2.75-.67,2.57-.5-.1-.33-2.24-.31-2.67Zm-.29,5.34c.75-1.83,1.34,1.22,0,0h0Zm-3.45,24.44c-1.64.71-.07-2.12,0,0h0Zm.42-4.15c-.49-.48-.13-1.22-.02-1.8.56-2.96,1.14-5.93,1.5-8.89.2-1.65.2-3.31.78-4.12.08-.07.09.42.19.44.06,0,.11.02.17.03.68.13-.1,2.03-.27,3.32-.51,4.04-.96,6.33-1.51,9.4-.11.63.11,1.5-.84,1.61Zm12.22-13.25c-.29-.08-.56-.37-.98-.54-1.04-.44-1.84-.58-2.46-1.28-1.38-1.54-1.53-4.58-.52-6.3.62-1.04,1.85-2.02,3.48-2.22.66.1,2.56.21,3.32.53,1.68.73,2.96,4.41,1.81,7.09-.65,1.51-2.53,3.27-4.65,2.72Zm-.62,19.94c.31-.49.91-.13,1.37-.1,2.53.16,5.37-.06,7.27-.87,1.88.55-.47,1.27-1.35,1.45-1.61.34-3.27.44-5.11.38-.89-.03-2.2.05-2.18-.86Z"/><path class="cls-1" d="m27.9,25.08c.88-.73,1.96-1.66,2.12-3.11-.34-.32-.76-.59-1.5-.64-.52,1.04-3.71.72-5.43.14-.71-.24-.75-1.03-1.1-1.29-.49.06-1.07-.01-1.47.17-.36.43-.52,1.15-.64,1.95.93,2.04,5.43,3.28,8.02,2.77Z"/><path class="cls-1" d="m34.51,11.49c1.52.98,3.78,3.44,4.15,5.19.83,4.01-1.81,7.27-4.4,8.52.36.21.46.6.73.86,1.9-1.62,4.24-3.1,4.58-6.6.55-5.71-3.79-9.37-10.01-10.35-.06,0-.11,0-.11.07.19.07-.08.46.08.55,1.74.41,3.55.84,4.97,1.75Z"/><path class="cls-1" d="m27.75,10.66c-.22-.93.29-1.72.22-2.57-.07-.82-1.04-1.6-1.19-2.29-.53,1.41-1.23,2.56-1.46,4.4.95.13,1.62.42,2.43.46Z"/><path class="cls-1" d="m26.7,20c.02-2.58.13-5.62.04-7.82-.43-.08-.87-.16-1.3-.25-.33,2.11-1.13,5.13-1.78,7.53.9.44,1.82.49,3.04.53Z"/><path class="cls-2" d="m65.78,71.64c-.05-.95.5-2.31.43-3.25-.24.46-.7.6-.85,1.19.22.18.64.22.51.64-.35.44-.82.71-1.06,1.33.32.03.75.22.97.09Z"/><path class="cls-1" d="m24.43,58.9c0-.17-.02-.34-.05-.51-.2-1.52-.85-3-2.38-3.54-.7-.25-1.45-.05-2.09.34-.13.02-.26.02-.39.06-1.29.33-2.48,1.77-2.73,3.04-.37,1.82.8,3.54,2.41,4.3.35.24.72.45,1.11.58,1.29.45,2.72-.25,3.42-1.36.78-.79.91-1.86.69-2.9Z"/><path class="cls-1" d="m67.06,70.3c-.06-1.26.82-3.47.06-4.57-.09-.13-.2-.23-.31-.33-.04-.23-.07-.47-.12-.7-.26-1.05-1.25-1.31-2.08-1.01-.02-.08-.02-.15-.04-.23-.19-.87-1.41-1.37-2.15-.84-.28.21-.53.42-.74.65-.11-.18-.22-.37-.38-.53-.5-.54-1.26-.14-1.47.43-.35.95-.32,2.08-.5,3.08-.21,1.17-.38,2.35-.35,3.55.04,1.46,1.73,1.96,2.68,1.12,0,.1,0,.2,0,.3.09,1.48,2.26,2.24,2.96.72.03-.07.05-.14.08-.21.97.44,2.37-.04,2.34-1.44Z"/><path class="cls-4" d="m74.79,68.49c.18-4.6.55-9.11,1.4-13.64.61-3.27,1.42-6.82.67-10.1-.25-1.06-1.67-.85-1.96.04-3.48,10.59-4.14,21.35-4.9,32.18.18-9.73,2-19.18,2.71-28.88.08-1.06-1.46-1.11-1.75-.2-2.55,8.23-3.69,16.87-4.01,25.46-.16,4.39-.25,8.75-.88,13.1-.34,2.35-.31,5.16-1.3,7.33-1.14,2.47,2.56,4.51,3.74,2.02.04-.07.06-.15.1-.23.95,1.62,3.76,1.84,4.19-.48,1.61-8.7,1.64-17.78,2-26.6Z"/><path class="cls-4" d="m54.14,67.79c.49-8.61,1.67-17.11,1.94-25.73.02-.77-1.26-.93-1.35-.15-2,16.67-2.58,33.52-4.8,50.15-.19,1.42,2,1.97,2.19.54,1.1-8.24,1.55-16.5,2.02-24.8Z"/><path class="cls-5" d="m30.28,85c.93-16.05,2.83-31.8,4.47-47.77.1-.97-1.42-1.28-1.81-.44-1.32,2.84-2.38,5.82-3.22,8.89.29-2.09.57-4.18.83-6.28.06-.49-.57-.8-.85-.32-3.39,5.91-3.84,13.26-4.45,19.93-.8,8.82-2.25,17.59-2.87,26.42-.16,2.28,3.33,2.17,3.51-.06v-.07c.29,2.32,4.21,2.75,4.39-.29Z"/><path class="cls-5" d="m12.37,60.14c.64-8.24,1.81-17.21.71-25.42-.06-.45-.7-.59-.82-.09-1.63,6.95-1.43,14.49-1.97,21.59-.66,8.82-1.79,17.55-3.13,26.28-.24,1.52,2.03,2.13,2.36.58,1.58-7.53,2.26-15.28,2.85-22.94Z"/><path class="cls-6" d="m21.96,1.3c.08.15.17.29.28.41.88-.09,1.38-.71,1.95-1.25-.46-1.15-1.84.16-2.22.84Z"/><path class="cls-6" d="m25.76,2.1c.59-.15,1.2.09,1.33-.37.3-1.14-2.16-.37-2.58-.13-.72.41-2.62,2.11-2.6,3.28,0,.44.27.96.95.72.3-.34-.04-.54.09-.97.74-1.05,1.61-2.22,2.82-2.53Z"/><path class="cls-6" d="m67.7,9.58c-.67.57-1.3,1.6-1.79,2.81-.35.87-1.64,2.67-.51,3.14.88-.93,1.08-2.42,1.66-3.55.44-.86,1.23-1.37,1.31-2.18-.1-.11-.3-.15-.4-.26-.03.1-.15.07-.27.04Z"/><path class="cls-6" d="m84.9,20.93c-.02.57.35.97.54,1.45,1.03,2.76.13,6.8-1.13,9.77-.29.68-1.15,2.06-.43,2.26.68.18,1.04-1.31,1.4-2.16,1.18-2.84,1.78-5.59,1.42-8.46-.14-1.14-.66-3.7-1.8-2.86Z"/><path class="cls-6" d="m40.87,24.48c1.76.88,3.39-3.7,3.39-6.02,0-.66-.51-1.49-.94-.72-.21,1.16-.26,2.72-.67,4.01-.4,1.27-1.6,1.82-1.78,2.72Z"/><path class="cls-6" d="m16.91,18.51c1.39.51,2.8-1.25,3.6-2.38.35-.5,1.06-1.37.43-1.81-.09-.02-.09-.09-.16-.12-.04.12-.21.06-.29.13-.7.99-1.21,2.1-2.07,2.85-.51.44-1.57.45-1.51,1.34Z"/><path class="cls-6" d="m19.4,14.84c-.1-.83-1.34-.3-.79.39.47.17.67-.05.79-.39Z"/><path class="cls-6" d="m87.43,27.52c-.36.74-1.44,2.92-.48,3.51.83-.34.91-2.36,1.08-3.31-.09-.14-.36-.16-.59-.2Z"/><path class="cls-6" d="m60.53,24.69c-.52,1.02-1.15,1.63-2.09,2.03-.46.2-1.54.2-1.29,1.11,1.82.11,3.84-1,4.11-3.18-.09-.14-.36-.16-.59-.2-.03.11-.13.1-.13.25Z"/><path class="cls-6" d="m18.81,33.17c.51.23,1.41.89,1.77.15-.85-1.28-2.8-1.49-4.25-2.24-.8-.42-1.81-1.15-2.17-1.85-.36-.69-.28-2.29-1.4-1.61.05,3.1,3.24,4.29,6.05,5.55Z"/><path class="cls-6" d="m61.36,41.21c.55.24,1.29.8,1.75.24-.13-.84-1.14-1.05-1.81-1.33-1.76-.74-3.9-1.51-4.59-2.85-.36-.7-.28-2.28-1.4-1.61.05,3.1,3.26,4.29,6.05,5.55Z"/><path class="cls-6" d="m23.39,33.23c-.37-.57-1.23.01-.83.56.54.2.81,0,.83-.56Z"/><path class="cls-6" d="m65.94,41.27c-.37-.57-1.22.01-.83.56.54.2.81,0,.83-.56Z"/><path class="cls-6" d="m12.48,52.39c.07-1.07.35-2.4.47-3.42.29-2.61.09-7.22.24-9.85.07-1.22.64-3.81-.57-3.17-.37.33-.16,1.29-.22,2.12-.21,3.05-.05,7.54-.39,10.63-.14,1.29-.41,2.31-.5,3.59-.03.43-.19,2.57.31,2.67.93.18.65-2.28.67-2.57Z"/><path class="cls-6" d="m55.03,60.44c.07-1.07.35-2.4.47-3.42.29-2.61.09-7.22.24-9.85.07-1.22.63-3.81-.57-3.17-.37.33-.16,1.29-.22,2.12-.21,3.06-.05,7.54-.39,10.63-.14,1.28-.41,2.31-.5,3.59-.03.43-.19,2.57.31,2.67.93.18.64-2.28.67-2.57Z"/><path class="cls-6" d="m4.83,63.36c-.06.5-.37,2.32.16,2.46.91.24.72-1.72.77-2.19.33-2.77,1.11-5.13,1.35-8.11.11-1.26-.03-3.1-.34-4.38-.25-1.06-.73-3.51-1.36-3.77-.13.02-.24.09-.31.21-.24,1.33.71,3.01.91,4.22.54,3.38-.8,7.97-1.19,11.56Z"/><path class="cls-6" d="m79.34,62.69c0-.05,0-.11-.07-.1-.11.02-.22.06-.29.13-.48.86-.76,3.08-1.04,4.57-.77,4.09-.92,7.58-.67,10.67.05.58-.09,1.51.69,1.57.59-.38.29-1.19.24-1.75-.32-3.94.23-8.36,1.11-13.01.12-.65.57-1.52.03-2.06Z"/><path class="cls-6" d="m49.42,65.4c.05-.78-.01-2.41-.04-3.61-.02-.98.26-4.07-.95-3.06-.11,2.74.2,5.96-.2,8.69-.1.69-.57,2.01.14,2.09.8.09,1-3.41,1.05-4.12Z"/><path class="cls-6" d="m23.26,54.88c-.75-.32-2.66-.43-3.32-.53-1.63.2-2.86,1.18-3.48,2.22-1.01,1.72-.86,4.76.52,6.3.62.69,1.42.83,2.46,1.28.42.18.69.47.98.54,2.12.56,4-1.21,4.65-2.72,1.15-2.68-.13-6.36-1.81-7.09Zm-5.51,5.35c.07-.93,1.11-1.21,1.75-1.65.68-.47,1.4-.91,1.9-1.53-.05-.19-.08-.4-.26-.5-1.44.3-2.21,1.57-3.53,2.03.44-1.08.52-1.74,1.69-2.29.74-.34,3.69.04,3.63.78-.01.22-.63.31-1,.53-.64.37-2.01,1.26-2.67,1.74-.49.36-.92,1.04-1.52.88Zm.62,1.47c-.33-.53.42-.72.72-.94,1.22-.92,2.74-1.99,4.11-2.73.4,0,.23.39.44.53-1.28.8-2.6,1.7-3.9,2.59-.38.26-.88.76-1.37.55Zm3.1,1.21c.26-.28.7-.31.93-.63-.04.17-.43.78-.93.63Zm2.15-2.29c-1.49.32-2.2,1.81-3.93,1.78,1.18-1.07,2.61-1.79,3.92-2.68.22.15.06.56.01.9Z"/><path class="cls-6" d="m4.93,53.78c-.17-.03-.35-.07-.52-.1-.04,0-.21.6-.3.65-.14,1.26-.09,3.04-.19,4.32-.02.29-.43,1.43.25,1.51.86.09.73-2.4.75-3.03.04-1.25.02-1.17,0-3.35Z"/><path class="cls-6" d="m79.55,70.17c-.64,1.91-.67,4.24-.44,5.69.08.56.17,1.35.72,1.44.91-.64.02-1.84.03-3.01.01-1.39.36-1.93.42-4.1-.14-.03-.29-.05-.44-.08-.12-.02-.21-.06-.28.06Z"/><path class="cls-6" d="m11.22,57.64c1.34,1.22.75-1.83,0,0h0Z"/><path class="cls-6" d="m54.69,65.58c.02-.19-.17-.58-.46-.44-1.18.35.35,1.42.46.44Z"/><path class="cls-6" d="m10.55,66.91c.16-1.29.95-3.19.27-3.32-.06,0-.12-.02-.17-.03-.1-.02-.11-.51-.19-.44-.58.82-.63,2.75-.83,4.41-.35,2.97-.91,5.79-1.47,8.75-.11.58-.46,1.24.03,1.73.96-.11.74-1.02.85-1.65.55-3.07,1.01-5.4,1.52-9.44Z"/><path class="cls-6" d="m53.1,74.96c.17-1.33.95-3.19.27-3.32-.06-.01-.12-.02-.17-.03-.1-.02-.11-.51-.18-.44-.58.81-.64,2.75-.83,4.4-.36,2.96-.92,5.79-1.48,8.75-.11.58-.46,1.24.03,1.73.95-.12.74-1.05.85-1.65.57-3.07,1-5.4,1.51-9.44Z"/><path class="cls-6" d="m34.32,71.99c.08-.92.96-3.08-.03-3.15-.13.02-.24.09-.31.21-1,3.06-.45,5.89-.41,8.38,0,.54-.22,1.53.61,1.56.59-.72.35-2.11.27-3.37-.07-1.21-.22-2.57-.12-3.62Z"/><path class="cls-6" d="m21.97,85.49c1.84.05,3.5-.05,5.11-.38.89-.19,3.23-.9,1.35-1.45-1.9.82-4.75,1.04-7.27.87-.45-.03-1.06-.39-1.37.1-.03.91,1.29.84,2.18.86Z"/><path class="cls-6" d="m64.52,93.53c1.85.05,3.49-.04,5.11-.38.89-.19,3.24-.9,1.36-1.45-1.9.82-4.75,1.04-7.27.88-.46-.03-1.06-.39-1.37.1-.03.91,1.3.84,2.18.86Z"/><path class="cls-6" d="m3.16,87.42c-.24-.94-.63-1.92-.78-3.48-.1-.99.38-3.45-.56-3.7-.13.02-.23.1-.31.21-.21,2.23-.16,5.77.91,7.55.39.66,1.16,1.45,1.96,1.54.48-1.03-.86-1.42-1.22-2.12Z"/><path class="cls-6" d="m7.77,82.08c-.07-2.12-1.64.71,0,0h0Z"/><path class="cls-6" d="m50.32,90.13c-.06-2.12-1.64.71,0,0h0Z"/><path class="cls-6" d="m76.05,95.35c-.09-.14-.36-.16-.59-.2-.03.11-.14.1-.14.24-1.43,2-3,3.9-5.12,4.7-.43.17-1.16.09-1.31.74.39.77,1.35.23,1.89,0,1.68-.71,2.59-1.66,3.8-2.97.65-.7,1.57-1.49,1.46-2.51Z"/><path class="cls-6" d="m47.31,95.58c-1.47-1.04-1.73-2.92-1.65-5.08-.45-.18-.65,0-.85.2-.46,3.03.99,6.02,3.86,6.22.29-1.07-.85-.97-1.36-1.34Z"/><path class="cls-6" d="m73.41,100.25c-.5.38-1.38.5-.67,1.13,1.08,0,1.6-.75,2.26-1.46.49-.53,1.07-.97,1.37-1.54-.93-1.19-2.12,1.23-2.96,1.87Z"/><path class="cls-6" d="m.34,85.66c-.68.97-.29,2.31.67,2.67.03-.06.07-.01.18.02.46-.75-.51-1.53-.32-2.59-.17-.03-.34-.07-.52-.1Z"/><path class="cls-6" d="m31.81,81.95c.65-7.46.75-15.75,2.92-24,1.7-6.47,2.41-14.34,4.12-20.81.29-1.1.54-2.37.86-3.61.11-.44.37-.87.42-1.27.28-2.43-1.36-3.91-3.25-5.2,1.33-1.65,3.23-2.8,4-5,1.19-3.42.33-6.65-.79-8.7-1.88-3.45-6.19-5.39-10.72-6.07-.48-1.01-.67-2.21-1.3-3.12-.43-.18-1.47-.51-1.84-.26-.2.03-.67.46-.86.74-.65.95-2.18,4.71-2.14,6.07.01.41.4.72.41,1.16.07,2.16-1.26,4.44-1.6,6.53-1.91-.11-3.38.45-3.73,2.62-.95-.06-1.07,1.09-1.72,1.48-1.02-.08-2.13-.03-3.01.24-1.3.4-2.84,1.48-3.44,2.5-.7,1.19-.72,2.89-.8,4.26-.34,5.26-.33,10.47-.74,15.78-.11,1.53-.36,3.05-.42,4.6-.16,4.43-.16,9.04-.67,13.55-.23,2.06-.92,4.05-1.15,6.08-.15,1.31-.13,2.62-.29,3.9-.44,3.47-1.85,7.63-1.23,10.29.45,1.88,2,2.4,4.08,3.2,3.02,1.16,7.05,2.35,10.19,3.19,3.36.9,6.28.74,8.46-.02.75-.26,3.46-1.29,3.71-2,.13-.38-.04-.96,0-1.44.16-1.73.39-3.13.52-4.67Zm-2.24-72.83c6.22.98,10.56,4.64,10.01,10.35-.34,3.5-2.68,4.97-4.58,6.6-.27-.26-.38-.65-.73-.86,2.59-1.25,5.23-4.51,4.4-8.52-.36-1.75-2.62-4.21-4.15-5.19-1.42-.91-3.23-1.34-4.97-1.75-.16-.09.11-.48-.08-.55,0-.08.05-.07.11-.07Zm-.1,2.41c3.11.67,5.99,2.5,7.12,4.67.39.75.61,3.2-.14,4.56-.34.61-1.01,1.46-1.73,2.01-.96.73-2,1.42-3.03.33.51-2.27-.8-3.29-3.2-3.57.02-2.33-.03-4.62.07-7,0-.37.7-.58.91-1Zm-4.03.41c.43.08.87.17,1.3.25.09,2.19-.02,5.23-.04,7.82-1.23-.04-2.14-.09-3.04-.53.65-2.41,1.45-5.42,1.78-7.53Zm1.34-6.13c.15.69,1.12,1.47,1.19,2.29.07.85-.44,1.64-.22,2.57-.81-.04-1.48-.33-2.43-.46.23-1.84.93-2.99,1.46-4.4Zm-6.26,14.56c.4-.19.98-.12,1.47-.17.36.26.4,1.05,1.1,1.29,1.71.58,4.91.9,5.43-.14.73.06,1.16.32,1.5.64-.15,1.45-1.23,2.37-2.12,3.11-2.59.5-7.09-.73-8.02-2.77.12-.79.27-1.52.64-1.95Zm-2.18,3c1.18,2.36,7.44,4.59,10.25,3.38.94-.41,1.61-1.35,2.27-2,1.43.76,2.32,1.9,3.2,3.03-2.21,2.26-6.68,2.74-11.51,1.42-2.83-.77-5.65-1.63-6.5-3.66.68-.85,1.7-1.2,2.3-2.18Zm-4.19,1.68s.06.01.09.02c.29.05-.1.46-.09.95.02.79,1.09,1.92,2.01,2.67.97.78,2.32,1.33,3.55,1.68,1.82.52,4.04,1.08,6.05,1.29,4.61.47,7.88-.64,10.01-2.98,1.25.6,2.42,1.43,2.46,2.7.07,2.1-1.96,3.44-4.04,3.28,1.08-.47,3.4-.72,3.03-2.22-1.22.18-2.08,1.22-3.51,1.41-1.66.22-3.6-.16-5.83-.56-.64-.11-1.55-.47-1.7.4.07.59.76.36,1.27.42,1.27.15,3.03.63,4.27.72-6.62.3-18.26-.39-20.52-6.11-.03-2.46,1.57-3.91,2.94-3.65Zm5.57,63.35c-.73-.2-1.48-.58-2.28-.79-.82-.22-1.73-.27-2.6-.49-1.2-.31-2.56-.85-3.79-1.35-3.02-1.21-4.7-1.19-4.48-4.35.16-2.37.99-4.83,1.29-7.31.19-1.53.16-3.09.32-4.53.22-2.08.93-4.05,1.16-6.16.26-2.32.34-4.67.52-7.01.23-3.06.08-6.15.39-9.19.54-5.26.55-10.19.84-15.4.61.04.98.78,1.66,1.22,1.22.78,3.09,1.61,4.65,2.05.88.25,1.76.44,3,.75,2.27.56,4.62.67,7.12.9,2.3.21,4.75-.01,7.05-.2.97-.08,2.26-.37,2.75-.74.07,1-1.86,1.63-3.33,1.89-.81.15-1.77.12-2.36.09-.7-.03-2.72-.52-2.91.17-.22.78,1.14.56,1.75.6,2.57.18,6.05.25,6.26-.89-.12.61-.23,1.22-.35,1.82-2.23.28-4.07.74-6.42.77-.65,0-1.5-.23-1.99.34.05.9,1.17.61,1.78.61,2.17-.01,4.21-.49,6.43-.67-.15.81-.31,1.62-.46,2.43.11-.57-1.42-.09-2.15.04-1.41.27-3.18.6-4.72.55-.73-.03-1.46-.46-2.14.05.11.88,1.3.83,1.83.88,2.42.23,4.98-.81,7.28-.87-.18.47-.36.94-.47,1.53-1.4.46-3.54,1.19-5.79,1.15-.73-.01-1.87-.28-1.95.35-.1.82,2.16.66,2.49.65,1.72-.03,3.54-.69,4.96-1.04.15.3-.14.9-.16,1.32-.33-.08-.64-.12-.89-.08-1.21.39-2.71.86-4.32.98-.84.06-1.87-.35-2.49.34.4.9,1.75.63,2.57.57,1.76-.12,2.73-.87,4.92-.96-.08.41-.15.81-.23,1.21-2.23.29-3.88,1.35-5.92,1.49-.62.04-1.44-.34-1.86.37.19.82,1.28.57,1.86.53,1.93-.12,3.49-1.07,5.71-1.26-.15.78-.29,1.56-.44,2.34-2.17-.07-4.07.9-6.28.97-.7.02-1.37-.45-1.86.37.22.74,1.29.55,1.88.53,2.07-.06,4.3-.65,6.06-1.1.12.47-.2,1.25-.25,1.84-.25-.2-.34-.22-.68-.22-1.07.18-2.17.61-3.31.81-1.11.2-2.39.08-3.22.83.14.91,1.02.4,1.57.3,1.82-.34,3.9-.52,5.43-1.13.1.33-.09,1.19-.28,1.47-1.11.7-2.71,1.23-4.4,1.42-.64.07-1.44-.19-1.44.45.01.79,1.72.41,1.98.37,1.46-.2,3.52-.16,3.66-.93-.1.52-.2,1.04-.3,1.56-2.2.14-3.18.9-4.7,1.18-.45.08-1.19-.22-1.38.46.66.92,1.99.31,2.85.09,1.02-.26,2.04-.5,2.91-.71-.13,1.65-1.8,1.77-3.33,2.34-.4.15-3.16.84-3.14,1.39.03,1.08,2.59-.19,2.94-.34,1.14-.48,2.08-.67,3.01-1.14.12.44-.2,1.19-.24,1.75-1.85.38-3.69,1.15-5.67,1.45-.62.09-1.45-.17-1.88.45.05.9,1.16.57,1.68.5,1.96-.27,3.58-1.11,5.82-1.42-.1.52-.2,1.04-.29,1.56-2.27.5-4.1,1.21-6.27,1.42-.64.06-1.37-.28-1.91.18-.11.38.16.51.22.76,2.93,0,5.35-.73,7.97-1.19-.12.61-.05,1.09-.14,1.68-2.18.39-4.43,1.23-6.76,1.51-.74.09-1.7-.24-2.32.37.15.98,1.49.65,2.14.58,2.21-.22,4.75-1.04,6.76-1.51.02.64.03,1.29-.12,2.05-2.52.18-4.73,1.31-7.36,1.31-.39,0-.95-.39-1.27.03-.07,1.18,1.93.99,2.56.94,2.34-.2,5.1-.76,7.36-1.22-.08.44-.16.87-.24,1.3-2.28.55-5.1,1.3-7.59,1.44-.6.04-1.64-.33-2.23.03-.05,1.06,1.32.87,1.93.82,2.26-.19,4.72-.93,6.59-1.54.1.39-.05.91-.03,1.35-1.94.65-4.64,1.23-7.22.97-.78-.08-2.16-.56-2.1.59.52.41,1.24.22,2.35.36,2.54.31,4.83-.39,6.82-.87-.08.56-.1,1.08-.12,1.59-2.53.39-5.74.97-8.35.85-.5-.02-1.07-.42-1.28.12-.25.64.75.75,1.47.82,2.5.22,5.9-.46,8.19-.97-.43,1.75.07,3.22-.91,4.32-1.74-.04-3.85.79-5.71.72-1.19-.04-2.6-.81-3.5-.03-.09.8.93.58,1.5.64.59.07,1.22.3,1.73.33,2,.12,4.38-.81,6.25-.71-2.57,1.22-5.31,2.31-9.66,1.14Z"/><path class="cls-6" d="m73.84,96.1c.13-.38-.04-.96,0-1.44.16-1.73.39-3.15.52-4.67.65-7.45.73-15.74,2.92-24.01,1.7-6.4,2.41-14.34,4.12-20.81.29-1.09.54-2.39.86-3.61.12-.46.37-.86.42-1.27.29-2.43-1.35-3.91-3.24-5.2,1.93-2.11,4.1-3.56,4.49-7.61.33-3.33-1.16-6.76-3.31-8.63-2.22-1.93-5.36-3-8.69-3.53-.69-1.28-.58-3.88-3.14-3.38-.21.04-.67.46-.86.74-.65.95-2.17,4.7-2.13,6.07,0,.41.39.71.41,1.16.06,2.16-1.26,4.44-1.6,6.53-1.91-.11-3.38.44-3.74,2.62-.95-.07-1.07,1.09-1.71,1.47-1.12-.1-2.34.02-3.31.36-1.18.42-2.58,1.42-3.15,2.37-.72,1.22-.72,2.88-.8,4.26-.34,5.26-.33,10.45-.73,15.78-.12,1.52-.36,3.03-.42,4.6-.16,4.41-.16,9.03-.67,13.55-.23,2.02-.9,4-1.13,5.99-.16,1.35-.14,2.69-.3,3.99-.2,1.55-.7,3.02-.85,4.52-.1,1.03-.48,2.6-.53,3.77-.17,3.88,2.21,4.42,5.73,5.85,2.71,1.1,5.75,1.75,8.69,2.54,3.25.87,6.22.69,8.37-.04.7-.24,3.53-1.21,3.8-1.98Zm-1.72-78.93c6.22.98,10.55,4.64,10,10.35-.34,3.5-2.68,4.98-4.58,6.6-.27-.27-.38-.65-.74-.86,2.6-1.24,5.23-4.52,4.4-8.52-.65-3.14-4.93-6.31-9.12-6.94-.16-.09.11-.48-.07-.55,0-.08.05-.08.1-.07Zm-.1,2.41c3.12.67,5.99,2.5,7.12,4.67.4.75.61,3.2-.14,4.56-.34.61-1.01,1.46-1.73,2.01-.96.73-2,1.42-3.03.33.51-2.27-.8-3.28-3.19-3.57.02-2.33-.03-4.62.06-7,0-.37.7-.58.91-1Zm-4.03.41c.44.08.87.16,1.3.25.09,2.2-.01,5.23-.04,7.82-1.22-.04-2.14-.09-3.05-.53.65-2.41,1.46-5.42,1.78-7.53Zm1.34-6.13c.14.69,1.12,1.47,1.19,2.29.07.85-.44,1.64-.22,2.57-.8-.04-1.48-.33-2.43-.46.24-1.84.93-2.99,1.46-4.4Zm-6.26,14.56c.4-.19.98-.11,1.47-.17.36.26.4,1.05,1.11,1.29,1.71.58,4.9.9,5.42-.14.73.06,1.16.32,1.5.64-.15,1.45-1.23,2.37-2.12,3.11-2.59.5-7.09-.73-8.02-2.77.12-.79.27-1.52.64-1.95Zm-2.19,3c1.2,2.36,7.42,4.6,10.25,3.38.93-.41,1.62-1.37,2.26-2,1.44.76,2.32,1.9,3.2,3.03-2.21,2.26-6.68,2.74-11.51,1.42-2.83-.77-5.65-1.63-6.5-3.66.68-.86,1.7-1.2,2.3-2.17Zm-4.18,1.67s.06.01.09.02c.28.05-.11.46-.09.95.02.78,1.1,1.93,2.02,2.67.97.78,2.32,1.33,3.55,1.68,1.82.52,4.04,1.08,6.05,1.29,4.61.47,7.88-.64,10.01-2.98,1.25.6,2.41,1.43,2.46,2.7.07,2.1-1.96,3.44-4.04,3.28,1.08-.47,3.39-.72,3.03-2.22-1.21.17-2.07,1.22-3.5,1.41-1.66.22-3.6-.17-5.83-.56-.64-.11-1.55-.47-1.7.4.07.59.77.36,1.27.42,1.27.15,3.03.63,4.27.72-6.62.29-18.26-.38-20.52-6.11-.03-2.46,1.57-3.91,2.94-3.66Zm5.57,63.35c-.73-.2-1.48-.57-2.28-.79-.82-.22-1.73-.27-2.6-.49-1.2-.31-2.56-.85-3.79-1.35-3.02-1.21-4.7-1.19-4.48-4.35.16-2.37.99-4.83,1.29-7.31.18-1.53.16-3.09.32-4.53.22-2.08.93-4.05,1.16-6.16.26-2.31.34-4.69.52-7.01.23-3.07.08-6.16.39-9.19.54-5.25.55-10.17.84-15.4.61.05.99.78,1.66,1.22,1.23.78,3.08,1.6,4.65,2.05.88.25,1.77.44,3.01.75,2.26.56,4.6.67,7.11.9,2.3.21,4.75-.01,7.05-.2.97-.08,2.26-.37,2.75-.74.07,1-1.86,1.62-3.33,1.89-.81.15-1.77.12-2.36.1-.7-.03-2.72-.52-2.91.17-.21.78,1.94.71,2.55.75,2.57.18,4.74,0,7.05-.74-.12.61-.23,1.22-.34,1.82-4.33-.11-4.89.59-7.21.62-.68,0-1.88-.3-2.39.27.04.9,1.76.72,2.37.72,2.17-.01,4.81-.37,7.02-.56-.15.81-.31,1.62-.46,2.43-2-.97-2.22-.24-2.94-.11-1.41.27-3.58.53-5.12.47-.73-.03-1.65-.5-2.33,0,.1.88,1.21.82,1.73.87,2.42.23,4.93-.82,7.23-.88-.19.47-.38.94-.49,1.53-1.69.52-3.47,1.19-5.8,1.15-.72-.01-1.89-.23-1.96.35-.11.82,2.15.66,2.48.65,1.72-.03,3.53-.69,4.96-1.04.15.3-.14.9-.16,1.32-.33-.08-.64-.12-.89-.08-1.21.39-2.71.86-4.32.98-.85.06-1.87-.35-2.49.34.4.9,2.53.78,3.36.72,1.76-.12,3.52-.71,5.72-.81-.08.4-.15.81-.23,1.22-4.33-.1-4.67,1.2-6.72,1.34-.63.04-1.84-.42-2.25.29.19.82,1.87.68,2.46.64,1.92-.12,1.99-1.36,6.3-1.14-.15.78-.29,1.56-.44,2.34-4.27-.43-4.89.75-7.16.81-.64.02-1.71-.48-2.17.31.23.74,1.08.51,1.68.5,2.07-.06,4.2-.67,5.96-1.12.12.47-.25,1.24-.31,1.83-.25-.2-.36-.22-.7-.22-2.04.64-4.73.91-6.58,1.45.01-.59-.2-1.03-.14-1.65-.26-.81-.74-.67-1.66-.76-1.83-.17-5.19-.74-6.52-1.23-.98-.36-1.62-.91-2.11-.22-.48.66.13,2.7.13,4.07,0,1.6-.18,3.33-.3,4.44-.23,2.06-.4,2.55,1.64,2.74,1.88.17,4.47,1.02,5.82,1.1,1.7.11,1.9-.66,2.07-2.39.17-1.73.85-3.9,1.05-5.56.11-.4.23.29.59.2,2.22-.36,4.44-.74,6.47-1.39.1.33-.09,1.19-.28,1.48-1.15.78-2.39,1.06-4.11,1.29-.41.06-1.73-.01-1.73.57,0,.79,2.51.56,2.77.52,1.46-.2,2.21-.41,4.46-.78-.1.52-.2,1.04-.3,1.57-2.2.14-3.97.75-5.49,1.03-.45.08-1.59-.29-1.77.38.66.93,1.79.27,2.64.05,1.02-.26,1.94-.52,2.82-.73-.13,1.65-1.85,1.76-3.38,2.33-.4.15-3.18.84-3.16,1.38.03,1.09,2.57-.2,2.93-.35,1.15-.48,2.07-.66,3-1.14.12.44-.2,1.19-.24,1.75-1.94.41-3.9,1.22-5.95,1.48-.53.07-1.23-.2-1.61.42.05.9,1.96.72,2.48.65,1.96-.28,4.38-.96,6.61-1.27-.1.52-.2,1.04-.29,1.56-4.38.11-4.89,1.06-7.07,1.27-.64.07-1.76-.36-2.31.1-.11.38-.05.47.02.72,2.93,0,5.26-.74,7.87-1.21-.11.61-.09,1.08-.18,1.67-2.18.4-4.46,1.23-6.79,1.51-.74.09-1.71-.24-2.33.37.15.98,1.49.65,2.13.58,2.22-.22,4.76-1.04,6.76-1.51.02.64.03,1.28-.12,2.05-2.5.13-4.68,1.34-7.27,1.33-.4,0-1.01-.41-1.35.01-.07,1.18,1.68.94,2.3.89,2.34-.2,4.84-.81,7.1-1.27-.08.44-.16.87-.25,1.3-2.28.55-4.84,1.35-7.33,1.49-.6.04-1.51-.3-2.1.05-.04,1.06,1.38.88,2,.83,2.27-.2,4.75-.92,6.62-1.54.1.38-.03.91,0,1.35-1.93.65-4.62,1.23-7.21.97-.78-.07-2.15-.56-2.1.59.52.41,1.22.22,2.36.36,2.55.31,4.82-.39,6.82-.87-.08.56-.1,1.08-.12,1.59-2.53.39-5.74.97-8.34.85-.51-.02-1.08-.42-1.29.12-.25.64.75.75,1.47.82,2.49.22,5.9-.46,8.18-.97-.43,1.75.07,3.22-.91,4.32-1.74-.04-3.85.79-5.71.72-1.19-.04-2.6-.81-3.5-.03-.09.8.93.58,1.5.64.59.07,1.22.3,1.73.33,2,.12,4.39-.81,6.25-.71-2.56,1.23-5.3,2.31-9.66,1.14Zm4.12-31.33c-.77-.17-1.08.78-1.4,1.22-1.07,1.42-2.25,2.74-3.14,4.75-.26-.05-.52-.1-.78-.15,1.16-1.96,3.42-4.13,4.32-6.69.66,0,.82.16,1.41.15.25.81-.15,2.06-.33,3.17-.08.4-.22-.18-.52-.1-1.2.83-1.81,2.52-2.7,3.81-.04-2.36,2.8-3.76,3.3-6.03-.11,0-.15-.05-.16-.12Zm-6.51,4.44c.05-.29.44-.1.59-.25.72-1.84,1.85-3.05,2.83-4.5-.05-.19-.08-.4-.27-.5-1.49.45-2,2.32-2.93,3.58-.23-.77.58-1.29.98-1.88.44-.64.95-1.94,1.31-2.63,0-.15.24-.85.25-.85.66.13,1.33.25,2,.38-.87,2.01-2.35,4-3.49,5.63-.35.49-.68,1.45-1.24,1.79-.36-.1,0-.44-.03-.77Zm.29-3.9c-.16-.73-.03-1.65-.08-2.44.55.08,1.02.22,1.36.44-.4.71-.89,1.28-1.28,2.01Zm5.19,3.95c.15-.59.61-.73.85-1.19.06.94-.49,2.3-.43,3.25-.22.13-.65-.06-.97-.09.23-.61.71-.88,1.06-1.33.13-.42-.29-.46-.51-.64Z"/></g></svg>