<?xml version="1.0" encoding="UTF-8"?><svg id="Layer_2" xmlns="http://www.w3.org/2000/svg" viewBox="0 0 72.23 103.14"><defs><style>.cls-1{fill:#f59596;}.cls-2{fill:#ffd15b;}.cls-3{fill:#ef3a37;}.cls-4{fill:#c72727;}.cls-5{fill:#3a1312;}</style></defs><g id="Layer_15"><path class="cls-2" d="m15.54,41.34c1.93-.3,3.9-.9,5.91-1.18,2.02-.27,4.01-.61,5.95-1.08,3.65-.88,6.89-2.49,10.26-3.78,1.89-.72,3.89-1.09,5.59-2.19-1.23-.7-1.78-1.73-2.71-3.09-.2-.29-1.51-1.62-.5-1.87.7-.17,1.94,2.34,2.32,2.81.83,1.03,1.77,1.88,2.83,1.23-.55-.48-1.49-1.22-2.36-1.99-.69-.62-2.16-1.64-1.37-2.71.63-.07.78.69,1.18,1.15.87.99,2.69,2.69,3.6,2.71.55,0,1.02-.29,1.63-.62-.36-.54-1.39-.53-2.16-1.04-.83-.54-2.59-1.81-2.04-2.9,1.14.33,1.73,1.48,2.69,2.08.82.51,1.81.53,2.58,1.1.44-.36,1.01-.66,1.15-1.18-2.34-.87-4.55-2-5.58-5.42-2.41,1.8-5.47,3.58-8.87,4.96-2.06.84-4.29,1.4-6.48,2.27-2.66,1.05-5.29,2.1-7.95,2.74-1.49.36-3.06.39-4.56.64-1.69.29-3.3.9-4.81,1.13-2.03.31-4.05-.16-5.71-.72-.02-.05-.05-.1-.12-.06.78,2.89.54,5.26-.19,7.36,2.92.16,6.31.16,9.72-.36Zm22.62-12.08c.17-.22.37-.38.71-.33.57,1.21,1.19,2.53,2.1,3.08.36.22.72.12.85.44.18.44-.09.8-.32.91-.96.45-3.33-2.36-3.34-4.11Zm-1.45.87c.58.57.58,1.53,1.14,1.97.46.37.87.06,1.28.51-.47,2.72-4.64-2.06-2.41-2.48Zm-9.96,6.32c1.62-.34,4.63-1.91,5.64-1.39-.07,1.04-1.96,1.24-3.23,1.64-1.35.43-2.87,1.16-3.65.66-.44-.9.5-.75,1.23-.9Zm-6.48,1.96c.66-.53,1.21.59.69.89-.47.28-1.31-.4-.69-.89Zm-11.3,1.78c.84.15,2.13-.11,3.39-.17,1.29-.06,2.49.22,3.18.1,1.03-.18,2.89-1.31,2.97-.24.04.58-2.08,1.18-2.95,1.25-1.01.07-2.47-.13-4.46,0-1.67.11-4.31.17-3.77-1.33.7-.26.96.26,1.65.39Z"/><path class="cls-2" d="m7.8,32.96c2.49.73,5.58-.43,8.94-.92,3.34-.49,6.54-1.2,10.12-2.62,1.77-.7,3.64-1.13,5.41-1.82,3.03-1.19,6.15-2.62,8.58-3.95.77-.42,2.11-1.41,2.53-1.92.99-1.22.81-3.68-.93-3.86-1.27,1.49-1.89,4.4-4.58,4.4-1.81,1.89-7.13,4.2-10.6,3.99-.94-.06-2.64-.57-3.07-1.35-.9-1.64.03-3.34.91-4.45-1.97.68-4.33,1.4-6.21,2.18-.79.33-1.98,1.54-2.66.54.39-.79,1.59-1.23,2.53-1.62,1.91-.78,4.26-1.5,6.29-2.21.47.02.41.68.72.68,1.2-1.38,5.04-1.4,4.75-3.55-4.91,2.3-10.12,1.97-14.97,3.96-3.78,1.56-6.98,3.59-8.88,5.87-1.02,1.23-2.68,2.99-1.65,4.99.28.55,1.84,1.39,2.76,1.66Zm4.93-.76c-.09-1.58.66-2.74.91-4.14.28-.14.4.02.61,0,.55,1.48-.45,2.78-.73,4.09-.34.16-.6.16-.8.05Zm11.63-5.84c0,1.05-.1,2.05-.5,2.9-.33.19-.4-.12-.64-.1-.17-1.11-.2-3.2,1.14-2.8Zm-2.01-.58c.59.4.15,1.17.07,1.8-.07.56.24,1.62-.54,1.8-1.07-.86-.22-2.52-.11-3.52.22-.08.44-.16.58-.08Zm-2.21.4c.28-.09.42.08.64.1-.06,1.74-.16,3.46-1.37,4.6-.09-.07-.21-.09-.34-.1-.32-.61.15-1.39.33-2.13.22-.89.36-1.81.74-2.47Zm-1.93,0c.36-.15.67-.21.82.04.17,1.45-.58,3.08-.64,4.67-.37.17-.64.15-.89.08-.21-1.83.49-3.18.71-4.79Zm-1.41.04c.53.98-.02,2.11-.25,3.02-.22.9-.35,2.07-1.07,2.68-1-.65-.2-1.77,0-2.54.25-.93.45-1.86.55-2.71,0-.13.12-.2.1-.34.25-.08.52-.2.67-.12Zm-2.08-2.07c-.23-2.15,1.93.47,0,0h0Zm-3.61.74c.84-.46,2.43-1.21,2.73-.67.34.64-1.25,1.13-2.04,1.56-1.78.96-2.6,1.61-2.91,3.26.07,1.61,1.56,1.85,1.37,3.01-.96.14-1.58-.58-1.88-1.13-1.51-2.73.6-4.86,2.74-6.05Z"/><path class="cls-2" d="m31.1,19.82c-.12.04-.19.1-.28.08,0,1.52-1.07,2.01-.55,4.32.19-.06.37-.12.56-.18-.62-2.28.26-2.82.27-4.22Z"/><path class="cls-2" d="m36.19,21.16c-.5-.12-.88-.49-1.46-.45.32.48.4.64.38,1.2.4-.23.91-.4,1.08-.75Z"/><path class="cls-2" d="m34.82,18.46c.85.25,2.84,1.71,3.71,1.46.68-.2,1.22-1.51,1.56-2.12.52-.93,1.06-1.58,1.53-2.21,1.5-2.03,2.18-4.42,2.96-6.62.22-.63.67-1.39.61-1.92-.15-1.3-1.35-2.83-2.62-3.12-1.91-.45-6.25,1.22-7.46,2.68-.38.46-.71,1.62-1.04,2.46-1.15,2.87-1.28,5.39-1.61,8.63.69.55,1.48.5,2.37.76Zm4.43-13.48c1.62-.73,3.46-.36,4.11,1.43.69,1.91.06,5.18-.91,6.68-.71,1.1-2.15,3.1-3.99,3.4-1.84.3-3.64-1.81-4.14-3.75-.76-3,2.08-6.48,4.93-7.76Z"/><path class="cls-2" d="m30.68,54.77c-2.48,1.66-4.73,4.05-4.07,7.28.59,2.86,2.23,5.71,3.97,7.36,1.14,1.08,3.3,1.44,5.3,1.36.57-.03,1.24-.26,1.84-.28.37-.01.73.12,1.04.07.72-.11,1.83-.5,2.49-.79,3.44-1.57,5.24-3.88,6.01-6.58.26-.88.63-2.1.62-2.83-.07-3.18-2.37-5.2-3.74-6.31-.53-.44-.96-1.07-1.33-1.3-2.36-1.53-9.36-.21-12.04,2.01,1.36-.05.41,1.95.11,2.9-.26.84-.72,1.75-.85,2.4-.15.75.21,1.45-.57,1.7-.82-.2-.49-1.09-.41-1.6.3-1.9,1.17-3.79,1.63-5.39Zm10.35,3.19c.13,1.13-.56,2.05-.87,3.01-.3.97-.46,1.98-.77,2.99,1.12-1.11.87-3.6,2.32-4.8.17.07.34.15.49.25-.52,1.81-.96,3.66-2,5.2-.23.07-.48.14-.54-.13-.32.35-.3.87-.87,1.09-1.2-.74-.21-2.74.11-3.79.4-1.31.83-2.72,1.33-3.77.34-.16.6-.16.8-.05Zm-2.24-1.93c.28-.05.5.01.67.19-.45,2.77-1.41,5.27-1.91,8.02.14.66.24,1.62-.7,1.95-.84-.5-.35-1.65-.18-2.48.44-2.22,1.01-5.58,1.9-7.4.05-.1.24-.13.22-.27Zm-2.14-.33c.28-.09.42.08.64.1-.14,1.79-.6,3.49-.98,5.18-.19.85-.43,1.68-.61,2.53-.18.83-.17,1.76-.61,2.53-1.28.02-.65-1.6-.52-2.27.16-.84.39-1.81.58-2.62.43-1.83.7-3.99,1.29-5.18.05-.1.23-.13.22-.27Zm-1.72-1.58c.34-.16.59-.16.79-.05.33.61-.18,1.01-.32,1.53-.48,1.64-.84,3.4-1.23,5.06-.4,1.66-.56,3.42-1.5,4.84-1.1-.45-.32-1.72-.09-2.51.8-2.7,1.36-6.47,2.35-8.86Zm-4.13,7.4c.71-2.41,1.58-5.06,2.27-7.52.44-.25.62-.01.85.13-.28,2.72-1.65,5.46-2.34,7.95-.18.65.07,1.68-.94,1.82-.68-.68-.05-1.69.15-2.38Z"/><path class="cls-2" d="m29.63,20.31c-1.93.62-1.32,2.55-1.79,3.92.4-.13.65.03,1.07-.14.06-1.36.44-2.54.72-3.78Z"/><path class="cls-2" d="m33.58,20.28c-.12.81-.24,1.62-.22,2.5.22-.68.56-2.05.22-2.5Z"/><path class="cls-2" d="m26.01,23.9c.27.02.45.22.76.16-.04-.82.75-2.02.31-2.53-.84.54-1.5,1.17-1.07,2.37Z"/><path class="cls-2" d="m32.33,21.79c.07-.65.21-1.3.21-1.89-.2.03-.26-.19-.46-.16-.24,1.16-.28,2.42-.35,3.66.78-.18.55-1.09.6-1.61Z"/><path class="cls-3" d="m52.23,34.01c-.34-1.04-.67-2.09-1-3.13-2.06,1.31-3.66,2.33-5.64,3.42-2.14,1.17-4.6,1.81-7,2.74-3.53,1.37-7.14,3.11-11.02,4.02-3.29.78-6.88,1.3-10.25,1.95-3.81.74-8.47.87-11.57.65-.06-.1-.13-.02-.19.06,1.98,4.42,3.58,9,5.6,13.43,2.34,5.15,4.72,10.56,6.7,15.92,1.62,4.39,2.6,9.11,4.41,13.51.61,1.48,1.57,2.9,1.92,4.76.83.65,2.03.51,3.23.59,1.13.07,2.29.45,3.39.44,1.97-.02,4.25-.42,6.55-.77,2.24-.34,4.51-.6,6.83-1.16,2.33-.56,4.87-1.35,7.33-2.14,2.53-.81,5.33-1.36,7.46-2.38.43-.2.77-.62,1.24-.9,1.99-1.22,3.42-2.27,4.45-3.86,2.41-.84,1.84-2.88.86-5.24-.36-.87-.87-1.7-1.25-2.65-2.66-6.67-4.08-15.32-5.86-21.56-2.64,2.05-5.44,4.08-8.69,5.51.14.43.27.86.41,1.29,2.18-.94,4.69-2.22,6.62-3.43.59-.37,1.21-1.25,1.86-.39-.22.72-1.17,1.08-1.83,1.5-2.04,1.27-4.58,2.64-6.96,3.44.18.59-.32,1.63.05,1.81,2.55-1.21,5.17-2.52,7.14-4,.61-.45,1.25-1.46,2.09-1.07.21.87-.83,1.43-1.43,1.88-2.1,1.56-4.88,2.91-7.39,4.18-.42.28-.7-.22-.89.08-.5,3.99-3.27,7.38-7.8,9.28-.72.3-1.67.64-2.39.76-.54.09-1.01-.14-1.56-.11-.55.03-1.11.29-1.62.31-1.68.08-3.64-.18-4.88-.68-1.9-.76-4.23-3.42-5.24-5.94-1.87-4.68-1.56-7.61.71-10.48,3.54-4.45,12.63-7.07,17.09-4.64,1.46.8,2.04,2.17,3.55,3.23,3.21-2.09,7.71-3.95,9.48-6.17-.16-.52-.33-1.04-.5-1.57-1.86,1.93-3.76,3.52-6.38,5.08-.7.42-2.17,1.55-2.48.79-.3-.73,1.48-1.34,2.06-1.67,2.52-1.47,4.57-3.05,5.97-4.85.34-.34.71.29.56-.18-.2-.61-.39-1.23-.59-1.84-2.01,1.46-5.15,3.89-8.09,5.12-.65.27-2.45,1.06-2.47-.13.32-.58,1-.41,1.68-.64,1.56-.53,3.28-1.68,4.77-2.63,1.54-.98,3.23-1.85,4-3.1-.16-1.48-1.03-2.86-1.53-4.18-2.47,1.66-5.28,3.23-8.22,4.75-.54.28-2.45,1.73-2.79.79-.24-.66,1.72-1.33,2.41-1.68,3.04-1.53,5.6-3.26,8.22-4.75-.33-.6-.58-1.36-.86-2.06-1.76,2.02-5.15,3.57-8.14,5.03-.84.41-2.12,1.51-2.94.63.48-.91,1.86-1.24,2.83-1.71,3.11-1.52,6.28-2.86,7.99-5.29ZM13.57,58.71c-.3-.72-.81-1.46-1.07-2.09-.41-.97-.62-2.09-1-3.13-.98-2.67-2.63-5.15-2.99-7.46.34-.12.23-.19.55-.18,1.89,2.7,3,6.96,4.45,10.45.56,1.34,1.73,2.83,1.39,4.02-.94.29-1.05-.95-1.32-1.61Zm3,4.01c.06.39-.03.7-.56.79-.91-.3-.05-1.52.56-.79Zm7.51,24.19c-1.27-1.65,1.93-.64,0,0h0Zm-1.05-5.55c.2.57.71,1.2.34,1.72-1.25.26-1.48-1.78-1.89-3.05-1.18-3.69-2.47-9.1-3.96-12.43-.26-.57-.68-.88-.84-1.36.14-1.27,1.41.03,1.76.76.99,2.06,1.67,5.23,2.61,8.19.67,2.12,1.24,4.13,1.97,6.17Zm29.66-8.44c2.36-1.34,4.88-2.88,6.85-4.62.73-.64,1.3-1.88,2.35-1.56.09,1.02-1.03,1.77-1.78,2.39-1.62,1.36-3.36,2.55-5.4,3.75-.9.53-1.82,1.57-2.95,1.25-.42-.73.55-.99.93-1.21Zm9.98-3.38c-.16.89-1.14,1.44-1.89,2.02-1.44,1.12-3.03,2.32-4.9,3.39-.75.43-2.41,1.5-2.7.76-.27-.68,1.5-1.37,2.01-1.66.86-.5,1.78-1.05,2.37-1.46,1.99-1.41,3.24-2.38,4.53-3.27.36-.25.38.17.58.22Zm-9.38,9.08c-.16-.66,1.87-1.4,2.32-1.65.89-.51,1.78-1.08,2.46-1.5,2.34-1.46,2.92-2.5,4.2-3.37.24-.17.41-.3.82.04.11,1.05-1.14,1.61-1.83,2.21-1.46,1.27-3.08,2.41-5.15,3.57-.71.4-2.6,1.66-2.82.69Zm10.35-3.81c.21.52-2.7,2.62-3.19,3.04-1.24,1.08-2.68,2.13-3.82,2.64-.71.32-1.81.71-2.08.16-.21-.83,1.03-.84,1.76-1.17,2.42-1.08,4.99-3.91,6.36-4.87.54-.38,1.03.33.97.2Zm-.12,6.63c-.92.87-2.03,1.91-3.18,2.43-.71.32-1.5.4-2.67.85-.78.3-2.01,1.14-2.08.16-.05-.57,1.62-1.1,2.03-1.26.84-.33,1.77-.48,2.39-.76,2.35-1.06,3.81-3.53,5.25-4.52.25-.03.4.12.58.22-.06,1.16-1.39,1.97-2.33,2.87Zm1.57-5.27c.8.91-.8,1.74-1.5,2.3-1.67,1.36-3.22,2.72-5.37,3.84-.95.49-2.84,1.46-3.23,1.03-.82-.93,2.34-1.68,3.09-2.1,1.22-.7,2.5-1.7,3.64-2.58,1.16-.9,2.11-2.06,3.36-2.49Zm-13.26-12.31c2.93-1.19,4.77-3.05,6.32-4.35.36-.3,1.17-.66,1.38-.13.18.44-.88,1.21-1.4,1.66-1.52,1.36-4.04,3.04-6.07,3.86-.8.32-2.11.87-2.45.27.06-1.04,1.39-.98,2.22-1.32Zm.52,2.57c2.76-1.36,5.57-3.32,7.4-5.1.15.06.37-.02.52.04.02.11.07.16.15.15-.21,1.45-2.09,2.34-3.5,3.35-1.77,1.27-3.27,2.14-5.42,3.05-.56.23-.93.73-1.44.26,0-1.17,1.49-1.35,2.29-1.74Zm-1.06,3.99c3.24-1.32,6.89-4.29,8.58-6.19.1-.11.77-.84,1.16-.17.3.5-1.38,1.99-1.86,2.42-1.68,1.47-3.46,2.76-5.55,3.9-1.03.56-2.23,1.41-3.38,1.18-.02-.11-.07-.16-.15-.15-.07-.98.68-.78,1.21-.99Zm-29.06-5.24c-.94.37-2.34-4.21-1.68-4.94.32-.17.51-.09.71-.02.3.32.05.65.14,1.07.25,1.3,1.67,3.56.83,3.89Zm.85-4.33c.3,1.63.99,3.57,1.59,4.97.39.93,1.43,1.64,1.13,2.58-1.11.16-1.77-1.38-2.2-2.44-1.76-4.34-2.15-8.44-.32-10.86.04-.11.13-.19.22-.27.24-.03.4.12.58.22-.18,1.76-1.41,3.5-.99,5.79Zm31.1-19.86c1.6.37-.08,1.33-1.1,1.97-1.94,1.22-5.07,3.23-6.93,4.03-.95.42-2.22.95-2.41-.24,3.79-1.47,7.38-3.67,10.44-5.76Zm-12.4-2.64c0-.95,1.19-1.16,1.95-1.53,1.54-.75,3.02-1.7,4.56-2.57,1.13-.64,2.04-1.48,3.04-1.27.17.99-1.11,1.36-1.86,1.81-1.58.94-3.17,1.88-5.08,2.84-.79.4-1.8,1.24-2.61.73Z"/><path class="cls-3" d="m57.19,49.16c-2.42,2.26-5.84,4.01-9.34,5.71.25.61.61,1.01.9,1.54,3.72-1.54,6.47-3.58,9.03-5.72-.22-.47-.27-1.27-.59-1.54Z"/><path class="cls-2" d="m64.37,84.41c-3,3.07-7.37,4.32-11.14,5.48-2.28.7-4.42,1.34-7.06,2.05-5.14,1.38-10.48,1.96-15.65,2.45-.01-.05-.11-.08-.09.03.82.56,1.36,1.65,1.96,2.62,3.55-.28,7.55-.86,11.51-1.74,1.22-.27,2.55-.24,3.8-.5,3-.63,6.12-1.65,9.48-2.72,3.98-1.27,7.14-1.92,8.34-4.38-.41-1.06-.64-2.43-1.15-3.28Zm-18.13,9.33c-.05.72-1.59.56-2.51.7-1.74.28-4.41,1.22-6.13,1.45-.62.08-4.61.14-3.07-1.05.47-.36,2.12.1,2.84,0,1.62-.2,4.45-1.15,6.04-1.42.84-.14,2.89-.48,2.84.31Zm2.24-.61c-.29-.65.84-1.07,1.14-.56.32.68-.86,1.04-1.14.56Zm9.01-1.96c-.98.22-5.31,2.08-5.4.91-.05-.74,1.88-.84,2.34-.95,2.07-.47,6.06-1.63,6.82-2.78.31-.1.47.09.67.19-.13,1.74-2.36,2.17-4.43,2.63Z"/><path class="cls-4" d="m51.1,35.87c-1.1-1.73-3.67-1.06-3.92.71-.64-.02-1.08.52-1.17,1.11-.83.26-1.54.99-1.48,1.93.4,6.5,4.41,12.83,6.4,18.99,2.44,7.54,5.58,15.13,7.17,22.89.49,2.39,3.29,2.07,4.24.38,1.64.75,3.97-.37,3.2-2.5-1.76-4.91-3.3-9.89-4.9-14.85-.74-2.68-1.42-5.39-2.08-8.17-1.64-6.95-3.59-14.43-7.45-20.5Z"/><path class="cls-4" d="m9.24,46.78c-.3-.4-1.03-.2-.87.35,2.9,9.58,8.64,18.3,12.36,27.59,1.45,3.64,2.28,7.41,3.04,11.25.35,1.77.51,4.15,2.32,4.99,1.16.54,2.23-.32,2.06-1.56-2.1-14.67-10.31-30.79-18.9-42.62Z"/><path class="cls-1" d="m31.56,87.23c-4.09-6.05-5.6-12.98-8.28-19.69-2.87-7.2-6.23-14.15-9.88-20.98-.23-.43-.84-.06-.65.37,3.34,7.68,6.67,15.37,9.66,23.19,2.17,5.68,2.98,11.99,5.4,17.55.02.36.14.73.39,1.07.16.21.32.42.48.64,1.23,1.63,4-.46,2.86-2.14Z"/><path class="cls-5" d="m49.71,8.84c-.19.81-1.25,1.6-.46,2.38.82-.01,1.07-1.11,1.31-1.94.43-1.5.26-3.49-.69-5.66-.63-1.44-3.22-4.79-3.66-3.2,1.22,1.6,3.07,3.31,3.59,6.16.14.76.05,1.68-.09,2.26Z"/><path class="cls-5" d="m4.47,39.7c-.15.8-1.38,1.84-1.26,3.04.15,1.59,1.35,3.65,2.16,5.5.82,1.88,1.53,3.83,2.19,5.59,1.39,3.75,3.15,7.22,4.6,10.6,2.41,5.62,4.53,11.03,6.41,16.93.64,2.02,1.16,4.17,1.94,6.08.26.64.66,1.23.89,1.85.44,1.13.69,2.63,1.15,3.29.84,1.22,2.4,1.15,3.96,1.28.8.94,2.34,1.43,3.3,2.7.53.71.92,2.11,1.59,2.43.59.28,2.48-.2,3.76-.29,3.85-.27,8.24-1.36,11.89-1.86,4.14-.58,8.4-2.17,12.67-3.53,1.56-.5,3.26-.8,4.42-1.41,1.1-.57,3.38-2.99,3.39-4.02,0-1.59-1.52-3.82-1.31-5.06.97-1.18,2.29-2.04,2.31-3.58.02-1.13-.79-3.05-1.5-4.7-3.45-8.03-5.22-16.8-7.47-24.7-.95-3.34-1.79-6.89-3.02-10.1-.78-2.04-1.86-3.98-2.55-5.78-.74-1.91-1.21-5.09-2.27-6.48-.41-.53-1.67-.86-2.06-1.07-1.55-.8-2.79-1.67-3.43-4.08-.38-1.43.11-3.03-.49-4.41-.44-1.02-1.55-1.25-2.21-1.83,1.37-1.79,2.25-4.43,3.05-6.65.3-.83.68-1.75.64-2.44-.14-2.38-2.2-4.46-3.91-4.94-2.97-.84-8.22,1.48-9.77,3.42-.52.65-.86,1.79-1.26,2.73-.87,2.05-1.23,4.08-1.55,6.28-5.73,2.25-11.07,2.23-15.92,4.16-2.46.98-4.84,2.25-6.83,3.7-2.8,2.03-5.78,5.33-5.04,9.01.29,1.43,1.14,2.85,1.53,4.79.19.96.16,2.78.01,3.55Zm61.05,48c-1.2,2.47-4.36,3.11-8.34,4.38-3.36,1.07-6.48,2.09-9.48,2.72-1.25.26-2.57.23-3.8.5-3.96.88-7.97,1.46-11.51,1.74-.6-.98-1.14-2.06-1.96-2.62-.01-.11.08-.08.09-.03,5.18-.49,10.51-1.08,15.65-2.45,2.64-.71,4.78-1.35,7.06-2.05,3.76-1.15,8.14-2.4,11.14-5.48.51.85.74,2.23,1.15,3.28Zm-7.74-36.99c-2.56,2.14-5.31,4.18-9.03,5.72-.29-.53-.65-.93-.9-1.54,3.5-1.71,6.92-3.45,9.34-5.71.32.27.37,1.06.59,1.54Zm-13.44-10.32c2.98-1.46,6.37-3.01,8.14-5.03.28.7.53,1.46.86,2.06-2.62,1.49-5.18,3.22-8.22,4.75-.69.35-2.64,1.02-2.4,1.68.34.94,2.25-.51,2.79-.79,2.94-1.52,5.76-3.09,8.22-4.75.5,1.32,1.38,2.7,1.54,4.18-.77,1.25-2.45,2.11-3.99,3.1-1.49.95-3.18,2.1-4.74,2.63-.67.23-1.31.04-1.63.62.02,1.19,1.72.43,2.37.16,2.94-1.23,6.08-3.65,8.09-5.12.2.61.39,1.23.59,1.84.15.46-.2-.17-.53.17-1.41,1.8-3.53,3.4-6.05,4.87-.57.33-2.26.91-1.96,1.64.31.76,1.7-.35,2.4-.77,2.61-1.55,4.55-3.15,6.41-5.09.16.52.33,1.05.5,1.57-1.77,2.21-6.28,4.08-9.48,6.17-1.51-1.06-2.19-2.4-3.65-3.2-4.45-2.43-13.49.16-17.03,4.62-2.28,2.86-2.56,5.79-.69,10.47,1,2.52,3.35,5.17,5.25,5.93,1.25.5,3.21.76,4.89.68.51-.03,1.08-.28,1.62-.32.55-.03,1.02.2,1.56.11.72-.12,1.68-.46,2.39-.76,4.52-1.9,7.29-5.29,7.79-9.28.19-.29.47.21.89-.08,2.51-1.27,5.29-2.62,7.39-4.18.6-.44,1.64-1,1.43-1.88-.84-.39-1.48.62-2.09,1.07-1.97,1.48-4.6,2.79-7.14,4-.37-.19.11-1.21-.07-1.81,2.37-.8,4.88-2.16,6.92-3.42.66-.41,1.55-.75,1.76-1.47-.64-.86-1.13-.02-1.72.35-1.93,1.21-4.44,2.49-6.62,3.43-.14-.43-.27-.86-.41-1.29,3.26-1.43,6.06-3.46,8.69-5.51,1.79,6.24,3.34,14.85,6,21.52.38.95.82,1.8,1.18,2.67.98,2.36,1.51,4.41-.9,5.26-1.04,1.58-2.48,2.64-4.47,3.86-.46.28-.81.7-1.24.9-2.13,1.02-4.93,1.57-7.46,2.38-2.47.79-5.01,1.57-7.34,2.14-2.32.56-4.59.82-6.83,1.16-2.3.35-4.58.75-6.55.77-1.1.01-2.26-.37-3.39-.44-1.21-.08-2.4.06-3.24-.59-.35-1.86-1.32-3.28-1.92-4.76-1.8-4.4-2.79-9.12-4.41-13.51-1.97-5.36-4.36-10.77-6.7-15.92-2.01-4.43-3.62-9.02-5.6-13.43.06-.08.13-.16.18-.06,3.1.22,7.76.09,11.56-.64,3.37-.65,6.95-1.17,10.23-1.94,3.88-.91,7.46-2.64,11-4.01,2.4-.94,4.93-1.59,7.06-2.76,1.99-1.09,3.58-2.11,5.64-3.42.33,1.04.66,2.09,1,3.13-1.7,2.43-4.88,3.76-7.99,5.29-.97.48-2.3.78-2.77,1.7.82.88,2.04-.2,2.88-.61Zm-14.89,21.38c.78-.25.42-.95.57-1.7.13-.66.59-1.56.85-2.4.3-.96,1.24-2.96-.11-2.9,2.68-2.23,9.68-3.54,12.04-2.01.37.24.8.86,1.33,1.3,1.37,1.12,3.67,3.14,3.74,6.31.02.74-.36,1.95-.62,2.83-.78,2.71-2.57,5.02-6.01,6.58-.65.3-1.77.68-2.49.79-.3.05-.67-.08-1.04-.07-.6.02-1.27.26-1.84.28-2,.08-4.16-.28-5.3-1.36-1.74-1.64-3.38-4.49-3.97-7.36-.66-3.23,1.59-5.62,4.07-7.28-.46,1.6-1.32,3.49-1.63,5.39-.08.51-.41,1.4.41,1.6Zm4.6-52.7c.34-.84.66-2.01,1.04-2.46,1.21-1.46,5.55-3.13,7.46-2.68,1.26.29,2.47,1.82,2.62,3.12.06.53-.38,1.29-.61,1.92-.78,2.2-1.46,4.6-2.96,6.62-.47.63-1.01,1.28-1.53,2.21-.34.61-.88,1.92-1.56,2.12-.87.26-2.86-1.2-3.71-1.46-.89-.27-1.68-.21-2.37-.76.33-3.24.46-5.76,1.61-8.63Zm.67,11.66c.59-.04.96.33,1.46.45-.17.35-.68.52-1.08.75.01-.56-.07-.71-.38-1.2Zm-1.37,2.06c-.02-.88.1-1.69.22-2.5.34.46,0,1.83-.22,2.5Zm-.82-2.89c0,.59-.14,1.24-.21,1.89-.05.53.18,1.44-.6,1.61.07-1.25.11-2.5.35-3.66.2-.03.26.19.46.16Zm-2.91.42c-.29,1.24-.67,2.42-.72,3.78-.42.17-.67.01-1.07.14.47-1.37-.13-3.3,1.79-3.92Zm-2.86,3.75c-.32.06-.49-.14-.76-.16-.43-1.2.22-1.83,1.07-2.37.44.52-.35,1.71-.31,2.53Zm4.02-4.25c.09.03.21.13.33.08-.02,1.4-.92,1.86-.3,4.14-.19.06-.37.12-.56.18-.52-2.31.53-2.89.52-4.4Zm-24.1,6.49c1.9-2.28,5.09-4.32,8.88-5.87,4.85-1.99,10.06-1.66,14.97-3.96.28,2.15-3.56,2.16-4.75,3.55-.32,0-.26-.66-.72-.68-2.03.71-4.38,1.43-6.29,2.21-.94.38-2.13.83-2.53,1.62.68,1,1.87-.21,2.66-.54,1.87-.78,4.24-1.5,6.21-2.18-.88,1.11-1.81,2.81-.91,4.45.42.78,2.12,1.3,3.07,1.35,3.47.21,8.79-2.1,10.6-3.99,2.69,0,3.31-2.91,4.58-4.4,1.74.18,1.91,2.65.93,3.86-.42.52-1.76,1.5-2.53,1.92-2.43,1.33-5.55,2.76-8.58,3.95-1.77.7-3.63,1.12-5.41,1.82-3.58,1.42-6.78,2.13-10.12,2.62-3.36.49-6.44,1.65-8.94.92-.92-.27-2.48-1.1-2.76-1.66-1.02-2,.63-3.76,1.65-4.99Zm-.69,8.03c.07-.04.1,0,.12.06,1.66.56,3.68,1.02,5.71.72,1.51-.23,3.12-.84,4.81-1.13,1.5-.25,3.07-.28,4.56-.64,2.67-.64,5.29-1.68,7.95-2.74,2.18-.86,4.42-1.43,6.48-2.27,3.39-1.38,6.46-3.16,8.87-4.96,1.03,3.42,3.24,4.55,5.58,5.42-.14.52-.71.81-1.15,1.18-.77-.57-1.76-.59-2.58-1.1-.96-.6-1.55-1.75-2.69-2.08-.55,1.09,1.21,2.36,2.04,2.9.77.5,1.8.5,2.16,1.04-.61.33-1.08.63-1.63.62-.91-.01-2.73-1.71-3.6-2.71-.4-.46-.55-1.22-1.18-1.15-.79,1.07.68,2.09,1.37,2.71.87.77,1.81,1.51,2.36,1.99-1.06.65-2-.2-2.83-1.23-.38-.47-1.62-2.98-2.32-2.81-1.02.25.3,1.58.5,1.87.93,1.37,1.48,2.39,2.71,3.09-1.7,1.1-3.7,1.47-5.59,2.19-3.37,1.28-6.61,2.9-10.26,3.78-1.94.47-3.93.81-5.95,1.08-2.01.27-3.99.88-5.91,1.18-3.41.52-6.8.52-9.72.36.73-2.11.97-4.47.19-7.36Z"/><path class="cls-5" d="m52.06,7.28c1.57-.33.49-3.23-.06-4.95-.21-.64-.27-1.65-.93-1.63-.16-.22-.29.2-.43.24.19,1.47.98,2.91,1.17,4.29.1.77-.26,1.51.25,2.05Z"/><path class="cls-5" d="m38.45,16.49c1.84-.3,3.27-2.3,3.99-3.4.97-1.5,1.6-4.77.91-6.68-.65-1.79-2.49-2.16-4.11-1.43-2.85,1.28-5.69,4.76-4.93,7.76.5,1.94,2.3,4.05,4.14,3.75Zm2.76-9.81c.73,1.47.48,3.95-.5,5.44-.61.93-1.57,2.28-3.06,2.19-3.24-2.86.03-7.32,3.55-7.63Z"/><path class="cls-5" d="m17.86,15.85c-.29.21-.37.35-.19.67.71,1.26,1.3-1.46.19-.67Z"/><path class="cls-5" d="m4.63,22.71c-.5.57-1.31,1.43-.73,2.16.86-.09,1.15-1,1.64-1.54,1.55-1.71,4-3.45,6.6-4.44.71-.27,3.97-.84,3.6-1.75-.28-.69-3.14.41-4.11.8-2.51,1.02-5.41,2.95-7,4.77Z"/><path class="cls-5" d="m14.73,24.15c1.93.47-.23-2.15,0,0h0Z"/><path class="cls-5" d="m10.26,32.07c.2-1.16-1.3-1.41-1.37-3.01.31-1.65,1.14-2.3,2.91-3.26.79-.43,2.38-.93,2.04-1.56-.3-.55-1.89.2-2.73.67-2.14,1.19-4.25,3.32-2.74,6.05.3.55.92,1.27,1.88,1.13Z"/><path class="cls-5" d="m1.22,40.33c1.09.07,1.49-1.5,1.63-2.85.13-1.32-.11-2.99-.55-4.28-.34-.97-1.65-3.89-2.29-2.41.11.69.87,1.63,1.16,2.37.63,1.57.96,3.62.54,5.2-.21.79-.97,1.1-.49,1.98Z"/><path class="cls-5" d="m16.04,26.68c-.1.85-.31,1.78-.55,2.71-.2.77-1,1.89,0,2.54.72-.61.85-1.78,1.07-2.68.23-.92.79-2.04.25-3.02-.16-.09-.43.04-.67.12.02.14-.1.2-.1.34Z"/><path class="cls-5" d="m18.4,30.9c.06-1.59.81-3.22.64-4.67-.15-.25-.47-.19-.82-.04-.22,1.61-.92,2.96-.71,4.79.25.07.52.09.89-.08Z"/><path class="cls-5" d="m13.64,28.05c-.25,1.41-1,2.56-.91,4.14.2.11.46.11.8-.05.28-1.3,1.27-2.6.73-4.09-.21,0-.34-.14-.61,0Z"/><path class="cls-5" d="m19.07,30.78c.12.01.24.03.34.1,1.22-1.14,1.31-2.86,1.37-4.6-.22-.02-.36-.2-.64-.1-.37.66-.52,1.58-.74,2.47-.19.75-.66,1.52-.33,2.13Z"/><path class="cls-5" d="m21.87,29.38c.79-.17.47-1.24.54-1.8.08-.63.53-1.41-.07-1.8-.14-.07-.36,0-.58.08-.12.99-.97,2.66.11,3.52Z"/><path class="cls-5" d="m46.74,18.61c.03.12-.08.17,0,.31-.14,1.71,1.03,3.76,1.93,4.76.48.54,1.21,1.29,1.82.94.39-.74-.55-1.09-1.02-1.6-1.04-1.13-1.49-2.73-2.05-4.52-.16-.09-.43.04-.67.11Z"/><path class="cls-5" d="m23.86,29.26c.4-.84.5-1.85.5-2.9-1.34-.41-1.3,1.68-1.14,2.8.24-.02.31.29.64.1Z"/><path class="cls-5" d="m41.51,33.37c.23-.11.5-.47.32-.91-.13-.32-.49-.22-.85-.44-.91-.56-1.53-1.87-2.1-3.08-.34-.05-.53.1-.71.33.01,1.74,2.39,4.56,3.34,4.11Z"/><path class="cls-5" d="m39.13,32.6c-.4-.45-.82-.14-1.28-.51-.56-.44-.55-1.4-1.14-1.97-2.23.42,1.95,5.2,2.41,2.48Z"/><path class="cls-5" d="m11.11,41.13c1.99-.13,3.45.07,4.46,0,.87-.06,2.99-.66,2.95-1.25-.08-1.08-1.94.06-2.97.24-.69.12-1.88-.17-3.18-.1-1.27.06-2.55.32-3.39.17-.69-.12-.95-.65-1.65-.39-.54,1.5,2.11,1.44,3.77,1.33Z"/><path class="cls-5" d="m20.98,39.3c.52-.3-.03-1.43-.69-.89-.62.5.22,1.17.69.89Z"/><path class="cls-5" d="m29.17,36.69c1.27-.4,3.16-.6,3.23-1.64-1.01-.52-4.02,1.06-5.64,1.39-.73.15-1.67,0-1.23.9.77.5,2.29-.22,3.65-.66Z"/><path class="cls-5" d="m13.51,56.29c-1.45-3.49-2.56-7.75-4.45-10.45-.32-.01-.21.06-.55.18.36,2.31,2.01,4.8,2.99,7.46.38,1.04.59,2.16,1,3.13.26.64.77,1.37,1.07,2.09.27.66.39,1.9,1.32,1.61.35-1.2-.83-2.69-1.39-4.02Z"/><path class="cls-5" d="m49.46,34.79c.74-.45,2.02-.82,1.86-1.81-1-.21-1.91.63-3.04,1.27-1.53.87-3.02,1.81-4.56,2.57-.76.37-1.94.58-1.95,1.53.81.52,1.81-.33,2.61-.73,1.91-.96,3.5-1.89,5.08-2.84Z"/><path class="cls-5" d="m56.01,33.36c-1,.32.13,1.51.62,2.57.18.39.37.94.56,1.46.61,1.66.8,4.11,2,4.04.5-.49-.02-1.32-.22-1.96-.24-.74-.48-1.62-.74-2.32-.56-1.52-1.17-2.88-2.13-3.81-.03,0-.06.02-.09.03Z"/><path class="cls-5" d="m46.15,47c1.86-.81,4.99-2.81,6.93-4.03,1.01-.64,2.7-1.61,1.1-1.97-3.06,2.1-6.65,4.29-10.44,5.76.2,1.19,1.47.66,2.41.24Z"/><path class="cls-5" d="m23.49,54.83c-.09.08-.18.16-.22.27-1.84,2.41-1.44,6.51.32,10.86.43,1.06,1.09,2.6,2.2,2.44.31-.94-.73-1.65-1.13-2.58-.6-1.41-1.28-3.34-1.59-4.97-.42-2.3.81-4.04.99-5.79-.18-.1-.33-.25-.58-.22Z"/><path class="cls-5" d="m7.34,60.49c-.09.08-.18.16-.22.27-.23.6.47,1.33.83,1.97,3.05,5.41,6.09,11.79,8.02,17.83.13.41.41,2.21,1.13,1.97.7-.23-.2-2.23-.42-2.91-2.1-6.58-4.75-11.9-7.54-16.97-.41-.75-.94-1.89-1.69-2.1-.02-.05-.05-.1-.12-.06Z"/><path class="cls-5" d="m31.59,62.09c.69-2.49,2.05-5.22,2.34-7.95-.23-.14-.42-.38-.85-.13-.69,2.46-1.56,5.11-2.27,7.52-.21.7-.83,1.7-.15,2.38,1.01-.14.76-1.17.94-1.82Z"/><path class="cls-5" d="m32.67,65.5c.95-1.42,1.11-3.18,1.5-4.84.39-1.65.75-3.41,1.23-5.06.15-.52.65-.91.32-1.53-.2-.11-.46-.1-.79.05-.99,2.39-1.55,6.16-2.35,8.86-.23.79-1.01,2.06.09,2.51Z"/><path class="cls-5" d="m21.25,60.21c-.19-.07-.39-.15-.71.02-.66.73.74,5.32,1.68,4.94.83-.33-.58-2.59-.83-3.89-.09-.43.16-.75-.14-1.07Z"/><path class="cls-5" d="m34.56,63.78c-.13.67-.76,2.28.52,2.27.45-.77.43-1.69.61-2.53.19-.85.42-1.68.61-2.53.38-1.69.84-3.39.98-5.18-.22-.02-.36-.19-.64-.1.02.14-.17.17-.22.27-.59,1.18-.86,3.35-1.29,5.18-.19.81-.42,1.78-.58,2.62Z"/><path class="cls-5" d="m16.57,62.72c-.6-.73-1.47.49-.56.79.53-.08.62-.4.56-.79Z"/><path class="cls-5" d="m36.85,66.2c.94-.32.84-1.28.7-1.95.5-2.74,1.46-5.25,1.91-8.02-.17-.18-.39-.24-.67-.19.02.14-.17.17-.22.27-.89,1.83-1.46,5.18-1.9,7.4-.16.83-.66,1.98.18,2.48Z"/><path class="cls-5" d="m38.79,65.58c.57-.22.56-.74.87-1.09.07.26.31.19.54.13,1.04-1.54,1.47-3.39,2-5.2-.15-.1-.32-.19-.49-.25-1.45,1.2-1.21,3.68-2.32,4.8.31-1,.47-2.02.77-2.99.3-.96,1-1.88.87-3.01-.2-.11-.46-.11-.8.05-.5,1.05-.93,2.46-1.33,3.77-.32,1.05-1.31,3.04-.11,3.79Z"/><path class="cls-5" d="m18.44,66.99c-.35-.73-1.62-2.03-1.76-.76.16.48.58.79.84,1.36,1.5,3.33,2.78,8.74,3.96,12.43.4,1.28.64,3.31,1.89,3.05.37-.52-.14-1.15-.34-1.72-.72-2.04-1.29-4.05-1.97-6.17-.94-2.96-1.62-6.14-2.61-8.19Z"/><path class="cls-5" d="m63.37,53.28c-.23.05-.37.17-.4.33-.09,1.12.34,3.01.7,4.75.81,3.91,2.12,8.78,3.71,12.61.27.64.5,1.77,1.42,1.58.25-1.25-.73-2.51-1.23-3.87-1.43-3.88-2.47-8.54-3.11-11.99-.23-1.2-.32-2.59-1.09-3.4Z"/><path class="cls-5" d="m9.96,72.84c.37.88.91,1.75,1.43,2.59.5.8.79,2.03,1.77,2.07.55-.84-.42-1.75-.91-2.55-.53-.86-.95-1.91-1.53-2.56-.22.04-.39-.04-.67.11,0,.12-.03.24-.1.34Z"/><path class="cls-5" d="m52.06,64.9c2.02-.82,4.55-2.51,6.07-3.86.52-.46,1.58-1.22,1.4-1.66-.21-.53-1.02-.17-1.38.13-1.55,1.3-3.39,3.17-6.32,4.35-.83.33-2.16.28-2.22,1.32.34.59,1.65.05,2.45-.27Z"/><path class="cls-5" d="m51.5,67.92c2.15-.9,3.65-1.78,5.42-3.05,1.4-1,3.29-1.9,3.5-3.35-.08,0-.13-.04-.15-.15-.15-.06-.37.02-.52-.04-1.83,1.78-4.64,3.74-7.4,5.1-.8.39-2.29.57-2.29,1.74.51.47.88-.02,1.44-.26Z"/><path class="cls-5" d="m50.23,71.57c1.15.23,2.35-.62,3.38-1.18,2.1-1.14,3.88-2.43,5.55-3.9.49-.43,2.16-1.92,1.86-2.42-.39-.67-1.06.06-1.16.17-1.69,1.89-5.34,4.87-8.58,6.19-.53.22-1.28.01-1.21.99.08,0,.13.04.15.15Z"/><path class="cls-5" d="m54.71,72.88c2.04-1.2,3.78-2.39,5.4-3.75.74-.62,1.86-1.37,1.78-2.39-1.05-.32-1.62.92-2.35,1.56-1.97,1.74-4.49,3.28-6.85,4.62-.38.22-1.35.48-.93,1.21,1.13.33,2.05-.71,2.95-1.25Z"/><path class="cls-5" d="m62.09,69.31c-1.3.89-2.55,1.86-4.53,3.27-.59.42-1.51.97-2.37,1.46-.51.29-2.27.98-2.01,1.66.29.74,1.95-.33,2.7-.76,1.88-1.07,3.47-2.27,4.9-3.39.75-.58,1.73-1.13,1.89-2.02-.2-.05-.22-.47-.58-.22Z"/><path class="cls-5" d="m56.11,77.91c2.07-1.16,3.69-2.3,5.15-3.57.69-.6,1.94-1.16,1.83-2.21-.41-.34-.58-.21-.82-.04-1.28.87-1.86,1.91-4.2,3.37-.68.42-1.57.99-2.46,1.5-.45.25-2.47.99-2.32,1.65.22.97,2.11-.3,2.82-.69Z"/><path class="cls-5" d="m24.08,86.91c1.93-.64-1.27-1.65,0,0h0Z"/><path class="cls-5" d="m62.66,74.6c-1.37.96-3.94,3.79-6.36,4.87-.73.33-1.97.33-1.76,1.17.27.56,1.37.16,2.08-.16,1.14-.51,2.58-1.56,3.82-2.64.49-.43,3.4-2.52,3.19-3.04.05.13-.44-.57-.97-.2Z"/><path class="cls-5" d="m58.09,81.24c-.75.42-3.91,1.17-3.09,2.1.39.44,2.28-.54,3.23-1.03,2.15-1.12,3.7-2.48,5.37-3.84.7-.56,2.3-1.4,1.5-2.3-1.25.43-2.21,1.6-3.36,2.49-1.14.88-2.41,1.88-3.64,2.58Z"/><path class="cls-5" d="m69.32,75.12c-.63.5.03,1.24.53,1.05.71-.28.05-1.51-.53-1.05Z"/><path class="cls-5" d="m65.27,78.34c-1.45.99-2.91,3.45-5.25,4.52-.62.28-1.55.43-2.39.76-.42.16-2.08.69-2.03,1.26.07.98,1.3.15,2.08-.16,1.17-.46,1.96-.53,2.67-.85,1.15-.52,2.27-1.57,3.18-2.43.95-.9,2.28-1.72,2.33-2.87-.18-.1-.33-.25-.58-.22Z"/><path class="cls-5" d="m43.41,93.42c-1.59.27-4.42,1.22-6.04,1.42-.73.09-2.37-.37-2.84,0-1.54,1.19,2.46,1.13,3.07,1.05,1.73-.23,4.39-1.17,6.13-1.45.92-.14,2.47.02,2.51-.7.06-.79-2-.45-2.84-.31Z"/><path class="cls-5" d="m34.38,102.38c-.06-.18-.12-.37-.18-.55-2.52-.14-4.7-1.44-6.23-3.8-.5.05-.49.34-.59.59.77,1.88,2.44,2.85,3.57,3.53-.68-.15-1.59-.07-2.34-.37-.38-.15-.77-.82-1.27-.51-.75.46.45,1.26.75,1.39.88.39,2.6.68,3.33.26.1-.32,0-.41-.2-.75.89.26,2.21,1.14,3.15.21Z"/><path class="cls-5" d="m68.57,90.57c1.48.08,1.73-2.3,1.76-3.7.02-.75-.32-2.23-.76-2.09-.15.05-.31.1-.46.15-.02,0-.1.2-.1.33-.07.48.25.82.29,1.22.13,1.51-.67,2.71-.73,4.08Z"/><path class="cls-5" d="m61.26,88.34c-.76,1.15-4.75,2.31-6.82,2.78-.46.1-2.39.21-2.34.95.09,1.18,4.41-.69,5.4-.91,2.07-.47,4.3-.9,4.43-2.63-.2-.1-.36-.29-.67-.19Z"/><path class="cls-5" d="m48.48,93.12c.28.48,1.46.12,1.14-.56-.3-.51-1.43-.09-1.14.56Z"/><path class="cls-5" d="m71.28,88.9c1.01-.48.99-1.49.92-2.53-1.14-.24-1.61,1.82-.92,2.53Z"/><path class="cls-5" d="m56.68,97.2c-.64-.36-.86.13-1.41.35-2.52,1-5.47,1.42-7.33,1.53-.65.04-2.85-.43-2.42.67.24.6,2.34.25,3.21.19.91-.05,2.49-.06,3.55-.32,1.67-.4,4.54-1.02,4.4-2.42Z"/></g></svg>