<?xml version="1.0" encoding="UTF-8"?><svg id="Layer_2" xmlns="http://www.w3.org/2000/svg" viewBox="0 0 47.75 89.54"><defs><style>.cls-1{fill:#fff;}.cls-2{fill:#ffd15b;}.cls-3{fill:#d7f0fc;}.cls-4{fill:#dfa826;}.cls-5{fill:#3a1312;}</style></defs><g id="Layer_15"><path class="cls-2" d="m8.52,62.22c.01.74.11,1.44.14,2.17.64.19,1.14.08,1.77.25-.52-.86-1.09-1.71-1.91-2.42Z"/><path class="cls-2" d="m19.23,55.89c-1.12.68-3.02.88-4.5-.03.79,1.19,1.6,2.37,2.62,3.45,1.14-.36,2.31-.66,3.34-1.25-.53-.7-1.39-1.25-1.47-2.18Z"/><path class="cls-2" d="m19.64,63.27c-.22-.21-.5-.3-.71-.51-.33-.32-1.76-2.51-2.18-2.42-.95.2-2.03.65-3.1.8.68.73,2.02,1.36,3.03,2,.31.2.5.55.84.64.72.18,1.47-.32,2.12-.52Z"/><path class="cls-2" d="m22.87,66.49c-.88-.77-1.55-1.65-2.55-2.37-.58.3-1.35.21-1.93.49.83.84,1.66,1.69,2.6,2.47.67-.12,1.27-.36,1.88-.59Z"/><path class="cls-2" d="m14.21,68.84c-.53-.42-.85-1.11-1.37-1.7-.45-.52-1.12-1.42-1.66-1.63-.77-.29-1.54.17-2.48-.23-.22,1.67.67,2.79,1.48,3.95,1.3-.22,2.8-.03,4.02-.4Z"/><path class="cls-2" d="m11.78,64.57c1.31.53,3.44-.57,4.52-.58-.83-.34-1.41-.83-2.11-1.34-.63-.46-1.3-1.24-1.89-1.44-1.09-.37-2.23.21-3.49-.13.73.63,1.21,1.62,1.83,2.39.25.31.78.95,1.13,1.09Z"/><path class="cls-2" d="m17.17,64.82c-1.55.25-3.06.58-4.66.71,1.05,1.02,1.73,2.22,2.89,3.19,1.61-.29,3.21-.63,4.61-1.35-1.07-.79-1.71-1.79-2.84-2.55Z"/><path class="cls-2" d="m9.63,56.86c1.16.57,2.01,3.07,3.26,3.41.98.27,2.65-.62,3.44-.77-.99-1.14-1.77-2.38-2.67-3.56-1.22.56-2.75.49-4.03.92Z"/><path class="cls-2" d="m7.59,56.87c.07,1.11.3,2.13.51,3.18,1.14.09,2.38.37,3.38.18-1.05-.81-2.45-3.75-3.89-3.36Z"/><path class="cls-2" d="m10.68,70.11c.85,1.36,2.33,2.41,3.54,3.59,1.32-.26,2.62-.56,3.81-1.09-.64-.43-1.2-.74-1.76-1.31-.39-.4-.89-1.7-1.47-1.65-1.22.12-2.73.39-4.13.45Z"/><path class="cls-2" d="m17.88,60.11c.78,1.04,1.77,1.99,2.7,2.95,1.37-.2,2.49-.92,3.74-1.38-1.03-.95-1.98-1.93-3.1-2.82-1.07.51-2.21.86-3.34,1.25Z"/><path class="cls-1" d="m18.05,30.06c1.68,1.46,5.46,2.63,7.97,2.8.76.05,1.73-.18,2.65-.25.87-.06,1.76-.16,2.64-.25,1.39-.13,3.88-.66,4.95-1.32,1.33-.8,2.46-2.59,2.89-4.05.53-1.82-.54-3.26-1.04-4.95-.03.08-.05.16-.08.24-.88,2.58-2.73,4.04-4.67,5.12-2.31,1.29-7.01,1.87-10.2,1.03-2.84-.74-3.98-1.94-4.62-3.87-.75.8-2.06,1.91-1.88,3.42.07.59.89,1.62,1.41,2.07Zm19.56-4.29c.39-.24.69.02.84.37-.24.87-1.57,3.83-2.3,3.63-1-.27.89-2.24,1.21-3.03.14-.36.09-.63.24-.98Zm-3.17,4.39c.23-.04.42.27.37.48-.28.98-1.6-.42-.37-.48Zm-9.9,1.05c1.11.23,2.69.17,3.94.1,1.46-.08,2.85-.37,3.86-.72.36.04.42.23.47.43-.17.73-1.14.74-1.88.86-1.75.29-4.76.61-6.69.2-1.47-.32-3.1-.91-3.19-2.06,1.02-.14,1.96.87,3.48,1.18Z"/><path class="cls-1" d="m36.63,13.6c-1.46,2.13-2.38,5.42-3.59,7.7-1.4,2.65-5.39,4.18-8.35,3.52-1.02-.23-2.55-.43-3.56-1.21-.48-.38-.81-1.3-1.21-1.38.25,1.07.11,2.17.67,2.97.93,1.32,3.52,1.87,5.25,1.96,1.26.07,4.49-.33,5.77-.86,2.32-.96,3.85-2.63,5.09-5.6.88-2.13-.24-3.53-.29-4.87-.02-.62.24-1.33.23-2.22Z"/><path class="cls-2" d="m38.38,42.19c-.22.05-.5-.04-.61.24.32.24.78.07.61-.24Z"/><path class="cls-1" d="m22.2,22.28c.59.45,1.21.39,1.85.54.78.18,1.58.51,2.4.47,1.97-.1,4.25-1.18,5.15-2.93.99-1.93,1.7-4.04,2.55-5.93,1.2-2.66,3.25-4.08,4.82-5.6.26-1.36-.25-2.33-.72-3.34-.2.08-.18.3-.32.42-1.76,1.54-5.47,2.45-7.48,4.34-.53.5-1.26.95-1.44,1.37-.44,1.02.14,1.99.25,2.91-1.36.59-1.19-1.58-1.28-2.47-1.4.76-.87,3.15-.69,4.36-1.45.49-1.2-1.89-.99-3.07-.77-.05-1,.89-1.15,1.55-.31,1.39.15,2.57.3,3.54-1.6.88-1.23-3.05-1.19-4.03-.16.25-.4.36-.61.5-.14.54-.38.94-.46,1.35-.21,1.08.36,1.71.43,2.62-1.48.37-1.24-1.68-1.41-2.6-.66.76-1.37.99-1.57,2.29-.2,1.26.92,3.23,1.56,3.71Zm7.85-3.86c1.14-2,1.24-4.64,2.42-6.59.7-1.16,1.7-1.64,2.66-2.36.84-.63,2.01-2.28,2.73-1.28-1.12,1.68-3.5,2.12-4.7,4.23-1.18,2.06-1.23,4.33-2.37,6.44-.37.69-1.21,1.85-2.07,1.41.01-.89.91-1.11,1.33-1.84Zm-2.4,2.89c-.24.68-1.31.31-1.32-.27.14-.66,1.37-.23,1.32.27Z"/><path class="cls-2" d="m26.2,58c-.53-.16-.82-.43-1.19-.67-.8.65-1.93.64-2.73,1.28,1.15.8,1.76,1.86,3,2.61.6-.35,2.51-.8,1.81-1.68-.54.83-1.19,1.42-2.25,1.18.02-.16-.1-.26-.02-.45.62-.48,1.29-.85,1.99-1.18-.36-.28-.55-.65-.6-1.09Z"/><path class="cls-2" d="m13.27,55.01c-.13-.26-.24-.54-.45-.77-2.51.39-4.67-1.28-5.26-2.95-.17-.47.06-1.14-.44-1.31-.05-.02-.1-.04-.16-.06-.05,2.14.22,4.56,2.02,6,1.46-.24,3.05-.2,4.28-.91Z"/><path class="cls-1" d="m11.25,35.78c1.43.77,3.9,1.48,5.38,1.83.86.2,1.72.12,2.62.36,3.42.91,5.99,1.1,8.79,1.14.99.01,2.01-.18,2.38.01.33.17.69.67.26,1.32-.47.71-3.97.42-5.24.34-4.18-.27-7.83-1.2-12.35-2.62-.41,1.12-.55,1.81-.44,2.59.07.55.74,1.19-.11,1.37-1.1-.95-.9-2.48-.26-4.42-.24-.08-.47-.16-.71-.24-.17,1.02-.74,2.58-.63,3.67.05.53.62,1.26-.02,1.63-.96-.38-1.02-1.74-.83-3,.14-.97,1.06-2.37-.12-2.77-.43,1.2-.64,2.07-.58,2.99.05.71.72,1.43.25,2.12-.93-.17-1.13-1.42-1.15-2.33-.02-1.18.53-2.59.61-3.59-.67.7-1.29,1.73-1.34,2.9-.05,1.08.97,3.19,1.77,4.4,1.31,1.96,3.22,3.11,5.37,4.48.59.38,1.08.83,1.58,1.07,6.78,3.14,14.24,3.38,18.08.06,1.3-1.12,2.61-2.65,2.89-4.58-.11-.38-.52-.62-.63-1.01-1.72.68-2.49,1.55-4.09,2.14-1.58.59-3.44.69-5.08.92-.9.13-1.71-.07-2.64-.02-.32.02-.64.19-.96.21-1.97.12-4.39-.32-6.55-1.26-1.11-.48-4.17-1.93-3.07-3.43.65-.88,1.41.38,1.79.7,2.44,2.07,6.57,2.22,8.97,2.17,1.43-.03,2.39-.07,3.62-.27.75-.12,1.55-.04,2.17-.14.24-.04.57-.32.95-.47.35-.14.79-.14,1.06-.26.52-.24,1.08-.9,1.67-1.28.38-.24.85-.29,1.14-.5,1.26-.9,2.54-3,2.94-5,.34-1.7.42-3.62.91-5.52.21-.83.87-1.61.33-2.54-.37.82-.33,1.72-.81,2.37-.12.28-.58-.12-.69.21-.38.64-.18,1.67-.83,1.66-.4.1-.47-.45-.45-.77-.27.21-.6.29-.87.5-.43.77-.4,2.48-1.31,2.29-.48-.38.18-1.32.33-2.01-.96-.03-.77,4.1-1.85,3.61-.78-.35.43-2.39.42-3.3-.26.25-.54-.01-.77.18-.89.74-.63,3.76-1.69,3.4-.88-.3.48-2,.6-3.06-.42-.02-.79.09-1.24.02-.43,1.1-.81,2.97-1.6,2.63-.8-.34.52-1.46.57-2.46-.5,0-.98.07-1.46.12-.3.64-.32,1.84-1.07,1.58-.4-.26-.02-.91.14-1.45-5.39.12-15.41-3.18-11.57-9.59-1.11.44-1.98.47-2.76,1.09-.9.72-2.41,2.74-2.96,4.03-1.12,2.62-.78,4.74,1.13,5.77Zm17.12,14.04c2.62-1.06,5.53-1.52,7.14-4.63.13-.13.36-.07.61.03,0,1.6-1.77,2.98-3.15,3.79-1.03.6-2.15.76-3.44,1.3-.58.24-2.07,1-1.98-.41.17-.22.55-.03.82-.07Zm-2.8.46c-.05.16-.11.32-.16.47-.41.19-1.14-.06-1.35-.46.03-.95,1.24-.36,1.51-.02Zm-10.34-3.34c.32-.08.55.03.79.27,1.24.33,3.02,1.14,4.43,1.51.83.21,2.48.2,1.84,1.33-.36.24-.63-.17-.95-.32-.89-.02-2.27-.6-3.85-1.14-1.28-.43-3.01-.73-2.26-1.65Zm5.87-2.95c-.72-.17-1.33-.45-1.21-.85.15-.52,2.53.02,3.12.18.36.1.91.07.76.61-.13.47-1.91.24-2.67.06Zm4.23-.24c.03-.44.82-.82,1.35-.34-.05.09-.03.15.02.19-.18.84-1.42.76-1.38.15Zm10.88-6.28c.34-.77.41-1.39.46-2.14,1.16-.53.94,1.17.46,2.28-1.44,3.33-3.8,4.99-6.91,5.77-.65.16-1.6.61-2.09-.09.34-.8,1.18-.53,1.83-.7,2.7-.7,4.94-2.13,6.24-5.12Zm-16.04-.69s3.53.03,3.3,1.21c-.85.24-2.6-.08-3.46-.74.06-.16.11-.32.16-.47Zm-2.35-.54c.12.59-.67.81-.9.31.05-.63.56-.66.9-.31Zm-5.91-7.29c.05.02.11.04.16.05.71,1.32-1.17,2.63-1.13,3.84.02.86,1.13,1.64,2.19,2.11.88.39,2.24.4,2.55,1.33-.51.63-1.83,0-2.7-.38-1.61-.7-2.91-1.84-2.97-3.2.55-1.39,1.1-2.95,1.9-3.75Z"/><path class="cls-2" d="m37.82,51.09c.45-.69,1.6-.14,2.25-.38.59-.36,1-1.1,1.26-2.13-.34-.82-1.47-1.17-1.26-2.02.16-.62,1.04-.74,1.04-1.77-.04-1-1.24-1.47-2.11-1.07.35,3.05-1.76,5.23-3.29,6.56-1.64,1.43-3.95,2.55-6.26,2.81-5.72.65-12.36-1.37-17.23-4.63-2.99-2-4.77-4.71-5.77-7.44-.31-.85-.47-1.79-.3-2.75-1.26.18-2.52,2.08-2.69,3.5.15,1,1.5.9,1.84,1.6.37.75-.56,2.14-.52,2.56.06.6,1.7,2.14,2.31,2.29.35.09.86-.31,1.35-.07.73.35.43,1.78.78,2.65.37.94,1.5,1.92,3,1.82.5-.04.85-.46,1.43-.31,1.39.37,1.62,2.86,3.74,2.51.83-.14,1.6-1.07,2.38-.78.95.35,1.95,2.85,3.87,2.11,1.23-2.18,2.97,1.05,4.99.64.31-2.63,3.02-.38,4.21-1.22.38-.43.46-1.47.83-1.93,1.6-.35,3.37.32,3.98-1.29.13-.34-.08-.9.17-1.27Z"/><path class="cls-2" d="m29.07,60.47c.21-.15.58-.7.56-.87-.14.29-1.07.51-.56.87Z"/><path class="cls-2" d="m27.36,58.48c.43.29.5.77.97,1.04.83-.63,1.6-1.4,2.39-2.1-.1-.04-.07-.14-.21-.16-.72,1.07-1.8,1.44-3.15,1.22Z"/><path class="cls-2" d="m25.88,62.04c.57.36.94.81,1.44,1.2.37-.73.9-1.12,1.26-1.87-.16-.25-.38-.47-.66-.66-.58.65-1.41.79-2.04,1.34Z"/><path class="cls-2" d="m9.76,70.24c-.23-.12-.33.05-.58-.11-.04,1.23-.34,3.15.74,4.05,1.01-.22,2.21-.05,3.15-.43-1.42-1.01-2.53-2.18-3.31-3.51Z"/><path class="cls-2" d="m21.46,63.89c.75.75,1.6,1.45,2.23,2.26,1.18-.4,2.3-.94,3.11-2.12-.56-.58-1.24-1.1-1.81-1.68-1.14.59-2.39.94-3.52,1.54Zm3.62-.53c.31.06.5.2.58.37-.53,1.16-1.48,1.45-2.6,1.41-.13-1.23,1.56-.88,2.02-1.78Z"/><path class="cls-2" d="m21.88,67.83c.45.39.81.83,1.26,1.22.27-.51.65-.83.96-1.26-.59-.86-1.58-.21-2.22.04Z"/><path class="cls-2" d="m11.3,81.54c-.39-.49-.74-1.01-1.18-1.46.01-.04-.03-.11-.08-.03.14,1.86-.03,3.88.39,5.61.2-.48.53-.7.75-1.16-.12-.07-.74-.23-.58-.64.38-.56.98-.68,1.59-.78.02-.05.04-.09.1-.05-.1-.6-.62-1.03-.99-1.49Z"/><path class="cls-2" d="m14.41,79.15c.15.1.16.27.42.32.06-.12.4-.32.24-.45-.19.11-.5-.03-.66.13Z"/><path class="cls-2" d="m9.65,75.76c.25.86.33,1.81.48,2.73.58-.12,1.31.08,1.83-.17-.73-.83-1.69-1.89-2.31-2.55Z"/><path class="cls-2" d="m13.11,79.33c-.69-.22-1.79.06-2.33.09.74.87,1.19,1.88,2.21,2.6.19-.47.46-.76.72-1.08-.44-.01-1.44.55-1.37-.38.37-.32.75-.61,1.33-.52.32.06.16.56.47.43.02-.54-.56-.99-1.02-1.15Z"/><path class="cls-2" d="m16.08,69.57c.96.8,1.72,2.56,3.13,2.74.29.04.84-.32,1.25-.55.85-.48,1.69-.8,2.16-1.92-.56-.6-1.01-1.26-1.89-1.7-1.47.63-3.08.98-4.63,1.42Zm5.11-.74c.11.05.22.09.26,0,.21.14.26.35.34.56-.83,1.03-1.99,1.4-3.21,1.64-.04-.13-.16-.23-.24-.34.68-1.17,2.11-.81,2.84-1.86Z"/><path class="cls-2" d="m19.12,73.34c-1.36.44-2.83.69-4.13,1.24.83.56,1.41,1.24,2.32,1.76.68-.94,1.51-1.57,2.18-2.52-.05-.2-.17-.36-.37-.48Zm-2.71,2.26c-.04-.13-.05-.28-.13-.4.6-.32,1.62-1.81,2.09-.7-.48.73-1.02,1.32-1.96,1.1Z"/><path class="cls-2" d="m10.44,74.97c.3,1.13,1.57,1.78,2.15,2.76-.03-.28.08-.37.26-.53.97.1,1.57-.57,2.49-.57,1,1.09-1.75,1.32-2.36,1.49,1.03.55,1.97-.16,2.96-.14.23-.37.55-.58.78-.97-1.19-.71-1.97-1.62-2.98-2.42-1.04.25-2.17.33-3.31.37Z"/><path class="cls-4" d="m23.67,67.26c1.35-.78,2.58-1.66,3.25-3.28.36-.89.06-1.68-.55-2.2.32-.22.63-.45.93-.7,1.06-.89.72-3.04-.87-3.08-1.48-.03-9.14-2.54-9.46.64-.06.57.4.93.93.92.11,0,.23,0,.35,0,.17,0,.34-.19.35-.35-.01.35,1.09.78,2.45,1.17-.77.28-1.54.55-2.3.89-2.02.9-1.26,3.38.54,3.78-.77.36-1.48.74-1.94,1.2-1,.98-.93,2.27-.25,3.08-.38.33-.74.68-1.02,1.07-.81,1.14-.4,2.82.95,3.34-1.97-.76-5.48,6.45-6.21,8.18-.57,1.35,1.53,2.59,2.28,1.27,1.17-2.07,8.94-8,7.76-11.57,1.03-.96,2.1-1.75,2.71-3.23.14-.35.17-.73.11-1.11Z"/><path class="cls-3" d="m36.3,32.77c-3.36,1.76-6.2,1.7-9.92,1.88-4.65.22-9.49,1.76-13.82-.79-.52-.31-1.26.3-.79.82,3.47,3.92,8.82,3.31,13.61,3.67,4.07.31,10.42,1,13.03-2.9.91-1.36-.46-3.55-2.12-2.68Z"/><path class="cls-3" d="m33.84,41.16c-2.94-.44-5.96.84-8.89,1.22-4.16.54-7.91-.48-11.92-1.34-.56-.12-1.03.68-.62,1.1,4.71,4.78,17.34,5.69,22.04.44.47-.53,0-1.33-.61-1.42Z"/><path class="cls-3" d="m32.63,47.77c-1.36-.36-2.64.48-3.92.89-1.67.54-3.61.91-5.37.92-.81,0-1.01,1.17-.16,1.28,1.92.25,3.76.54,5.69.25,1.59-.24,3.83-.77,4.22-2.56.06-.29-.16-.7-.46-.78Z"/><path class="cls-3" d="m38.11,27.69c-.11-.36-.51-.49-.85-.48-.61.02-1,.43-1.43.81-.52.46-1.09.87-1.69,1.21-1.1.63-2.75,1.48-4.03,1.59-.71.06-.62,1.06,0,1.19,1.78.37,3.24,0,4.88-.77,1.27-.6,3.64-1.81,3.11-3.55Z"/><path class="cls-3" d="m33.53,11.08c-2.79.4-4.86,1.58-7.1,3.27-.88.66-2.18,2.86-3.42,3.5-1.25-.42-3.1.44-3.08,2.23,0,.11,0,.23,0,.34,0,.9.98,1.75,1.84,1.82,2.56.2,4.3-1.7,5.67-3.64,1.73-2.45,3.85-5.12,6.43-6.71.4-.25.07-.87-.35-.81Z"/><path class="cls-3" d="m34.74,22.56c0-.45-.3-.82-.78-.77-.76.08-1.31.57-1.81,1.12-.49.54-1.01,1-1.45,1.59-.48.65.08,1.61.89,1.49,1.49-.21,3.15-1.84,3.15-3.42Z"/><path class="cls-5" d="m39.49,0c-.83.54.17,1.29.65,1.99.39.56.8,1.25.99,1.75.31.8-.37,1.38.47,2.01.59-.27.65-1.27.59-1.74-.15-1.26-1.94-3.4-2.7-4.01Z"/><path class="cls-5" d="m43.02,9.35c-.08-.03-.16-.06-.23-.08,0,0,.04-.15-.04-.16-1.93,1.09-4.92,5.53-3.27,7.78.26.35,1.03.9,1.56.6.32-.64-.34-.8-.78-1.07-.88-1.26.19-3.69,1.15-4.94.59-.76,1.81-.99,1.61-2.14Z"/><path class="cls-5" d="m30.78,18.85c1.13-2.11,1.19-4.38,2.37-6.44,1.2-2.1,3.58-2.55,4.7-4.23-.72-1-1.89.65-2.73,1.28-.96.73-1.96,1.2-2.66,2.36-1.17,1.95-1.28,4.6-2.42,6.59-.42.74-1.32.95-1.33,1.84.86.44,1.7-.73,2.07-1.41Z"/><path class="cls-5" d="m42.09,15.46c.29-.74.38-1.94.41-2.77-1.27-.27-1.53,2.52-.6,2.8.04-.06.1-.07.19-.03Z"/><path class="cls-5" d="m21.53,10.49c.7-.58,1.49-.82,1.91-1.47-.36-1.05-1.49.05-2.25.65-1.45,1.13-3.1,3.57-3.87,5.39-.54,1.27-.65,2.33.17,2.88.72-.34.24-.94.33-1.48.07-.44.29-.96.46-1.35.73-1.65,1.99-3.58,3.25-4.63Z"/><path class="cls-5" d="m17.07,13.46c.16.05.32.11.48.16.69-.84.9-2.65,1.64-3.54.3-.16.87.07.91-.6-1.71-1.77-2.99,2.91-3.03,3.98Z"/><path class="cls-5" d="m27.65,21.31c.05-.51-1.18-.94-1.32-.27.01.58,1.08.95,1.32.27Z"/><path class="cls-5" d="m36.16,29.77c.72.2,2.05-2.77,2.3-3.63-.15-.35-.46-.62-.84-.37-.15.35-.1.62-.24.98-.32.79-2.21,2.76-1.21,3.03Z"/><path class="cls-5" d="m34.81,30.64c.06-.21-.14-.52-.37-.48-1.24.06.09,1.46.37.48Z"/><path class="cls-5" d="m24.25,32.08c1.93.41,4.94.1,6.69-.2.74-.12,1.71-.13,1.88-.86-.05-.19-.11-.38-.47-.43-1.01.35-2.4.64-3.86.72-1.25.07-2.83.12-3.94-.1-1.53-.31-2.46-1.32-3.48-1.18.08,1.14,1.72,1.74,3.19,2.06Z"/><path class="cls-5" d="m28.12,43.28c.49.7,1.43.26,2.09.09,3.11-.78,5.47-2.44,6.91-5.77.48-1.11.7-2.81-.46-2.28-.05.74-.13,1.37-.46,2.14-1.31,2.99-3.54,4.42-6.24,5.12-.65.17-1.49-.1-1.83.7Z"/><path class="cls-5" d="m43.89,40c-.13.84.41,1.62.67,2.44.26.79.66,1.58.67,2.44.02,1.17-.69,3.2-1.24,4.43-.19.43-.64.69-.38,1.11.88.48,1.17-.61,1.44-1.37.28-.81.68-1.8.86-2.53.45-1.77.01-3.03-.39-4.28-.26-.81-.85-2.55-1.63-2.23Z"/><path class="cls-5" d="m12.96,35.92c.87.38,2.19,1.02,2.7.39-.31-.93-1.68-.92-2.56-1.31-1.06-.47-2.16-1.28-2.18-2.15-.04-1.21,1.85-2.52,1.13-3.84-.05-.02-.11-.04-.16-.05-.8.81-1.35,2.37-1.9,3.76.06,1.36,1.36,2.5,2.97,3.21Z"/><path class="cls-5" d="m46.06,49.21c.72-.14.96-1.32,1.18-2.16.29-1.13.73-2.55.39-3.22-.04-.25-.39,0-.53,0-.32.67-.43,1.81-.7,2.85-.23.88-1.06,1.98-.33,2.54Z"/><path class="cls-5" d="m23.45,37.99c.23-1.18-3.29-1.24-3.3-1.21-.05.16-.11.32-.16.47.86.66,2.61.97,3.46.74Z"/><path class="cls-5" d="m17.8,36.24c-.34-.34-.85-.32-.9.31.23.5,1.03.28.9-.31Z"/><path class="cls-5" d="m29.53,50.3c1.29-.54,2.42-.7,3.44-1.3,1.38-.8,3.14-2.19,3.15-3.79-.25-.1-.48-.16-.61-.03-1.61,3.11-4.52,3.57-7.14,4.63-.26.04-.64-.15-.82.07-.09,1.41,1.4.65,1.98.41Z"/><path class="cls-5" d="m3.63,35.3c-.22-.34-.57-.37-.79-.27-2.07.99-4.07,7.21-1.9,8.18.68-.76-.25-1.73-.09-2.86.19-1.31,1-3.26,1.85-4.14.32-.33.91-.38.93-.92Z"/><path class="cls-5" d="m26.66,43.41c-.53-.48-1.32-.11-1.35.34-.04.61,1.19.69,1.38-.15-.06-.04-.07-.1-.02-.19Z"/><path class="cls-5" d="m22.99,43.31c-.59-.16-2.97-.7-3.12-.18-.11.41.5.69,1.21.85.76.18,2.54.41,2.67-.06.15-.54-.4-.52-.76-.61Z"/><path class="cls-5" d="m25.4,50.75c.05-.16.11-.32.16-.47-.27-.35-1.47-.93-1.51.02.21.4.94.65,1.35.46Z"/><path class="cls-5" d="m17.48,48.58c1.58.54,2.96,1.12,3.85,1.14.32.15.59.56.95.32.64-1.13-1.02-1.12-1.84-1.33-1.41-.37-3.19-1.17-4.43-1.51-.24-.24-.47-.35-.79-.27-.74.93.99,1.22,2.26,1.65Z"/><path class="cls-5" d="m3.86,58.78c-.04.58-.57,1.34.23,1.4.96-.96.66-2.36.5-3.54-.24-1.75-.55-4.53-1.23-5.72-.3-.54-1.21-1.31-1.56-.62,0,.49.5.72.79,1.06.43,2,1.44,5.05,1.28,7.41Z"/><path class="cls-5" d="m23.06,65.14c1.12.04,2.07-.25,2.6-1.41-.08-.18-.27-.31-.58-.37-.46.9-2.15.56-2.02,1.78Z"/><path class="cls-5" d="m30.41,69.23c-.1-.06-.11-.17-.29-.19.05-.21-.17.06-.32-.11-2.71,2.15-5.11,4.47-7.74,7.17-1.88,1.93-3.41,4.21-5.17,6.63-.25.35-1.8,1.96-1.15,2.35.48.28.92-.56,1.04-.71.99-1.25,1.81-2.45,2.51-3.47,2.83-4.12,6.11-6.91,9.34-9.8.63-.56,1.43-1.08,1.78-1.86Z"/><path class="cls-5" d="m18.35,70.69c.08.11.19.21.24.34,1.22-.24,2.38-.61,3.21-1.64-.08-.2-.13-.42-.34-.56-.04.09-.15.04-.26,0-.74,1.05-2.17.69-2.84,1.86Z"/><path class="cls-5" d="m16.28,75.2c.08.11.08.26.13.4.94.22,1.49-.37,1.96-1.1-.47-1.11-1.49.38-2.09.7Z"/><path class="cls-5" d="m23.19,77.99c-.6.39-1.36,1.17-2,1.97-.56.71-1.59,1.56-1.23,2.32.99-.03,1.48-1.18,2.07-1.94.59-.77,1.6-1.33,1.81-2.21-.19-.06-.19-.22-.45-.24-.04.1-.16.03-.21.1Z"/><path class="cls-5" d="m4.72,85.04c-.34,1.7.17,2.99,1.3,3.97.13-.14.32-.15.4-.39-.18-.52-.79-1.59-.94-2.44-.09-.54.05-1.48-.76-1.14Z"/><path class="cls-5" d="m39.48,52.45c1.87.09,2.98-1.36,3.59-3.81.19-.72-.84-1.22-.83-1.96.01-.77.55-1.29.56-1.93.04-1.24-.66-2.13-2.15-2.76-.17-.66-.7-1.15-1.53-1.49,1.79-2.47,1.23-6.03,2.17-8.71.18-.52.51-.8.62-1.29.34-1.59-.83-2.97-1.06-4.16.08-2.28-.89-3.89-1.6-5.67-.39-.99-.35-2.04-.59-3.2-.11-.54-.51-1.13-.54-1.77-.06-1.1.25-2.83.87-3.85.43-.71,1.53-1.18,1.78-2.13.08-.31-.12-.89-.12-1.45-.02-1.54-.37-1.99-.8-3.36-.27-.87-.2-1.99-.99-2.28-.94-.34-1.33,1.25-1.97,1.89-.94.95-2.44,1.41-3.69,2.01-1.19.57-2.57,1.19-3.64,2.12-.43.37-.68.85-1.12,1.21-1.24,1.01-3.03,1.64-4.51,2.61-.66.43-1.57,1.23-2.23,1.89-1.24,1.24-2.22,1.8-2.75,3.92-.41,1.66-.67,3.28-.74,4.52-.37-.12-.76-.11-1.13-.03-1.34.26-3.15.72-4.37,1.43-1.74,1-4.2,4.35-4.86,7-.38,1.54-.08,2.65.19,3.6-.41.38-.79.8-1.09,1.39-1.88-.1-5.85,3.16-5.17,6.1.2.84.98,1.3,1.6,2.04-.98,2.12.45,3.47,1.77,4.67.14,3.14.41,6.27.87,9.39.25,1.76.75,3.45.87,5.24.22,3.36.31,6.76.7,10.13.18,1.55.75,3.04.79,4.42,0,.26-.11.75-.11,1.11.03,2.38.35,5.27.37,7.99,0,.88-.13,2.26.99,2.28.48,0,.94-1.04,1.39-1.73,2.26-3.51,4.3-6.32,6.67-9.21,2.29-2.8,4.63-5.17,6.71-8.31.43-.65.95-1.12,1.36-1.66,1.35-1.78,2.42-3.79,3.76-5.61,1.34-1.81,2.34-3.87,3.77-5.61.69-.34,1.25-.94,1.52-2.13,2.09.15,3.78-.53,4.67-2.82Zm-1.1-10.27c.17.31-.29.48-.61.24.11-.28.39-.18.61-.24Zm-1.69-21.5c-1.24,2.97-2.77,4.64-5.09,5.6-1.28.53-4.51.93-5.77.86-1.73-.1-4.32-.65-5.25-1.96-.56-.8-.42-1.9-.67-2.97.4.08.73,1.01,1.21,1.38,1.01.78,2.54.98,3.56,1.21,2.96.66,6.95-.87,8.35-3.52,1.21-2.28,2.13-5.57,3.59-7.7.01.89-.25,1.6-.23,2.22.05,1.33,1.17,2.74.29,4.87Zm-14.49-4.4c.17.92-.07,2.96,1.41,2.6-.08-.91-.65-1.54-.43-2.62.08-.4.32-.8.46-1.35.22-.14.45-.25.61-.5-.04.98-.41,4.91,1.19,4.03-.15-.98-.61-2.16-.3-3.54.15-.66.38-1.6,1.15-1.55-.21,1.18-.46,3.56.99,3.07-.18-1.21-.71-3.6.69-4.36.09.88-.08,3.05,1.28,2.47-.11-.92-.69-1.89-.25-2.91.18-.42.91-.87,1.44-1.37,2.01-1.89,5.72-2.8,7.48-4.34.14-.12.12-.34.32-.42.47,1,.98,1.98.72,3.34-1.57,1.52-3.62,2.94-4.82,5.6-.86,1.89-1.56,4-2.55,5.93-.89,1.74-3.17,2.83-5.15,2.93-.83.04-1.62-.28-2.4-.47-.64-.15-1.25-.09-1.85-.54-.64-.49-1.76-2.45-1.56-3.71.21-1.3.92-1.53,1.57-2.29Zm-3.7,8.28c.64,1.93,1.76,3.12,4.6,3.86,3.19.84,7.93.28,10.25-1.02,1.94-1.09,3.79-2.54,4.67-5.12.03-.08.05-.16.08-.24.5,1.69,1.57,3.13,1.04,4.95-.43,1.45-1.52,3.26-2.85,4.07-1.08.65-3.58,1.17-4.98,1.31-.88.08-1.78.18-2.66.24-.92.06-1.89.3-2.65.25-2.5-.17-6.29-1.34-7.97-2.8-.51-.45-1.35-1.49-1.42-2.07-.18-1.51,1.13-2.63,1.87-3.42Zm-8.39,5.44c.55-1.28,2.06-3.3,2.96-4.03.78-.62,1.65-.66,2.76-1.09-3.84,6.41,6.18,9.71,11.57,9.59-.17.54-.54,1.19-.14,1.45.74.26.77-.94,1.07-1.58.48-.05.96-.11,1.46-.12-.05.99-1.37,2.12-.57,2.46.8.34,1.18-1.53,1.6-2.63.45.07.82-.04,1.24-.02-.12,1.06-1.48,2.76-.6,3.06,1.06.36.79-2.66,1.69-3.4.23-.2.51.07.77-.18.01.92-1.2,2.95-.42,3.3,1.08.49.88-3.64,1.85-3.61-.15.69-.81,1.63-.33,2.01.91.19.88-1.52,1.31-2.29.27-.21.61-.29.87-.5-.02.32.05.87.45.77.65,0,.45-1.02.83-1.66.1-.33.56.07.69-.21.48-.66.44-1.56.81-2.37.54.92-.12,1.71-.33,2.54-.48,1.9-.57,3.83-.91,5.52-.4,2-1.68,4.1-2.94,5-.29.21-.77.25-1.14.5-.59.38-1.15,1.04-1.67,1.28-.26.12-.71.12-1.06.26-.38.15-.71.43-.95.47-.62.11-1.42.02-2.17.14-1.23.2-2.19.24-3.62.27-2.4.04-6.54-.11-8.97-2.17-.38-.32-1.15-1.58-1.79-.7-1.1,1.5,1.96,2.95,3.07,3.43,2.16.93,4.58,1.38,6.55,1.26.31-.02.64-.19.96-.21.93-.05,1.74.14,2.64.02,1.64-.23,3.5-.33,5.08-.92,1.59-.59,2.36-1.46,4.09-2.14.11.38.52.62.63,1.01-.27,1.93-1.58,3.46-2.89,4.58-3.84,3.32-11.3,3.08-18.08-.06-.5-.23-.99-.69-1.58-1.07-2.15-1.37-4.06-2.51-5.37-4.48-.8-1.21-1.82-3.32-1.77-4.4.05-1.17.67-2.2,1.34-2.9-.08,1.01-.62,2.42-.6,3.59.02.91.22,2.16,1.15,2.33.47-.69-.2-1.41-.25-2.12-.06-.91.14-1.78.58-2.98,1.18.4.26,1.8.11,2.78-.19,1.26-.14,2.64.83,3.02.64-.37.09-1.13.04-1.67-.1-1.1.46-2.65.63-3.67.24.08.48.16.71.24-.63,1.94-.84,3.47.26,4.42.85-.19.2-.86.13-1.41-.11-.78.03-1.45.43-2.57,4.52,1.42,8.17,2.36,12.35,2.62,1.27.08,4.77.38,5.23-.33.43-.65.07-1.15-.25-1.32-.37-.19-1.39,0-2.38-.02-2.81-.03-5.37-.22-8.8-1.14-.89-.24-1.76-.16-2.62-.36-1.48-.36-3.95-1.06-5.38-1.83-1.91-1.03-2.25-3.15-1.13-5.77Zm-3.16,19.92c.05.02.1.04.16.06.5.17.27.84.44,1.31.59,1.68,2.75,3.34,5.27,2.95.2.23.31.51.44.77-1.23.72-2.82.67-4.28.91-1.8-1.44-2.07-3.86-2.02-6Zm17.87,10.79c1.07.25,1.72-.35,2.25-1.18.7.88-1.21,1.33-1.81,1.68-1.24-.75-1.85-1.81-3-2.61.8-.64,1.93-.63,2.73-1.28.37.24.66.51,1.19.67.05.43.24.81.6,1.09-.7.32-1.37.7-1.99,1.18-.08.19.04.29.02.45Zm-.51.97c-1.25.45-2.36,1.17-3.74,1.38-.94-.96-1.92-1.91-2.7-2.95,1.13-.39,2.27-.73,3.34-1.25,1.12.9,2.07,1.88,3.1,2.82Zm-11.81,3.84c1.6-.13,3.11-.46,4.66-.71,1.13.76,1.77,1.76,2.84,2.55-1.4.72-3,1.05-4.61,1.35-1.16-.97-1.84-2.17-2.89-3.19Zm3.77,5.79c.56.56,1.12.87,1.76,1.31-1.19.53-2.49.82-3.81,1.09-1.21-1.18-2.7-2.23-3.54-3.59,1.4-.06,2.91-.34,4.13-.45.58-.05,1.08,1.25,1.47,1.65Zm.39-8.17c-1-.64-2.35-1.27-3.03-2,1.07-.15,2.15-.6,3.1-.8.42-.09,1.85,2.1,2.18,2.42.21.21.49.3.71.51-.64.19-1.4.7-2.12.52-.34-.09-.53-.44-.84-.64Zm1.71,1.46c.58-.28,1.35-.19,1.93-.49,1,.71,1.67,1.6,2.55,2.37-.61.24-1.21.48-1.88.59-.94-.79-1.77-1.63-2.6-2.47Zm-1.03-5.29c-1.02-1.08-1.83-2.26-2.62-3.45,1.48.91,3.38.71,4.5.03.07.93.93,1.47,1.47,2.18-1.03.59-2.19.89-3.34,1.25Zm-1.03.18c-.79.15-2.45,1.04-3.44.77-1.24-.34-2.09-2.84-3.26-3.41,1.28-.43,2.8-.37,4.03-.92.9,1.18,1.68,2.42,2.67,3.56Zm-8.73-2.62c1.44-.39,2.84,2.55,3.89,3.36-1,.19-2.24-.09-3.38-.18-.21-1.04-.44-2.07-.51-3.18Zm4.71,4.34c.59.2,1.26.98,1.89,1.44.69.51,1.28.99,2.11,1.34-1.08.01-3.21,1.11-4.52.58-.36-.14-.88-.78-1.13-1.09-.63-.77-1.11-1.76-1.83-2.39,1.26.34,2.4-.24,3.49.13Zm-3.79,1.01c.83.71,1.39,1.55,1.91,2.42-.63-.17-1.13-.06-1.77-.25-.03-.73-.13-1.43-.14-2.17Zm.19,3.07c.95.4,1.72-.06,2.48.23.53.2,1.2,1.11,1.66,1.63.52.59.84,1.28,1.37,1.7-1.23.37-2.72.18-4.02.4-.81-1.16-1.7-2.28-1.48-3.95Zm1.21,8.89c-1.08-.9-.78-2.82-.74-4.05.25.16.35-.01.58.11.78,1.33,1.89,2.5,3.31,3.51-.93.37-2.14.21-3.15.43Zm-.27,1.59c.62.66,1.58,1.72,2.31,2.55-.51.25-1.25.05-1.83.17-.15-.91-.23-1.86-.48-2.73Zm2.54,7.31c-.61.1-1.21.23-1.59.78-.17.41.45.56.58.64-.21.46-.54.68-.75,1.16-.42-1.73-.25-3.74-.39-5.61.05-.08.09-.02.08.03.43.45.79.97,1.18,1.46.37.46.89.89.99,1.49-.06-.04-.08,0-.1.05Zm1.47-3.03c-.57-.08-.95.2-1.33.52-.07.93.93.36,1.37.38-.26.32-.53.61-.72,1.08-1.02-.73-1.47-1.74-2.21-2.6.53-.04,1.64-.32,2.33-.09.46.15,1.05.6,1.02,1.15-.32.13-.15-.36-.47-.43Zm1.17-.57c-.26-.05-.27-.22-.42-.32.16-.16.47-.02.66-.13.16.13-.18.32-.24.45Zm1.12-1.47c-.99-.02-1.93.69-2.96.14.61-.17,3.37-.4,2.36-1.49-.92,0-1.52.67-2.49.57-.18.16-.3.25-.26.53-.59-.98-1.85-1.64-2.15-2.76,1.14-.05,2.27-.12,3.31-.37,1,.8,1.79,1.71,2.98,2.42-.23.39-.54.61-.78.97Zm1.36-1.66c-.91-.52-1.49-1.2-2.32-1.76,1.31-.56,2.77-.8,4.13-1.24.2.12.32.28.37.48-.67.95-1.51,1.58-2.18,2.52Zm3.15-4.58c-.4.23-.96.59-1.25.55-1.41-.18-2.17-1.95-3.13-2.74,1.56-.45,3.17-.79,4.63-1.42.88.44,1.33,1.1,1.89,1.7-.46,1.12-1.31,1.43-2.16,1.92Zm2.69-2.71c-.45-.39-.82-.83-1.26-1.22.64-.25,1.63-.9,2.22-.04-.31.43-.68.75-.96,1.26Zm.55-2.91c-.63-.81-1.48-1.51-2.23-2.26,1.13-.6,2.39-.95,3.52-1.54.57.57,1.25,1.1,1.81,1.68-.8,1.18-1.92,1.72-3.11,2.12Zm3.64-2.91c-.51-.39-.88-.84-1.44-1.2.63-.55,1.47-.68,2.04-1.34.28.19.5.41.66.66-.36.75-.89,1.14-1.26,1.87Zm1.74-2.76c-.51-.36.42-.58.56-.87.02.17-.35.72-.56.87Zm-.74-.96c-.47-.27-.54-.74-.97-1.04,1.36.22,2.43-.15,3.15-1.22.14.02.11.12.21.16-.79.7-1.56,1.47-2.39,2.1Zm5.35-5.86c-.37.45-.45,1.49-.83,1.93-1.19.84-3.9-1.41-4.21,1.22-2.02.41-3.76-2.82-4.99-.64-1.92.74-2.92-1.76-3.87-2.11-.79-.29-1.55.64-2.38.78-2.12.35-2.35-2.14-3.74-2.51-.58-.16-.93.27-1.43.31-1.51.1-2.63-.87-3-1.82-.34-.87-.05-2.3-.78-2.65-.49-.24-1,.16-1.35.07-.61-.15-2.25-1.69-2.31-2.29-.05-.42.89-1.81.52-2.56-.34-.69-1.7-.6-1.84-1.6.17-1.42,1.43-3.31,2.69-3.5-.17.96-.01,1.9.3,2.75,1,2.73,2.78,5.44,5.77,7.44,4.87,3.26,11.52,5.28,17.23,4.63,2.31-.26,4.62-1.38,6.26-2.81,1.53-1.33,3.64-3.51,3.29-6.56.87-.4,2.06.07,2.11,1.07,0,1.03-.89,1.14-1.04,1.77-.22.85.91,1.2,1.26,2.02-.26,1.03-.66,1.77-1.26,2.13-.65.25-1.79-.31-2.25.38-.24.37-.04.93-.17,1.27-.6,1.62-2.37.94-3.98,1.29Z"/></g></svg>