<?xml version="1.0" encoding="UTF-8"?><svg id="Layer_2" xmlns="http://www.w3.org/2000/svg" viewBox="0 0 91.02 87.11"><defs><style>.cls-1{fill:#fff;}.cls-2{fill:#ffd15b;}.cls-3{fill:#ef3a37;}.cls-4{fill:#143c1d;}.cls-5{fill:#3a1312;}</style></defs><g id="Layer_15"><path class="cls-2" d="m40.19,37.29c-.42-.14-.8-.32-1.17-.5-.06,2.99.04,5.82.25,8.53.96.46,1.8,1.04,3.01,1.25-.3-2.02.19-5.87-.25-7.94-.09-.41.1-.96-.58-.84-.1,1.88-.16,4.64-.08,6.6.02.48.34,1.26-.33,1.42-.49-.13-.54-.72-.59-1.17-.23-2.14.36-5.5-.25-7.36Z"/><path class="cls-2" d="m34.59,36.45c-.04,1.28.06,3.03,0,4.27-.02.42-.33.93.17,1.09-.07-1.77.17-3.85-.17-5.35Z"/><path class="cls-2" d="m36.93,43.98c.52.19,1.03.8,1.51.75-.51-2.47-.38-5.76-.59-8.53-.32-.13-1.09-.34-1.09-.42v.25c0,2.29.34,4.84.34,7.36.06.37-.1.34-.16.58Z"/><path class="cls-2" d="m37.6,17.22c-.39-.14-.98-.08-1.42-.17.06.27.18.49.34.67.05-.29.27-.4.67-.33.53,1.11.12,3.17.25,4.68.48-.22,1.45.05,1.92-.17-.15-.84-.36-2.09-.42-3.18-.03-.48.33-1.54-.42-1.59-.06,1.24.03,3.47.08,4.6-1.83.42-.67-3.14-1-4.52Z"/><path class="cls-2" d="m36.35,43.48c.09-2.8-.46-5.69-.31-8.28-.29-.19-1.14-.44-1.14-.59v.25c0,1.9.47,4.14.47,6.19,0,.96.05,2.11.97,2.42Z"/><path class="cls-1" d="m21.71,24.75c1.9.99,5.51,2.27,8.53,1.42,1.94-.54,4.09-2.31,4.6-3.76.13-.38.09-.96.17-1.59.25-2.2-.22-2.94-1.34-4.26-.59-.32-1.09-.36-1.59-.67-.84-.53-1.21-1.6-2.09-2.01-2.05-.95-7.25-.04-8.53.84-.67.46-1.66,1.49-1.92,2.01-.34.66-.73,2-.84,3.01-.32,2.99,1.03,3.98,3.01,5.01Zm1.84-6.69c.33-.33.88-.43,1.42-.5,2.12-.29,4.4,1.7,3.26,3.51-.5.8-1.61.8-2.67.59-.38-.08-.88.01-1.26-.17-1.12-.55-1.62-2.55-.75-3.43Zm-1,5.94c-.62,0-.71-.89-.25-1.09.68-.12.77.96.25,1.09Zm-.5-8.78c.26-.01.44.09.58.34-.74,1.15-1.72,2.65-1.67,4.43.03,1.03.82,1.69.5,2.59-.83.06-1.24-1.22-1.34-2.01-.21-1.63.84-5.29,1.92-5.35Z"/><path class="cls-2" d="m40.61,17.06c-.32-.05-.41.15-.75.08.07,1.8-.14,3.87.75,4.85.15-1.13.13-3.52,0-4.93Z"/><path class="cls-2" d="m42.11,17.49c-.16.09-.4.49-.58.55.21,1.55-.04,1.78.17,5.48h.75c-.53-3.7-.05-4.45-.33-6.03Z"/><path class="cls-1" d="m32.41,13.05c.33.23.44.67.76.92.2.16.6.24.83.42.35.26.44.44.75.58,2.18.97,6.32.77,8.36-.67-.04-.29-.12-.54-.08-.92.41-.5.84-.55,1.17-1,.55-.74.6-2.17.33-3.18-.22-.87-1.13-1.89-2.01-2.76-.89-.89-1.74-1.85-2.67-2.17-2.55-.88-6.23-.12-7.94,1.34-.9.77-1.89,2.35-2.01,3.43-.13,1.21.37,2.66,1.25,3.43.35.3.88.32,1.25.58Zm6.36-7.11c.84-.45,1.06.8.42,1-.47-.01-.62-.57-.42-1Zm0,2.42c.85.66,2.05,2.91.67,3.76-1.38.84-3.55-.17-4.18-1.42-.18-.36-.43-1.49-.33-1.92.13-.55.68-.79,1.25-.92,1.11-.24,2.08.1,2.59.5Zm-7.78.92c.59-2.6,2.65-4.37,5.85-3.93.14.28.52.67.25,1.09-.5.31-.57-.25-1-.25-3.28-.11-4.36,2.35-4.35,5.35-1.18,0-.89-1.66-.75-2.26Z"/><path class="cls-2" d="m58.67,30.18c-.38-1.55-.1-4.47-.5-6.27-.02.12-.18.1-.25.17-.1,1.8.36,4.35-.08,6.19.28-.02.68.07.84-.08Z"/><path class="cls-1" d="m47.38,22.07c.57.46,2.2,1.81,2.84,1.92.74.13,1.89-.14,2.68-.25.81-.11,1.6-.39,2.34-.58,2.59-.68,4.95-1.77,4.35-5.35-.41-2.44-2.96-3.76-4.93-4.68-1.31-.61-2.63-.81-4.18-.67-1.46.13-2.95.31-3.93,1.08-.8.64-2.05,2.58-2.09,3.85-.07,2.27,1.53,3.56,2.93,4.68Zm6.44-7.61c-.06.34-.21.57-.67.5-.69-.46.38-1.28.67-.5Zm.58,3.85c-.31.96-1.83,1.65-3.18,1.42-1.33-.23-1.85-1.74-2.76-2.26-.02-.44,0-.83.08-1.17,1.86-1.52,6.76-.83,5.85,2.01Zm-6.94-4.43c.53-.33,1.65-.61,2.43-.67.19-.01,1.63-.03,1.67.59.06.88-.79.27-1.34.25-1.55-.06-3.14.98-3.51,2.26-.1.34.09,2.37-.5,2.42-.61.05-.6-1.02-.5-1.92.15-1.42,1.24-2.61,1.75-2.93Z"/><path class="cls-2" d="m60.59,30.01c-.3-.15-.41-.48-.67-.67v.75c.2-.05.6.1.67-.08Z"/><path class="cls-2" d="m56.99,23.52h-.25s-.28.55-.25.74c.44,1.16-.05,3.6.17,4.93.05.29.23.65.67.55-.49-1.24-.15-2.52-.33-6.22Z"/><path class="cls-1" d="m50.97,32.69c.37-1.04.73-2.17.59-3.18-.14-1.04-1.26-3.33-1.84-3.76-.24-.18-.82-.18-1.25-.42-.44-.25-.72-.68-1.09-.84-.54-.23-1.36-.26-2.17-.42-1.85-.35-5.21-.65-7.28-.33-.27.04-.46.01-.67.08-2.68.96-4.71,4.61-2.76,7.61.65,1,2.31,2.18,3.93,3.09,1.61.91,3.49,1.8,5.1,1.92,2.44.19,5.17-.01,6.27-1.17.53-.56.83-1.63,1.17-2.59Zm-5.51,2.09c-.4-.04-.7-.2-.67-.67.43-.8,1.55.36.67.67Zm-4.85-5.6c.52-.83,1.97-1.69,3.26-1.34.26.07.66.35,1,.5.83.36,1.66.8,1.59,2.01-.18,2.91-6.32,2.56-5.85-1.17Zm7.11,5.18c-.01-1.37,1.24-1.53,1.5-2.84.3-1.53-.13-2.96-.67-3.93-.31-.56-.68-1.31-.92-1.59-.3-.36-1.3-.53-1.17-1.09.19-.83,1.33.14,1.59.17,1.28,1.54,3.15,5.37,1.42,8.03-.41.64-1.1,1.48-1.76,1.25Z"/><path class="cls-2" d="m49.13,46.32c.11-.09.31-.08.42-.17-.05-.23-.32-.24-.42-.59-.53-1.85.46-6.46-.33-7.94.2,2.47-.19,6.26.33,8.69Z"/><path class="cls-2" d="m48.05,46.65c-.03-2.22.16-5.82-.09-8.36-.14.02-.1-.63-.1-.17v.08c0,2.22.09,4,.1,6.52,0,.72-.37,1.66.09,1.92Z"/><path class="cls-2" d="m46.8,46.84c.29-2.53.26-4.81,0-8.51h-1.09c.78,0,.44,1.9.5,3.24.05,1.13.14,2.36.17,3.59.01.63-.14,1.67.42,1.67Z"/><path class="cls-2" d="m45.46,38.12c-.42.06-1.06-.11-1.34.08.35.05.54.22.67.5.54,1.22-.09,4.87.08,6.52.06.58.38,1.48-.33,1.42-.53-.04-.57-1.45-.58-1.76-.12-1.74.09-3.92,0-5.6.05-.36-.27-.24-.25-.57.01-.27.31-.4.34-.4h-1.09c.26,3.7.14,5.94.17,8.51.78-.05,1.78.06,2.42-.13-.13-2.69-.14-5.52-.33-8.13-.04-.21.68-.37.25-.45Z"/><path class="cls-2" d="m22.55,44.48c-.03.59.11,1.01.17,1.51.35.09.48.41.92.42-.05-.48-.21-.85-.17-1.42-.29-.18-.58-.37-.92-.5Z"/><path class="cls-2" d="m31.66,27.22s-.46.23-.46.37v4.6c0,.14.31-.06.27-.22.15-1.49.34-4.74.44-4.74h-.25Z"/><path class="cls-2" d="m14.11,39.96c0,.9.56,1.56.33,2.42.37.16.67.39,1.09.5-.16-.81-.28-1.67-.5-2.42-.34-.13-.63-.32-.92-.5Z"/><path class="cls-2" d="m11.35,37.96c-.39-.11-.74-.71-1.09-.58.31.95,1.01,1.93.83,3.09.21.07.33.23.58.25-.13-.85-.5-1.89-.33-2.76Z"/><path class="cls-2" d="m9.43,36.7c-.46-.1-.71-.4-1.17-.5.03,1.31.68,1.99.75,3.26.43.19.78.45,1.26.59-.13-1.21-1.16-2.23-.84-3.34Z"/><path class="cls-2" d="m55.49,24.83c-.33,1.73-.17,4.4-.08,6.27.12-.13.29-.21.5-.25-.37-1.45.14-4.48-.42-6.02Z"/><path class="cls-2" d="m20.13,43.22c.16.56.31,1.14.33,1.84.35.21.83.28,1.25.42,0-.64-.18-1.1-.25-1.67-.54-.1-.74-.54-1.34-.59Z"/><path class="cls-2" d="m6.19,35.53v2.42c0,.32.98.55,1.33.75-.24-1.01-.85-1.87-.87-3.09-.11,0-.45-.04-.45-.08Z"/><path class="cls-2" d="m19.29,42.81c-.46-.18-.86-.43-1.34-.59.12.63.25,1.26.33,1.92.47.09.8.32,1.26.42-.03-.6-.52-1.14-.25-1.75Z"/><path class="cls-2" d="m16.11,41.22c.09.69.45,1.47.25,2.17.35.07.61.23.92.33-.17-1.05-.13-2.32-1.17-2.51Z"/><path class="cls-2" d="m12.27,38.71c.2,1.2.17,3.07,1.34,3.01-.5-.95-.22-2.68-1.34-3.01Z"/><path class="cls-2" d="m24.39,45.48c.18.55-.03,1.48.58,1.59.03-.67-.13-1.15-.33-1.59h-.25Z"/><path class="cls-2" d="m27.65,28.01c.01.1-.02.24.08.25,0,.45.13.76.17,1.17.14.56.07-1.04.08-1.42h-.33Z"/><path class="cls-2" d="m29.41,38.46c.3-2.6.11-7.05.17-10.45-.29.04-.81-.14-.75.25-.02,2.49.17,5.2.17,7.77,0,.82-.31,1.98.42,2.42Z"/><path class="cls-2" d="m30.49,38.21c.72-.29.24-.39.17-1-.35-2.66.33-6.74-.08-9.45-.29,2.83.1,6.55-.08,9.36-.02.37-.28.85,0,1.09Z"/><path class="cls-2" d="m20.71,35.37c.1.25.54.38.58.58-.03-3.29.77-6.66.49-9.7-.3.02.16-.25.16-.25v.25c0,2.05-.92,4.82-.74,6.94.03.42-.06,1.05-.04,1.51,0,.2-.5.54-.45.67Z"/><path class="cls-2" d="m19.29,25.34c.18.15.06.61.25.75.05-.34-.07-.93-.25-.75Z"/><path class="cls-2" d="m22.92,27.09c-.27-.15-.97-.25-.97-.33v.25c0,3.14.64,7.1-.03,9.61.42.14.69.43,1.09.59-.04-3.36.09-6.89-.08-10.12Z"/><path class="cls-2" d="m23.97,37.71c.83.4,1.85.6,2.92.75.31-2.63.39-6.47.08-9.11-.07-.62-.07-1.57-.92-1.42-.08,2.48-.18,6.16-.08,8.53.02.52.37,1.72-.5,1.59-.61-.09-.36-.96-.33-1.59.09-2.45-.07-5.93,0-8.61-.39-.16-.86-.25-1.25-.42.18,3.27.04,6.87.08,10.28Z"/><path class="cls-2" d="m27.98,35.95c.07.82-.34,1.97.08,2.59.04-.55.05-2.21-.08-2.59Z"/><path class="cls-2" d="m68.95,42.47c-.03.22-.25.25-.25.5.16.02.19-.09.33-.08-.05-.12.1-.43-.08-.42Z"/><path class="cls-2" d="m64.94,52.67c-.66-.04-.62-1.84-.67-2.34-.17-1.92-.19-3.42-.42-5.02-.49,0-1.06-.06-1.34.17.36,2.45.17,5.46.75,7.69,2.42.1,3.85-.77,5.43-1.5-.34-2.64-.18-5.79-.92-8.03-.02.12-.18.09-.25.17.18,1.93.31,4.95.5,6.94.04.48.35,1.22-.34,1.17-.66-.04-.64-1.86-.67-2.59-.06-1.26-.15-2.01-.25-3.01-.07-.66.12-1.47-.33-1.84-.46.64-.07,1.7,0,2.68.07,1.05.18,2.14.25,3.09.06.82.41,2.49-.42,2.34-.73-.14-.46-2-.5-2.59-.05-.74-.19-1.71-.25-2.59-.06-.93,0-1.93-.42-2.43-.59.1-.2,1.02-.17,1.51.09,1.4.13,2.52.25,3.93.07.82.53,2.3-.25,2.26Z"/><path class="cls-2" d="m58,46.9c.14,1.76.37,3.91.42,5.68,1.06.48,2.3.77,3.93.67-.56-2.28-.75-5.34-1.16-7.77-2.24.04-4.07-.44-5.92-1.09v7.61c0,.1,1.32.26,1.83.33-.1-1.4.06-3.17-.05-4.68-.06-.84-.49-2.14.44-2.51.69.22.48,1.2.52,1.75Z"/><path class="cls-2" d="m54.75,25.17c-.1.07-.44.11-.63.08-.23,2.09.34,4.8.24,6.77.95-.39.91-1.91.91-3.09v-3.68s-.44-.1-.51-.08Z"/><path class="cls-2" d="m52.14,42.22c0-.22.26-.18.25-.42-.15.05-.35-.25-.42,0,.23-.04-.06.46.17.42Z"/><path class="cls-2" d="m51.98,25.58c-.1.01-.24-.01-.25.08.24.12.15.57.42.67.03-.33-.19-.42-.17-.75Z"/><path class="cls-2" d="m54.74,50.92c.04.24.02.68.42.67.12-2.29.19-6.07-.08-7.69-.12-.13-.29-.21-.5-.25-.22.8.1,1.2.17,1.84.19,1.67-.24,4.04,0,5.43Z"/><path class="cls-2" d="m52.14,42.81c.1,1.02.35,2.28.42,3.59.08,1.51-.34,3.26.34,4.01-.13-2.65.44-6.01-.75-7.61Z"/><path class="cls-2" d="m69.95,33.36c-.36,0-.75-.03-.92.17.49.51.8,1.21,1.17,1.84-.08-.68-.02-1.48-.25-2.01Z"/><path class="cls-2" d="m74.47,36.08c-.07-1.32-.27-3.3-.25-3.3h-.25s-.11-.26-.08-.12c.32,3.18-.01,6.99.5,10.85.16-.04.21-.08.42-.07-.67-1.43-.2-4.81-.33-7.35Z"/><path class="cls-2" d="m75.58,39.71c.44-2.23-.12-6.04-.14-8.19-.04-.27.66-.54.22-.67-.94.37-.38,1.33-.32,2.34.12,1.82.27,4.1.27,5.85v.5c0,.15-.1.54-.03.17Z"/><path class="cls-2" d="m75.97,41.13c-.33,0-.42-.24-.59-.42.11.59.06,1.58.08,2.01.52-.18.56-.83.5-1.59Z"/><path class="cls-1" d="m63.18,29.76c.09.17.45-.1.75,0,2.44,1.99,6.43,2.59,9.62.67.73-.44,1.76-1.28,2.09-1.84.82-1.4.65-3.73-.08-5.02-1.52-2.65-5.53-3.95-9.11-3.76-2.24.12-5.08.71-5.68,2.43-.21.59-.02,1.62,0,2.76.05,2.53.52,4.14,2.42,4.76Zm.92-.17c-.82-1.66,1.87-.21,0,0h0Zm2.59-5.77c1.57-.21,3.51.75,3.43,2.67-.02.42-.13,1.07-.67,1.42-.96.62-3.88.64-4.51-.17-1.3-1.64-.18-3.67,1.75-3.93Zm-4.51-1.5c.2-.25,1.34-1.1,1.75-1.17,1.36-.22,1.45.99.17.92-1.22.36-2.24,2.42-1.92,4.35.14.86,1.4,1.62.5,2.26-.69-.48-1.2-1.14-1.34-1.84-.22-1.13.16-3.68.84-4.51Z"/><path class="cls-2" d="m71.71,32.78h-.17c-.2,0-.41.27-.67.29.6,2.94.14,6.88.92,9.63-.05-3.26.1-4.37-.08-9.92Z"/><path class="cls-2" d="m72.63,42.47c.07.72.2,1.49.84,1.09-.39-3.04-.23-7.35-.42-10.87-.11,0-.11-.11-.25-.08-.02.07-.07.1-.17.08.16,1.81-.21,7.47,0,9.78Z"/><path class="cls-2" d="m69.78,51c.12-.22.51-.6.25-.92-.04.24-.36.2-.42.42.24-.01-.07.52.17.5Z"/><path class="cls-2" d="m71.71,43.14c-.09.31-.5.42-.84.25-.04.43.59.19.92.25-.05-.15.1-.49-.08-.5Z"/><path class="cls-2" d="m40.02,54.43c.24.51.24,1.27.42,1.84.28.22.64.36,1,.5-.17-1.03-.41-2.43-1.42-2.34Z"/><path class="cls-2" d="m56.66,62.62c.17.97.53,1.76.67,2.76.24.07.65.41.84.25-.46-.79-.66-1.85-.92-2.84-.24-.02-.35-.15-.58-.17Z"/><path class="cls-2" d="m46.46,57.69c.04,1.35.56,2.23,1.75,2.43-.06-.58-.24-1.04-.25-1.67-.44-.32-.99-.52-1.51-.75Z"/><path class="cls-2" d="m48.97,58.94c.04,1.16.38,2.02,1.25,2.34-.09-.75-.4-1.27-.5-2.01-.22-.14-.53-.19-.75-.33Z"/><path class="cls-2" d="m43.53,56.35c.06.64.31,1.08.33,1.76.68.16,1.16.52,1.84.67-.06-.64-.22-1.18-.42-1.68-.58-.25-1.15-.52-1.76-.75Z"/><path class="cls-2" d="m50.81,59.86c.29.85.24,2.49,1.34,2.26-.27-.56-.53-1.14-.58-1.92-.26-.1-.44-.28-.75-.34Z"/><path class="cls-2" d="m52.56,60.7c.38.99.45,2.28,1.42,2.67-.27-1.1-.33-2.4-1.42-2.67Z"/><path class="cls-2" d="m25.81,46.15c.11.39.11.94,0,1.34.35.18.57.49,1,.59-.16-.82-.11-1.84-1-1.92Z"/><path class="cls-2" d="m60.09,63.96c.18,1.1.03,2.98,1,3.01-.22-.89-.62-1.61-.58-2.76-.17-.05-.27-.18-.42-.25Z"/><path class="cls-2" d="m42.11,55.6c-.01.63.47,1.09.25,1.67.17.08.33.17.5.25-.25-.64-.06-1.72-.75-1.92Z"/><path class="cls-2" d="m58.25,63.29c.23.96.83,1.93.84,2.84.21-.01.26.13.42.17-.18-.85-.35-1.71-.33-2.76-.26-.08-.65-.46-.92-.25Z"/><path class="cls-2" d="m30.66,48.99c-.13,1.41.53,2.03,1.51,2.34-.16-.57-.3-1.15-.42-1.75-.36-.2-.66-.45-1.09-.58Z"/><path class="cls-2" d="m32.75,50.25c.25.53.36,1.2.5,1.84.4.13.79.27,1.09.5-.15-.62-.3-1.26-.42-1.92-.47,0-.77-.63-1.17-.42Z"/><path class="cls-2" d="m28.32,47.49c-.26-.1-.44-.28-.75-.33.07.52.22.96.17,1.59.26.07.35.32.67.33.06-.61-.32-1.06-.08-1.59Z"/><path class="cls-2" d="m29.16,47.99c.2.69-.03,1.82.67,2.01-.17-.89.04-1.8-.67-2.01Z"/><path class="cls-2" d="m35.01,51.33c.18.85.24,1.83.92,2.17,0-.7-.29-1.1-.25-1.84-.31-.02-.4-.26-.67-.34Z"/><path class="cls-2" d="m38.1,53.09c.18,1.1.19,2.38,1.25,2.59-.11-1.17-.25-2.31-1.25-2.59Z"/><path class="cls-2" d="m36.68,52.25c.11.89.17,1.84.76,2.26-.26-.75-.11-1.9-.76-2.26Z"/><path class="cls-2" d="m54.4,61.53c.47,1.23.46,2.94,1.84,3.26-.27-1.37-.49-3.25-1.84-3.26Z"/><path class="cls-2" d="m77.48,55.68c1.06-.35.26-2.82.16-3.85-1.22.58-.26,2.61-.16,3.85Z"/><path class="cls-2" d="m83.16,46.07c-.42.67-.07,2.44.25,3.18.13-.31.52-.37.58-.75-1.06-.03-.52-1.65-.83-2.42Z"/><path class="cls-2" d="m79.73,49.66c.5.75.33,2.17.58,3.18,1-.66.93-3.16.25-4.18-.22.4-.69.54-.83,1Z"/><path class="cls-2" d="m78.98,54.43c.62-.67.39-3.07,0-4.01-.69.71-.23,2.94,0,4.01Z"/><path class="cls-2" d="m81.99,47.15c-.16.25-.31.52-.58.67.42.78.33,2.07.67,2.92.18-.35.54-.53.67-.92-.81-.34-.26-2.02-.76-2.67Z"/><path class="cls-2" d="m62.01,64.96c-.26-.02-.38-.18-.59-.25.08,1.14.66,1.8.75,2.93.47.04.93.52,1.34.33-1.17-.33-1.12-1.89-1.5-3.01Z"/><path class="cls-2" d="m77.64,41.13c1.28,1.28-.27,2.34-1.42,3.09-1.44.95-3.15,1.18-5.18,1.17.14.98.42,1.92.59,3.01.11.74.51,2.63.08,3.43-.14.26-1.48.97-2.01,1.25-2.06,1.13-3.82,1.68-6.36,2.26-1.02.23-2.11.44-3.34.34-2.15-.19-4.29-.52-6.02-1.59-.88-.54-3.19-2.29-3.34-3.34-.16-1.06.58-2.14.25-3.26-2.61,1.13-6.9,1.52-9.78.59-1.68-.54-3.78-1.69-5.35-2.84-.79-.58-1.43-1.19-2.09-2.01-.95-1.18-1.86-2.1-1.67-3.84-1.41.62-2.79,1.02-5.1.84-2.15-.17-5.04-1.33-6.52-2.67-.59-.54-1.87-1.91-2.01-2.42-.15-.59.04-1.32,0-1.92-.19-3.01-.17-7.18-1.25-9.19-3.68,2.92-7.11,6.09-10.53,9.28,1.47,1.09,3.23,1.6,4.77,2.59,1.47.96,2.83,2.1,4.34,3.01,3.08,1.85,6.33,3.48,9.61,5.1,3.22,1.59,6.3,3.52,9.45,5.27,1.55.86,3.18,1.72,4.68,2.67,1.51.96,3.02,2.11,4.6,2.84,1.61.75,3.28,1.3,4.85,2.17,2.66,1.48,5.42,2.68,8.28,3.93,2.2.96,4.31,1.76,6.1,2.93,3.47-3.42,7.14-6.64,10.28-10.28,1.07-1.25,2.36-2.18,3.51-3.34.52-.52.89-1.21,1.42-1.75,2.28-2.37,4.88-4.41,6.6-7.19-2.1-2.11-5.13-3.29-7.61-5.02.16,1.54.02,3.38.16,4.93Zm-54.25.17c-.75.23-1.17-.62-1.75-1-.72-.46-1.68-.77-2.59-1.34-1.63-1.02-2.97-1.89-4.93-2.93-.54-.29-2.37-1.32-2.01-1.84.76-.47,1.48.52,2.34,1,.67.38,1.45.7,2.09,1.09,1.31.79,2.56,1.83,3.85,2.51.6.31,1.35.51,1.92.92.49.35,1.31.75,1.09,1.59Zm2.09,1.59c-.62-.54.43-1.25.67-.5-.06.34-.21.57-.67.5Zm17.39,10.37c-1.96-1.26-4.09-2.58-6.02-4.01-1.28-.95-2.55-1.96-3.93-2.76-.68-.4-1.48-.72-2.17-1.17-.6-.39-1.48-.87-1.67-1.67.17-.03.16-.23.34-.25,4.24,2.34,8.08,5.07,11.87,7.86.7.32,1.43.76,2.09,1.17.61.39,1.58.71,1.67,1.59-.76.37-1.58-.37-2.18-.75Zm4.68,1.42c.37-.34.93-.02,1.17.25.07.89-1.47.72-1.17-.25Zm12.46,6.27c-1.79-.94-4.23-2.55-6.52-3.59-.69-.32-1.95-.73-1.67-1.59.02-.09.17-.06.17-.17,2.48.93,5.17,2.89,7.61,4.26.7.39,1.69.4,1.76,1.42-.46.54-.94-.12-1.34-.33Zm7.69-3.93c-.77.66-1.45,1.55-2.26,2.26-.77.68-1.44,1.61-2.51,1.92-.08-.11-.14-.25-.25-.33.49-.89,1.35-1.59,2.09-2.26,1.25-1.14,2.49-2.24,3.76-3.43.09.01.15-.02.17-.08.28,0,.36.19.5.33-.08.9-.94,1.11-1.51,1.59Zm3.01-3.6c-.12-.58.33-.8.75-.58.37.54-.39,1.02-.75.58Z"/><path class="cls-2" d="m84.24,47.32c.12-.66.43-1.58.17-2.34-.42.36-.27,1.74-.17,2.34Z"/><path class="cls-2" d="m84.24,47.66c-.01.21-.01.4.17.42.17-.17,0-.36-.17-.42Z"/><path class="cls-2" d="m69.78,63.7c.99-.39.32-3.03,0-3.93-.96.9.23,2.46,0,3.93Z"/><path class="cls-2" d="m68.36,65.04c1.09-.3.45-2.79.08-3.93-.93.67-.12,2.69-.08,3.93Z"/><path class="cls-2" d="m66.52,63.29c.29.89.24,2.1.42,3.09.34-.07.58-.26.67-.58-.48-.77-.08-2.42-.58-3.18-.13.25-.42.36-.5.67Z"/><path class="cls-2" d="m75.72,57.6c.48-.35.85-.82,1.25-1.25-.8-.53-.41-2.26-.92-3.09-1.36.75-.52,2.84-.33,4.35Z"/><path class="cls-2" d="m65.6,63.87c-.39.84.2,2.64.42,3.68.37-.74-.27-2.4-.25-3.59-.02-.07-.07-.1-.17-.08Z"/><path class="cls-2" d="m74.38,58.86c.33-.03.36-.37.67-.42-.48-.86-.27-2.4-.76-3.26-.87.85.11,2.4.08,3.68Z"/><path class="cls-2" d="m72.38,57.35c.4.82.2,2.25.59,3.09.14-.38.55-.51.67-.92-.28-.89-.26-2.08-.59-2.93-.15.33-.54.41-.67.75Z"/><path class="cls-2" d="m71.12,62.28c1.47-.48.76-3,.42-4.26-1.54.79-.36,2.45-.42,4.26Z"/><path class="cls-1" d="m68.7,36.29c-.13-.52-.78-1.57-1.09-1.92-.92-1.05-2.99-2.4-4.85-2.59-.99-.1-2.43,0-3.26.08-.78.07-1.55,0-2.17.17-1.44.38-3.65,2.13-4.43,3.01-.37.41-1.08,1.35-1.17,2.01-.27,2,1.17,3.06,2.26,3.85,1.26.91,1.58,1.33,3.01,1.92.48.2.97.55,1.42.67,2.74.72,6.53.39,8.53-1.25,1.46-1.2,2.38-3.36,1.75-5.94Zm-10.37,3.34c-1.08-.45-1.51-2.11-1.09-3.01.23-.49.73-.84,1.84-1,2.1-.32,5.25.66,4.68,2.84-.38,1.45-3.66,1.92-5.43,1.17Zm6.02,1.59c-1.79.89-.42-2.05,0,0h0Zm1.51-1.67c-.59-.53.03-1.93-.17-3.18-.34-2.19-2.08-3.21-4.43-3.26.04-1.7,3.38-.44,4.26.67.88,1.1,1.05,2.31,1,4.26-.01.53.14,1.51-.67,1.5Z"/><path class="cls-4" d="m75.81,34.04c.32-.5.53-1.1.57-1.8.1-1.67-1.94-2.05-2.85-.92-.64.79-1.49,1.26-2.44,1.44-1.09-1.34-3.22-.6-3,1.27.31,2.63.33,5.35.85,7.96-1.17-.36-2.7.21-2.83,1.8,0,.08-.03.15-.04.23-.35.11-.68.25-1,.41-.2-.17-.42-.32-.67-.43-3.84-1.63-9.26.76-12.2-2.66-.48-.55-1.17-.74-1.82-.64-.12-.6-.27-1.2-.43-1.77-.34-1.26-1.49-1.71-2.66-1.29-.99.36-2.08.49-3.19.44-.2-.44-.54-.83-1.03-1.03-2.44-.98-4.92-1.81-7.31-2.9-.37-.17-.72-.18-1.04-.1-1.05-.63-2.11-1.17-3.22-1.4.03-.3.09-.59.13-.89.19-.34.24-.74.16-1.1.19-.84.36-1.69.53-2.55.39-2.05-2.37-3.2-3.24-1.53-.03,0-.05-.02-.08-.03-1.14-.21-3.26.13-4.97-.04-.98-.41-1.91-.9-2.69-1.63-1.4-1.3-3.67.09-2.82,1.92.32.7.74,1.22,1.22,1.63-.19.37-.12.86.13,1.22-.03.12-.05.25-.04.38.03.75.14,1.46.32,2.13-.37.28-.62.71-.67,1.27-.41,5.29,3.64,6.05,7.12,4.96.41.54,1.1.9,1.82.81.45-.06.91-.12,1.36-.17.51-.06.95-.43,1.21-.89.62-.08,1.26-.07,1.85-.12-.05.33-.04.69.05,1.06.97,4.01,4.47,6.46,8.37,7.3.23.4.6.74,1.11.93,3.51,1.26,5.88.15,8.36-1.92.06.04.11.07.17.1-.02.46.07.93.33,1.33-.36.59-.45,1.32-.05,1.93,1.09,1.64,2.67,2.76,4.45,3.5.23.27.52.49.88.62,2.33.87,5.81,1.15,8.77.47.39.07.83,0,1.31-.26.18-.1.34-.21.5-.32.9-.38,1.71-.88,2.34-1.52.55-.56.67-1.32.52-2.01.28-.95.33-2.01.12-3.2-.02-.11-.06-.2-.09-.3.1-.37.18-.74.24-1.12.79.47,1.85.4,2.44-.56.04-.06.07-.13.1-.19.56.1,1.16-.04,1.63-.44.94-.07,1.92-.73,2.05-1.79.34-2.59-.28-5.03-.63-7.58Z"/><path class="cls-4" d="m60.23,28.04c-.14-.27-.25-.56-.33-.87.01-.79,0-1.59,0-2.4-.02-1.54-1.39-2.06-2.41-1.6-.84-.23-1.87.16-2.11,1.19-.72-.55-1.8-.52-2.3.2-.17-.07-.34-.14-.51-.19-2.18-.62-3.26,2.78-1.07,3.35.34.09.82.48,1.25.81-.01.79-.43,1.58-.41,2.37.05,2.14,2.93,2.33,2.93.18v-.06s.8-.1.98-.19c.03.04.25.07.28.11.46.62,1.48.7,2.17.37.19.04.44.05.64.02.02,0,.07,0,.09,0,1.85.31,2.48-2.69.83-3.28Z"/><path class="cls-4" d="m43.39,21.24c.22-1.25.11-2.55-.3-3.74-.18-.53-.49-.96-.93-1.21-.69-.63-1.81-.75-2.46-.09-.43-.22-.93-.29-1.37-.16-.71-.81-2.44-.39-2.53.9-.11,1.74.15,3.45.29,5.18.06.74.87,1.3,1.56,1.34.53.03.95-.18,1.26-.51.24.14.52.22.78.24.11,0,.2-.02.3-.03.85.92,2.52.7,3.05-.65.01-.04.02-.08.04-.11.23-.32.36-.71.31-1.15Z"/><path class="cls-3" d="m26.71,18.98c-.14-.34-.53-.56-.89-.58-.02,0-.03,0-.05,0-.67-.03-1.15.57-1.04,1.22,0,.02,0,.03,0,.05.03.08.04.13.06.17.08.51.41.93.97.96.53.03,1.13-.42,1.11-1-.01-.31-.04-.54-.16-.82Z"/><path class="cls-3" d="m37.8,8.28c-1.6,0-1.74,2.48-.13,2.48s1.74-2.48.13-2.48Z"/><path class="cls-3" d="m43.61,28.66c-.89,0-1.66.62-1.71,1.54-.04.85.65,1.71,1.54,1.71s1.66-.62,1.71-1.54c.05-.85-.65-1.71-1.54-1.71Z"/><path class="cls-3" d="m51.78,15.19c-2.35,0-2.56,3.65-.19,3.65s2.56-3.65.19-3.65Z"/><path class="cls-3" d="m67.26,24.94c-.97,0-1.81.67-1.86,1.68-.05.92.71,1.86,1.68,1.86s1.81-.68,1.86-1.68c.05-.93-.71-1.86-1.67-1.86Z"/><path class="cls-3" d="m60.3,35.79c-1.08,0-2.03.76-2.09,1.88-.06,1.04.79,2.09,1.88,2.09s2.03-.76,2.09-1.88c.05-1.04-.8-2.09-1.88-2.09Z"/><path class="cls-5" d="m40.44,1.17c1.88.53,3.79,1.75,4.6,3.26.23.43.06,1.17.92,1.17.48-.54.02-1.41-.25-1.84-.45-.72-1.46-1.67-2.01-2.09C42.03.39,39.36-.05,36.6,0c-.22.12-.4.27-.34.67,1.46.5,2.92.15,4.18.5Z"/><path class="cls-5" d="m36.09,6.19c.44,0,.51.56,1,.25.27-.42-.11-.81-.25-1.09-3.21-.44-5.26,1.33-5.85,3.93-.13.6-.43,2.26.75,2.26-.02-3,1.06-5.46,4.35-5.35Z"/><path class="cls-5" d="m39.19,6.94c.64-.2.42-1.45-.42-1-.2.43-.05.99.42,1Z"/><path class="cls-5" d="m36.18,7.86c-.58.13-1.13.37-1.25.92-.1.43.15,1.56.33,1.92.63,1.26,2.8,2.27,4.18,1.42,1.38-.85.18-3.11-.67-3.76-.51-.4-1.48-.74-2.59-.5Z"/><path class="cls-5" d="m60.67,12.79c.73-.49-.08-1.46-.59-2.26-.49-.77-1.55-2.53-2.17-1.5,1.02,1.17,1.62,2.8,2.76,3.76Z"/><path class="cls-5" d="m14.19,13.78h.5c.18-1.29.2-.56.25-.87.7-.92,2.04-1.21,2.34-2.52-.71-.43-1.38.48-2.01,1.03-.85.74-1.61,1.08-1.09,2.36Z"/><path class="cls-5" d="m15.45,17.64c.66.13.88-1.78,1.09-2.43.59-1.88,1.49-3.13,2.93-3.76.46-.2,1.13-.1,1.42-.75-.09-.44-.47-.41-.75-.42-.96-.01-2.58,1.25-3.09,1.84-.6.68-.95,1.69-1.25,2.59-.2.6-1.1,2.77-.34,2.93Z"/><path class="cls-5" d="m46.21,18.73c.6-.05.4-2.09.5-2.42.37-1.28,1.96-2.32,3.51-2.26.55.02,1.4.63,1.34-.25-.05-.62-1.48-.6-1.67-.59-.78.06-1.89.34-2.43.67-.51.31-1.6,1.51-1.75,2.93-.1.9-.11,1.97.5,1.92Z"/><path class="cls-5" d="m53.82,14.46c-.29-.78-1.37.04-.67.5.46.07.62-.16.67-.5Z"/><path class="cls-5" d="m21.47,22.57c.31-.9-.47-1.56-.5-2.59-.05-1.78.93-3.28,1.67-4.43-.14-.25-.32-.35-.58-.34-1.09.06-2.13,3.72-1.92,5.35.1.79.51,2.06,1.34,2.01Z"/><path class="cls-5" d="m48.55,16.31c-.08.34-.1.73-.08,1.17.91.51,1.43,2.03,2.76,2.26,1.35.23,2.87-.47,3.18-1.42.91-2.84-3.99-3.53-5.85-2.01Z"/><path class="cls-5" d="m24.31,21.49c.38.18.88.09,1.26.17,1.06.21,2.17.21,2.67-.59,1.14-1.81-1.14-3.8-3.26-3.51-.54.07-1.09.17-1.42.5-.87.88-.37,2.88.75,3.43Z"/><path class="cls-5" d="m13.11,20.74c0,.11-.15.08-.17.17-.55,1.42-1.36,2.58-2.59,3.43-.54.37-2.48.97-2.51,1.42-.06.94,1.39.14,1.84-.08.75-.37,1.36-.74,1.84-1.17,1.11-.98,2.23-2.17,2.01-3.68-.2.04-.18-.15-.42-.08Z"/><path class="cls-5" d="m80.49,28.68c.57-.03.47-1.42.41-2.17-.13-1.77-.64-4.74-1.84-5.68-.13-.23-.36.13-.5.17.62,1.47,1.28,3.42,1.42,5.43.03.37-.23,2.29.5,2.26Z"/><path class="cls-5" d="m62.68,28.68c.9-.63-.36-1.4-.5-2.26-.32-1.92.71-3.99,1.92-4.35,1.28.07,1.19-1.14-.17-.92-.42.07-1.55.92-1.75,1.17-.67.83-1.06,3.39-.84,4.51.14.69.65,1.36,1.34,1.84Z"/><path class="cls-5" d="m22.55,24c.52-.13.42-1.21-.25-1.09-.46.2-.37,1.1.25,1.09Z"/><path class="cls-5" d="m64.94,27.76c.64.81,3.56.79,4.51.17.54-.35.65-1,.67-1.42.08-1.92-1.86-2.89-3.43-2.67-1.93.26-3.05,2.29-1.75,3.93Z"/><path class="cls-5" d="m48.05,25.08c-.26-.03-1.4-1-1.59-.17-.13.56.86.73,1.17,1.09.24.27.61,1.03.92,1.59.54.97.97,2.4.67,3.93-.26,1.31-1.52,1.47-1.5,2.84.66.22,1.34-.62,1.76-1.25,1.73-2.66-.15-6.49-1.42-8.03Z"/><path class="cls-5" d="m44.87,28.34c-.34-.15-.74-.43-1-.5-1.29-.35-2.74.51-3.26,1.34-.47,3.73,5.67,4.09,5.85,1.17.07-1.21-.76-1.65-1.59-2.01Z"/><path class="cls-5" d="m3.32,39.63c.57-.71-.16-1.63-.42-2.51-.53-1.81-.96-5.27-.34-7.44.11-.39.57-.73.5-1.25-.15-.08-.24-.2-.42-.25-.1.04-.19.09-.25.17-.79.63-.86,1.99-.92,3.34-.09,2,.09,3.8.5,5.35.29,1.1.53,2.41,1.34,2.59Z"/><path class="cls-5" d="m64.1,29.6c1.87-.21-.82-1.66,0,0h0Z"/><path class="cls-5" d="m65.52,33.78c-.88-1.11-4.22-2.37-4.26-.67,2.35.05,4.09,1.07,4.43,3.26.2,1.25-.41,2.65.17,3.18.81,0,.66-.97.67-1.5.05-1.96-.13-3.16-1-4.26Z"/><path class="cls-5" d="m81.57,32.52c-.89-.82-1.12.92-1,1.5.25,1.23,1.79,1.75,2.76,2.34.42.26.65.74,1.09.58.58-1.3-1.63-1.57-2.51-2.51-.49-.52-.44-.96-.33-1.92Z"/><path class="cls-5" d="m44.79,34.11c-.03.47.26.63.67.67.88-.31-.23-1.46-.67-.67Z"/><path class="cls-5" d="m.98,36.33c.73-.17-.2-1.97-.42-3.26H.06c-.22,1.29.13,3.44.92,3.26Z"/><path class="cls-5" d="m22.3,39.71c-.57-.41-1.32-.61-1.92-.92-1.29-.67-2.53-1.72-3.85-2.51-.63-.38-1.41-.7-2.09-1.09-.87-.49-1.58-1.47-2.34-1-.36.52,1.47,1.55,2.01,1.84,1.96,1.04,3.3,1.9,4.93,2.93.91.57,1.87.87,2.59,1.34.59.38,1.01,1.23,1.75,1,.22-.83-.6-1.24-1.09-1.59Z"/><path class="cls-5" d="m63.77,38.46c.57-2.18-2.58-3.16-4.68-2.84-1.11.17-1.61.52-1.84,1-.43.9,0,2.56,1.09,3.01,1.77.75,5.05.28,5.43-1.17Z"/><path class="cls-5" d="m64.35,41.22c-.42-2.05-1.79.89,0,0h0Z"/><path class="cls-5" d="m25.48,42.89c.46.07.61-.16.67-.5-.24-.75-1.29-.04-.67.5Z"/><path class="cls-5" d="m43.37,52.42c-.66-.42-1.39-.85-2.09-1.17-3.79-2.78-7.63-5.52-11.87-7.86-.17.02-.16.23-.34.25.19.8,1.07,1.28,1.67,1.67.69.45,1.49.77,2.17,1.17,1.38.8,2.64,1.81,3.93,2.76,1.93,1.43,4.06,2.75,6.02,4.01.59.38,1.41,1.12,2.18.75-.1-.88-1.06-1.2-1.67-1.59Z"/><path class="cls-5" d="m88.09,45.32c.18,2.14.11,4.42-.75,6.02-.36.67-1.35,1.12-.84,1.92.76-.02,1.3-.97,1.67-1.75.73-1.52,1.47-4.76.42-6.35-.26-.04-.33.12-.5.17Z"/><path class="cls-5" d="m6.25,47.99c1.96.97,3.7,1.98,5.43,2.84,7.6,3.76,14.23,7.43,21.4,11.7,2.2,1.31,4.45,2.83,6.77,4.27,2.31,1.42,4.72,2.7,6.86,4.18,3.12,2.16,6.87,4.11,10.37,6.18.71.42,3.54,2.59,3.93,1.01.29-1.19-1.3-1.4-2.34-1.92-1.04-.52-2.04-1.28-3.09-1.92-1.06-.64-2.19-1.21-3.26-1.84-2.11-1.25-4.1-2.76-6.19-3.93-4.25-2.4-8.37-5.09-12.62-7.69-4.27-2.61-8.59-5.07-12.96-7.36-2.2-1.15-4.35-2.44-6.6-3.51-1.16-.55-2.31-1.08-3.43-1.67-1.15-.6-2.22-1.31-3.26-1.84-.5-.25-1.5-.75-2.01-.59-.09.03-.11.06-.17.08-1.36.71.43,1.64,1.17,2.01Z"/><path class="cls-5" d="m90.43,48.16c-.52.5-.49,1.41-.75,2.26-.21.68-.86,1.47-.17,1.76,1.13-.6,1.25-2.65,1.5-3.84-.14-.11-.28-.22-.58-.17Z"/><path class="cls-5" d="m3.57,49.66c-.17-.05-.24-.21-.5-.17-1.37,1.13-.97,6.78,1.09,6.19.23-.57-.42-.88-.67-1.42-.63-1.39-.07-3.65.08-4.6Z"/><path class="cls-5" d="m1.23,51.25c-1.22-.56-1.22,2.01-.17,1.92.57-.32.05-1.28.17-1.92Z"/><path class="cls-5" d="m59.67,84.27c-.01-.73-1.61-1.37-2.26-1.76-2.71-1.6-5.47-2.91-7.77-4.43-1.68-1.11-3.33-2.13-4.93-3.18-1.68-1.09-3.42-1.95-5.18-2.93-1.35-.75-2.64-1.8-4.1-2.59-4.35-2.35-8.39-5.38-12.54-7.69-2.6-1.45-5.77-2.94-8.69-4.76-1.91-1.19-4.01-2.77-6.27-3.85-1-.48-3.22-1.86-3.09-.08.06.8,2.36,1.71,3.09,2.09,3.6,1.86,6.53,4.18,9.95,5.77,2.27,1.06,4.43,2.53,6.61,3.84,2.22,1.34,4.38,2.75,6.44,4.1,2.11,1.38,4.52,2.5,6.61,3.85,3.27,2.11,6.66,3.68,9.78,5.85,1.05.73,2,1.57,3.09,2.17,1.71.95,3.52,1.82,5.1,2.76.58.34,1.31.58,1.75.92.46.35.43,1.02,1.25.92.84-.07,1.18-.41,1.17-1Z"/><path class="cls-5" d="m70.7,53.42c.36.44,1.12-.04.75-.58-.42-.21-.87,0-.75.58Z"/><path class="cls-5" d="m47.55,54.68c-.3.97,1.24,1.14,1.17.25-.24-.28-.8-.59-1.17-.25Z"/><path class="cls-5" d="m68.7,55.09c-.02.06-.07.1-.17.08-1.27,1.19-2.51,2.29-3.76,3.43-.74.67-1.6,1.37-2.09,2.26.11.08.17.22.25.33,1.07-.31,1.73-1.24,2.51-1.92.81-.71,1.48-1.6,2.26-2.26.56-.48,1.43-.69,1.51-1.59-.14-.14-.22-.34-.5-.33Z"/><path class="cls-5" d="m59.58,59.86c-2.44-1.37-5.13-3.34-7.61-4.26,0,.11-.15.08-.17.17-.27.86.98,1.27,1.67,1.59,2.29,1.04,4.73,2.65,6.52,3.59.4.21.88.87,1.34.33-.06-1.02-1.06-1.03-1.76-1.42Z"/><path class="cls-5" d="m36.35,74.74c-4.08-2.7-8.26-5.66-13.05-7.44-.03-.14-.11.02-.25,0-.08,0-.1.07-.17.08-.15.81.83,1.19,1.34,1.42.71.32,1.54.54,2.17.84,3.37,1.57,6.3,3.75,9.11,5.68.56.39,1.13.99,1.84,1,.57-.83-.58-1.31-1-1.59Z"/><path class="cls-5" d="m68.95,69.97c-.73.71-1.61,1.67-2.76,2.01-.54.16-.96-.09-1,.42-.06.74,1.38.43,1.67.33,1.12-.39,2.2-1.48,2.68-2.42-.17-.14-.19-.42-.59-.34Z"/><path class="cls-5" d="m63.77,76.66c-.02-.07-.07-.1-.17-.08-.02.12-.19.1-.25.17-.36.95-.43,1.64-1.25,2.34-.42.36-2.39.97-2.34,1.5.09,1.15,2.84-.77,3.01-.92.66-.58,1.79-2.13,1-3.01Z"/><path class="cls-5" d="m64.94,77.83c-.13.84-2.5,1.88-1.42,2.51,1.13-.3,1.67-1.18,2.09-2.17-.15-.18-.24-.43-.67-.34Z"/><path class="cls-5" d="m60.51,86.11c-.25.11-1.13.06-1.17.5-.07.84,1.52.42,1.92.17.64-.4.89-.98,1.09-1.59-.63-.88-1.19.64-1.84.92Z"/><path class="cls-5" d="m86.5,46.32c.04-.67.28-1.38.33-2.01.04-.38-.06-.72,0-1.09.1-.62.66-1.56.42-2.34-.14-.46-1-.99-1.5-1.42-.6-.51-1.12-1.04-1.59-1.34-.38-.24-.86-.28-1.25-.5-1.87-1.03-3.56-2.51-5.52-3.51-.09-4.36,1.28-8.45-.42-11.45-.3-.52-.94-1.13-1.42-1.67-2.66-2.96-10.11-3.71-14.3-1.67.19-2.06-.43-3.3-1.25-4.35,1.05-.39-.04-1.9-.58-2.59-1.14-1.45-3.9-3.41-5.94-3.68-.69-.09-1.99-.28-2.17.5.27.59,1.33.3,1.84.36,2.92.35,4.98,4.71,6.27,4.71h-.08c-.45,0-.9-1.17-1.51-1.53-3.12-1.92-7.94-2.84-11.54-1.02.1-1.15.14-2.2-.17-3.19-.45-1.41-2.05-3.24-3.34-4.35-1.93-1.67-4.5-2.18-7.61-1.76-4.42.61-8.25,4.65-6.35,9.53-7.94-.69-12.28,2.65-11.79,10.11-1.93.92-3.14,2.43-4.68,3.76-1.85,1.6-3.62,2.95-5.43,4.76-.77.77-2.24,1.75-2.26,2.84-.01.78.59,1.67.67,2.59.09,1.07-.32,2.47-.08,3.01.08.19,1.04.69,1.51,1,1.6,1.08,3.5,1.76,4.93,2.68,2.58,1.64,5.34,2.75,8.19,3.93.46.19.98.28,1.51.5,3.32,1.41,6.46,3.68,9.86,5.6,1.64.92,3.25,1.91,4.85,2.93,2.09,1.32,4.51,2.66,6.69,3.76.62.31,1.28.46,1.92.75,1.91.88,3.89,2.25,5.68,3.09,1.94.91,3.43,2.11,5.18,3.09,1.22.68,2.53,1.11,3.76,1.76.6.31,1.21.65,1.84.92.65.28,1.42.41,2.01.75.51.3.95,1.2,1.42,1.26,1.09.11,2.45-2.37,3.26-3.18,1.17-1.17,2.57-2.18,3.76-3.43,1.21-1.26,2.21-2.74,3.34-3.85.51-.5,1.15-.83,1.67-1.34,1.55-1.5,2.94-3.06,4.35-4.68.91-1.04,1.75-2.17,2.76-3.26.67-.72,2.53-2.43,2.76-3.34.11-.45-.04-1.07,0-1.67Zm-25.75-24.08c.6-1.71,3.44-2.31,5.68-2.43,3.58-.18,7.59,1.11,9.11,3.76.74,1.28.9,3.62.08,5.02-.33.56-1.36,1.4-2.09,1.84-3.18,1.92-7.17,1.32-9.62-.67-.3-.1-.66.17-.75,0-1.9-.62-2.37-2.23-2.42-4.76-.02-1.14-.21-2.17,0-2.76Zm14.58,10.95c-.07-1.01-.58-1.97.36-2.34.43.13-.31.4-.28.67.01,2.15.62,5.96.19,8.19-.08.37.02-.01.02-.17v-.5c0-1.76-.16-4.03-.28-5.85Zm.64,7.94c.06.76.01,1.41-.5,1.59-.02-.43.02-1.41-.08-2.01.16.17.26.41.59.42Zm-1.17,2.01c-.21-.01-.26.13-.42.17-.51-3.85-.18-7.48-.5-10.66-.03-.14.08.12.08.12h.25s.18,1.98.25,3.3c.13,2.53-.34,5.63.33,7.06Zm-2.17-10.45c.1.01.15-.02.17-.08.14-.02.14.08.25.08.18,3.52.03,7.83.42,10.87-.63.4-.77-.36-.84-1.09-.21-2.31.16-7.98,0-9.78Zm-.83,10.95c-.33-.06-.96.18-.92-.25.33.17.75.06.84-.25.18.01.03.36.08.5Zm0-.88c-.78-2.76-.32-6.82-.92-9.76.26-.02.47-.23.67-.23h.17c.18,5.55.03,6.72.08,9.99Zm-2.18,7.73c.06-.22.38-.18.42-.42.26.32-.13.7-.25.92-.24.01.07-.52-.17-.5Zm-.58-16.97c.16-.2.55-.17.92-.17.23.53.17,1.33.25,2.01-.37-.63-.68-1.33-1.17-1.84Zm0,9.36c-.15-.01-.18.1-.33.08,0-.25.22-.29.25-.5.18-.01.04.3.08.42Zm-3.84,7.52c-.12-1.41-.16-2.53-.25-3.93-.03-.49-.42-1.41.17-1.51.43.5.35,1.49.42,2.43.06.88.2,1.85.25,2.59.04.59-.23,2.46.5,2.59.82.15.48-1.52.42-2.34-.07-.96-.17-2.05-.25-3.09-.07-.98-.46-2.04,0-2.68.45.37.27,1.18.33,1.84.1,1,.19,1.75.25,3.01.03.73.01,2.55.67,2.59.69.05.38-.69.34-1.17-.19-1.99-.32-5.01-.5-6.94.07-.07.23-.05.25-.17.74,2.24.58,5.38.92,8.03-1.58.73-3.02,1.61-5.43,1.5-.59-2.23-.39-5.24-.75-7.69.28-.23.85-.16,1.34-.17.23,1.6.24,3.1.42,5.02.05.5,0,2.3.67,2.34.78.05.32-1.44.25-2.26Zm1.75-8.19c-2,1.64-5.79,1.98-8.53,1.25-.45-.12-.94-.47-1.42-.67-1.42-.59-1.75-1.01-3.01-1.92-1.09-.78-2.53-1.85-2.26-3.85.09-.66.8-1.59,1.17-2.01.78-.88,2.99-2.63,4.43-3.01.62-.16,1.39-.1,2.17-.17.83-.07,2.27-.18,3.26-.08,1.86.19,3.93,1.54,4.85,2.59.31.36.96,1.41,1.09,1.92.63,2.57-.29,4.74-1.75,5.94Zm-9.36,2.93c-.93.37-.39,1.67-.33,2.51.1,1.51-.26,3.28-.16,4.68-.51-.07-1.83-.23-1.83-.33v-7.61c1.85.65,3.68,1.12,5.92,1.09.41,2.44.4,5.49.96,7.77-1.63.1-2.77-.19-3.82-.67-.05-1.78-.23-3.92-.37-5.68-.04-.56.32-1.54-.37-1.75Zm-2.84.33c-.07-.64-.39-1.04-.17-1.84.21.04.38.12.5.25.28,1.62.21,5.4.08,7.69-.4,0-.38-.43-.42-.67-.24-1.4.19-3.76,0-5.43Zm-1.84,4.93c-.68-.75-.26-2.5-.34-4.01-.06-1.32-.32-2.57-.42-3.59,1.19,1.59.62,4.95.75,7.61Zm-.92-8.61c.07-.25.27.05.42,0,.01.24-.25.19-.25.42-.23.04.07-.46-.17-.42Zm-.25-16.13c.01-.1.15-.07.25-.08-.03.33.19.42.17.75-.27-.1-.18-.55-.42-.67Zm2.52,6.35c.1-1.97-.35-4.68-.13-6.77.19.03.64-.01.74-.08.07-.02.41.03.41.08v3.68c0,1.18-.07,2.7-1.01,3.09Zm1.66-1.17c-.21.04-.38.12-.5.25-.08-1.87-.25-4.54.08-6.27.55,1.54.05,4.57.42,6.02Zm1.42-.99c-.43.09-.62-.39-.67-.68-.22-1.33.27-3.89-.17-5.05-.03-.19.24-.62.25-.62h.25c.19,3.7-.15,5.1.33,6.34Zm.58-5.79c.07-.07.23-.05.25-.17.4,1.8.13,4.72.5,6.27-.16.15-.55.06-.84.08.44-1.84-.02-4.39.08-6.19Zm2.01,5.27c.25.19.37.52.67.67-.06.19-.47.03-.67.08v-.75Zm-13.38-15.8c.98-.77,2.47-.95,3.93-1.08,1.55-.14,2.87.06,4.18.67,1.98.92,4.52,2.24,4.93,4.68.6,3.59-1.75,4.67-4.35,5.35-.74.19-1.53.47-2.34.58-.79.11-1.94.38-2.68.25-.64-.12-2.27-1.46-2.84-1.92-1.39-1.12-3-2.41-2.93-4.68.04-1.26,1.28-3.21,2.09-3.85Zm2.26,24.08c.79,1.48-.2,6.09.33,7.94.1.35.37.36.42.59-.11.08-.31.08-.42.17-.52-2.43-.13-6.22-.33-8.69Zm-5.27-1.17c-1.61-.13-3.49-1.01-5.1-1.92-1.61-.91-3.28-2.1-3.93-3.09-1.95-2.99.08-6.65,2.76-7.61.21-.07.4-.04.67-.08,2.07-.32,5.43-.02,7.28.33.81.15,1.63.19,2.17.42.37.16.65.59,1.09.84.43.24,1.02.24,1.25.42.58.43,1.7,2.72,1.84,3.76.14,1.01-.22,2.14-.59,3.18-.34.96-.64,2.03-1.17,2.59-1.1,1.16-3.83,1.36-6.27,1.17Zm4.32,1.76v-.08c0-.46-.04.19.1.17.25,2.54.1,6.13.13,8.36-.47-.26-.11-1.2-.11-1.92-.01-2.52-.12-4.3-.12-6.52Zm-1.65,3.36c-.06-1.35.28-3.24-.5-3.24h1.09c.26,3.7.29,5.97,0,8.51-.56,0-.41-1.04-.42-1.67-.02-1.23-.12-2.47-.17-3.59Zm-.67,5.08c-.64.19-1.64.13-2.42.19-.03-2.57.1-4.81-.17-8.51h1.09s-.32.13-.34.4c-.02.33.3.26.25.62.09,1.68-.12,3.83,0,5.58.02.3.06,1.7.58,1.74.71.06.4-.84.33-1.43-.17-1.65.46-5.31-.08-6.52-.13-.28-.32-.45-.67-.5.28-.2.92-.03,1.34-.09.43.07-.29.21-.25.42.2,2.62.21,5.42.33,8.11Zm-5.1-2.01c.05.45.09,1.04.59,1.17.67-.16.35-.94.33-1.42-.07-1.96-.01-4.73.08-6.6.68-.13.5.42.58.84.44,2.07-.05,5.92.25,7.94-1.21-.21-2.05-.79-3.01-1.25-.22-2.71-.32-5.54-.25-8.53.38.18.76.36,1.17.5.61,1.85.03,5.22.25,7.36Zm-3.69-8.61v-.25c0,.08.77.29,1.09.42.21,2.77,0,6.06.51,8.53-.48.05-.95-.56-1.46-.75.07-.24.25-.22.18-.58,0-2.51-.32-5.06-.32-7.36Zm-1.85-1.17v-.25c0,.15.85.4,1.14.59-.16,2.59.25,5.47.15,8.28-.92-.32-.9-1.47-.9-2.42,0-2.05-.39-4.29-.39-6.19Zm-.15,6.94c-.5-.16-.19-.67-.17-1.09.06-1.23-.04-2.99,0-4.27.34,1.5.09,3.59.17,5.35Zm3.84-20.06c-.05-1.13-.14-3.36-.08-4.6.75.04.39,1.11.42,1.59.06,1.09.27,2.34.42,3.18-.47.22-1.44-.05-1.92.17-.13-1.52.28-3.57-.25-4.68-.4-.06-.62.05-.67.33-.16-.18-.27-.4-.34-.67.44.08,1.03.03,1.42.17.33,1.38-.83,4.93,1,4.52Zm1.26-4.6c.34.07.43-.13.75-.08.13,1.41.15,3.8,0,4.93-.89-.97-.68-3.05-.75-4.85Zm2.59,6.38h-.75c-.21-3.7.04-4.32-.17-5.87.19-.06.43.31.58.22.28,1.58-.19,1.95.33,5.65Zm-12.54-14.49c.12-1.08,1.11-2.66,2.01-3.43,1.71-1.46,5.4-2.22,7.94-1.34.93.32,1.78,1.29,2.67,2.17.87.87,1.78,1.89,2.01,2.76.26,1.01.21,2.44-.33,3.18-.33.45-.75.51-1.17,1-.04.38.04.63.08.92-2.04,1.44-6.18,1.63-8.36.67-.31-.14-.41-.33-.75-.58-.23-.18-.63-.26-.83-.42-.31-.25-.43-.69-.76-.92-.37-.27-.9-.28-1.25-.58-.88-.77-1.39-2.22-1.25-3.43Zm-11.2,10.7c.11-1.01.49-2.35.84-3.01.27-.52,1.25-1.55,1.92-2.01,1.28-.88,6.48-1.78,8.53-.84.88.41,1.25,1.48,2.09,2.01.5.31.99.35,1.59.67,1.12,1.32,1.59,2.07,1.34,4.26-.07.63-.04,1.21-.17,1.59-.51,1.45-2.66,3.22-4.6,3.76-3.01.85-6.63-.43-8.53-1.42-1.98-1.03-3.33-2.02-3.01-5.01Zm12.5,12.45v-4.6c0-.13.46-.37.46-.37h.25c-.1,0-.29,3.25-.44,4.74.04.16-.27.36-.27.22Zm-.62-4.43c.41,2.71-.27,6.79.08,9.45.08.61.56.72-.17,1-.28-.24-.02-.71,0-1.09.18-2.81-.21-6.53.08-9.36Zm-1.75.5c-.06-.39.46-.21.75-.25-.05,3.4.14,7.85-.17,10.45-.72-.44-.42-1.6-.42-2.42,0-2.58-.19-5.29-.17-7.77Zm-.92,1.17c-.04-.41-.17-.72-.17-1.17-.1-.01-.07-.15-.08-.25h.33c-.02.38.06,1.98-.08,1.42Zm.08,6.52c.13.38.12,2.04.08,2.59-.42-.62-.01-1.78-.08-2.59Zm-4.1-8.53c.39.16.86.26,1.25.42-.07,2.68.09,6.16,0,8.61-.02.63-.28,1.5.33,1.59.87.13.52-1.07.5-1.59-.09-2.37,0-6.04.08-8.53.85-.14.85.8.92,1.42.31,2.64.23,6.49-.08,9.11-1.08-.15-2.1-.35-2.92-.75-.05-3.41.1-7.01-.08-10.28Zm-.84,9.78c-.4-.16-.72-.45-1.14-.59.68-2.52.03-6.48.03-9.61v-.25c0,.08.7.19.97.33.17,3.22.09,6.76.13,10.12Zm-1.85-4.01c-.18-2.12.74-4.89.74-6.94v-.25s-.46.27-.16.25c.28,3.04-.15,6.41-.12,9.7-.05-.21-.67-.33-.77-.58-.05-.13.37-.47.36-.67-.02-.46-.02-1.08-.06-1.51Zm-1.66-7.11c-.2-.14-.07-.6-.25-.75.19-.18.31.41.25.75Zm-13.36,11.87v-2.42s.55.09.66.08c.03,1.23.22,2.08.47,3.09-.35-.21-1.13-.44-1.13-.75Zm2.82,1.5c-.07-1.27-.72-1.95-.75-3.26.46.1.71.4,1.17.5-.32,1.11.71,2.14.84,3.34-.48-.14-.83-.4-1.26-.59Zm2.09,1c.17-1.16-.52-2.14-.83-3.09.35-.12.7.47,1.09.58-.16.87.2,1.91.33,2.76-.26-.02-.37-.18-.58-.25Zm1.17-1.76c1.12.33.84,2.06,1.34,3.01-1.17.06-1.14-1.82-1.34-3.01Zm2.18,3.68c.23-.87-.33-1.53-.33-2.42.29.18.58.37.92.5.23.75.34,1.61.5,2.42-.42-.11-.71-.35-1.09-.5Zm1.92,1c.19-.71-.17-1.48-.25-2.17,1.04.19,1,1.45,1.17,2.51-.31-.11-.57-.27-.92-.33Zm1.92.75c-.09-.66-.21-1.29-.33-1.92.48.16.87.41,1.34.59-.26.62.23,1.15.25,1.75-.46-.1-.79-.33-1.26-.42Zm2.17.92c-.02-.7-.17-1.28-.33-1.84.6.05.8.48,1.34.59.07.57.25,1.03.25,1.67-.42-.14-.9-.21-1.25-.42Zm2.26.92c-.06-.5-.2-.92-.17-1.51.34.13.63.32.92.5-.04.57.11.94.17,1.42-.44,0-.57-.33-.92-.42Zm1.67-.5h.25c.2.44.36.92.33,1.59-.61-.11-.41-1.04-.58-1.59Zm1.42,2.01c.11-.39.11-.94,0-1.34.9.08.85,1.1,1,1.92-.43-.1-.66-.4-1-.59Zm2.59,1.59c-.32-.02-.41-.26-.67-.33.05-.63-.1-1.07-.17-1.59.31.05.49.24.75.33-.24.53.14.98.08,1.59Zm.75-1.09c.71.21.5,1.12.67,2.01-.7-.19-.47-1.32-.67-2.01Zm1.5,1c.42.13.73.38,1.09.58.12.6.26,1.19.42,1.75-.98-.31-1.64-.93-1.51-2.34Zm2.59,3.09c-.14-.64-.25-1.31-.5-1.84.4-.21.7.41,1.17.42.11.67.26,1.3.42,1.92-.3-.23-.68-.38-1.09-.5Zm1.75-.75c.26.07.35.32.67.34-.04.74.25,1.14.25,1.84-.68-.35-.74-1.32-.92-2.17Zm1.67.92c.65.36.5,1.51.76,2.26-.59-.42-.64-1.37-.76-2.26Zm1.42.84c1,.28,1.14,1.42,1.25,2.59-1.06-.22-1.07-1.49-1.25-2.59Zm2.34,3.18c-.18-.57-.18-1.33-.42-1.84,1.01-.09,1.25,1.31,1.42,2.34-.37-.14-.72-.28-1-.5Zm1.92,1c.22-.58-.26-1.04-.25-1.67.69.21.5,1.28.75,1.92-.17-.08-.33-.17-.5-.25Zm1.5.84c-.02-.68-.28-1.11-.33-1.76.61.23,1.18.5,1.76.75.2.5.36,1.04.42,1.68-.69-.15-1.16-.51-1.84-.67Zm2.59-.42c.51.24,1.07.44,1.51.75.01.63.19,1.09.25,1.67-1.2-.2-1.72-1.07-1.75-2.43Zm2.51,1.25c.22.14.53.19.75.33.1.73.41,1.26.5,2.01-.88-.32-1.21-1.18-1.25-2.34Zm1.84.92c.31.05.49.23.75.34.05.78.31,1.36.58,1.92-1.1.24-1.05-1.4-1.34-2.26Zm1.75.84c1.1.27,1.15,1.58,1.42,2.67-.97-.4-1.05-1.68-1.42-2.67Zm1.84.83c1.35.01,1.57,1.89,1.84,3.26-1.38-.32-1.37-2.03-1.84-3.26Zm2.93,3.84c-.14-1-.5-1.79-.67-2.76.24.01.35.15.58.17.26.99.46,2.05.92,2.84-.19.16-.59-.18-.84-.25Zm1.76.75c0-.92-.6-1.88-.84-2.84.26-.2.66.17.92.25-.01,1.05.16,1.9.33,2.76-.16-.04-.21-.18-.42-.17Zm1-2.17c.15.08.24.2.42.25-.04,1.15.36,1.87.58,2.76-.98-.03-.82-1.91-1-3.01Zm2.09,3.68c-.1-1.13-.67-1.78-.75-2.93.21.07.33.23.59.25.38,1.12.33,2.67,1.5,3.01-.41.19-.87-.29-1.34-.33Zm3.84-.08c-.22-1.03-.81-2.84-.42-3.68.1-.01.15.02.17.08-.02,1.2.62,2.86.25,3.59Zm.92-1.17c-.17-1-.13-2.21-.42-3.09.08-.31.37-.41.5-.67.5.75.1,2.4.58,3.18-.09.33-.33.51-.67.58Zm1.42-1.34c-.04-1.24-.85-3.25.08-3.93.37,1.14,1.01,3.63-.08,3.93Zm1.42-1.34c.23-1.47-.96-3.03,0-3.93.32.9.99,3.54,0,3.93Zm1.34-1.42c.06-1.81-1.12-3.47.42-4.26.34,1.27,1.05,3.78-.42,4.26Zm1.84-1.84c-.39-.84-.18-2.27-.59-3.09.13-.34.52-.43.67-.75.33.85.31,2.04.59,2.93-.12.41-.53.53-.67.92Zm1.42-1.59c.03-1.28-.95-2.83-.08-3.68.48.86.28,2.4.76,3.26-.31.05-.34.38-.67.42Zm1.34-1.25c-.19-1.51-1.03-3.6.33-4.35.51.83.12,2.56.92,3.09-.4.43-.77.9-1.25,1.25Zm1.76-1.92c-.09-1.24-1.05-3.27.16-3.85.09,1.03.9,3.49-.16,3.85Zm1.5-1.26c-.23-1.08-.69-3.3,0-4.01.39.94.62,3.34,0,4.01Zm1.34-1.59c-.25-1-.08-2.43-.58-3.18.15-.47.62-.61.83-1,.68,1.02.75,3.52-.25,4.18Zm1.75-2.09c-.34-.86-.25-2.14-.67-2.92.27-.15.42-.42.58-.67.5.65-.05,2.34.76,2.67-.14.39-.49.57-.67.92Zm1.34-1.51c-.32-.74-.67-2.5-.25-3.18.31.78-.23,2.4.83,2.42-.06.38-.45.44-.58.75Zm1-1.17c-.18-.01-.18-.21-.17-.42.17.06.34.25.17.42Zm-.17-.75c-.1-.61-.25-1.98.17-2.34.26.76-.05,1.68-.17,2.34Zm-5.76,1.09c-.53.55-.91,1.23-1.42,1.75-1.15,1.16-2.44,2.1-3.51,3.34-3.14,3.64-6.81,6.87-10.28,10.28-1.79-1.17-3.9-1.96-6.1-2.93-2.86-1.25-5.62-2.45-8.28-3.93-1.56-.87-3.24-1.43-4.85-2.17-1.58-.73-3.09-1.88-4.6-2.84-1.51-.96-3.13-1.81-4.68-2.67-3.15-1.75-6.23-3.67-9.45-5.27-3.28-1.62-6.53-3.25-9.61-5.1-1.52-.91-2.87-2.05-4.34-3.01-1.54-.99-3.3-1.5-4.77-2.59,3.42-3.18,6.85-6.35,10.53-9.28,1.09,2.01,1.07,6.19,1.25,9.19.04.6-.15,1.33,0,1.92.13.51,1.41,1.88,2.01,2.42,1.48,1.35,4.37,2.5,6.52,2.67,2.31.19,3.69-.21,5.1-.84-.19,1.74.72,2.67,1.67,3.84.66.82,1.3,1.43,2.09,2.01,1.57,1.15,3.67,2.3,5.35,2.84,2.89.93,7.17.54,9.78-.59.33,1.13-.41,2.2-.25,3.26.16,1.05,2.46,2.8,3.34,3.34,1.73,1.07,3.87,1.4,6.02,1.59,1.23.1,2.32-.1,3.34-.34,2.54-.57,4.29-1.12,6.36-2.26.52-.29,1.86-.99,2.01-1.25.43-.8.03-2.68-.08-3.43-.16-1.09-.45-2.03-.59-3.01,2.04,0,3.74-.22,5.18-1.17,1.14-.76,2.7-1.81,1.42-3.09-.14-1.55,0-3.39-.16-4.93,2.48,1.72,5.51,2.91,7.61,5.02-1.73,2.78-4.33,4.82-6.6,7.19Z"/></g></svg>