<?xml version="1.0" encoding="UTF-8"?><svg id="Layer_2" xmlns="http://www.w3.org/2000/svg" viewBox="0 0 85.24 59.57"><defs><style>.cls-1{fill:#fff;}.cls-2{fill:#d4ad4a;}.cls-3{fill:#a37e2d;}.cls-4{fill:#3a1312;}</style></defs><g id="Layer_15"><path class="cls-1" d="m60.08,34.91c.76.56,2.45,1.71,2.4,2.74-.09,1.62-3.17.31-4.14.08-1.33-.31-2.4-.57-3.57-.6,1.25,1.14,2.54,2.21,3.56,3.66.77.16,1.24.69,2,.86.29.06.61-.06.93.02.62.14,1.48.53,2.27.9.74.34,1.64.64,2.28.98.86.46,2.48,1.46,2.74,2.26.14.44-.02.93.05,1.35.51,3.06,2.22,4.81,4.68,5.84,2.5-.22,3.51-1.51,4.35-2.92.25-2.34-2.28-3.42-2.29-4.71-.02-1.27,1.41-.67,2.17-.69,1.32-.05,3.29-.46,4.02-1.33.7-.84,1.02-2.85.38-4.38-.22-.53-1.43-1.75-1.96-2.14-.42-.31-1.65-.89-2.18-.91-1.28-.06-2.43.59-3.96.65-.74.16-.67,1.69-1.56,1.87-.57.11-2.67-1.06-3.09-1.27-2.16-1.09-4.19-1.53-6.24-2.45-1.89-.84-3.15-2.12-5.55-1.8.56.79,1.67,1.26,2.7,2.01Zm14.65,15.73c.03.16.06.33.08.5-1.21.54-2.59.41-2.9-.63.8-.51,1.53.22,2.82.13Zm-.68-12.68c1.88-1.52,4.34-.61,5.52.62.11.78.84,1.96-.09,2.05-.67.06-.3-.71-.66-1.42-.54-1.06-2.76-1.64-3.85-.72-.22.23-.07.73-.55.77-.54-.13-.56-.81-.38-1.29Zm-5.84.02c1.01.46,1.92.9,2.8,1.07.11.01.15.13.27.13.04.2.08.4,0,.51-1.08.25-2.17-.21-3.06-.6-.91-.4-1.88-.85-2.61-1.44.46-.99,1.83,0,2.6.34Z"/><path class="cls-2" d="m27.51,7.11c-.89-.3-1.78-.61-2.67-.75-2.34-.38-4.82-.21-7.54-.04-2.8.18-5.03,1.14-6.73,2.37-1.98,1.44-3.51,3.37-4.72,5.34-.31.51-.75,1.05-.94,1.51-.4.96-.55,2.1-1.09,3.15-1.28,2.46-2.98,5.88-1.64,10.18.49,1.57,1.48,2.55,2.27,3.53,1.23,1.52,2.59,2.65,3.93,3.85,2.89,1.23,5.74,2.91,9.05,3.52.45.08.94.34,1.33.37.35.04.67-.11,1-.08,1.15.11,2.2.45,3.31.56,1.83.18,3.47.55,5.57.36,2.42-.22,4.92-.2,7.15-.32.59-.03,1.12-.23,1.65-.27.99-.07,1.85.02,2.69-.1,2.45-.36,4.79-.96,7.61-1.16.7-.05,1.46-.22,2.16-.27,2.19-.14,4.3,1.01,6.04,1.72-.52-.82-1.3-1.17-2.08-1.86-.54-.48-1.83-1.47-1.89-2.23-.11-1.48,2.34-1.16,3.73-1.03,1.06.1,2.03.42,2.72.57.06-.4-.52-.45-.88-.7-.36-.25-.72-.62-1.08-.92-.54-.45-2.08-1.21-2.17-1.85-.15-1.12,1.75-1.22,3.07-1.43,2.02-.33,3.77-.52,5.01-.99.05-.01.09-.03.07-.1-1.59-.5-2.97-1.32-4.47-1.98-1.44-.63-2.97-1.13-4.23-2.02-.77-1.46-2-2.23-3.11-3.47-1.69-1.89-3.16-3.79-5.03-5.36-.95-.8-1.78-1.73-2.69-2.44-1.7-1.35-3.94-2.83-6.13-3.82-1.13-.52-2.29-.94-3.38-1.48-1.11-.55-2.15-1.32-3.24-1.67-.81-.27-1.76-.37-2.65-.67Zm-11.46,1.96c.08-.02.05-.11.06-.18.26-.18.69-.21.92-.07.42.88-1.02,1.18-.98.24Zm-9.51,8.67c-.5-.76.44-1.51.75-2.16,1.04-1.36,2.13-2.9,3.56-4.14.72-.63,1.27-1.41,2.57-1.35.08.16.24.2.25.47-.09.33-.44.46-.94.49-2,1.62-3.97,3.53-5.17,5.67-.23.41-.21,1.21-1.02,1.01Zm18.81-7.23c.09.31-.1.42-.15.62-.93-.29-2.26-.04-3.12-.42.26-1.32,2.67-.63,3.27-.2ZM4.64,27.37c.19.08.34.51.21.73.21.5,1.62,1.87.68,2.09-.53.13-2.6-2.65-.89-2.82Zm3.99,5.19c-.97-1.44-1.9-2.91-2.69-4.56-.36-.74-1-1.82-.5-2.54.92.16.85,1.14,1.15,1.84.44,1.03,1.19,2.15,1.8,3.26.67,1.22,1.55,2.53,2.13,3.21.17.19-.04.66-.3.73-.55.15-1.23-1.41-1.59-1.94Zm3.51,1.29c-1.65-2.35-3.05-5.07-4.23-8.29-.11-.3-.78-1.51,0-1.61.54-.07,1.38,2.58,1.61,3.13.92,2.23,1.99,4.28,3.2,6.08.68,1.02,1.68,1.99,1.98,2.81-.42,1.38-2.04-1.4-2.55-2.12Zm5.23,2.45c-.41-.5-1.04-.9-1.51-1.45-1.74-2.04-3.23-5.2-4.46-8.08-.33-.78-1.43-2.13-.29-2.83.5.66.65,1.47.95,2.22.86,2.06,2,4.32,3.14,6.26.74,1.26,1.94,2.15,2.81,3.19.37.44,1.19,1.42.64,1.84-.74.05-.89-.66-1.29-1.14Zm2.75.74c-1.98-2.31-3.7-5.29-5.33-8.28-.27-.5-.54-1.06-.9-1.89-.1-.24-.95-1.79-.15-1.93.46-.08,1.19,2.06,1.55,2.71,1.92,3.51,3.89,7.23,6.24,9.66.14.15.5.46.05.84-.7.06-1.08-.68-1.45-1.12Zm2.23-1.38c-1.88-2.64-4.38-6.02-5.62-9.5-.12-.33-.13-.73-.26-1.06-.21-.52-.95-1.05-.35-1.64.85.04,1.07,1.01,1.27,1.57,1.28,3.6,3.1,6.54,5.08,9.34.82,1.15,1.91,2.32,2.49,3.32.14.29-.13.29-.18.45-1.08-.34-1.75-1.52-2.44-2.48Zm9.59,2.16c-1.77-1.84-3.55-3.71-5.04-5.95-.38-.57-.63-1.24-.98-1.87-.27-.48-1.03-1.11-.54-1.78.76-.04,1.07.87,1.32,1.31.32.58.54,1.27.89,1.8.66,1.02,1.55,1.89,2.33,2.84.79.97,1.55,1.88,2.39,2.74.92.94,1.84,1.75,2.88,2.58-.07.12-.03.32-.1.44-1.31-.03-2.28-1.22-3.14-2.11Zm12.12.05c-.8.08-1.55-.48-2.18-.91-2.19-1.51-4.26-3.53-6.24-5.5-.42-.43-1.18-.91-.95-1.63.68-.19,1.21.54,1.59.93,2.34,2.36,4.88,4.91,7.84,6.51.1.29.02.45-.07.6Zm2.56-.92c-1.07.03-2.02-.72-2.84-1.32-.86-.62-1.65-1.35-2.44-1.97-.8-.63-1.76-1.19-2.52-1.96-.72-.73-1.6-1.58-1.79-2.67.46-.47.99-.09,1.1.5,2.49,2.85,5.48,4.99,8.66,6.89.09.28,0,.44-.16.54Zm-5.01-7.82c.43-.1.68.58.8.72,1.13,1.39,3.15,3.32,4.64,4.58.63.53,2.32.95,1.59,1.94-.89-.25-1.61-.86-2.26-1.41-1.25-1.07-2.71-2.25-3.89-3.6-.23-.26-.53-.57-.85-1.05-.05-.08-.72-1.01-.02-1.18Zm8.82,6.27c.09.31.06.53-.06.69-1.38-.22-2.52-1.46-3.46-2.48-.47-.52-.99-1.07-1.45-1.63-.42-.51-1.14-1.15-.98-1.87.71-.25,1.18.6,1.52,1.02,1.29,1.59,2.68,3.24,4.42,4.27Zm1.21-9.18c1.44,1.09,3.19,1.87,5.35,2.17.24.07.24.42.19.65-1.37.3-2.91-.32-4.12-.85-.52-.23-1.16-.62-1.69-1-.46-.33-1.34-.81-1.01-1.53.52-.28.97.32,1.28.56Zm-18.94,3.86c.48.78,1.12,1.57,1.73,2.26,1.99,2.29,4.19,4.27,6.63,5.86.19.12.36.43.12.74-.72.2-1.33-.42-1.82-.8-2.57-2-5.57-4.58-7.47-7.85-.38-.66-1.58-2.11-.64-2.86.78.59.89,1.72,1.45,2.64Zm-3.08-1.19c1.94,4.03,5.84,7.13,8.52,10.13.18.2.36.48-.05.77-1.26-.37-2.05-1.6-2.96-2.57-1.77-1.9-3.64-3.72-5.22-6.01-.38-.55-.75-1.19-1.07-1.86-.26-.55-.85-1.34-.42-2.05.85.06.94,1.07,1.19,1.58Zm18.04-5.74c-.35.11-.54.01-.7-.14-.28-1.02,1.31-.62.7.14Zm-24.92,4.07c1.9,3.71,4.71,7.66,7.29,10.41.14.15.48.57.05.84-.94-.06-1.44-1.13-1.99-1.79-2.19-2.65-4.42-5.5-6.1-8.83-.29-.57-1-1.51-.34-2.06.65.15.83.95,1.08,1.43Zm-2.98-1.63c.54,1.17,1.49,2.52,2.35,4.02.75,1.32,1.49,2.8,2.35,4.02,1.08,1.51,2.35,2.94,3.29,4.04.05.06.08.05.11.15.11.36.24.47-.14.7-.44.26-1.7-1.6-2.01-1.96-2.41-2.76-4.2-6.05-6.14-9.59-.16-.3-1.52-2.3-.58-2.53.68-.17.54.63.78,1.14Zm17.02-13.54c1.48.71,2.92,1.66,4.25,2.69,1.92,1.49,3.83,2.88,5.03,4.85-.11.26-.07.38-.26.47-.57.24-2.14-1.95-2.49-2.3-2.06-2.01-4.28-3.6-6.8-4.82-.42-.2-1.13-.34-1.25-.9.27-.82,1.15-.18,1.52,0Zm-3.08-.18c-.56.14-.89-.04-.95-.61.1-.1.23-.18.29-.3.48-.02.95.45.66.91Zm-3.2-1.93c.03.07-.02.08-.07.09.06.17-.02.23-.03.34-.54.24-1.07-.16-1.58-.34-2.27-.78-5.41-1.4-8.41-1.17-.35.03-2.03.65-2.21-.06-.16-.64,1.15-.76,1.9-.82,2.74-.23,4.75.19,7.15.7,1.24.26,2.67.67,3.25,1.25Z"/><path class="cls-3" d="m48.09,36.6c1.78-.3,2.37-2.73,1.28-3.76-.21-.79-.78-1.48-1.72-1.65-5.13-.9-9.86-1.7-14.79-3.51-5.05-1.85-9.99-3.91-15.13-5.51-3.94-1.22-12.87-2.6-12.47,4.31.36,6.14,10.1,8.5,14.76,10.11,9.69,3.35,18.28,1.65,28.07,0Z"/><path class="cls-4" d="m81.31,34.15c.43.36,1.7.97,2.45,1.55.55.41,1.39,1.64,1.48.27-.6-.79-1.51-1.14-2.17-1.85-.7-.2-2.2-1.63-2.67-.24.13.32.46.37.89.28Z"/><path class="cls-4" d="m30.65,6.18c-.75-.26-1.6-.3-2.38-.54-1.87-.58-3.4-1.03-5.7-1.19-3.48-.23-8.26.03-11.25,1.67-1.57.86-3.35,2.25-4.55,3.79-1.15,1.48-2.47,3.02-3.3,4.69-.49,1-.73,2.21-1.25,3.25-1.49,3.02-3.13,6.63-1.67,11.54.55,1.87,1.7,3.07,2.64,4.23,1.32,1.63,2.88,2.81,4.31,4.12,2.89,1.24,6.08,3,9.58,3.69.44.09.91.32,1.33.38.4.06.84-.09,1.27-.04,1.09.12,2.22.51,3.4.63,1.17.12,2.42.44,3.54.44,1.03,0,2.1-.26,3.16-.35,1.95-.16,3.98.02,5.91-.12.55-.04,1.1-.23,1.65-.27.8-.06,1.59.09,2.38.04,3.32-.23,6.3-1.49,9.74-1.59,1.8-.05,4.12.78,5.49,1.47.63.32,1.23.48,1.73.73,1.02.52,2.72,2.09,3.26.23,2.38,1.04,5.01,1.74,6.91,3.44.17,2.48,1.1,4.58,2.43,6.04.93,1.03,2.53,2.08,3.74,2.18,2.61.22,4.82-1.59,5.7-2.96.9-1.41.44-4.05-.71-5.39,4.87-.03,6.77-3.73,5.63-7.53-.46-1.52-2.56-3.3-3.95-3.93-1.57-.7-2.32-.62-4.12-.34-1.91.3-2.93.54-4.02,1.84-3.03-1.7-7.14-2.42-9.84-4.24,1.13-.6,5.44-.78,5.04-2.35-.21-.81-1.17-.5-2.06-.68-2.87-.57-6.15-2.91-8.65-3.67-2.39-1.91-4.37-4.28-6.49-6.56-2.07-2.21-4.29-4.32-6.7-6.27-2.27-1.83-5.3-3.05-8.08-4.35-1.4-.66-2.73-1.54-4.15-2.03Zm32.28,28.52c2.06.92,4.08,1.36,6.24,2.45.42.21,2.52,1.39,3.09,1.27.89-.17.81-1.7,1.56-1.87,1.53-.05,2.68-.7,3.96-.65.53.03,1.76.61,2.18.91.53.39,1.74,1.61,1.96,2.14.64,1.53.32,3.54-.38,4.38-.72.87-2.69,1.29-4.02,1.33-.76.03-2.19-.57-2.17.69.02,1.28,2.55,2.36,2.29,4.71-.85,1.41-1.85,2.7-4.35,2.92-2.46-1.03-4.17-2.78-4.68-5.84-.07-.42.09-.91-.05-1.35-.26-.81-1.88-1.8-2.74-2.26-.64-.34-1.54-.64-2.28-.98-.79-.37-1.64-.76-2.27-.9-.32-.07-.65.05-.93-.02-.76-.17-1.23-.7-2-.86-1.03-1.44-2.32-2.52-3.56-3.66,1.18.03,2.24.29,3.57.6.97.23,4.04,1.54,4.14-.08.06-1.03-1.64-2.19-2.4-2.74-1.03-.76-2.14-1.22-2.7-2.01,2.39-.32,3.66.96,5.55,1.8Zm-26.16-23.76c2.19.99,4.43,2.47,6.13,3.82.9.72,1.74,1.65,2.69,2.44,1.87,1.57,3.34,3.47,5.03,5.36,1.11,1.24,2.34,2.01,3.11,3.47,1.26.89,2.78,1.39,4.23,2.02,1.51.66,2.88,1.48,4.47,1.98.03.07-.02.08-.07.1-1.24.47-2.98.66-5.01.99-1.32.22-3.22.31-3.07,1.43.09.64,1.62,1.4,2.17,1.85.36.3.73.67,1.08.92.36.25.94.3.88.7-.69-.15-1.66-.47-2.72-.57-1.39-.13-3.84-.45-3.73,1.03.06.77,1.35,1.75,1.89,2.23.78.69,1.57,1.04,2.08,1.86-1.74-.72-3.85-1.87-6.04-1.72-.7.05-1.45.22-2.16.27-2.82.2-5.15.8-7.61,1.16-.84.13-1.7.03-2.69.1-.53.04-1.06.24-1.65.27-2.23.12-4.73.1-7.15.32-2.09.19-3.74-.18-5.57-.36-1.1-.11-2.16-.45-3.31-.56-.33-.03-.65.12-1,.08-.39-.04-.88-.29-1.33-.37-3.31-.61-6.16-2.29-9.05-3.52-1.34-1.2-2.71-2.33-3.93-3.85-.78-.97-1.78-1.95-2.27-3.53-1.34-4.3.36-7.72,1.64-10.18.54-1.05.69-2.19,1.09-3.15.19-.46.63-1,.94-1.51,1.21-1.97,2.73-3.91,4.72-5.34,1.7-1.23,3.93-2.19,6.73-2.37,2.72-.17,5.21-.34,7.54.04.88.14,1.78.45,2.67.75.89.3,1.84.4,2.65.67,1.08.35,2.13,1.12,3.24,1.67,1.09.54,2.24.97,3.38,1.48Z"/><path class="cls-4" d="m74.43,39.26c.48-.04.33-.54.55-.77,1.09-.92,3.3-.34,3.85.72.36.71-.01,1.48.66,1.42.93-.09.2-1.26.09-2.05-1.18-1.23-3.64-2.15-5.52-.62-.18.48-.16,1.16.38,1.29Z"/><path class="cls-4" d="m78.36,56.57c0-1.49-1.31.15-1.73.28-2.11.71-4.72.54-6.29-.15-.71-.32-.8-.97-1.59-.93-.54.87.65,1.47,1.48,1.79.78.31,1.91.57,2.73.66,1.33.14,5.41-.51,5.41-1.65Z"/><path class="cls-4" d="m74.81,51.14c-.03-.17-.05-.33-.08-.5-1.29.09-2.02-.64-2.82-.13.3,1.04,1.68,1.16,2.9.63Z"/><path class="cls-4" d="m75.53,59.49c.67-1.19-1.75-.92-2.5-.78,0,.07.02.16-.06.18.29.98,1.56.6,2.55.6Z"/><path class="cls-4" d="m68.22,39.09c.89.39,1.98.85,3.06.6.08-.11.05-.31,0-.51-.12,0-.16-.11-.27-.13-.88-.16-1.79-.61-2.8-1.07-.76-.35-2.13-1.32-2.6-.34.73.59,1.69,1.04,2.61,1.44Z"/><path class="cls-4" d="m57.62,22.94c-.02,1.04.79,2.06,1.53,2.63.84.64,2.09.89,3.39,1.05,1.25.16,2.96.47,3.92-.39,0-.27-.17-.3-.25-.47-2.59.06-4.91.34-6.5-.88-.81-.63-.89-1.92-2.1-1.95Z"/><path class="cls-4" d="m61.08,24.41c.07.81,1.74.59,2.94.37,0-.2.26-.2.18-.45-.06-.15-.09-.35-.3-.29-.86.29-2.89-.51-2.82.37Z"/><path class="cls-4" d="m51.37,27.18c.52.38,1.16.76,1.69,1,1.21.53,2.75,1.15,4.12.85.05-.23.05-.57-.19-.65-2.17-.31-3.91-1.08-5.35-2.17-.31-.24-.76-.83-1.28-.56-.33.72.55,1.2,1.01,1.53Z"/><path class="cls-4" d="m53.87,44.06c.45.19.73.69,1.26.47.12-.15.15-.38.06-.68-1.02-.74-2.86-1.27-4.59-1.12-.6.05-1.5.05-1.84.64.18.76,1.15.28,1.65.24,1.14-.09,2.53.06,3.46.45Z"/><path class="cls-4" d="m44.48,30.09c-.16.72.56,1.36.98,1.87.46.56.99,1.11,1.45,1.63.93,1.02,2.07,2.26,3.46,2.48.12-.16.15-.38.06-.69-1.74-1.04-3.13-2.68-4.42-4.27-.35-.42-.81-1.27-1.52-1.02Z"/><path class="cls-4" d="m46.96,22.99c.16.15.36.25.7.14.61-.76-.98-1.16-.7-.14Z"/><path class="cls-4" d="m41.63,30.3c.32.47.62.79.85,1.05,1.18,1.35,2.64,2.53,3.89,3.6.65.55,1.38,1.16,2.26,1.41.73-.99-.96-1.42-1.59-1.94-1.49-1.25-3.52-3.19-4.64-4.58-.12-.14-.37-.82-.8-.72-.69.17-.03,1.11.02,1.18Z"/><path class="cls-4" d="m35.25,12.03c.12.56.83.7,1.25.9,2.52,1.22,4.74,2.81,6.8,4.82.36.35,1.93,2.54,2.49,2.3.19-.08.15-.21.26-.47-1.2-1.97-3.11-3.36-5.03-4.85-1.33-1.04-2.77-1.98-4.25-2.69-.37-.18-1.26-.83-1.52,0Z"/><path class="cls-4" d="m46.77,36.41c-3.18-1.89-6.17-4.04-8.66-6.89-.11-.59-.65-.97-1.1-.5.2,1.09,1.07,1.94,1.79,2.67.76.77,1.72,1.33,2.52,1.96.79.62,1.58,1.36,2.44,1.97.83.6,1.78,1.35,2.84,1.32.16-.1.26-.25.16-.54Z"/><path class="cls-4" d="m36.28,30.75c-.39-.39-.91-1.11-1.59-.93-.24.72.52,1.2.95,1.63,1.98,1.97,4.05,3.99,6.24,5.5.63.43,1.39.99,2.18.91.09-.16.17-.31.07-.6-2.96-1.6-5.5-4.15-7.84-6.51Z"/><path class="cls-4" d="m31.88,30.28c1.9,3.27,4.9,5.85,7.47,7.85.5.38,1.1,1,1.82.8.24-.31.06-.62-.12-.74-2.44-1.6-4.64-3.57-6.63-5.86-.6-.69-1.25-1.48-1.73-2.26-.56-.92-.67-2.06-1.45-2.64-.94.75.25,2.2.64,2.86Z"/><path class="cls-4" d="m33.72,4.74c-.05-.73-2.18-1.06-3.19-1.34-1.1-.31-2.08-.5-3.33-.72-2.46-.44-5.2-.93-7.16-.78-.44.03-1.82.08-1.57.77.18.49.9.14,1.38.12,2.41-.13,4.88.35,7.24.76,1.16.21,2.28.42,3.34.72,1.12.32,2.13.76,3.19.83-.03-.16.21-.14.11-.35Z"/><path class="cls-4" d="m33.7,11.86c.29-.46-.18-.93-.66-.91-.06.13-.19.2-.29.3.06.56.38.75.95.61Z"/><path class="cls-4" d="m28.85,29.34c.32.66.69,1.31,1.07,1.86,1.57,2.29,3.44,4.11,5.22,6.01.91.97,1.7,2.19,2.96,2.57.4-.29.22-.57.05-.77-2.67-2.99-6.58-6.09-8.52-10.13-.25-.52-.34-1.52-1.19-1.58-.44.71.15,1.5.42,2.05Z"/><path class="cls-4" d="m24.56.48c-.03.61.82.42,1.34.46,1.72.12,3.15.63,4.68.68.12-.16.15-.38.06-.69-.12,0-.16-.11-.28-.13-.83-.28-1.61-.32-2.97-.53-.52-.08-2.81-.67-2.84.21Z"/><path class="cls-4" d="m18.21,8.8c.18.71,1.87.09,2.21.06,2.99-.23,6.14.39,8.41,1.17.51.18,1.04.57,1.58.34,0-.12.09-.18.03-.34.05-.01.1-.03.07-.09-.58-.58-2.01-.99-3.25-1.25-2.39-.51-4.4-.92-7.15-.7-.75.06-2.06.18-1.9.82Z"/><path class="cls-4" d="m32.29,36.91c-.84-.86-1.6-1.77-2.39-2.74-.78-.95-1.66-1.82-2.33-2.84-.35-.53-.56-1.22-.89-1.8-.25-.44-.55-1.35-1.32-1.31-.49.66.28,1.3.54,1.78.35.64.61,1.3.98,1.87,1.49,2.25,3.27,4.11,5.04,5.95.86.9,1.83,2.08,3.14,2.11.06-.12.03-.32.1-.44-1.04-.83-1.96-1.65-2.88-2.58Z"/><path class="cls-4" d="m22,27.84c1.68,3.33,3.91,6.18,6.1,8.83.55.66,1.05,1.73,1.99,1.79.43-.27.09-.69-.05-.84-2.59-2.75-5.39-6.7-7.29-10.41-.25-.48-.43-1.28-1.08-1.43-.67.55.05,1.49.34,2.06Z"/><path class="cls-4" d="m25.2,11.13c.05-.2.24-.31.15-.62-.6-.43-3.01-1.12-3.27.2.86.38,2.19.13,3.12.42Z"/><path class="cls-4" d="m19.57,26.96c1.94,3.54,3.74,6.82,6.14,9.59.32.36,1.57,2.22,2.01,1.96.38-.23.25-.34.14-.7-.03-.11-.06-.1-.11-.15-.93-1.1-2.21-2.52-3.29-4.04-.86-1.22-1.6-2.7-2.35-4.02-.86-1.5-1.81-2.85-2.35-4.02-.24-.51-.1-1.31-.78-1.14-.94.23.42,2.23.58,2.53Z"/><path class="cls-4" d="m24.96,37.69c-.58-1-1.68-2.17-2.49-3.32-1.99-2.79-3.8-5.73-5.08-9.34-.2-.56-.42-1.53-1.27-1.57-.6.59.14,1.11.35,1.64.13.33.14.73.26,1.06,1.24,3.49,3.73,6.87,5.62,9.5.69.96,1.35,2.14,2.44,2.48.05-.16.32-.16.18-.45Z"/><path class="cls-4" d="m24.76,45.26c-.03-.19.1-.26,0-.51-.07-.11-.16-.18-.29-.21-5.56-.38-11.15-1.19-15.36-3.25-.57-.28-1.19-.86-1.89-.7-.27.83.76,1.24,1.26,1.49,3.38,1.66,7.22,2.39,11.23,2.91,1.67.22,3.39.65,5.04.28Z"/><path class="cls-4" d="m17.03,8.83c-.23-.15-.66-.11-.92.07,0,.07.02.16-.06.18-.04.93,1.4.64.98-.24Z"/><path class="cls-4" d="m21.51,37.32c-2.35-2.43-4.32-6.14-6.24-9.66-.35-.65-1.09-2.79-1.55-2.71-.8.14.04,1.69.15,1.93.36.83.63,1.39.9,1.89,1.64,2.98,3.36,5.97,5.33,8.28.38.44.75,1.18,1.45,1.12.45-.37.09-.69-.05-.84Z"/><path class="cls-4" d="m18.02,35.6c-.86-1.03-2.07-1.93-2.81-3.19-1.15-1.95-2.28-4.2-3.14-6.26-.31-.74-.46-1.56-.95-2.22-1.13.71-.03,2.06.29,2.83,1.23,2.89,2.71,6.04,4.46,8.08.47.55,1.1.95,1.51,1.45.4.49.55,1.2,1.29,1.14.55-.43-.27-1.4-.64-1.84Z"/><path class="cls-4" d="m7.56,16.73c1.2-2.14,3.18-4.05,5.17-5.67.49-.03.85-.17.94-.49,0-.27-.17-.3-.25-.47-1.3-.06-1.85.73-2.57,1.35-1.43,1.24-2.52,2.77-3.56,4.14-.31.64-1.25,1.39-.75,2.16.82.19.79-.6,1.02-1.01Z"/><path class="cls-4" d="m14.38,46.02c1.09.14,2.35.26,3.31.05.08-.28-.03-.47-.19-.65-.93-.13-1.95-.24-2.94-.37-1.01-.12-2.1-.47-2.83-.21.24,1.07,1.7,1.06,2.65,1.18Z"/><path class="cls-4" d="m14.69,35.97c-.3-.82-1.3-1.78-1.98-2.81-1.21-1.8-2.27-3.86-3.2-6.08-.23-.55-1.08-3.19-1.61-3.13-.77.09-.1,1.31,0,1.61,1.19,3.22,2.58,5.94,4.23,8.29.51.72,2.12,3.5,2.55,2.12Z"/><path class="cls-4" d="m10.51,33.78c-.59-.67-1.46-1.99-2.13-3.21-.61-1.12-1.36-2.24-1.8-3.26-.3-.7-.23-1.69-1.15-1.84-.5.72.14,1.8.5,2.54.8,1.65,1.73,3.12,2.69,4.56.35.53,1.04,2.09,1.59,1.94.27-.07.47-.54.3-.73Z"/><path class="cls-4" d="m1.02,17.12c.43-.92.3-1.95.63-2.9.62-1.81,1.35-3.39,2.64-4.58-.02-.34-.25-.4-.42-.52-1.77,1.01-2.46,3.08-3.08,4.99-.29.9-.93,2.63.24,3.01Z"/><path class="cls-4" d="m4.84,28.1c.14-.22-.02-.65-.21-.73-1.71.17.36,2.95.89,2.82.94-.23-.47-1.59-.68-2.09Z"/></g></svg>