<?xml version="1.0" encoding="UTF-8"?><svg id="Layer_2" xmlns="http://www.w3.org/2000/svg" viewBox="0 0 64.99 70.37"><defs><style>.cls-1{fill:#f26b5b;}.cls-2{fill:#fff;}.cls-3{fill:#ffd15b;}.cls-4{fill:#dfa826;}.cls-5{fill:#93c83e;}.cls-6{fill:#3a1312;}</style></defs><g id="Layer_15"><path class="cls-5" d="m16.71,21.23c.38-.86,1.1-.48,1.65-.7-.34-.74-.26-1.6.21-2.57-.98-.29-2.15-.91-2.96-.04.31,2.33-2.03,1.17-2.62,2.07-.34.52-.1,1.33.39,1.86,1.06-.37,2.08-.91,3.33-.62Z"/><path class="cls-2" d="m21.87,18.4c.12-.37.36-.34.52-.57-.26-.29-1.07-.82-1.42-.71-.02.92-.82,1.27-1.08,2.08-.15.45.25,1.04.18,1.54-.13.95-.69,1.26-1.63,1.68.41.99.85,1.97,1.54,2.89,1.42-.33,2.47-1.99,3.81-2.65-1.17-1.27-1.95-2.65-1.91-4.25Z"/><path class="cls-1" d="m14.52,25.09c-.4.42-.9.09-1.61.14-.58.84.1,1.54,1,1.63,1.17-1.39,2.88-.84,4.39-.97-.54-.81-.91-1.67-1.36-2.5-.76-.22-1.6-.95-2.13-.15-.31.47.28,1.27-.29,1.85Z"/><path class="cls-5" d="m48.11,22.12c-.02-.3.26-.69.27-1-1.05-.3-2.18-.52-1.59-1.77-.9-.81-1.83.24-2.59-.51-.42-.41-.16-1.38-.86-1.54-.84-.2-1.39,1.88-2.55.77-.37-.36-.02-1.13-.48-1.53-.66,1.3-1.4,2.33-2.63,1.59-.24,1.26-1.4,1.88-2.47,1.48-.23,1-.36,1.98.27,2.75,1.77-.61,3.6-1.04,5.56-.98-.33-.77-1.05-1.43-.78-2.36.1-.08.21-.11.34-.1,1.08.99,1.02,2.62,2.34,3.34-.35-.82-.93-1.58-.99-2.48,1.38-.7,1.21,2.27,2.43,2.82.11.15-.15.41.09.53.19.02.37.01.56.03.01-1.05-1.53-1.66-.97-2.86.13.02.24,0,.37.02.7.83,1.15,1.72,1.59,2.63.69-.29,1.43-.45,2.1-.83Z"/><path class="cls-5" d="m20.75,15.46c1.08-.38,2.75.87,3.43,1.75,1.17-.95,1.76-2.23,2.56-3.84-.97.09-1.02-.88-1.35-1.34-.44,1.16-1.33,2.68-2.61,1.21-.62.79-1.56,1.59-2.03,2.22Z"/><path class="cls-3" d="m32.87,16.27c-.37-.45-.5-.97-.71-1.46-.31.21-.62.42-.93.63.54.24,1.16.78,1.64.83Z"/><path class="cls-3" d="m27.27,13.1c.7.02,1.56.61,2.32.83-.1-.89-1.39-1.08-2.04-1.82-.2.36-.3.69-.28.99Z"/><path class="cls-1" d="m26.96,21.28c-.47-.36-.96-.72-.72-1.28.13-.06.13-.28.3-.22.57.26,1.18,1.27,1.32,1.03.04-.07.08-.15.12-.22-.75-.75-1.28-1.08-1.12-1.88.22-.23.61-.19.79.06.08-.37.31-.61.68-.48.35.15.19.45.43.63.43-1.08.87-2.16,1.38-3.26-.69.1-1.52-.33-2.32-.64-.8,1.96-2.53,3.84-4.15,4.28.37.88.83,1.73,1.67,2.48.55-.03,1.37-.18,1.64-.51Z"/><path class="cls-1" d="m52.58,19.65c-.8.8-1.56,1.75-2.53,1.93.16.08-.11.28-.13.41,2.51.08,5.41,4,7.85,2.43-.68-.44-.62-1.45.13-1.75-.23-.63-.79-.74-1.52-1.05-1.71,1.49-1.99-1.33-3.79-1.96Z"/><path class="cls-1" d="m33.73,22.9c-.61-1.22-.41-2.66-.16-4.12-.68-.49-1.46-.95-2.29-1.39-.73,1.35-1.22,3.16-1.89,4.69,1.66,1.03,3.11,1.36,4.34.82Z"/><path class="cls-1" d="m36.18,16.71c.25-.94,1.47-1.1,2.19-.3.47-1.04,1.1-1.5,1.78-1.78-.48-.79-.53-1.69-.19-2.71-.53-.22-.68-.81-1.27-.81-.47,1.26-1.41,2.32-2.58,2.19-.46,1.22-1.36.86-2.17.79-.21,1.14.84,1.93,2.26,2.63Z"/><path class="cls-5" d="m38.47,9.45c.6-.31,1.84.46,2.31,1.01.76-.11,1.37.61,2.14.64-.12-.61.03-1.72.68-2.21.39-.29.69.03,1.02-.28-1.2-.34-2.38.45-3.24-1.06-.41.55-.91.96-1.49.59-.43-.26-.27-.93-.65-1.23-.83-.64-1.79.23-2.57,1.14.68.44,1.76.78,1.8,1.4Z"/><path class="cls-1" d="m56.37,17.87c.12-.6.6-1.73.04-2.28-.16-.16-.66-.26-.84-.38-1.12-.73-2.26-1.78-3.27-2.72-.51.6-.69,1.87-1.21,2.48,1.23,1.08,4.85,1.99,2.89,3.56.88.41,1.24.97,1.76,1.48.62-.43.47-1.3.63-2.14Z"/><path class="cls-3" d="m11.99,64.49c1.6-.54,3.13-1.46,4.48-2.65,1.54-1.35,2.86-2.94,4.19-4.35,1.4-1.48,2.71-2.94,4.23-4.24,2.91-2.49,5.84-4.57,8.96-6.83,2.34-1.69,4.46-3.47,6.73-4.93.76-.49,1.64-.75,2.42-1.22,1.54-.94,2.99-2.13,4.54-3.1.76-.47,1.54-.9,2.32-1.38.78-.48,1.7-.83,2.39-1.34.59-.44,1.18-1.05,1.84-1.55,2.07-1.57,4.56-4.35,5.08-7.11-1.2.43-2.09.94-3.29.73-2.2-.39-4.27-2.77-6.48-2.81-1.71-.03-3.57,1.59-5.56.98-1.19-.36-2.01-1.33-3.21-1.62-.88-.22-2.44.18-3.54.49-1.83.51-3.6,1.45-5.16,1.3-1.46-.13-2.79-1.44-4.29-1.76-.85-.17-2.69.65-3.82,1.49-.55.41-.98.99-1.46,1.38-1.01.83-3.06,1.65-4.13,1.7-.62.03-1.64-.31-2.32-.16-.98.23-2.29,1.81-3.08,3.06-.76,1.21-1.09,2.79-2.22,3.74-.95.81-2.59.8-3.5,1.76-.51.54-1.08,1.74-1.11,1.97-.27,1.9.49,3.1-.24,4.67-.26.55-.65,1.1-1.05,1.52-.31.32-.99.53-1.29,1.09-.73,1.38.5,3.33.93,4.47.58,1.56.72,3.22-.77,4.75.21,2.47,3.66,3.51,3.92,5.97.1.93-.38,1.89.04,2.81.28.61,1.86,1.8,2.71,1.82.32.01,1.25-.5,1.72-.66Zm1.97-1.96c-.7-.32-1.47-2.38-.25-2.44.29.74.72,1.44.51,2.31-.1.01-.18.07-.27.14Zm1.43-2.36c.16.5.69,1.29.06,1.76-1.06-.66-.95-2.14-1.37-3.18.1-.28.29-.25.46-.31.61.34.67,1.18.84,1.73Zm1.81.54c-.74.21-.71-.66-.87-1.17-.22-.66-.62-1.24-.65-1.91.14-.32.37-.29.58-.34.56,1.07,1.26,2.11.94,3.42Zm-4.83-10.81c.41,1.5.89,3.53,1.28,4.86.18.6.77,1.4.2,1.85-.84-.15-.86-1.13-1.03-1.74-.54-1.95-1.14-4.27-1.66-6.22.85-1.11,1.02.57,1.21,1.26Zm.84-1.15c.06-.1.13-.2.05-.26.02-.07.07-.05.11-.03.08-.32.28-.15.43-.24.58.84.7,1.98,1.01,2.97.29.92.89,2.02.44,2.94-.96-.31-.97-1.65-1.25-2.53-.31-.97-.56-1.98-.79-2.85Zm5.3,10.31c-.08,0-.17-.01-.23.07-.93-.73-.72-1.76-1.21-2.61.13-.34.33-.43.55-.46.63.87,1.24,2.06.89,3Zm1.3-1.28c-.7-.09-.6-.99-.74-1.57-.17-.7-.55-1.31-.61-1.98.12-.31.32-.34.51-.38.59.42.66,1.29.84,1.91.17.59.66,1.44,0,2.02Zm1.46-1.38c-.16-.06-.25.11-.41.05-.48-.41-.4-1.49-.7-2.32-.19-.53-.88-1.21-.03-1.65.67.44.77,1.28.95,1.89.18.59.59,1.32.19,2.03Zm1.14-3.2c.17.62.68,1.45.08,2.06-.7.06-.65-1.01-.84-1.73-.23-.82-1.05-2.22.01-2.39.54.5.57,1.38.75,2.06Zm1.73-.17c-.77.11-1.25-1.65-1.41-2.43-.08-.37-.2-1.13.47-1.18.54.17.33.72.43,1.11.19.76.89,1.58.51,2.5Zm7.84-15.54c.05,1.21.22,2.46.08,3.6-.13-.02-.24.01-.34.09-.79-.82-.53-2.12-.58-3.21-.06-1.19-.24-2.35-.34-3.47.13-.05.22-.23.35-.28.9.59.8,2.19.84,3.26Zm.73-3.14c.72.46.62,1.58.66,2.39.04.73.22,2.04-.79,2.24-.45-.32-.12-.81-.09-1.2.09-.99-.09-2.02-.26-2.93.12-.3.29-.45.48-.5Zm-6.2,3.98c.07.7.19,1.52.26,2.26.06.62.55,1.61-.25,1.97-.67-.42-.54-1.34-.61-1.98-.23-2.07-.38-4.3-.26-6.49.15-.35.41-.3.65-.3.53,1.37.06,3,.21,4.54Zm-1.95-3.51c.16,1.78.33,4.13.49,5.75.07.71.66,1.75-.18,2.01-.97-1.23-.75-2.93-.86-4.42-.11-1.59-.26-3.25-.46-4.78,1.06-1.34.95.72,1.01,1.44Zm-1.69,1.63c.25,1.92.33,3.84.52,5.87.08.89.61,2.07-.14,2.8-.08-.06-.14-.06-.19,0-.52-.72-.42-1.75-.5-2.69-.2-2.52-.73-5.73-.89-8.09-.01-.2-.02-.75.49-.68.58.72.59,1.88.72,2.81Zm-3.58,7.68c.14,1.05.59,2.34.01,3.37-.7-.06-.57-.92-.64-1.42-.21-1.54-.56-3.48-.71-5.02.16-.15.33-.28.54-.27.58.96.65,2.19.8,3.34Zm-1.99.12c.08.61.18,1.27.28,1.89.1.6.41,1.27.09,1.88-.85.14-.86-.87-.94-1.4-.27-1.79-.51-3.85-.87-5.59.13-.41.39-.37.62-.42.58,1.11.67,2.41.82,3.64Zm8.36,7.62c-1.14-.77-.84-2.46-1.31-3.63.09-.25.26-.23.39-.35.74.36.75,1.33.91,1.96.14.57.62,1.49,0,2.02Zm1.48-1.08c-1.32-.75-.59-2.57-1.38-3.67.13-.41.39-.37.62-.42.69.44.55,1.36.68,2.02.13.64.68,1.48.08,2.07Zm1.3-1.28c-.88-.07-.56-1.12-.66-1.72-.11-.73-.45-1.46-.53-2.12.85-.95,1.19.89,1.33,1.71.14.84.28,1.76-.15,2.13Zm1.07-1.03c-.08-.06-.14-.05-.19,0-.6-.34-.36-1.2-.39-1.85-.04-.81-.61-1.7-.03-2.33.08.06.14.06.19.01.67.42.63,1.37.68,2.02.05.65.27,1.6-.26,2.16Zm1.55-1.04c-.62.02-.56-1.02-.65-1.9-.09-.92-.49-2,.35-2.31.64.43.46,1.43.52,2.13.06.66.45,1.65-.22,2.08Zm1.66-1.07c-.59-.11-.5-1-.59-1.68-.12-.9-.68-2.42.47-2.52.29.59.32,1.42.41,2.16.08.62.39,1.62-.3,2.04Zm1.71-1.15c-.59-.28-.48-1.09-.55-1.57-.1-.67-.13-1.31-.35-1.92.12-.3.28-.45.47-.5.62.37.7,1.33.8,1.99.09.58.35,1.62-.37,2Zm1.4-.94c-.5-.49-.31-1.26-.39-1.85-.09-.73-.27-1.43-.53-2.12.14-.38.38-.42.62-.42.45.51.7,1.51.82,2.29.1.69.36,1.91-.52,2.11Zm.83-5.2c.11-.28.29-.3.43-.42,1.42,1,.99,2.5.96,3.9-1.43.37-.37-2.64-1.39-3.48Zm2.43,2.15c-.99-.91,0-2.37-.91-3.3.1-.29.27-.36.44-.43.08.06.14.06.19,0,.87.96,1.13,2.7.29,3.72Zm1.65-.7c-1.01-1.01-.36-2.62-.81-3.83,1.14-1.14.99.96,1.07,1.85.07.89.46,1.85-.25,1.97Zm1.46-.71c-.08-.06-.14-.06-.19-.01-.64-.5-.29-1.39-.38-2.04-.1-.67-.31-1.22-.5-1.82.12-.3.28-.45.48-.5.61.45.83,1.39.94,2.07.11.68.19,1.68-.34,2.31Zm2.07-1.62c-.64-.17-.45-1.03-.55-1.75-.11-.82-.82-2.01.3-2.23.41,1.16,1.18,2.85.24,3.98Zm1.98-1.47c-.13.02-.26.11-.38.17-.59-.12-.45-.89-.48-1.52-.04-.84-.6-1.97.27-2.34.88.96.55,2.43.59,3.7Zm1.22-.46c-.08-.06-.14-.06-.19,0-.86-.97-.09-2.39-.87-3.38.14-.32.37-.29.58-.34.58.41.7,1.23.76,1.87.06.61.24,1.47-.28,1.86Zm1.49-1.27c-1.03-.82-.66-2.03-1.08-3.01.06-.24.21-.13.28-.32.08.06.14.06.19,0,.63.29.63,1.12.77,1.69.12.48.51,1.35-.16,1.64Zm1.57-.56c-.1.03-.23-.07-.3.02-.8-.96-.31-2.29-1.03-3.27.13-.41.39-.37.62-.42.78,1.04,1.12,2.5.71,3.67Zm1.04-1.33c-.83-.57-.19-1.54-.56-2.24.15-.2.33-.29.54-.27.61.61.86,1.9.02,2.51ZM8.63,62.11c-.07-.75.57-1.61.73-2.47.19-1.03-.54-2.05-1.29-2.65-.42-.34-.97-.49-1.3-.93-.41-.53-.74-1.73-.56-2.24.27-.76,1.41-1.28,1.72-2.19.51-1.5-1.96-2.89-2.05-4.52-.02-.4.18-1.46.47-1.85.55-.74,1.72-.62,2.21-1.34,1.18-1.75-.69-3.57.06-5.54.48-1.25,1.58-2.13,3.45-1.51.49-.26,1.04-.29,1.38-.75.5-.68.35-2.21,1-3.28,1.76-2.9,5.61-.12,7.82-2.1,1.02-.91,1.91-3.52,3.2-3.95.6-.2,1.76-.18,2.32-.03,1.32.36,1.91,1.57,3.19,2,.76.25,2.45-.36,3.12-.92.8-.68,1.21-1.57,1.94-2.07.38-.26,1.1-.63,1.61-.63,1.77.01,2.41,2.41,4.33,3.03,2.11.68,3.75-2.47,5.41-2.6,1.81-.15,2.4,2.12,4.13,2.72.79.27,1.3-.37,1.98.07.02,1.04-1.25.86-1.88.95-.79-.55-1.44-.68-2.04-1.15-.74-.59-.8-1.49-1.86-1.63-1.28-.17-2.38,1.88-3.76,2.39-.73.27-1.19.1-2.03.2-1.94-.43-2.26-2.37-3.82-2.93-1.33-.48-2.25,1.2-3.37,2.22-.99.9-2.99,1.68-4.22,1.17-.9-.37-1.46-1.4-2.79-1.87-.4-.14-1.91-.19-2.4.17-1.23.92-1.41,2.63-2.51,3.58-.73.63-1.92,1.09-2.94,1.12-1.56.05-3.41-.97-4.52.52-.82,1.1-.39,2.68-1.4,3.82-.9,1.03-2.4.63-3.82.81-2.24,2.47,1.45,5.12-1.51,7.41-.33.25-1.21.25-1.57.74-1.15,1.53,1.24,3.12,1.72,4.43.33.92.01,1.99-.79,2.92-.18.21-.68.41-.83.78-.59,1.42,1.86,2.38,2.58,3.58.49.82.43,1.39.52,2.31-.41.79-.68,1.3-.7,1.91-.02.57.61.98.25,1.59-.93.02-1.17-.84-1.21-1.26Z"/><path class="cls-2" d="m46.18,17.38c1.91.12,2.07,1.84,3.49,2.65.89-.63,1.67-1.63,2.52-2.41-1.57-.78-2.65-1.68-3.72-2.59-.8.65-1.52,1.62-2.29,2.35Z"/><path class="cls-2" d="m31.34,13.39c.23-.1.74,0,.88.31.19-1.29,1.4-1.79,2.46-1.3.48-.91,1.3-.64,1.92-1.02.24-.41.18-.74.47-1.17-1.39-.68-2.34-1.48-3.1-2.33-1.24,1.36-2.44,2.86-3.73,4.04.73.39.79.97,1.08,1.48Z"/><path class="cls-3" d="m59.47,21.73c-.23-.37.07-.84.4-1.22-.47-1.75-.33-4-1.71-5.29.57,1.48-.27,3.35-.45,5.03.99.29,1.44,1.07,1.76,1.48Z"/><path class="cls-5" d="m12.45,28.24c-.43-.17-.5-.43-.91-.61-.2.91-1.2.62-1.96.23-.39.31-.65,1.06-.98,1.56.36.75.69,1.49.04,2.13-.41.39-.88.14-1.34.49-.04.56-.12,1.14.37,1.55,2.31.33,3.15-3.46,4.77-5.37Z"/><path class="cls-3" d="m6.99,28.7c.66-1.71,2.04-3,3.31-2.45.19-.37.49-.3.71-.56-.07-.81.59-1.86,1.31-2.14-.89-1.21-1.83-3.25-.49-4.89.55-.67,1.27-.56,2.03-.87.57-2.09,2.68-2.24,4.33-1.87.01-1.1,1.01-1.39,1.52-1.83,1.13-.98,2.01-2.65,3.23-2.98.25.02.51.05.81.27.59-.84,1.28-1.27,2.12-1.2,0-.59-.61-1.21-.06-1.76.13.03.24,0,.37.02.55.56.33,1.33.72,1.95.26.04.45-.15.75.04.02-.96-.62-1.75-.45-2.76.17,0,.27-.2.45-.13.74.76.57,1.76.91,2.63.07.22-.13.28-.25.44.32.12.72.53.99.46.12-.4-.12-.71-.4-.99-.2-.59-.51-3.05.44-2.63.78.35-.15,1.87.55,2.42,1.38-.86.14-1.97.72-3.15.11.04.19-.05.3-.02.8.33.17,1.06.6,1.49.97-1.51,2.73-3.4,3.92-1.33,1.3-1.55,3.34-2.67,5.11-1.04.75-.21,1.87.2,2.53.95,1.22-.46,3.26.6,3.53,1.9.68-.51,2.18.09,2.53.96.8-.19,1.45-.27,2.2.19.27.17.4.53.68.67.29.15.73,0,1.04.2.34.21.45.72.77,1.01,1.04.96,2.85,2.26,3.84,2.37-.72-.98-1.23-2.18-2.56-2.61-.3-.1-.6.02-.89-.12-.76-.36-1.11-1.26-1.82-1.71-.45-.28-1.06-.35-1.5-.57-2.77-1.35-3.03-2.97-5.62-4.33-4.06,1.31-8.52-2.12-12.47-.72-1.2.42-2.21,1.24-3.34,1.66-1.13.42-2.47.79-3.61.93-1.07.14-2.2-.06-3.16.32-2.02.81-3.8,4.08-5.54,5.7-.82.76-1.67,1.39-2.57,1.82-.9.42-1.97.62-2.75,1.13-.93.61-2.04,2.61-2.4,3.73-.39,1.23-.08,2.42-.56,3.53-.4.93-1.2,1.43-1.72,2.2-1.08,1.57-.96,3.36-.76,4.57.03.19.05.76.38.69.37-.29-.03-.91.23-1.6Z"/><path class="cls-5" d="m41.6,12.57c-.63,1.27.88,1.96.62,3.14.71-.18,1.76-.27,2.55.58.3-.24.6-.49.87-.85-.43-1-.42-2.13-.01-3.37,1.39.09.21,1.88.72,2.62,1.02-.67.05-1.47.69-2.4.19.02.34-.1.56.03.18.29.12.66.1,1.01.59-.12,1.45-.27,2.11.52.14-.71.79-1.57.9-2.27-.81-.94-1.66.41-2.47-.06-.53-.3-.37-.9-.87-1.35-.84.42-1.54,1.38-2.76.46-.1.78.28,1.43-.38,2.37-.77.55-1.77-.18-2.64-.43Z"/><path class="cls-4" d="m47.7,31.1c-4.64,2.34-9.42,4.59-13.58,7.76-4.53,3.45-8.22,7.96-12.25,11.97-2.88,2.88-4.86,7.06-7.97,9.58-1,.81-.01,2.2,1.07,2.05,2.41-.34,3.92-2.69,5.27-4.49,3.29-4.37,7.83-7.74,11.61-11.69,6.98-7.28,17.02-9.57,24.54-15.99.45-.38.4-1.22-.13-1.51-2.85-1.54-5.97,1.02-8.57,2.33Z"/><path class="cls-4" d="m36.25,31.78c-1.53.35-2.53.41-3.45.85-.02-.03-.05-.06-.07-.08-.91-1-2.26-.83-3.07-.04-.3-.28-.61-.55-.99-.81-1.14-.77-2.83-.15-3.21,1.16-.24.79-.32,1.59-.36,2.39-.31-.33-.64-.65-1.03-.94-1.11-.82-2.62-.06-3.05,1.1-.13.34-.21.66-.28.99-.94-.63-2.37-.15-2.72.97-.46,1.49-.65,2.98-.71,4.47-.6-.84-1.35-1.58-2.39-2.12-.77-.4-1.84-.33-2.31.51-2.24,3.99-.3,7.98-.98,12.21-.17,1.02,1.45,1.52,1.92.61,1.47-2.85.47-6.12,1.14-9.08,1.3,1.82,1.7,4.49,2.84,6.32.89,1.43,3.21,1.09,3.31-.73.1-1.85-.03-3.68-.05-5.51.16.35.33.69.52,1.01,1,1.67,3.68,1.23,3.79-.84.03-.52,0-1.04-.07-1.57.96.75,2.48.84,3.13-.42.6-1.16.78-2.29.87-3.44.11.17.22.33.34.49,1.16,1.6,3.63.34,3.74-1.36,0-.08,0-.17,0-.26.5-.15.96-.45,1.3-.89.58-.77,1.83-.55,2.76-.86,2.53-.85,1.8-4.76-.91-4.14Z"/><path class="cls-4" d="m30.54,7.45c-.62.3-1.12.76-1.78,1-.76.27-1.58.49-2.36.67-.57.13-.63.98-.06,1.15,1.75.54,4.75.27,5.59-1.65.37-.84-.69-1.51-1.39-1.17Z"/><path class="cls-6" d="m12.43,66.09c.83-.29,1.46-.41,2.06-.76,3.28-1.88,6.51-5.6,9.29-8.76,1.34-1.52,3.07-2.83,4.71-4.06,1.7-1.28,3.28-2.69,4.84-3.79,1.6-1.13,3.35-2.15,4.9-3.38,1.62-1.28,3.28-2.37,4.97-3.34,1.71-.98,3.33-2.17,5-3.22,1.7-1.08,3.6-1.89,5.06-3,.68-.52,1.31-1.18,2.04-1.73.72-.55,1.53-1.03,2.11-1.69,2.05-2.31,3.01-5.43,3.58-7.67.26-1.04.51-2.12.57-3.04.11-1.69-.35-4.47-.94-5.81-.59-1.35-2.35-4.62-3.91-5.48-.61-.33-.98-.1-1.51-.38-.75-.38-1.14-1.25-1.89-1.74-.93-.61-2.18-.8-3.11-1.47-1.56-1.12-2.18-3.19-4.56-3.64-1.03-.2-1.72.38-2.86.3-2.63-.2-4.92-1.55-7.37-1.58-2.25-.03-4.23,1.23-6.25,2.03-1.03.41-2.2.88-3.27,1.03-1.41.2-2.64-.04-3.8.44-2.78,1.14-4.71,5.66-7.88,7.45-1.17.67-2.64.84-3.65,1.68-.78.66-1.93,2.4-2.56,3.84-.55,1.25-.27,3.11-.77,4.08-.38.73-1.07,1.14-1.48,1.76-1.33,1.99-1.24,3.59-1.06,5.26.21,2.01.71,3.49,1.45,5.24-2.97,2.53-1.02,5.45-1.92,7.46-.52,1.15-1.69,1.39-2.22,2.39-.66,1.24-.41,2.97-.13,3.96.4,1.43,1.67,2.81,1.13,4.1-.27.65-.92.97-1.09,1.59-.25.89.46,2.31,1.14,3.24.72.99,2.21,1.79,2.62,2.83.3.77-.11,2.66.16,3.45.52,1.54,3.02,3.22,4.62,3.2.55,0,1.33-.57,1.99-.8ZM57.89,22.66c-.75.3-.81,1.32-.13,1.75-2.44,1.57-5.33-2.35-7.85-2.43.02-.13.3-.33.13-.41.97-.17,1.74-1.12,2.53-1.93,1.81.62,2.09,3.45,3.79,1.96.73.31,1.28.42,1.52,1.05Zm-13.84-2.37c-.56,1.2.99,1.81.97,2.86-.19-.02-.37-.01-.56-.03-.24-.12.02-.37-.09-.53-1.22-.56-1.05-3.53-2.43-2.82.06.9.64,1.66.99,2.48-1.32-.72-1.25-2.35-2.34-3.34-.13-.01-.24.02-.34.1-.27.93.45,1.59.78,2.36-1.96-.06-3.78.38-5.56.98-.63-.77-.5-1.74-.27-2.75,1.07.4,2.23-.23,2.47-1.48,1.23.75,1.97-.29,2.63-1.59.47.39.11,1.17.48,1.53,1.16,1.12,1.71-.97,2.55-.77.7.16.43,1.13.86,1.54.76.75,1.7-.3,2.59.51-.59,1.25.54,1.47,1.59,1.77-.02.31-.3.69-.27,1-.67.38-1.41.54-2.1.83-.43-.91-.89-1.8-1.59-2.63-.13-.02-.24,0-.37-.02Zm-27.11,3.08c.46.83.83,1.69,1.36,2.5-1.52.13-3.22-.41-4.39.97-.89-.08-1.58-.79-1-1.63.72-.05,1.21.28,1.61-.14.56-.59-.02-1.38.29-1.85.52-.81,1.37-.08,2.13.15Zm-3.55-1.53c-.49-.53-.73-1.33-.39-1.86.59-.9,2.93.25,2.62-2.07.81-.87,1.98-.25,2.96.04-.47.97-.55,1.83-.21,2.57-.55.22-1.27-.16-1.65.7-1.25-.29-2.26.24-3.33.62Zm5.06.56c.94-.42,1.5-.72,1.63-1.68.07-.51-.33-1.09-.18-1.54.26-.81,1.06-1.16,1.08-2.08.35-.11,1.16.42,1.42.71-.16.23-.4.2-.52.57-.04,1.6.75,2.98,1.91,4.25-1.33.66-2.38,2.32-3.81,2.65-.68-.91-1.12-1.9-1.54-2.89Zm5.22-3.1c1.62-.43,3.35-2.32,4.16-4.27.8.32,1.64.75,2.32.64-.51,1.1-.94,2.18-1.37,3.26-.24-.18-.07-.47-.42-.62-.37-.14-.58.12-.66.49-.18-.25-.62-.32-.83-.09-.15.8.37,1.14,1.12,1.88-.04.07-.08.15-.12.22-.14.24-.75-.77-1.32-1.03-.16-.07-.21.14-.34.19-.23.56.27.93.74,1.28-.26.34-1.07.49-1.62.52-.84-.75-1.29-1.6-1.66-2.48Zm1.73-7.29c.34.47.39,1.43,1.35,1.34-.8,1.6-1.39,2.89-2.56,3.84-.69-.88-2.36-2.14-3.43-1.75.46-.63,1.41-1.42,2.03-2.22,1.28,1.47,2.17-.05,2.61-1.21Zm5.85,3.41c.31-.21.62-.41.93-.63.21.49.34,1.01.71,1.46-.48-.05-1.1-.59-1.64-.83Zm-1.64-1.51c-.76-.22-1.62-.81-2.32-.83-.02-.3.08-.63.28-.99.65.75,1.94.94,2.04,1.82Zm-.2,8.15c.67-1.54,1.16-3.35,1.89-4.69.82.44,1.61.9,2.29,1.39-.25,1.46-.45,2.91.16,4.12-1.22.54-2.68.21-4.34-.82Zm7.28-14.03c.77-.92,1.73-1.79,2.57-1.14.38.3.22.97.65,1.23.58.36,1.08-.04,1.49-.59.86,1.51,2.04.73,3.24,1.06-.34.31-.64-.01-1.02.28-.65.49-.8,1.61-.68,2.21-.77-.03-1.38-.74-2.14-.64-.46-.56-1.71-1.32-2.31-1.01-.04-.62-1.12-.96-1.8-1.4Zm7.95,2.58c1.22.92,1.91-.04,2.76-.46.5.45.34,1.05.87,1.35.81.46,1.66-.88,2.47.06-.11.71-.76,1.56-.9,2.27-.65-.79-1.51-.64-2.11-.52.02-.35.08-.72-.1-1.01-.22-.13-.37,0-.56-.03-.64.92.34,1.73-.69,2.4-.51-.74.66-2.53-.72-2.62-.41,1.23-.42,2.36.01,3.37-.27.36-.56.61-.87.85-.79-.85-1.84-.77-2.55-.58.25-1.17-1.25-1.87-.62-3.14.87.26,1.86.98,2.64.43.67-.94.28-1.59.38-2.37Zm7.57,6.98c-.85.78-1.63,1.79-2.52,2.41-1.42-.82-1.58-2.53-3.49-2.65.78-.73,1.49-1.7,2.29-2.35,1.07.91,2.15,1.82,3.72,2.59Zm-15.11-7.41c-.29.43-.24.76-.47,1.17-.63.38-1.44.11-1.92,1.02-1.06-.5-2.28,0-2.46,1.3-.15-.31-.66-.41-.88-.31-.3-.51-.36-1.09-1.08-1.48,1.29-1.17,2.49-2.68,3.73-4.04.76.85,1.7,1.65,3.1,2.33Zm-3.16,3.88c.82.07,1.71.43,2.17-.79,1.18.13,2.12-.93,2.58-2.19.58,0,.74.6,1.27.81-.33,1.01-.29,1.92.19,2.71-.68.28-1.31.74-1.78,1.78-.72-.8-1.94-.64-2.19.3-1.42-.69-2.47-1.49-2.26-2.63Zm20.06,4.45c1.97-1.57-1.66-2.48-2.89-3.56.53-.61.71-1.88,1.21-2.48,1,.93,2.15,1.99,3.27,2.72.18.12.68.22.84.38.56.55.07,1.68-.04,2.28-.16.84-.01,1.71-.63,2.14-.52-.51-.88-1.07-1.76-1.48Zm5.89,1.99c-.33.37-.63.85-.4,1.22-.32-.41-.77-1.19-1.76-1.48.18-1.69,1.02-3.55.45-5.03,1.38,1.3,1.24,3.54,1.71,5.29ZM6.39,29.61c-.2-1.21-.32-2.99.76-4.57.53-.77,1.32-1.27,1.72-2.2.48-1.11.16-2.3.56-3.53.36-1.12,1.47-3.12,2.4-3.73.78-.51,1.85-.71,2.75-1.13.9-.42,1.75-1.05,2.57-1.82,1.74-1.62,3.51-4.9,5.54-5.7.96-.38,2.09-.18,3.16-.32,1.14-.15,2.47-.52,3.61-.93,1.13-.42,2.14-1.24,3.34-1.66,3.94-1.4,8.4,2.03,12.47.72,2.59,1.36,2.84,2.98,5.62,4.33.44.22,1.05.28,1.5.57.71.45,1.06,1.35,1.82,1.71.3.14.59.02.89.12,1.33.43,1.84,1.63,2.56,2.61-1-.11-2.8-1.41-3.84-2.37-.32-.29-.43-.8-.77-1.01-.31-.19-.74-.05-1.04-.2-.28-.14-.41-.5-.68-.67-.75-.46-1.4-.38-2.2-.19-.35-.86-1.86-1.47-2.53-.96-.27-1.3-2.31-2.36-3.53-1.9-.67-.75-1.79-1.17-2.53-.95-1.77-1.62-3.81-.5-5.11,1.04-1.2-2.06-2.95-.18-3.92,1.33-.43-.43.2-1.16-.6-1.49-.11-.03-.18.06-.3.02-.59,1.18.66,2.29-.72,3.15-.7-.55.24-2.08-.55-2.42-.95-.42-.63,2.05-.44,2.63.28.29.52.59.4.99-.27.07-.67-.34-.99-.46.12-.16.31-.22.25-.44-.34-.87-.17-1.87-.91-2.63-.18-.07-.29.13-.45.13-.16,1,.47,1.79.45,2.76-.3-.19-.49,0-.75-.04-.39-.61-.17-1.38-.72-1.95-.13-.02-.25,0-.37-.02-.56.55.07,1.17.06,1.76-.84-.07-1.53.36-2.12,1.2-.3-.21-.56-.25-.81-.27-1.21.32-2.09,2-3.23,2.98-.51.43-1.5.73-1.52,1.83-1.65-.37-3.76-.22-4.33,1.87-.76.3-1.48.19-2.03.87-1.34,1.64-.4,3.69.49,4.89-.71.27-1.37,1.33-1.31,2.14-.21.27-.52.19-.71.56-1.27-.55-2.65.74-3.31,2.45-.26.69.14,1.31-.23,1.6-.33.07-.34-.5-.38-.69Zm.92,2.44c.46-.35.93-.1,1.34-.49.65-.64.32-1.38-.04-2.13.34-.5.59-1.25.98-1.56.76.39,1.76.68,1.96-.23.41.18.48.44.91.61-1.63,1.91-2.46,5.69-4.77,5.37-.49-.42-.4-.99-.37-1.55Zm.25,31.27c-.42-.91.06-1.88-.04-2.81-.26-2.46-3.71-3.5-3.92-5.97,1.49-1.54,1.35-3.19.77-4.75-.43-1.13-1.66-3.08-.93-4.47.3-.56.98-.77,1.29-1.09.4-.42.79-.96,1.05-1.52.73-1.57-.03-2.76.24-4.67.03-.22.61-1.43,1.11-1.97.91-.97,2.55-.96,3.5-1.76,1.12-.95,1.45-2.53,2.22-3.74.79-1.25,2.1-2.83,3.08-3.06.67-.16,1.7.18,2.32.16,1.06-.04,3.12-.86,4.13-1.7.48-.39.9-.97,1.46-1.38,1.13-.84,2.97-1.66,3.82-1.49,1.5.31,2.83,1.62,4.29,1.76,1.57.15,3.33-.8,5.16-1.3,1.11-.3,2.66-.7,3.54-.49,1.19.29,2.01,1.26,3.21,1.62,1.98.61,3.85-1.01,5.56-.98,2.21.04,4.28,2.41,6.48,2.81,1.2.22,2.1-.29,3.29-.73-.53,2.76-3.02,5.54-5.08,7.11-.66.5-1.25,1.11-1.84,1.55-.69.51-1.61.86-2.39,1.34-.78.47-1.56.91-2.32,1.38-1.56.97-3,2.16-4.54,3.1-.78.48-1.66.74-2.42,1.22-2.27,1.46-4.4,3.24-6.73,4.93-3.13,2.26-6.05,4.34-8.96,6.83-1.51,1.3-2.83,2.76-4.23,4.24-1.33,1.41-2.66,3-4.19,4.35-1.35,1.19-2.88,2.11-4.48,2.65-.47.16-1.4.67-1.72.66-.85-.02-2.43-1.21-2.71-1.82Z"/><path class="cls-6" d="m2.67,39.9c.68-.19.64-1.16.69-1.72.21-2.88.28-5.93-1.34-8.15-.21.05-.44.03-.58.34.09.05,0,.17.06.23,1.21,2.24,1.12,4.98.92,7.53-.04.51-.43,1.41.25,1.77Z"/><path class="cls-6" d="m1.5,37.22c.82-.92.28-2.48-.61-3.32-.16.07-.33.13-.43.43.15.61.45,1.27.58,1.87.08.37-.14.93.47,1.03Z"/><path class="cls-6" d="m23.39,2.83c1.05,1.23,3.21,1.29,4.56.95.66-.17,1.43-.72,2.01-1.17.62-.48,1.65-1.03,1.4-1.8-.85-.23-1.33.65-1.85,1.06-1.7,1.36-3.71,1.49-5.9.41-.17.15-.35.34-.22.55Z"/><path class="cls-6" d="m27.16,1.6c.91.37,1.73-.64,2.13-1.38-.76-.77-2.15.74-2.13,1.38Z"/><path class="cls-6" d="m2.03,52.22c.5-.88.17-2.04-.58-2.54-.92.53.27,1.42-.26,2.16-.36.49-.74.06-1.19.57.3,1.14,1.62.53,2.03-.2Z"/><path class="cls-6" d="m9.58,61.78c.02-.6.29-1.12.7-1.91-.08-.92-.03-1.5-.52-2.31-.72-1.2-3.17-2.16-2.58-3.58.15-.37.64-.57.83-.78.8-.93,1.12-1.99.79-2.92-.48-1.31-2.86-2.9-1.72-4.43.36-.49,1.24-.49,1.57-.74,2.96-2.29-.73-4.94,1.51-7.41,1.42-.19,2.92.21,3.82-.81,1-1.14.57-2.72,1.4-3.82,1.11-1.48,2.96-.47,4.52-.52,1.02-.03,2.21-.49,2.94-1.12,1.09-.95,1.28-2.66,2.51-3.58.49-.36,2-.31,2.4-.17,1.33.46,1.89,1.49,2.79,1.87,1.23.51,3.22-.27,4.22-1.17,1.13-1.02,2.04-2.7,3.37-2.22,1.56.56,1.87,2.5,3.82,2.93.84-.09,1.3.08,2.03-.2,1.37-.51,2.48-2.56,3.76-2.39,1.07.14,1.12,1.04,1.86,1.63.6.48,1.25.6,2.04,1.15.64-.09,1.9.09,1.88-.95-.68-.44-1.19.21-1.98-.07-1.73-.6-2.32-2.87-4.13-2.72-1.66.14-3.31,3.28-5.41,2.6-1.93-.62-2.57-3.02-4.33-3.03-.51,0-1.23.37-1.61.63-.74.5-1.14,1.39-1.94,2.07-.67.56-2.36,1.18-3.12.92-1.28-.43-1.87-1.64-3.19-2-.57-.15-1.72-.17-2.32.03-1.29.43-2.18,3.04-3.2,3.95-2.21,1.98-6.06-.8-7.82,2.1-.65,1.07-.5,2.61-1,3.28-.34.46-.89.49-1.38.75-1.87-.62-2.97.26-3.45,1.51-.75,1.97,1.12,3.79-.06,5.54-.49.72-1.66.61-2.21,1.34-.29.38-.49,1.45-.47,1.85.09,1.63,2.56,3.02,2.05,4.52-.31.92-1.45,1.43-1.72,2.19-.18.51.15,1.7.56,2.24.33.43.87.59,1.3.93.75.6,1.47,1.62,1.29,2.65-.15.86-.79,1.73-.73,2.47.04.42.28,1.28,1.21,1.26.36-.61-.27-1.01-.25-1.59Z"/><path class="cls-6" d="m11.16,48.65c.52,1.95,1.12,4.27,1.66,6.22.17.61.19,1.59,1.03,1.74.57-.45-.02-1.25-.2-1.85-.39-1.33-.87-3.36-1.28-4.86-.19-.69-.36-2.37-1.21-1.26Z"/><path class="cls-6" d="m15.86,41.03c.36,1.73.6,3.8.87,5.59.08.53.09,1.53.94,1.4.32-.6,0-1.27-.09-1.88-.1-.62-.2-1.28-.28-1.89-.15-1.23-.24-2.52-.82-3.64-.23.05-.49,0-.62.42Z"/><path class="cls-6" d="m42.01,1.94c.42-.9-1.91-.66-2.83-1.12-.08.15-.17.29-.25.44.73.78,2.79,1.27,3.07.68Z"/><path class="cls-6" d="m14,51.61c.28.88.3,2.22,1.25,2.53.45-.92-.16-2.03-.44-2.94-.31-.99-.43-2.13-1.01-2.97-.14.09-.35-.08-.43.24-.05-.02-.09-.04-.11.03.08.06.02.16-.05.26.23.87.48,1.88.79,2.85Z"/><path class="cls-6" d="m10.45,68.9c-.69-.75-1.68-.32-2.66-.74-2.13-.9-2.25-2.47-3.5-3.33-.39.23-.32.5-.22.74.46,1.16,1.99,2.89,3.74,3.56.9.35,2.26.46,2.63-.24Z"/><path class="cls-6" d="m21.68,34.33c.16,2.36.69,5.57.89,8.09.07.94-.03,1.97.5,2.69.05-.05.11-.05.19,0,.76-.73.22-1.91.14-2.8-.19-2.03-.26-3.94-.52-5.87-.12-.93-.13-2.09-.72-2.81-.51-.07-.5.49-.49.68Z"/><path class="cls-6" d="m17.96,41.07c.15,1.53.5,3.47.71,5.02.07.5-.06,1.36.64,1.42.58-1.02.13-2.32-.01-3.37-.15-1.14-.22-2.37-.8-3.34-.21,0-.38.12-.54.27Z"/><path class="cls-6" d="m4.04,67.67c-.32.17-.31.32-.37.65.46.51,2.12,2.98,3.1,1.66-.89-.76-2.01-1.45-2.54-2.3-.05.05-.11.05-.19,0Z"/><path class="cls-6" d="m23.56,33.38c.2,1.52.35,3.19.46,4.78.11,1.49-.11,3.2.86,4.42.84-.26.25-1.3.18-2.01-.16-1.62-.32-3.97-.49-5.75-.07-.71.05-2.77-1.01-1.44Z"/><path class="cls-6" d="m25.66,34.09c-.12,2.19.04,4.42.26,6.49.07.64-.06,1.56.61,1.98.81-.36.31-1.35.25-1.97-.07-.74-.19-1.56-.26-2.26-.16-1.55.32-3.17-.21-4.54-.24,0-.5-.05-.65.3Z"/><path class="cls-6" d="m13.72,60.09c-1.22.07-.45,2.13.25,2.44.08-.07.17-.12.27-.14.2-.87-.22-1.57-.51-2.31Z"/><path class="cls-6" d="m14.55,58.44c-.17.06-.36.03-.46.31.42,1.04.31,2.52,1.37,3.18.63-.48.1-1.26-.06-1.76-.17-.55-.23-1.39-.84-1.73Z"/><path class="cls-6" d="m15.67,57.64c.03.67.43,1.25.65,1.91.16.51.14,1.37.87,1.17.32-1.31-.39-2.35-.94-3.42-.21.05-.44.03-.58.34Z"/><path class="cls-6" d="m17.08,56.52c.49.85.29,1.88,1.21,2.61.06-.08.15-.07.23-.07.35-.95-.26-2.13-.89-3-.22.03-.42.12-.55.46Z"/><path class="cls-6" d="m18.98,53.85c-.19.04-.39.07-.51.38.06.67.44,1.28.61,1.98.14.59.04,1.48.74,1.57.66-.59.16-1.44,0-2.02-.18-.62-.25-1.49-.84-1.91Z"/><path class="cls-6" d="m20.14,52.48c-.86.44-.16,1.12.03,1.65.3.83.23,1.91.7,2.32.16.06.25-.11.41-.05.4-.71-.02-1.44-.19-2.03-.18-.61-.29-1.45-.95-1.89Z"/><path class="cls-6" d="m21.65,53.54c.2.72.15,1.79.84,1.73.6-.62.09-1.44-.08-2.06-.19-.68-.21-1.56-.75-2.06-1.07.17-.24,1.57-.01,2.39Z"/><path class="cls-6" d="m31.15,37.97c.05,1.09-.2,2.39.58,3.21.1-.08.21-.11.34-.09.14-1.14-.03-2.39-.08-3.6-.05-1.07.06-2.67-.84-3.26-.13.05-.22.23-.35.28.11,1.12.29,2.28.34,3.47Z"/><path class="cls-6" d="m23.22,49.42c-.67.05-.55.8-.47,1.18.16.78.64,2.54,1.41,2.43.38-.91-.32-1.74-.51-2.5-.1-.38.12-.94-.43-1.11Z"/><path class="cls-6" d="m24.75,47.89c-.13.13-.3.11-.39.35.47,1.16.16,2.85,1.31,3.63.61-.54.14-1.45,0-2.02-.16-.63-.17-1.59-.91-1.96Z"/><path class="cls-6" d="m32.59,38.98c1.01-.2.83-1.51.79-2.24-.04-.81.06-1.94-.66-2.39-.19.05-.35.2-.48.5.17.91.35,1.94.26,2.93-.04.39-.37.88.09,1.2Z"/><path class="cls-6" d="m26.39,46.71c-.23.05-.49,0-.62.42.79,1.09.06,2.92,1.38,3.67.6-.59.05-1.43-.08-2.07-.13-.65,0-1.58-.68-2.02Z"/><path class="cls-6" d="m27.27,45.67c.07.66.41,1.39.53,2.12.09.6-.23,1.65.66,1.72.44-.37.29-1.29.15-2.13-.14-.83-.49-2.66-1.33-1.71Z"/><path class="cls-6" d="m29.1,44.3s-.11.05-.19-.01c-.58.63-.01,1.52.03,2.33.03.65-.21,1.51.39,1.85.05-.05.11-.05.19,0,.54-.56.31-1.5.26-2.16-.05-.65-.01-1.6-.68-2.02Z"/><path class="cls-6" d="m30.76,43.23c-.84.31-.44,1.38-.35,2.31.09.88.03,1.92.65,1.9.67-.43.28-1.42.22-2.08-.06-.69.12-1.69-.52-2.13Z"/><path class="cls-6" d="m32.62,42.16c-1.15.1-.59,1.62-.47,2.52.09.67,0,1.57.59,1.68.69-.43.37-1.42.3-2.04-.09-.74-.12-1.57-.41-2.16Z"/><path class="cls-6" d="m60.84,12.71c.62.89.67,1.99,1.55,2.51.64-.45.14-1.37-.16-1.92-1.43-2.65-4.14-4.56-7.49-6.45-.69-.39-1.5-1.08-2.14-.64-.24-.05-.07.3-.13.4,3.37,1.84,6.72,3.76,8.37,6.09Z"/><path class="cls-6" d="m34.01,41.23c-.19.05-.35.2-.47.5.22.61.25,1.26.35,1.92.07.48-.04,1.28.55,1.57.72-.38.45-1.42.37-2-.1-.66-.18-1.61-.8-1.99Z"/><path class="cls-6" d="m35.54,39.88c-.25,0-.48.04-.62.42.26.69.43,1.4.53,2.12.08.6-.1,1.37.39,1.85.88-.19.62-1.41.52-2.11-.11-.78-.36-1.78-.82-2.29Z"/><path class="cls-6" d="m37.1,38.65c-.15.12-.33.14-.43.42,1.03.84-.04,3.85,1.39,3.48.03-1.4.46-2.91-.96-3.9Z"/><path class="cls-6" d="m39.77,47.85c.5-.22,1.35.25,1.56-.56-.43-.66-1.26-.51-1.74-.31-.83.33-1.92,1.27-2.91,1.91-.95.62-2.03,1.18-3.01,1.75-2.2,1.29-4.18,3.01-5.63,4.69-.55.64-.74.97-.3,1.37.94-.37,1.48-1.24,2.12-1.87.68-.66,1.35-1.39,2.09-1.99,1.96-1.57,4.16-2.43,6.18-3.8.55-.37,1.09-.95,1.64-1.19Z"/><path class="cls-6" d="m38.81,37.51s-.11.05-.19,0c-.16.07-.33.14-.44.43.92.93-.08,2.4.91,3.3.84-1.02.58-2.76-.29-3.72Z"/><path class="cls-6" d="m39.93,36.7c.46,1.21-.2,2.82.81,3.83.71-.13.33-1.09.25-1.97-.08-.9.07-3-1.07-1.85Z"/><path class="cls-6" d="m41.61,35.44c-.19.05-.36.2-.48.5.2.61.41,1.16.5,1.82.1.65-.26,1.54.38,2.04.05-.05.11-.05.19.01.53-.63.45-1.62.34-2.31-.11-.68-.33-1.62-.94-2.07Z"/><path class="cls-6" d="m57.61,7.04c.13.76,1.33,1.2,2.01,1.71.7.54,1.27,1.17,1.67,1.81.41.66.42,1.61,1.25,1.86.57-.44.08-1.14-.14-1.62-.73-1.58-2.45-3.19-4.46-4.17-.1.17-.25.15-.32.4Z"/><path class="cls-6" d="m44.03,34.22c-1.12.22-.41,1.4-.3,2.23.09.72-.1,1.58.55,1.75.94-1.13.17-2.82-.24-3.98Z"/><path class="cls-6" d="m45.67,33.03c-.87.37-.31,1.5-.27,2.34.03.63-.11,1.4.48,1.52.13-.05.25-.15.38-.17-.05-1.27.28-2.74-.59-3.7Z"/><path class="cls-6" d="m47,32.54c-.21.05-.44.03-.58.34.78.99.01,2.41.87,3.38.05-.05.11-.05.19,0,.53-.39.34-1.25.28-1.86-.06-.65-.18-1.46-.76-1.87Z"/><path class="cls-6" d="m37.13,51.16c.86.55,2.75-1.21,1.88-1.63-.38-.18-.46.28-.89.55-.56.36-1.37.4-.99,1.07Z"/><path class="cls-6" d="m49.13,33.36c-.14-.56-.15-1.4-.77-1.69-.05.05-.11.05-.19,0-.07.19-.22.08-.28.32.42.99.04,2.19,1.08,3.01.67-.29.28-1.16.16-1.64Z"/><path class="cls-6" d="m49.83,30.78c-.23.05-.49,0-.62.42.71.99.23,2.31,1.03,3.27.08-.09.21,0,.3-.02.41-1.17.07-2.63-.71-3.67Z"/><path class="cls-6" d="m51.02,30.88c.37.7-.27,1.67.56,2.24.84-.61.59-1.9-.02-2.51-.21-.01-.39.07-.54.27Z"/><path class="cls-6" d="m62.59,30.13c.39-.91.8-2.59-.03-3-.76.82-.36,1.6-.77,2.55-1.76,4.12-5.23,5.2-7.31,7.3.04.26-.02.25.17.38.66.47,2.65-1.54,3.56-2.21,1.82-1.35,3.34-2.58,4.38-5.01Z"/><path class="cls-6" d="m64.66,26.98c-.23.05-.49,0-.62.42.38.69-.83,1.82.22,2.33.71-.61,1.02-2.1.4-2.75Z"/></g></svg>