<?xml version="1.0" encoding="UTF-8"?><svg id="Layer_2" xmlns="http://www.w3.org/2000/svg" viewBox="0 0 94.36 61.89"><defs><style>.cls-1{fill:#f26b5b;}.cls-2{fill:#fee56b;}.cls-3{fill:#ffd15b;}.cls-4{fill:#3a1312;}.cls-5{fill:#389e59;}</style></defs><g id="Layer_15"><path class="cls-3" d="m2.96,12.51c-.05.95.37,1.76.62,2.65.18.63.23,1.25.38,1.61.39.97,1.03,1.77,1.48,2.69.49.99,1.23,1.71,1.71,2.63,1.11,2.11.65,4.54.9,6.65.09.77.42,1.69.62,2.65.19.86.26,2.01.51,2.67.13.34.51.7.69,1.11.18.42.18.89.34,1.19.45.85,1.19,1.62,1.69,2.52.49.89.9,1.8,1.46,2.57,1.21,1.66,2.55,3.25,3.79,5,1.5,2.11,1.98,4.93,3.51,6.89.75.97,2.44,2.45,3.39,2.78.34.12.91.07,1.44.2.53.13,1.07.4,1.57.48,1.77.3,3.25-.12,4.8-.77,1.28-.53,2.2-1.01,2.93-2.51-.3-1.23-.27-2.54-1.17-3.67-1.03-1.28-3.1-2.02-4.7-3.2-1.53-1.13-3.09-2.03-3.39-3.57-2.04-2.21-3.29-4.83-4.33-7.3-.31-.73-.81-1.36-1.02-2.01-.28-.88-.22-2.08-.2-3.17.02-1.16,0-2.39.19-3.32.12-.61.49-1.16.42-1.8-.07-.62-.74-1.58-1.21-2.33-.53-.83-1-1.73-1.45-2.27-.79-.97-1.74-1.74-2.5-2.63-1.08-1.27-1.97-2.9-2.51-4.21-.81-1.98-1.51-3.7-1.96-5.73.52-.96.78-2.15-.35-2.77-.35-.19-1.16-.29-1.7-.27-1.9.08-4.51,1.64-5.47,4.08-.26.66-.43,2.39-.47,3.15Zm16.9,34.82c.73,1.23,1.96,2.61,3.13,4,.65.77,1.4,1.76,2.64,2.42.69.37,1.46.36,2.47.45.39.03,2.41.08,1.98.93-.19.37-.66.12-1.21.04-.96-.14-2.62-.08-3.59-.55-.47-.23-.75-.62-1.05-.84-1.41-1.07-2.46-2.52-3.45-3.8-.63-.81-1.45-1.42-1.75-2.26-.16-.44-.18-1.12-.27-1.64-.08-.55-.17-1.19.04-1.65,1.34.06.76,2.01,1.05,2.91Zm-3.39-5.64c-.13.29-.3.44-.49.48-.37-.15-.41-.39-.39-.64.2-.46.84-.24.89.16Zm-6.08-14.18c-.25,1.64-.74,2.5-.28,3.95.22.7.85,1.51,1.4,2.34.55.83.97,1.78,1.33,2.3.57.82,2.64,2.19,1.04,3.1-.46-.22-.2-.6-.33-.89-1.77-2.17-3.17-4.43-4.38-6.74-.47-1.91.43-4.15.71-6.24,1.14-.42.59,1.67.52,2.19Zm-.54-4.37c-.24.12-.7-.17-.71-.44.29-.81,1.32-.19.71.44Zm-4.17-12.8c1.19-.49.22,1.48.14,2.15-.13,1.2-.08,3.23.49,4.14.35.56.93.83,1.27,1.28.53.7,1.44,1.89.62,2.65-.7-.36-.73-1.15-1.15-1.79-.43-.67-1.18-1.1-1.57-1.76-.53-.9-.75-3.38-.6-4.6.08-.65.35-1.54.79-2.07Z"/><path class="cls-5" d="m25.79,11.19c-1.27.08-3.02.48-3.15,2.38.7.11,1.94.32,2.82.37.72-1.06.21-1.83.33-2.75Z"/><path class="cls-1" d="m37.72,11.29c.49-1.26,1.55-1.81,2.37-2.56.32-.29.49-.87,1-.66.55.66-.38,1.19-.94,1.68-.87.76-1.5,1.97-2.32,2.01.3.27.33.61.63.88.83-1.13,2.06-2.17,2.92-3.3.31-.41.51-1.16,1.15-1.06.57.44-.09,1.17-.37,1.54-.45.61-1.2,1.29-1.79,1.94-.58.64-1.56,1.37-1.04,2.01.7-.48,1.66-1.27,2.38-2.26.67-.91,1.03-2.31,2.03-2.48.55.35,0,.92-.24,1.33-1.1,1.9-2.39,3.14-3.5,4.23.65.75,1.35-.13,1.9-.69.53-.54,1.21-1.1,1.69-1.61.74-.81,1.14-2.41,2.14-2.51.44.41-.1.94-.35,1.36-1.06,1.8-2.34,2.9-3.4,3.9.87.14,1.69-.82,2.4-1.66.56-.66,1-1.69,1.8-1.64.46,1.18-1.7,2.38-2.07,3.34,1.9-.67,3.69-5.05,3.18-6.58-.24-.71-.97-1.5-1.48-1.9-2.35-1.84-6.25-.92-7.6,1.49-.46.83-1.1,2.5-.52,3.22Z"/><path class="cls-5" d="m68.18,11.15c.19-.51.12-.96-.03-1.39-.5.02-1.14-.22-2.03-.37-.88-.15-1.87-.59-2.13.26,1.12,1.3,3.03,1.75,4.18,1.5Z"/><path class="cls-5" d="m46.9,28.07c.05.51.17,1.01.47,1.47.31.02.63.09.96.2.12-.47.46-1,.28-1.4-.56-.03-1.15-.21-1.71-.27Z"/><path class="cls-3" d="m63.54,15.95c.88-.52,1.81-1.77,1.02-2.61-.58.64-1.98,1.89-1.02,2.61Z"/><path class="cls-5" d="m52.54,18.49c-.45.89-1.62,2.52-.57,2.99,1.21-1.84,2.31-4.19,3.11-6.14-.19.06-.41-.02-.6.02-.54,1.01-1.41,2.09-1.94,3.13Z"/><path class="cls-5" d="m30.35,28.94c-.83,1.25-1.5,2.46-1.94,3.62.61.28,1.21.49,1.87.96.76-1.29,1.25-2.52,1.84-3.77-.61-.38-1.18-.53-1.77-.8Z"/><path class="cls-2" d="m12.8,8.36c.11.86.51,1.92.77,2.74.08.26.09.73.35.71.32-.42.52-.78.89-1.12.55-.51,1.67-1.45,2.05-1.09.79.75-2.49,2.06-2.55,3.34.13.51.45.99.65,1.49,1.3-1.47,2.43-3.81,3.95-3.85.4.64-.45.95-.83,1.35-.89.92-1.75,2.2-2.47,3.19.3,1.41,1.58,2.58,2.77,3.78.82-1.61,1.82-2.42,2.73-3.62-.24-1.2-.32-3.47,1.14-4.7.68-.58,1.65-.71,2.41-.87.72-.16,2.06-.51,2.67-.02.57.46.2,1.41.15,2.46-.02.5.15,1.09.05,1.5-.67,2.8-3.25,1.98-5.17,1.52-.85,1.14-2.02,2.16-2.93,3.79.31.27.33.61-.06,1.05.31.29.38.64.59.95.39-.82,1.04-1.47,1.42-1.97.7-.93,1.25-2.28,2.22-2.17.46.65-.45,1.14-.83,1.65-.74,1.01-1.58,2.2-2.25,3.32.36.52.61,1.07.98,1.59.93-.96,1.62-2.93,2.59-3.71-.16-.83.5-1.81,1.35-1.23,1.23.84-.64,1.55-1.22,2.29-.95,1.22-1.58,2.79-2.32,3.48.39.7.57,1.66.19,2.28.5-.81,1.15-1.86,1.76-2.84.55-.89,1.06-2.24,1.98-2.12.32.84-.61,1.85-1.2,2.8-.61.98-1.16,2.06-1.79,2.92-.81,1.11-1.46,1.82-1.11,2.76,1.39-.49,2.36-2.5,3.45-3.67-.72-.64.11-2.14,1.11-1.48.24-.16.47-.39.81-.19.39.68-.72,1.46-1.09,2.08.45.78-.31,1.86-1.22,1.5-.65.82-1.4,1.72-1.67,2.7-.86.4-1.93,2.05-1,2.73,1.13-1.55,2.37-3.48,3.43-4.76.36-.43.81-1.22,1.4-1,.3,1.08-1.08,1.93-1.8,2.92-.93,1.27-1.78,2.73-2.65,3.96.19.26.3.54.6.77.89-.94,1.39-3.64,2.52-3.46.26.63-.61,1.29-1.05,2-.47.76-.96,1.56-1.36,2.2.62.94.76,1.37,1.03,2.01.45-.78,1.04-1.58,1.43-2.46.3-.68.41-1.91,1.4-1.69.44.46-.13.93-.33,1.37-.54,1.17-1.15,2.5-2.07,3.73.4.43.83,1.11.74,1.25.46-.75.87-1.41,1.45-2.35.34-.54,1.01-2.11,1.66-1.63.53.39-.46,1.62-.87,2.31-.62,1-1.05,1.7-1.54,2.49.81.63.64.9,1.38,1.64.65-1.05,1.21-1.95,1.98-3.2.37-.6,1.59-3.11,2.26-2.44.45.46-1.05,2.43-1.52,3.19-.81,1.31-1.39,2.25-2.07,3.34.97.38,1.95,1.78,3.34,2.26,1.06-2.03,2.27-3.91,3.14-5.53.27-.49.27-1.8,1.19-1.52.27.43-.04,1.05-.27,1.51-.83,1.69-2.5,3.68-2.77,5.26-.23.23-.49.35-.67.76.62.32,1.32.94,1.89,1.07.61-1.36,1.72-2.83,2.52-4.24-.18-.1-1.19.2-1.04-.54.41-.62,1.34-.3,1.87-.81.41-.38.46-1.28,1.17-1.25.32-.04.28.38.44.56.91-.62,1.8-.89,2.64-1.41,1.13-.7,2.2-1.3,3.25-1.92.5-.3,1.1-.84,1.75-.59.34.61-.43.9-.78,1.09-2.2,1.23-4.16,2.52-6.37,3.63-.57.29-1.16.33-1.53.73-.65.7-1.15,1.87-1.71,2.77-.59.96-1.22,1.82-1.55,2.68,1.54-.13,2.94-3.17,3.97-4.52.37-.48,1.2-1.49,1.58-1.29.91.48-1.9,2.83-1.92,3.43.87-.79,2.09-1.25,3.18-1.96,1.07-.7,2.32-1.21,3.25-1.92.76-.58,1.35-1.33,2.16-1.91.75-.53,1.46-1.13,2.22-1.68.85-.62,1.95-.97,2.71-1.37,2.35-1.22,4.32-3.52,6.46-5.05.33-.24.78-.33,1.14-.57,1.11-.75,2.13-1.85,3.18-2.75,1.18-1.02,2.13-1.7,3.38-2.14,1.2-.41,2.43,0,1.86,1.44-.78,1.99-2.48,3.91-3.46,5.92-.38.78-.76,1.66-.89,2.4,1.1-.88,2.04-2.31,3.12-3.77,2.74-3.73,5.05-9.14,7.61-12.3.87-1.08,3.13-2.92,4.27-1.98.64.53.1,1.98-.44,3.26-.86,2.03-2.04,3.93-1.66,5.56.62-.14,1.47-.12,2.11-.56.82-.57,1.11-1.82,1.51-2.6.32-.62.85-1.25,1.01-1.63.26-.65.35-1.53.78-2.37.26-.52.68-.98.97-1.56.29-.6.39-1.3.65-1.86.66-1.39,1.88-3.53,2.78-4.18.52-.38,2.12-.98,2.67-.81.52.16.99.87,1.58.78.27-.59.09-1.59.29-2.38-.38-.57-.8-1.09-1.7-1.54-1.01-.5-2.34-1.12-3.06-1.4-1.79-.69-3.36-.33-5.13-.13-4.15.49-8.51.78-12.56,1.08.53.08,1.06.23,1.41.58.54.53.61,2.81-.31,3.84-.86.57-1.82.67-2.91.26-.07.69.38,1.69-.14,2.77-.66,1.38-2.36,2.58-3.45,2.09-2.55-1.13-.86-4.63.98-5.88-.52-.41-1.27-.4-1.61-.9-.46-.65.28-1.41.43-2.29-4.52.04-9.06,0-13.64-.18.3,2.29-.64,5.12-2.58,7.35-1.11,1.27-2.95,1.14-4.41,1.1-1.79-.05-3.72-.91-5.05-2.63-.05-.68-.24-1.32-.81-1.87-1.88,1.27-3.86,3.02-5.64,4.67-.56.52-1.15,1.37-2,1.32-.32-.94.84-1.41,1.38-1.9,1.93-1.8,3.95-3.64,5.93-4.98-.15-.87.08-1.84.37-2.82-2.08.19-4.08-.18-6.23-.41-5.52-.59-11.16.29-16.75-.73-.13.31-.12.6-.38.94Zm64.11,17.13c-.16-.62.79-.85.92-.22-.21.5-.51.57-.92.22Zm4.48-7.25c.32.93-.9,2.16-1.51,3.39-.5,1.01-.95,3.05-2.05,2.37-.16-.62.55-1.1.87-1.72.74-1.43,1.52-3.03,2.18-4.16.18.05.31-.05.51.12Zm-8.37,1.31c-.25-.79,1.04-.84.83-.07-.21.33-.49.34-.83.07Zm12.03-9.76c-1.23,2.89-3.24,3.37-4.98,4.39-.87.51-1.85,1.7-2.79,1.02.55-.85,1.57-1.34,2.42-1.85.87-.52,1.78-1,2.67-1.3.54-.89,1.22-1.21,1.71-2.29-.11-1.6-2.01-.09-2.52-1.17,1.02-1.24,3.48-.43,3.5,1.18Zm-5.66.73c.24-.01.46.03.61.28-.27,1.02-1.31,2.69-2.37,2.07.13-.79,1.27-1.38,1.75-2.36Zm-1.38-.46c.1-.08.22-.11.35-.08.83.36-.72,2.27-1.39,3.37-.63,1.01-1.63,3.14-2.22,2.95-.88-.28.76-2.34,1.21-3.08.87-1.4,1.38-2.36,2.05-3.16ZM29.82,44.74c-.37-.27.36-1.82.44-1.99.67-1.48,2.48-3.82,3.04-4.75.1-.08.31-.25.41-.19.1.06.2.12.29.18-.04,1.17-2.12,3.56-2.8,5-.15.32-.62,2.3-1.37,1.75Zm19.21-13.28c-.87-.18-1.96.06-2.8-.55-.79-.59-1.66-3.18-.7-4.27.76-.86,4.17.05,5.05,1.06-.08,1.17-.46,2.91-1.54,3.76Zm.12,4.1c-.44-.69,1.01-1.93,1.16-.76-.32.55-.61,1.18-1.16.76Zm23.69-21.62c.52-.76,1.34-1.76,1.79-2.43.58-.85,1.09-1.96,1.7-2.59,1.32-.2-.02,1.72-.65,2.64-.54.8-1.35,1.77-1.75,2.36-.38.55-1.43,2.79-2,2.6-.77-.26.53-2.03.91-2.58Zm-11.78,7.76c.05-.13-.21.49.33-.38.14.09.28.18.43.26-.82,1.89-1.46,4.03-2.39,5.29-.99-.55.26-2.38.78-3.64.14-.35.38-1.28.85-1.54Zm-1.85-1.45c.55.47-.13,1.14-.29,1.59-.89,2.42-1.04,5.28-2.63,7.91,1.19-.83,2.61-1.4,3.89-2.31.55-.39.98-1.01,1.55-1.4.32-.21.78-.27,1.09-.5,1.25-.94,2.24-2.09,3.45-2.88.7-.46,1.65-.61,2.35-1.1.38.13.33.37.44.56-.65.76-1.45.91-2.21,1.19-3.2,2.66-6.44,5.14-9.83,6.99-.37.5-.78.8-1.27.79-.42-.5-.01-.87-.49-1.28,1.6-2.69,1.95-5.51,2.72-8.05.17-.55.4-1.51,1.23-1.5Zm-3.14,6.02c-.51,1.38-1.36,3.16-1.83,4.08-.42.82-.98,1.91-1.6,1.96-.69-.36.1-1.06.32-1.47,1.44-2.6,2.71-5.97,3.22-8.23,1.37-.5.31,2.56-.11,3.67Zm-1.63-1.5c.2.88-.52,1.93-.94,2.96-.4.95-.59,2.32-1.48,2.72-.19-.13-.22.03-.29-.18-.38-.4.14-.75.29-1.1.6-1.42,1.08-3.26,2.02-4.55.11.07.45-.08.4.15Zm4.11-9.35c1.45.29.34,2.26-.69,1.44-.6-.48-.21-1.62.69-1.44Zm-1.36-3.2c.16-.06.36,0,.63.09.51.19.72.71.46,1.17-.79,1.38-2.39-.75-1.09-1.26Zm-.83,1.65c1.73.75.21,2.38-.63,4.04-.53,1.04-1.71,4.42-2.79,5.15-1.2.8-3.47-1-3.4-2.3.03-.54.67-1.29,1.05-2.01,1.78-3.39,2.72-6.22,5.77-4.88Zm-4.03-.63c1.25.45.22,2.22-.69,1.74-.74-.39-.55-2.19.69-1.74Zm-15.38,21.55c1.55.27.42,2.28-.57,1.71-.75-.43-.41-1.89.57-1.71Zm7.09-15.28c.35.12.59.37.62.58.25,1.6-2.15,1.06-1.72-.08.22-.59.46-.72,1.1-.5Zm-5.88,1.57c2.31.98,2.6,2.92,2.62,4.67.01,1.3-.25,2.82-1.55,4.25-1.3,1.44-3.54,1.25-5.53.51-1.26,1.51-1.41,5-3.34,4.92-.68-.03-1.21-.67-2.01-1.05-.59-.28-1.24-.22-1.6-.59-.88-.93,1.08-4.42,2.35-6.02.27-.35.47-.53.81-.68-.36-2.18-.12-5.07,1.99-6.24,1.51-.83,4.48-.52,6.25.23Zm-1.04-5.95c.18.1.15.25.27.36-.06.07-.06.14-.02.18-.65.55-1.38,1.14-2.07,1.77-.65.59-1.26,1.4-2.08,1.46-.54-.82.76-1.4,1.46-2.05.85-.77,1.61-1.72,2.45-1.73Zm-4.33.96c.97-.99,1.71-1.75,2.56-2.55.09-.03.22.08.3,0,.24.1.21.27.34.4-.93,1.27-2.38,2.66-3.74,3.98-.43.42-.97,1.11-1.39.81-.62-.45,1.46-2.16,1.93-2.64Zm-14.88-1.53c.64-.89,1.42-1.49,1.99-2.11.12.2.42-.03.36.22.39.82-.76,1.28-1.34,2.02-.53.67-1.22,2.63-1.9,2.27-.67-.36.54-1.91.89-2.4Z"/><path class="cls-1" d="m32.28,27.88c.33.28.8.31,1.23.56,1.62.93,3.12,1.32,4.47.4,1.25-1.69,1.32-3.11.85-4.39-.3.72-1,1.41-1.46,2.04-.42.57-.64,1.57-1.4,1.3-.32-.6.22-1.29.66-1.86.57-.74,1.34-1.68,1.73-2.66-.14-.17.14-.04-.74-.56-.04.07-.09.14-.13.21-.27.43-.49.89-.83,1.35-.8,1.09-1.21,2.87-2.26,3.03-.48-1.31,1.92-3.5,2.57-4.7-1.58-1.15-2.8,4.23-3.68,3.92-.58-.21-.11-1.14.12-1.6.61-1.19,1.32-2.04,1.9-2.75-1.85-.59-3.65.47-3.9,2.5-.12.95.18,2.6.87,3.2Z"/><path class="cls-4" d="m83.23,1.59c.6.3.86.01,1.6.11.52.07,1.65.6,1.93.21.22-.3.06-.56-.38-.82-.57-.34-2.91-.56-3.24.16.08.1.11.22.08.35Z"/><path class="cls-4" d="m83.18,3.42c.43.43.74-.08,1.06-.13,1.05-.15,3.93.65,4.97,1.5.28.23,1.19,2.02,1.61.9.26-.7-1.42-1.77-2.14-2.11-.9-.42-1.69-.93-2.82-1.16,0,0-3.84-.16-2.68,1Z"/><path class="cls-4" d="m92.56,15.91c.6.03,1.1-1.06,1.3-1.46.7-1.44.48-3.19.43-4.35-.07-.23-.45-.19-.63-.1-.52,1.19.07,2.57-.54,3.89-.25.54-1.3,1.44-.56,2.01Z"/><path class="cls-4" d="m84.07,9.77c-.49,1.08-1.17,1.4-1.71,2.29-.89.3-1.8.78-2.67,1.3-.84.5-1.87,1-2.42,1.85.94.68,1.92-.51,2.79-1.02,1.74-1.02,3.75-1.5,4.98-4.39-.02-1.61-2.48-2.42-3.5-1.18.52,1.07,2.42-.44,2.52,1.17Z"/><path class="cls-4" d="m54.37,3.6c3.39.45,5.41.89,9.23.8,1.76-.04,3.62-.43,5.47-.74.35-.06,1.68.06,1.83-.25.17-.36-.16-.49-.32-.59-.05-.03-.15-.12-.22-.13-1.44-.24-2.33.36-3.81.59-1.2.19-2.39.2-3.89.25-2.88.1-5.9-.55-8.15-.81-.59-.07-1.22-.28-1.36.14-.17.5.76.69,1.21.75Z"/><path class="cls-4" d="m77.63,12.87c1.05.62,2.09-1.05,2.37-2.07-.16-.25-.37-.29-.61-.28-.48.98-1.62,1.57-1.75,2.36Z"/><path class="cls-4" d="m71.93,16.52c.56.19,1.62-2.05,2-2.6.4-.59,1.21-1.56,1.75-2.36.63-.92,1.97-2.85.65-2.64-.6.62-1.11,1.74-1.7,2.59-.46.67-1.28,1.67-1.79,2.43-.38.56-1.68,2.32-.91,2.58Z"/><path class="cls-4" d="m74.73,16.29c.59.19,1.59-1.94,2.22-2.95.68-1.1,2.23-3.01,1.39-3.37-.12-.02-.24,0-.35.08-.67.8-1.19,1.76-2.05,3.16-.45.73-2.09,2.8-1.21,3.08Z"/><path class="cls-4" d="m77.83,24c1.1.68,1.56-1.36,2.05-2.37.61-1.23,1.83-2.46,1.51-3.39-.2-.17-.34-.07-.51-.12-.65,1.13-1.44,2.73-2.18,4.16-.32.62-1.03,1.1-.87,1.72Z"/><path class="cls-4" d="m78.43,30.17c.77.93,2.07-.56,2.98-1.8.79-1.07,1.78-2.59,2.2-3.55.12-.27.11-.66.25-1.03.25-.69.76-1.01.12-1.3-.13-.02-.24,0-.35.08-.68.36-.58,1.38-.95,2.17-.45.97-1.16,2.03-1.76,2.85-.83,1.13-1.89,1.8-2.48,2.59Z"/><path class="cls-4" d="m73.01,19.55c.34.26.63.25.83-.07.21-.77-1.09-.71-.83.07Z"/><path class="cls-4" d="m34.99,4.89c.41.17.68-.23.93-.7,1.56-1.42,3.49-2.6,5.36-2.78.38-.04,1.23.28,1.43-.1.43-.79-1.24-.88-1.65-.82-1.61.22-3.67,1.29-5.2,2.68-.44.4-1.54,1-.87,1.72Z"/><path class="cls-4" d="m83.12,26.88c-.65,1.06-1.64,1.92-2.13,2.81,1.05.95,2.14-1.37,2.7-2.46-.09-.27-.28-.39-.57-.35Z"/><path class="cls-4" d="m58.28,13.49c.26-.46.05-.97-.46-1.17-.27-.1-.47-.16-.63-.09-1.3.52.3,2.64,1.09,1.26Z"/><path class="cls-4" d="m76.9,25.49c.41.36.71.28.92-.22-.13-.63-1.08-.41-.92.22Z"/><path class="cls-4" d="m49.55,20.77c-.07,1.3,2.2,3.1,3.4,2.3,1.08-.73,2.27-4.12,2.79-5.15.84-1.66,2.35-3.28.63-4.04-3.05-1.33-3.99,1.49-5.77,4.88-.38.71-1.01,1.47-1.05,2.01Zm4.92-5.41c.19-.04.41.04.6-.02-.8,1.95-1.9,4.29-3.11,6.14-1.05-.47.12-2.09.57-2.99.53-1.04,1.4-2.12,1.94-3.13Z"/><path class="cls-4" d="m57.86,16.86c1.03.82,2.14-1.15.69-1.44-.9-.18-1.29.96-.69,1.44Z"/><path class="cls-4" d="m55.27,29.81c.48.41.06.79.49,1.28.49.01.91-.29,1.27-.79,3.39-1.86,6.63-4.33,9.83-6.99.76-.28,1.56-.43,2.21-1.19-.1-.2-.06-.43-.44-.56-.7.49-1.65.64-2.35,1.1-1.21.79-2.2,1.94-3.45,2.88-.31.23-.78.29-1.09.5-.58.39-1,1.01-1.55,1.4-1.28.91-2.7,1.48-3.89,2.31,1.59-2.63,1.74-5.49,2.63-7.91.16-.45.85-1.12.29-1.59-.83,0-1.06.95-1.23,1.5-.76,2.54-1.12,5.36-2.72,8.05Z"/><path class="cls-4" d="m51.65,14.99c.91.48,1.93-1.29.69-1.74-1.24-.45-1.42,1.35-.69,1.74Z"/><path class="cls-4" d="m59.43,26.88c.93-1.27,1.57-3.4,2.39-5.29-.14-.09-.29-.18-.43-.26-.54.87-.28.25-.33.38-.47.26-.71,1.19-.85,1.54-.52,1.26-1.77,3.09-.78,3.64Z"/><path class="cls-4" d="m29.22,4.86c1.65.79.22-1.85,0,0h0Z"/><path class="cls-4" d="m52.64,32.31c.63-.05,1.18-1.14,1.6-1.96.47-.92,1.32-2.7,1.83-4.08.41-1.11,1.47-4.17.11-3.67-.52,2.26-1.79,5.63-3.22,8.23-.22.41-1.01,1.11-.32,1.47Z"/><path class="cls-4" d="m18.22,4.05c2.03.46,3.68.83,5.55.88.57.01,2.47.52,2.69.09.18-.34-.22-.64-.54-.72-1.41-.37-3.1-.06-5.03-.45-.88-.18-1.7-.5-2.53-.68-.82-.18-1.68-.56-2.45-.33,0,1.08,1.5,1.04,2.29,1.22Z"/><path class="cls-4" d="m52.02,29.17c-.15.35-.67.7-.29,1.1.07.21.1.05.29.18.9-.4,1.08-1.77,1.48-2.72.43-1.03,1.14-2.07.94-2.96.05-.23-.29-.08-.4-.15-.94,1.28-1.43,3.12-2.02,4.55Z"/><path class="cls-4" d="m30.85,18.74c.42.3.96-.39,1.39-.81,1.35-1.32,2.8-2.71,3.74-3.98-.12-.13-.1-.3-.34-.4-.08.09-.21-.02-.3,0-.85.79-1.59,1.56-2.56,2.55-.47.48-2.55,2.19-1.93,2.64Z"/><path class="cls-4" d="m33.2,18.92c.82-.07,1.44-.88,2.08-1.46.69-.63,1.43-1.22,2.07-1.77-.05-.05-.05-.11.02-.18-.12-.12-.08-.26-.27-.36-.83.01-1.6.96-2.45,1.73-.7.64-2,1.22-1.46,2.05Z"/><path class="cls-4" d="m44.66,20.1c-.04-.21-.27-.46-.62-.58-.64-.22-.87-.09-1.1.5-.43,1.14,1.97,1.68,1.72.08Z"/><path class="cls-4" d="m45.53,26.64c-.96,1.09-.09,3.68.7,4.27.84.62,1.94.38,2.8.55,1.08-.86,1.46-2.6,1.54-3.76-.88-1.01-4.29-1.91-5.05-1.06Zm1.84,2.91c-.3-.45-.41-.96-.47-1.47.56.06,1.15.24,1.71.27.18.4-.17.93-.28,1.4-.33-.1-.65-.18-.96-.2Z"/><path class="cls-4" d="m.72,8.66c.76-.3.44-1.1.59-1.6.73-2.31,2.94-4.14,4.38-4.86.45-.22,1.04-.12,1.26-.6C6.2.02,2.99,2.92,2.07,4.09.89,5.6-.32,7.77.72,8.66Z"/><path class="cls-4" d="m31.9,20.86c-2.11,1.17-2.35,4.06-1.99,6.24-.34.15-.54.33-.81.68-1.26,1.6-3.23,5.09-2.35,6.02.36.38,1.01.31,1.6.59.8.38,1.33,1.01,2.01,1.05,1.93.09,2.08-3.4,3.34-4.92,1.99.74,4.23.93,5.53-.51,1.29-1.43,1.56-2.95,1.55-4.25-.01-1.75-.3-3.69-2.62-4.67-1.77-.75-4.74-1.06-6.25-.23Zm-3.5,11.7c.44-1.16,1.11-2.37,1.94-3.62.59.26,1.15.42,1.77.8-.59,1.25-1.08,2.48-1.84,3.77-.66-.47-1.25-.67-1.87-.96Zm6.91-10.38c-.59.71-1.29,1.56-1.9,2.76-.23.46-.69,1.4-.11,1.6.88.31,2.11-5.06,3.7-3.91-.65,1.21-3.01,3.42-2.53,4.73,1.05-.16,1.38-1.99,2.18-3.07.34-.46.56-.92.83-1.35.04-.07.09-.14.13-.21.88.52.61.39.74.56-.4.98-1.24,1.88-1.8,2.62-.44.57-.95,1.28-.62,1.88.75.27.99-.72,1.41-1.29.47-.64,1.17-1.32,1.47-2.04.47,1.29.41,2.7-.84,4.4-1.35.92-2.84.53-4.47-.4-.43-.25-.9-.28-1.22-.56-.7-.6-.99-2.25-.87-3.19.25-2.04,2.06-3.09,3.91-2.5Z"/><path class="cls-4" d="m.16,3.69c.74.55,2.45-2.23,3-2.47.32-.17.69-.18.93-.7-.13-.17,0-.4-.37-.52-1.03.24-1.49.98-2.51,1.99C.66,2.53-.4,3.28.16,3.69Z"/><path class="cls-4" d="m62.01,39.09c-.98-.86-.63-2.04-.39-3.19-.19-.33-.53-.31-.77-.18-.37.81-.6,2.34-.24,3.1.2.42.91,1.23,1.4.28Z"/><path class="cls-4" d="m17.01,16.97c.67.36,1.37-1.6,1.9-2.27.58-.74,1.74-1.2,1.34-2.02.07-.24-.24-.02-.36-.22-.57.62-1.35,1.22-1.99,2.11-.35.49-1.56,2.04-.89,2.4Z"/><path class="cls-4" d="m49.15,35.56c.54.42.84-.21,1.16-.76-.15-1.17-1.6.07-1.16.76Z"/><path class="cls-4" d="m5.48,17.01c.39.66,1.13,1.09,1.57,1.76.42.65.45,1.43,1.15,1.79.82-.76-.09-1.95-.62-2.65-.35-.45-.92-.72-1.27-1.28-.57-.91-.62-2.94-.49-4.14.08-.67,1.05-2.64-.14-2.15-.44.52-.71,1.42-.79,2.07-.15,1.22.07,3.7.6,4.6Z"/><path class="cls-4" d="m52.92,41.23c.06-.22-.07-.39-.36-.52-2,.66-3.9,2.24-5.77,3.61-.57.41-1.56.75-1.38,1.6.42.38.91-.12,1.19-.34,1.08-.84,2.08-1.84,3.23-2.52,1.1-.66,2.35-.94,3.09-1.82Z"/><path class="cls-4" d="m36.38,36.51c.99.57,2.12-1.44.57-1.71-.98-.17-1.32,1.28-.57,1.71Z"/><path class="cls-4" d="m9.85,23.15c.61-.63-.42-1.25-.71-.44,0,.27.47.56.71.44Z"/><path class="cls-4" d="m33.99,37.99c-.09-.06-.19-.12-.29-.18-.1-.06-.3.11-.41.19-.55.93-2.33,3.22-3,4.7-.07.17-.82,1.75-.46,2.01.76.55,1.22-1.42,1.37-1.74.68-1.44,2.75-3.81,2.79-4.99Z"/><path class="cls-4" d="m3.45,27.45c.73-.03.77-1.14.84-1.84.06-.66.17-1.53.04-2.14-.18-.87-1.23-2.55-1.85-3.21-.54-.57-1.42-1.19-1.75-.5-.11.56.65.69.96.99.49.47,1.17,1.57,1.49,2.2.47.91.27,2.13.13,3.13-.05.37-.41,1.01.14,1.36Z"/><path class="cls-4" d="m13.55,38.31c.13.29-.13.68.33.89,1.6-.9-.47-2.28-1.04-3.1-.36-.52-.78-1.47-1.33-2.3-.55-.83-1.18-1.65-1.4-2.34-.45-1.45.04-2.32.28-3.95.08-.52.63-2.6-.52-2.19-.29,2.09-1.19,4.33-.71,6.24,1.21,2.31,2.62,4.57,4.38,6.74Z"/><path class="cls-4" d="m30.37,60.7c-.2.62,1.06.65,1.49.62,2-.12,3.84-1.02,5.62-2.89.93-.97,2.07-2.61,2.13-3.77-.05-.03-.09-.06-.14-.09-.11-.07-.28.05-.41.02-1.69,2.88-3.5,4.8-5.69,5.56-.62.21-2.82.01-2.99.55Z"/><path class="cls-4" d="m15.98,42.17c.19-.04.36-.19.49-.48-.04-.4-.68-.61-.89-.16-.01.25.02.48.39.64Z"/><path class="cls-4" d="m19.04,47.71c.3.84,1.12,1.45,1.75,2.26.99,1.28,2.04,2.73,3.45,3.8.3.23.58.62,1.05.84.97.47,2.63.41,3.59.55.55.08,1.02.33,1.21-.04.43-.85-1.6-.9-1.98-.93-1.01-.09-1.78-.08-2.47-.45-1.24-.66-1.98-1.65-2.64-2.42-1.17-1.39-2.4-2.77-3.13-4-.29-.9.29-2.85-1.05-2.91-.21.46-.12,1.1-.04,1.65.08.51.11,1.2.27,1.64Z"/><path class="cls-4" d="m12.17,46.41c-.07-.7-.78-1.08-1.21-1.54-.45-.47-.96-1.01-1.33-1.51-1.26-1.69-1.77-3.6-1.99-5.36.02-.05.04-.09-.03-.12-.17-.05-.32,0-.49,0-.66,2.68,1.17,5.42,3.18,7.57.44.47,1.1,1.61,1.87.96Z"/><path class="cls-4" d="m34.67,61.69c.52.45,1.16.05,1.7-.36.88-.67,1.95-1.46,2.01-2.62-.1-.06-.19-.12-.28-.18-.14-.09-.19,0-.34-.08-.29.39-.37.7-.63,1.01-.84,1.02-2.11,1.2-2.46,2.23Z"/><path class="cls-4" d="m8.25,44.97c-1.35-1.09-1.47-3.99-2.78-3.29.37,1.27,1.1,3.17,2.51,4.21.4.3,1.16.89,1.59.29-.17-.85-.75-.75-1.32-1.21Z"/><path class="cls-4" d="m1.84,8.76c-.5,1.69-.73,3.87-.42,5.44.1.49.36,1.04.5,1.59.43,1.71,1.21,2.86,2.03,4.5.49.98,1.35,1.78,1.81,2.79.81,1.75.39,4.11.65,6.1.11.8.45,1.72.62,2.65.17.88.28,1.96.51,2.67.14.43.52.8.71,1.23.22.48.24.97.44,1.35.39.73.95,1.33,1.39,2.04.43.68.71,1.48,1.12,2.17.85,1.45,2.07,2.68,3.04,4.14,1.01,1.51,2.03,2.74,2.7,4.22.67,1.48,1.2,3.06,2.12,4.36.85,1.19,2.75,3.04,4.14,3.64.5.22,1.08.16,1.77.31.52.11,1.05.38,1.57.48,2.09.42,4.23-.08,6-.81.82-.34,2.01-.92,2.57-1.46,2.38-2.29.96-4.26.6-6.22,1.38-.61,2.48-1.79,3.74-2.7,1.27-.92,2.64-1.75,4.02-2.53.67-.38,1.47-.68,2.05-1.09.83-.59,1.46-1.33,2.28-1.93.77-.57,1.51-1.27,2.3-1.82.83-.57,1.86-.9,2.76-1.44,1.38-.82,2.53-1.74,3.71-2.82,1.13-1.04,2.46-1.84,3.74-2.7,1.76-1.19,3.05-2.92,4.94-4.02-.56,2.19-3.88,5.73-3.65,7.67.06.51.62,1.38,1.24,1.65,1.73.75,3.72-2.66,5.02-4.46,1.28-1.76,2.49-4.02,3.78-6.12,1.68-2.72,3.27-5.9,4.91-6.99-.89,2-2.18,4.42-1.99,6.24.07.69.33,1.63,1.21,2.02.6.27,1.28,0,1.9-.2.62-.2,1.38-.36,1.79-.67.96-.71,1.36-1.84,1.96-3.01.26-.51.65-.94.92-1.49.45-.92.59-2.04,1.06-2.98.28-.57.71-1.03.97-1.57.28-.59.37-1.28.66-1.86.56-1.13,1.38-2.05,1.93-3.13.53-.26,1.04-.56,1.63-.57,1.12.71,2.53,1.49,3.19.89.4-.36.53-1.66.55-2.32.02-.77.18-1.67.09-2.21-.2-1.22-1.47-2.26-2.81-2.92-1.65-.82-3.76-1.8-5.5-1.92-1.4-.1-2.9.33-4.44.5-3.29.37-6.85.38-10.02.79-.38.05-.77-.05-1.16-.03-.75.04-1.52.32-2.22.4-2.74.31-5.72.09-9.06.2-1.36.04-2.89-.02-4.58-.07-1.06-.04-3.76.1-4.65-.42-.39-.23-.68-.76-1.03-1.03-2.08-1.6-4.25-1.56-5.82-1.24-1.49.3-3.01,1.36-4.17,2.93-1.28-.46-2.44-.01-3.6-.06-1.66-.07-3.35-.4-5.1-.5-1.64-.1-3.33-.24-5.04-.27-2.25-.04-4.97.2-7.5-.11-.89-.11-2.08-.13-2.59-.42-.65-.38-.88-1.18-1.84-1.63-1.46-.68-3.56-.5-5.01.15-1.27.57-3.82,2.56-4.43,4.63Zm64.29.63c.89.15,1.53.39,2.03.37.14.43.22.88.03,1.39-1.15.25-3.06-.2-4.18-1.5.26-.85,1.24-.4,2.13-.26Zm-2.58,6.56c-.95-.72.44-1.97,1.02-2.61.79.84-.14,2.09-1.02,2.61Zm-17.7-9.37c.51.4,1.25,1.19,1.48,1.9.5,1.53-1.29,5.91-3.18,6.58.36-.96,2.53-2.16,2.07-3.34-.8-.05-1.24.98-1.8,1.64-.72.84-1.53,1.8-2.4,1.66,1.06-.99,2.33-2.1,3.4-3.9.24-.41.78-.95.35-1.36-1,.1-1.4,1.7-2.14,2.51-.47.51-1.16,1.08-1.69,1.61-.55.56-1.25,1.44-1.9.69,1.11-1.08,2.4-2.32,3.5-4.23.24-.41.79-.98.24-1.33-1,.17-1.36,1.57-2.03,2.48-.72.99-1.68,1.79-2.38,2.26-.52-.64.47-1.37,1.04-2.01.59-.65,1.34-1.33,1.79-1.94.27-.38.94-1.1.37-1.54-.64-.1-.83.65-1.15,1.06-.86,1.13-2.1,2.17-2.92,3.3-.3-.27-.33-.61-.63-.88.82-.04,1.45-1.25,2.32-2.01.56-.49,1.49-1.02.94-1.68-.51-.21-.68.37-1,.66-.82.75-1.88,1.31-2.37,2.56-.59-.72.05-2.39.52-3.22,1.35-2.41,5.25-3.33,7.6-1.49Zm-15.91,1.57c2.15.23,4.16.6,6.23.41-.29.98-.52,1.94-.37,2.82-1.98,1.34-4,3.18-5.93,4.98-.53.5-1.7.96-1.38,1.9.85.05,1.44-.8,2-1.32,1.78-1.65,3.75-3.4,5.64-4.67.56.55.76,1.2.81,1.87,1.34,1.73,3.27,2.59,5.05,2.63,1.47.04,3.31.17,4.41-1.1,1.94-2.23,2.88-5.06,2.58-7.35,4.58.19,9.12.22,13.64.18-.15.88-.89,1.64-.43,2.29.34.49,1.09.48,1.61.9-1.84,1.25-3.53,4.74-.98,5.88,1.1.49,2.8-.71,3.45-2.09.52-1.08.07-2.07.14-2.77,1.09.4,2.06.31,2.91-.26.93-1.03.85-3.3.31-3.84-.35-.35-.88-.5-1.41-.58,4.05-.3,8.41-.6,12.56-1.08,1.77-.21,3.34-.57,5.13.13.72.28,2.05.9,3.06,1.4.9.45,1.32.97,1.7,1.54-.2.78-.02,1.78-.29,2.38-.59.09-1.06-.62-1.58-.78-.55-.17-2.14.43-2.67.81-.9.65-2.12,2.79-2.78,4.18-.26.55-.36,1.26-.65,1.86-.29.58-.7,1.04-.97,1.56-.43.84-.52,1.72-.78,2.37-.16.39-.69,1.01-1.01,1.63-.4.78-.68,2.04-1.51,2.6-.64.44-1.49.42-2.11.56-.37-1.62.8-3.53,1.66-5.56.54-1.29,1.08-2.73.44-3.26-1.14-.95-3.4.9-4.27,1.98-2.56,3.16-4.87,8.57-7.61,12.3-1.07,1.46-2.02,2.89-3.12,3.77.13-.74.52-1.62.89-2.4.99-2.01,2.68-3.93,3.46-5.92.57-1.45-.66-1.86-1.86-1.44-1.26.43-2.21,1.12-3.38,2.14-1.05.91-2.07,2.01-3.18,2.75-.36.24-.81.34-1.14.57-2.14,1.53-4.11,3.83-6.46,5.05-.76.39-1.86.75-2.71,1.37-.76.55-1.47,1.14-2.22,1.68-.81.57-1.4,1.33-2.16,1.91-.93.71-2.18,1.22-3.25,1.92-1.1.72-2.31,1.18-3.18,1.96.02-.6,2.83-2.95,1.92-3.43-.38-.2-1.21.81-1.58,1.29-1.03,1.35-2.43,4.39-3.97,4.52.33-.86.96-1.72,1.55-2.68.56-.91,1.06-2.08,1.71-2.77.37-.4.96-.44,1.53-.73,2.22-1.11,4.17-2.4,6.37-3.63.35-.19,1.11-.48.78-1.09-.65-.25-1.24.29-1.75.59-1.05.62-2.13,1.22-3.25,1.92-.85.52-1.73.79-2.64,1.41-.16-.18-.12-.61-.44-.56-.71-.04-.76.86-1.17,1.25-.53.51-1.46.18-1.87.81-.15.74.86.44,1.04.54-.8,1.41-1.92,2.88-2.53,4.24-.57-.13-1.27-.75-1.89-1.07.19-.41.44-.53.67-.77.28-1.59,1.94-3.57,2.77-5.27.22-.46.52-1.08.25-1.52-.92-.28-.96,1.01-1.22,1.5-.87,1.62-2.02,3.54-3.08,5.57-1.4-.48-2.38-1.89-3.34-2.26.67-1.09,1.26-2.03,2.07-3.34.47-.76,1.97-2.74,1.52-3.19-.67-.67-1.89,1.84-2.26,2.44-.77,1.25-1.33,2.15-1.98,3.2-.74-.74-.57-1.01-1.38-1.64.49-.79.92-1.49,1.54-2.49.42-.68,1.4-1.92.87-2.31-.65-.48-1.32,1.09-1.66,1.63-.58.94-.99,1.6-1.45,2.35.08-.13-.33-.81-.74-1.24.92-1.23,1.44-2.61,1.99-3.79.2-.43.83-.86.39-1.33-.99-.22-1.03,1.05-1.33,1.73-.38.87-1.04,1.64-1.49,2.42-.27-.64-.4-1.07-1.02-2.01.4-.65.89-1.44,1.36-2.2.44-.71,1.32-1.37,1.05-2-1.13-.19-1.71,2.46-2.59,3.41-.3-.23-.38-.49-.57-.75.87-1.23,1.74-2.68,2.67-3.95.72-.99,2.11-1.83,1.81-2.91-.59-.22-1.04.57-1.4,1-1.06,1.28-2.3,3.21-3.43,4.76-.93-.68.14-2.33,1-2.73.27-.98,1.02-1.89,1.67-2.7.91.36,1.67-.72,1.22-1.5.37-.62,1.48-1.4,1.09-2.08-.33-.2-.56.03-.8.19-1-.66-1.83.84-1.11,1.48-1.09,1.16-2.05,3.17-3.44,3.67-.35-.94.3-1.64,1.11-2.75.63-.87,1.2-1.94,1.8-2.92.58-.94,1.49-1.98,1.17-2.81-.91-.12-1.43,1.23-1.98,2.12-.61.99-1.26,2.03-1.76,2.84.38-.61.2-1.58-.19-2.28.74-.68,1.35-2.27,2.3-3.49.58-.75,2.47-1.44,1.23-2.28-.85-.58-1.5.4-1.34,1.23-.97.77-1.66,2.75-2.58,3.71-.38-.52-.62-1.07-.98-1.59.67-1.12,1.51-2.31,2.25-3.32.38-.51,1.29-1,.83-1.65-.97-.11-1.53,1.24-2.22,2.17-.38.5-1.03,1.15-1.42,1.97-.21-.31-.28-.66-.59-.95.39-.44.36-.77.06-1.05.91-1.63,2.08-2.65,2.93-3.79,1.92.45,4.5,1.27,5.17-1.52.1-.41-.07-1.01-.05-1.5.05-1.04.42-2-.15-2.46-.61-.49-1.94-.14-2.67.02-.76.17-1.72.29-2.41.87-1.45,1.23-1.37,3.5-1.14,4.7-.91,1.2-1.91,2.01-2.73,3.62-1.19-1.2-2.47-2.37-2.77-3.78.72-.99,1.58-2.28,2.47-3.19.39-.4,1.24-.71.83-1.35-1.52.03-2.65,2.38-3.95,3.85-.21-.5-.52-.97-.65-1.49.06-1.28,3.35-2.59,2.55-3.34-.38-.36-1.5.58-2.05,1.09-.37.34-.57.7-.89,1.12-.25.02-.27-.44-.35-.71-.25-.82-.66-1.88-.77-2.74.27-.35.26-.63.38-.94,5.59,1.01,11.24.14,16.75.73Zm-7.29,5.42c.13-1.9,1.88-2.31,3.15-2.38-.11.92.39,1.69-.33,2.75-.88-.05-2.12-.26-2.82-.37ZM8.91,5.27c.55-.02,1.35.07,1.7.27,1.13.62.87,1.81.35,2.77.45,2.03,1.15,3.75,1.96,5.73.54,1.31,1.43,2.94,2.51,4.21.76.89,1.71,1.66,2.5,2.63.44.54.92,1.44,1.45,2.27.48.75,1.15,1.71,1.21,2.33.07.65-.31,1.19-.42,1.8-.18.93-.17,2.17-.19,3.32-.02,1.1-.08,2.29.2,3.17.21.65.71,1.27,1.02,2.01,1.04,2.47,2.29,5.09,4.33,7.3.3,1.54,1.87,2.44,3.39,3.57,1.6,1.18,3.68,1.92,4.7,3.2.91,1.13.87,2.44,1.17,3.67-.73,1.5-1.66,1.98-2.93,2.51-1.55.65-3.02,1.07-4.8.77-.5-.09-1.04-.35-1.57-.48-.53-.13-1.1-.08-1.44-.2-.95-.34-2.64-1.82-3.39-2.78-1.53-1.96-2.01-4.77-3.51-6.89-1.24-1.75-2.58-3.33-3.79-5-.56-.77-.97-1.69-1.46-2.57-.5-.9-1.23-1.67-1.69-2.52-.16-.3-.16-.77-.34-1.19-.18-.42-.56-.77-.69-1.11-.25-.66-.33-1.81-.51-2.67-.21-.96-.53-1.88-.62-2.65-.25-2.11.21-4.54-.9-6.65-.49-.92-1.22-1.64-1.71-2.63-.45-.92-1.09-1.72-1.48-2.69-.15-.36-.2-.98-.38-1.61-.26-.88-.67-1.69-.62-2.65.04-.76.21-2.49.47-3.15.96-2.45,3.57-4,5.47-4.08Z"/></g></svg>