<?xml version="1.0" encoding="UTF-8"?><svg id="Layer_2" xmlns="http://www.w3.org/2000/svg" viewBox="0 0 68.83 93.27"><defs><style>.cls-1{fill:#fff;}.cls-2{fill:#ffd15b;}.cls-3{fill:#d7f0fc;}.cls-4{fill:#0989ab;}.cls-5{fill:#0ab3de;}.cls-6{fill:#3a1312;}</style></defs><g id="Layer_15"><path class="cls-2" d="m11.48,27.31c.34.11.44.34.83.43.33-1.12.86-1.84,1.14-3.06-.28-.21-.52-.44-.75-.67-.45,1.01-.88,2.07-1.21,3.3Z"/><path class="cls-2" d="m10.55,19.39c-.81,1.6-1.85,3.44-2.4,5.12,1.01-1.17,1.46-3.42,2.48-4.56-.07-.17.06-.43-.09-.56Z"/><path class="cls-2" d="m8.88,25.53c.5.47,1.08.91,1.79,1.27.23-1.46,1.3-2.59,1.21-3.83-.81.06-1.29,3.38-2.17,2.99-.21-.09-.27-.36-.22-.68.14-.94,1.41-2.22,1.69-3.41-.11-.21-.14-.46-.33-.63-.56,1.59-1.68,2.99-1.97,4.29Z"/><path class="cls-2" d="m14.19,25.36c-.29,1.15-.85,1.78-1.11,2.98.59.23.86.62,1.49.82.33-1.08.65-2.16,1.11-2.98-.5-.27-.92-.59-1.49-.82Z"/><path class="cls-5" d="m48.4,43.66c-.65-.02-1.29-.01-2.04-.21-.07.3-.18.52-.31.69-1.72,1.28-3.68,2.44-5.79,3.35-1.54.67-3.21,1.2-4.76,1.75-.42.15-1.33.55-1.61-.16.16-.6.91-.63,1.39-.79,3.19-1.09,6.25-1.99,8.87-3.96.42-.31,1.12-.63,1.1-.97-1-.14-1.92-.1-2.91-.22-.15.11.03.4-.2.64-2.23,1.03-4.59,2.48-7.11,3.11-.29.07-2.51.85-2.44-.07.04-.48.76-.47,1.05-.55,2.56-.66,5.49-1.74,7.77-3.25-3.34-.37-6.79-1-10.47-1.8-1.95-.42-4.08-.57-6.16-1.06-5.54-1.32-10.86-3.71-15.48-5.93-.34,2.37-.48,4.87-.33,6.91.05.79-.12,1.54-.12,2.33,0,.87.23,1.74.23,2.61,0,4.8.16,9.85.06,14.57-.05,2.15-.28,4.29-.26,6.4.05,4.96.75,10.07.81,14.98,1.21.95,2.69,2.5,4.66,3.3,2.82,1.16,6.53,2.42,9.38,2.78.61.07,1.42-.1,2.19,0,2.13.25,4.15.79,5.34-.25.98-2.46,1.74-5.35,2.78-7.71-2.13.74-5.15,1.56-7.74,2.03-.68.12-2.17.84-2.36-.3.71-.53,1.64-.38,2.45-.54,2.52-.5,5.01-1.23,7.32-2.08.27-.15.49.35.61.02.63-1.48,1.45-3.28,1.9-4.66-2.22,1.3-5.16,1.8-7.84,2.35-.26.05-2.65.89-2.59-.11.04-.58,2.14-.7,2.53-.78,2.79-.57,5.32-1.22,7.74-2.03.32.06.16.36.27.52.54-1.94,1.43-3.23,2.14-4.85-2.6.57-5.28,1.43-7.87,2.17-.21.06-2.65.96-2.43-.07.09-.42,1.88-.76,2.39-.91,2.59-.76,5.16-1.33,7.5-2.11.37.01.32.11.61.28,1.14-2.37,2.08-5.13,3.12-7.7-1.74.33-3.6,1.54-5.57,1.84-.13.58-.07,1.06-.27,1.67,1.55-.09,3.06-1.38,4.68-1.77.54.99-.73,1.17-1.32,1.42-.69.29-1.5.74-2.15.99-1.48.55-2.89,1.48-4.33,1.79-4.4.95-12.54.29-16.74-3.34-.41-1.21-1.28-2.56-1.26-4.07.02-1.34.56-2.91,1.5-3.65,1.65-1.3,5.66-2.11,8.08-2.01,1.97.07,5.17.6,7.09,1.7,1.73.99,3.53,2.27,4.51,3.78,2.11-1.25,4.67-1.61,6.88-2.65.29-.05.34.15.62.28.58-1.4,1.03-3.05,1.53-4.6-.89.25-2.02,1.08-3.01,1.51-1.67.72-3.39.94-5.4,1.28-.39.07-1.74.51-1.57-.32.09-.42,1.11-.47,1.58-.55,3.18-.55,5.76-1.23,8.12-2.97.17-.15.56.14.66-.14.18-.78.54-1.18.76-1.86-3.07,1.53-6.17,3-9.56,3.91-.11-.21-.31-.37-.22-.68,2.39-1.05,5.49-1.96,7.96-3.28.73-.39,2.02-1.02,2.43-1.6.52-.73.56-1.78.91-2.61-3.04,2.68-6.93,5.07-10.82,5.97-.52.12-1.28.55-1.77.06.07-.77.93-.76,1.41-.87,4.26-.95,7.89-3.51,11.16-6.22.25-.22.51.23.64-.06,0-.21.49-.53.12-.66Zm-20.61,44.61c-1.37-.25-1.07-1.44.2-.9,1.1-.06,1.57-.31,2.6-.76.24-.1.46.4.46.5-.02.85-2.72,1.26-3.26,1.17Zm2.42-2.4c-.61.22-1.21.43-1.84.56-1.27.26-2.67.57-4.02.23-.05-.85.9-.73,1.47-.76,2-.14,3.73-.78,5.43-1.36.07-.03.64.09.64.46-.3.61-1.09.66-1.68.87Zm-4.69-2.09c2.3-.45,4.43-1.05,6.51-1.72.08-.06.18-.07.29-.08.29.05.31.24.4.39-.77,1.15-2.44,1.07-3.71,1.46-1.4.45-2.82.56-3.98.94-.33.11-1.8.77-1.67-.26.08-.63,1.89-.67,2.16-.72Zm5.28-14.82c.74-.14,1.57-.39,2.29-.59,1.97-.56,4-.93,5.65-2.08.19-.21.66,0,.72.23-.25.65-.9,1.03-1.46,1.29-2.25,1.08-5.29,1.54-7.76,2.12-.51.12-1.06.6-1.56-.05.31-.93,1.42-.77,2.13-.91Zm-1.56,4.68c2.5-.29,5.08-1.31,7.42-2.13.05-.08.18,0,.21-.11.26.04.27.21.43.31-.33.94-1.52,1.16-2.39,1.44-1.79.59-3.59,1.02-5.58,1.31-.8.11-2.03.71-2.59-.12.58-.78,1.69-.61,2.5-.7Zm-2.1,5.3c.84-.15,1.6-.47,2.42-.73,1.71-.54,3.42-1.16,5.1-1.72.31.04.41.19.51.33-.4.94-1.63.92-2.49,1.23-1.79.64-3.36,1.37-5.37,1.73-.77.14-2.04.71-2.65-.22.69-.62,1.67-.48,2.48-.62Zm-2.29-10.27c.84.09,1.75-.84,1.98.1-.69,1.15-2.28.77-4.17.17-.65-.2-1.55-.29-1.55-.92.91-.82,2.44.51,3.74.65Zm-13.4-15.61c-.79-.3-.43-1.21-.4-1.79.19-3.12.37-6.81.02-9.81-.14-1.23-.54-2.55.04-3.75.12.04.42-.2.42.05.41.55.14,1.26.19,1.9.15,1.78.51,3.67.41,5.65-.1,1.99-.12,4-.22,5.98-.02.56.15,1.4-.47,1.78Zm-.3,2.36c-.31-.56.55-1.02.84-.44-.07.54-.36.68-.84.44Zm.33,22.89c.29,1.99-2.07-.23,0,0h0Zm-.08-4.76c.03.52.37,1.44-.45,1.7-.63-.35-.31-1.12-.35-1.69-.03-.53-.25-1.12-.27-1.66-.07-2.02.15-4.14.06-6.29-.05-1.03-.02-2.13.03-3.15.05-1.06.03-2.1.27-3.07.18,0,.29-.13.53,0,.34,1.24.18,2.63.14,3.99-.08,3.33-.15,6.92.04,10.18Zm9.22-20.41c-.85.19-1.75.14-2.58.68-.96.63-2.14,1.6-2.76,2.37-.49.62-.33,1.2-1.13,1.66-.66-.32-.24-1.03-.1-1.35.66-1.52,3.71-3.94,5.45-4.24.63-.11,1.29.04,1.79-.4,1.16.44-.21,1.17-.67,1.28Zm3.9-.97c-.64,1.7-1.44-1.21,0,0h0Zm8.2-7.67c.1-.48.27-.14.71-.3.63-.23,2.77-1.66,3.38-1.56.34.05.58.2.57.44-.15.51-.76.61-1.13.79-.39.19-.78.39-1.23.58-.1.05-2.56,1.26-2.3.07Zm2.94,12.67c2.31-.65,4.68-1.17,6.97-1.84.18-.21.41-.34.6-.51.43.04.45.3.54.52-.51.95-1.91,1.16-3.17,1.45-1.19.28-2.42.62-3.42.85-.13.03-2.77,1.04-2.3-.2.13-.34.47-.27.79-.28Z"/><path class="cls-2" d="m30.1,57.18c-5.07-2.07-10.13-1.2-12.86.69-.22.69-.44,1.38-.65,2.07-.28.91.4,1.71.91,2.48.58.87.83,1.03,1.98,1.68,1.42.8,2.48,1.17,4.32,1.53,2.35.47,4.67.41,6.74.28,1.39-.09,3.36-.56,3.78-1.44.41-.87.44-3.18.25-3.78-.34-1.07-3.04-2.92-4.47-3.51Zm-11.67,4.3c.09-1.13,1.19-2.03,1.99-2.7.95-.81,1.92-1.52,2.76-2.37.32.06.5.18.59.36-1.02,1.61-2.61,2.49-3.9,3.77-.35.35-.69,1.27-1.44.95Zm.96,1.97c-.58-.82.51-1.36,1-1.79,1.66-1.45,3.6-3.38,5.31-4.64.36.06.49.23.57.44-1.64,1.61-3.32,3.18-5.08,4.71-.55.47-1.09,1.09-1.8,1.27Zm1.87,1.02c-1.19-.16.51-1.58.74-1.78,1.77-1.55,3.53-3.27,5.15-4.95.03-.37.59-.11.68.04-.6,1.57-1.85,2.48-3.14,3.57-.47.4-1.12,1.17-1.66,1.67-.32.29-1.55,1.49-1.77,1.45Zm2.63.57c-.93-.73.18-1.17.69-1.63,1.63-1.47,3.6-4.01,5.01-5.08.23-.17.54-.26.74.15-.22.74-.9,1.27-1.45,1.82-.53.53-1.1,1.06-1.64,1.58-1.12,1.09-2.09,2.36-3.36,3.15Zm2.2.25c.06-1.07,1.23-2.19,2.14-3.18.96-1.04,1.97-2.09,2.68-2.66.14-.12.49-.33.74.15-1.35,2.18-3.53,3.34-4.58,5.66-.28.11-.51.3-.98.04Zm3.93-1.92c-.59.64-1.1,1.45-1.75,1.11.17-1.29,1.75-2.3,2.59-3.22.09-.05.23.02.29-.08.97.49-.5,1.5-1.13,2.19Z"/><path class="cls-1" d="m50.99,37.64c-.78.13-1.46.45-2.27.52-4.12.32-8.44.58-13.14-.28-3.27-.6-6.85-1.23-10.41-2.58-1.87-.71-4.25-1.39-6.25-2.14-1.96-.74-3.93-1.68-5.7-2.76-2.53-1.54-5.04-2.84-6.4-4.73-.93.52-1.84,1.07-2.77,1.58,1.68,3.51,5.89,5.45,10.49,7.6,3.3,1.54,7.05,2.83,10.43,3.63,2.28.54,4.66.68,6.73,1.15,4.67,1.06,8.83,1.64,13.23,1.97,2.03.15,3.85.48,5.69.3,2.81-.28,5.43-.72,7.64-1.71-1.2-.89-2.02-1.97-2.8-3.07-1.36.42-2.83.25-4.46.52Z"/><path class="cls-5" d="m43.14,57.87c-2.21,1.01-4.59,1.69-6.91,2.47.09.62.06,1.3.08,1.95,2.11-.65,4.18-1.35,6.09-2.38.16-.76.78-1.33.73-2.05Z"/><path class="cls-2" d="m16.39,26.75c-.4.85-.69,1.93-1.01,2.93.4.33,1.01.54,1.6.76.43-.75.64-1.93.98-2.85-.49-.3-.97-.6-1.57-.84Z"/><path class="cls-1" d="m41.41,33.57c-2.81-.06-5.17-.78-8.08-1.49-4.71-1.14-10.46-2.31-14.23-3.95-.29.93-.58,1.86-.88,2.79,3.81,1.5,8.28,2.94,11.26,3.9,3.26,1.05,7.79,1.63,11.54,1.97.1-.33-.05-.93.11-1.63.13-.56.58-1.29.27-1.58Z"/><path class="cls-1" d="m16.73,24.84c4.25,2.81,10.9,4.1,16.59,5.48.73.17,1.38.49,2.07.65,2.69.61,5.53.89,8.11,1.24.59.08,1.27.08,1.91.08,1.92-.03,3.97-.04,5.47-.38,1.51-.36,3.83-1.34,3.99-3.21.12-1.41-1.58-3.25-2.74-4.11-1.17-.87-1.69-1.31-3.23-1.72-.51.56-1.05,1.06-1.5,1.72,1.7.59,3.2,1.52,3.46,2.93.31,1.67-.85,3.01-2.14,3.18-1.76.24-3.71-.06-5.88-.27-2.52-.25-5.69-.73-8.37-1.23-.6-.11-1.6.1-1.58-.84.98-.51,2.66.31,3.97.46.11.01-.09-.6.23-.72.78-.72,1.23-2.08,2.34-2.15.61,1.16-1.77,1.84-1.56,3.01.53.29.6-.47.86-.78.52-.62,1.51-.96,1.71-2.09.13-.22.57.15.66-.14,1.04-2.14,2.47-3.54,3.75-5.22-.75-.27-1.41-.42-1.86-.5-4.91-.82-10.22-3.05-15.65-4.31-1.56-.36-3.76-.6-6.02-.93-1.99-.29-4.12-.69-5.69-.3-.85.21-2.11.79-2.52,1.31-.97,1.23-1.02,3.74-.58,4.9.66,1.74,2.33,2.72,4.19,3.95Zm22,.53c.06-.34.03-.25.18-.56,1.4-.4.72,1.69-.18.56Zm1.07-2.56c-.19.01-.34.12-.61-.01-.64-.76,1.18-1.13.61.01Zm-11.17,4.29c.01-1.52,1.56-2.17,2.3-3.13.31.04.41.19.51.34-.1.87-1.19,1.43-1.71,2.09-.27.34-.45,1.16-1.1.7Zm1.42,1.06c-.52-.2-.59-.91-.1-1.09.54.12.69.45.49.94-.13.05-.28.06-.39.14Zm1.9-1.59c-.28.46-.44.97-.88.86-1.27-.31,1.42-2.45,1.85-2.83.2.05.39.11.45.23-.01.97-.89,1.35-1.43,1.74Zm-14.33-7.93c.6-.13,1.36-.05,2.14-.12,2.24-.17,4.89-.31,7.81.27,2.63.52,7.19,2.41,9.56,2.74.22.03.65.1.44.84-.61.27-1.29-.14-1.91-.34-5.02-1.58-9.46-3.04-13.74-2.83-1.06.05-4.6,0-5.19.91-.19.29-.13.65-.28.88.17.49.59.85.81,1.31,3.41-1.58,9.04-.64,14.13.5,2.26.51,4.51,1.21,6.51,1.87.05,1.26-1.22.58-1.95.35-3.87-1.22-7.69-1.92-11.12-2.53-.55,1.29-1.56,1.69-2.2,2.81.03.35.52.13.75.41.62-.27.92-.91,1.54-1.53.37-.38,1.17-1.43,1.62-1.25.84.34-.4,1.3-.66,1.54-.6.56-.93.98-1.35,1.51.44.28.99.34,1.7.45.14-.12.13-.62.36-.85.5-.31.85-.93,1.3-1.34.4-.36.92-.92,1.55-.74-.09,1.4-1.75,1.9-2.43,3-.22.18.34.41-.01.87-1.37,0-2.79-.69-4.4-1.04-1.5-.32-2.99-.95-4.05-1.62-.89-.56-1.48-1.46-2.31-1.87-1.39-1.48-.6-3.75,1.41-4.2Z"/><path class="cls-2" d="m40.12,29.31c.23-1.24,1.7-1.65,1.04-2.74-.38,1.44-1.4,1.68-2.05,2.6.37.12.65.05,1.01.14Z"/><path class="cls-2" d="m49.25,36.22c.42.21.6-.03.9-.07.06-.81.09-1.6.25-2.46-.37-.11-.59.06-.9.07-.08.82-.3,1.71-.25,2.46Z"/><path class="cls-2" d="m20.04,22.38c-.54.25-.86.9-1.3,1.34.44.19,1.39-.95,1.3-1.34Z"/><path class="cls-2" d="m47.93,36.51c.1-.15.39.06.47-.11-.2-.67.13-1.62.15-2.41-.32-.1-.52.03-.79.01,0,.87-.22,1.85.17,2.51Z"/><path class="cls-2" d="m42.42,33.72c-.14.99-.73,2.2-.51,3,.89,0,1.86.16,2.64-.04-.1-.79.07-1.72.22-2.65-.81-.14-1.47,0-2.36-.3Z"/><path class="cls-2" d="m45.42,36.68c.55.03,1.06-.02,1.53-.13-.22-.73-.14-1.62-.1-2.48-.47-.17-.83-.14-1.19-.11-.09.91-.34,1.91-.25,2.73Z"/><path class="cls-2" d="m20.91,23.53c.33-.39.75-.77.98-1.18-.95.18-1.38,1.36-2.11,1.97.61.25.84-.45,1.12-.79Z"/><path class="cls-2" d="m21.73,25.1c.54-1.13,1.42-1.62,2.04-2.6-.12-.22-.59-.04-.9-.2-.35.91-1.26,1.73-1.86,2.57.2.15.35.17.72.23Z"/><path class="cls-2" d="m49.95,27.59c-.41-1.1-1.58-1.8-3.24-2.25-.4.56-.9.93-1.27,1.53,2.2.32,3.03,1.7,4.27,2.31.42-.33.16-1.05.24-1.59Z"/><path class="cls-2" d="m43.12,26.75c.92-.75,1.75-1.87,2.7-3.01.85-1.02,1.89-2,2.8-3.06.74-.85,1.23-1.87,1.91-2.73,1.42-1.8,2.53-3.29,3.93-5.25,1.07-1.49,2.42-3.64,4.15-1.76,1.75-1.28,2.01.44,2.55,1.94.59,1.66.57,3.64.75,5.41.11,1.06-.05,2.02.05,2.91.13,1.13,1.39,3.18,2.52,1.76-.85-4.65-1.92-9.18-2.75-13.83-.79-.02-1.61-.46-2-.89-.53,1.85-2.15,1.55-2.95.47-3.67,5.89-8.51,10.18-12.51,15.52-.5.66-1.59,1.5-1.15,2.53Z"/><path class="cls-2" d="m51.53,33.43c-.51.53-.36,1.76-.43,2.49.37.03.75.07,1-.12-.26-.75-.04-1.76-.57-2.37Z"/><path class="cls-2" d="m41.05,29.43c.37.03.79.14,1.11.08-.52-.34.05-.68.19-1.17-.81-.36-.97.52-1.3,1.08Z"/><path class="cls-2" d="m44.28,29.75c.18-.86,1.24-1.35,1.13-1.93-.68.49-1.38.94-1.82,1.88.26.06.48.06.69.04Z"/><path class="cls-2" d="m54.32,32.91c.37-.37.63.41.77.33-.08-.42-.28-.79-.31-1.24-.44-.09-.76.6-.46.91Z"/><path class="cls-2" d="m45.31,29.81c.4.16.46-.32.63-.59.36-.24.65-.62.99-.91-.18-.06-.37-.12-.56-.18-.2.78-.96,1.11-1.05,1.68Z"/><path class="cls-2" d="m47,29.46c-.08.14-.23.15-.28.35.37.2.4-.15.28-.35Z"/><path class="cls-2" d="m52.56,33.23c.26.8.11,1.81.52,2.53.1.03.14-.07.27,0-.07-.7-.08-2-.13-2.93-.15.27-.53.08-.65.41Z"/><path class="cls-2" d="m54.15,33.73c-.13.69.08,1.2.14,1.79.42.04.83.07,1.06-.28-.1-.48-.2-.97-.24-1.48-.06.39-.23.58-.52.54-.31-.1-.33-.36-.43-.57Z"/><path class="cls-3" d="m22.93,30.24c-.43-.15-.87-.32-1.3-.48.21-.06.4-.14.59-.25.4-.24.59-.74.26-1.13-.48-.58-.69-.7-1.43-.89-1.1-.28-2.06-.89-3.05-1.42-1.62-.88-3.06-1.63-4.92-1.84-.07,0-.14,0-.2,0-.97-1.17-1.7-2.51-2.09-4.11-.18-.76-1.3-1.22-1.77-.41-.9,1.54-.9,3.13-.33,4.66-.91-.16-1.77-.07-1.49.85.2.67.93.93,1.48,1.27.95.59,1.86,1.24,2.81,1.85,3.12,2.99,7.8,5.19,10.64,5.32,1.96.09,2.75-2.71.8-3.41Z"/><path class="cls-3" d="m55.8,33.02c.29-1.66-2.02-2.91-3.24-1.71-2.12,2.09-4.98,2.38-7.83,2.38-2.2,0-5.23-1.07-7.29-.12-.3.13-.53.58-.33.89,1.46,2.32,5.55,2.64,8.02,2.9,2.25.23,4.68,0,6.81-.89.04.02.07.05.11.07.83.47,2.17.53,2.71-.47.53-1,.85-1.91,1.04-3.03Z"/><path class="cls-3" d="m50.39,27.43c-.35-1.68-1.9-2.58-3.46-2.83-1.42-.23-2.09.95-1.96,2.08-.85.09-1.71.06-2.57.02-.84-.04-1.84-.27-2.83-.39-.12-.29-.33-.56-.69-.76-3.93-2.2-10.9-5.31-15.43-3.09-1.42-.22-2.86-.35-4.32-.31-.1-.01-.19-.01-.28,0-.03,0-.06,0-.09,0h0c-1.13.26-1.71,2.31.07,2.62,1.23.21,2.44.46,3.65.72,1.16,1.13,2.55,1.55,4.02,1.74,2.93,1.62,7.15,2.24,10.22,1.9,1.43.7,3.41.91,4.89,1.15,1.32.21,2.69.26,4.02.2.5-.02.96-.1,1.38-.23.34.28.79.43,1.35.32,1.56-.31,2.36-1.57,2.04-3.14Z"/><path class="cls-3" d="m23.93,19.36c-1.13-.92-3.45-.86-4.83-.77-1.48.1-3.37,1.38-2.42,3.05.14.25.48.38.72.16,1.19-1.04,2.4-.99,3.92-.78.63.09,1.73.29,2.32-.04.64-.37.96-1.07.28-1.62Z"/><path class="cls-3" d="m55,37.82c-1.5-.42-2.89.54-4.34.93-1.75.48-3.61.62-5.42.65-.6,0-.77.72-.23.99,1.74.88,3.55,1.03,5.48.87,1.55-.14,4.17-.41,5-1.88.3-.53.21-1.36-.48-1.56Z"/><path class="cls-4" d="m47.55,46.45c.26-.74-.27-1.73-1.11-1.78-2.77-.16-5.37.28-8.03,1.04-1.28.37-1.04,2.24.33,2.08.48-.05.94-.11,1.41-.18-1.01.63-1.95,1.37-2.81,2.32-.97,1.06.3,2.93,1.63,2.61.16-.04.3-.08.45-.13-.33.52-.67,1.03-.99,1.56-.64,1.04-.04,2.32.87,2.76-1.2,3.2-2.27,6.47-3.35,9.79-.12.36-.23.73-.34,1.11-.91-.58-2.2-.55-3.04.58-1.34,1.81-2.07,4.14-2.9,6.21-.66,1.65-1.31,3.29-2.02,4.91-.28.64-.58,1.26-.9,1.87-.5.93-1.15.92-.09.79-2.42.3-2.34,4.2.13,4.29.18,0,.35,0,.52-.02.05.41.12.83.22,1.25.37,1.59,2.4,2.7,3.76,1.4,4.3-4.12,5.71-10,7.22-15.57,2.3-8.44,4.59-17.71,8.89-25.37.29-.53.32-1.06.17-1.53Z"/><path class="cls-4" d="m12.33,81.2c-.68-4.88.02-9.69.47-14.6.4-4.43.58-8.89.56-13.34-.01-4.88.37-10.4-1.01-15.1-.19-.66-1.12-.89-1.4-.14-1.74,4.62-1.36,9.97-1.54,14.85-.18,4.86-.35,9.7-.88,14.54-.39,3.56-2.82,13.16.75,15.71,1.4,1,3.29-.25,3.05-1.91Z"/><path class="cls-6" d="m65.48,3.29c.08-.1.18-.15.31-.16.28-.98-1.36-2.48-2.4-2.95-.6-.27-1.02-.27-1.13.26.06.04.07.1.03.18,1.64.64,2.3,1.8,3.19,2.67Z"/><path class="cls-6" d="m58.26,3.12c.54-.18,1.2-.46,1.74-.5,1.99-.17,4.04,1.29,4.77,2.38.31.46.25,1.49,1.11,1.49.4-.53.03-1.34-.29-1.85-.43-.66-1.28-1.61-1.91-2-1.95-1.22-4.05-.92-5.37-.47-.6.2-1.44.25-1.65.8.36.82,1.18.31,1.61.16Z"/><path class="cls-6" d="m46.24,14.32c-.89.58-1.7.34-2.9.58-.75.15-1.47.37-2.11.3-2.69-.31-6.01-1.54-8.95-2.47-.6-.19-1.68-.66-1.88-.15-.3.76,2.62,1.35,3.68,1.68,1.42.45,3.05,1.07,4.31,1.35.65.15,2.19.47,2.99.51.89.04,1.96-.35,2.95-.47.91-.11,2.1.09,2.33-1.02-.12-.11-.13-.29-.43-.31Z"/><path class="cls-6" d="m67.56,24.83c.94.38,1.46-2.39,1.2-3.54-.16-.05-.32-.1-.48-.15-.69.85-.2.99-.36,1.71-.2.9-.97,1.73-.36,1.98Z"/><path class="cls-6" d="m11.2,12.85c1.64-1.2,5.1-2.17,7.58-2.09.78.03,1.34.16,2.6.38.52.09,2.3.67,2.43.06.11-.52-.71-.62-1.18-.72-1.3-.28-2.77-.67-4.08-.67-1.02,0-2.16.37-3.24.56-1.11.19-2.24.47-3.08.87-.8.38-2.56,1.23-2.32,2.34,1.01.1.79-.38,1.28-.74Z"/><path class="cls-6" d="m13.14,8.64c-.29.16-.63.56-.46.91.06.04.16.05.13.13.49.1.69-.17,1.13-.26.7-.13,2.02.11,2.16-.46.04-.17-.06-.43-.43-.57-.32-.13-2.28.11-2.53.25Z"/><path class="cls-6" d="m39.8,22.81c.57-1.14-1.25-.78-.61-.01.27.13.42.03.61.01Z"/><path class="cls-6" d="m38.73,25.37c.9,1.13,1.58-.96.18-.56-.15.31-.12.23-.18.56Z"/><path class="cls-6" d="m62.13,39.31c.2-1.12-1.01-1.47-1.59-2.17-.81-.96-1.53-2.38-1.47-3.7.03-.67.5-2.22-.55-1.58-.89,2.48.23,4.51,1.61,6.03.51.57,1.13,1.51,2.01,1.42Z"/><path class="cls-6" d="m31.44,24.3c-.1-.15-.2-.3-.51-.34-.74.96-2.29,1.61-2.3,3.13.65.45.83-.36,1.1-.7.52-.66,1.6-1.22,1.71-2.09Z"/><path class="cls-6" d="m32.93,24.6c-.43.38-3.13,2.52-1.85,2.83.44.11.61-.4.88-.86.54-.39,1.41-.78,1.43-1.74-.07-.12-.25-.18-.45-.23Z"/><path class="cls-6" d="m3.27,23.33c1.72-1.03,3.69-3.13,3.13-5.5-.24-.12-.35.02-.53,0-.33.73-.3,1.61-.65,2.34-.8,1.66-2.52,2.6-3.86,3.08-.43.16-1.16.13-1.36.71.78.93,2.21,0,3.27-.64Z"/><path class="cls-6" d="m29.95,27.08c-.49.18-.42.89.1,1.09.11-.08.26-.09.39-.14.19-.5.05-.82-.49-.94Z"/><path class="cls-6" d="m3.67,18.98c-.25.96-1.69,1.27-1.31,2.22.94.05,1.77-.77,1.84-1.96-.07-.14-.32-.19-.53-.26Z"/><path class="cls-6" d="m54.42,44.85c-.07-.09-.18-.17-.38-.2-1.95,1.2-3.82,4-4.98,7.2-.3.82-1.65,4.26-.75,4.32.63.05.86-1.62,1.02-2.13,1.1-3.49,2.35-6.02,4.04-7.85.46-.49.95-.28,1.04-1.34Z"/><path class="cls-6" d="m36.24,43.87c.37-.18.98-.28,1.13-.79.01-.24-.23-.39-.57-.44-.61-.1-2.75,1.33-3.38,1.56-.44.17-.61-.17-.71.3-.26,1.19,2.2-.02,2.3-.07.45-.19.85-.39,1.23-.58Z"/><path class="cls-6" d="m51.87,50.18c-.4.9-.9,1.6-1.36,2.38.1.08.15.19.16.32,1.04.37,2.7-2.83,1.19-2.69Z"/><path class="cls-6" d="m12.12,45.31c.1-1.98-.26-3.87-.41-5.65-.06-.64.22-1.35-.19-1.9,0-.24-.31,0-.42-.05-.58,1.21-.19,2.52-.04,3.75.35,3,.17,6.69-.02,9.81-.03.58-.39,1.49.4,1.79.62-.38.45-1.22.47-1.78.09-1.98.12-3.99.22-5.98Z"/><path class="cls-6" d="m37.16,57.65c1.01-.24,2.24-.58,3.42-.85,1.26-.29,2.67-.51,3.17-1.45-.09-.22-.11-.48-.54-.52-.2.18-.42.3-.6.51-2.3.66-4.67,1.19-6.97,1.84-.31,0-.66-.06-.79.28-.47,1.24,2.17.23,2.3.2Z"/><path class="cls-6" d="m5.49,70.03c.8-.48.89-1.93.93-2.68.06-.96-.12-1.99-.1-3.02.02-1.05.07-2.13.03-3.15-.27-6-.68-12.4-2.99-17.24,0-.26-.23.04-.4-.13-.56.93.33,1.77.6,2.55.93,2.69,1.06,5.74,1.37,8.76.1.98.32,1.94.39,2.93.08,1.05,0,2.1.05,3.17.11,2.06.3,4.22.13,6.26-.07.79-.73,2.16-.01,2.54Z"/><path class="cls-6" d="m24.51,52.18c-1.44-1.21-.64,1.7,0,0h0Z"/><path class="cls-6" d="m21.28,51.87c-.51.45-1.16.29-1.79.4-1.74.3-4.79,2.73-5.45,4.24-.14.32-.56,1.03.1,1.35.8-.46.65-1.04,1.13-1.66.62-.78,1.8-1.75,2.76-2.37.83-.54,1.73-.48,2.58-.68.46-.11,1.83-.84.67-1.28Z"/><path class="cls-6" d="m28.88,60.31c.55-.55,1.23-1.09,1.45-1.82-.21-.41-.51-.32-.74-.15-1.42,1.07-3.39,3.61-5.01,5.08-.5.46-1.62.89-.69,1.63,1.27-.79,2.24-2.07,3.36-3.15.54-.52,1.11-1.06,1.64-1.58Z"/><path class="cls-6" d="m25.7,57.03c-1.71,1.26-3.66,3.19-5.31,4.64-.49.42-1.58.97-1,1.79.71-.19,1.26-.8,1.8-1.27,1.76-1.53,3.44-3.1,5.08-4.71-.07-.21-.2-.38-.57-.44Z"/><path class="cls-6" d="m27.83,57.78c-.1-.15-.66-.41-.68-.04-1.62,1.68-3.38,3.4-5.15,4.95-.23.2-1.93,1.62-.74,1.78.23.03,1.45-1.16,1.77-1.45.54-.49,1.19-1.27,1.66-1.67,1.29-1.09,2.54-2,3.14-3.57Z"/><path class="cls-6" d="m23.18,56.41c-.84.85-1.81,1.56-2.76,2.37-.79.68-1.89,1.57-1.99,2.7.75.32,1.09-.6,1.44-.95,1.29-1.28,2.89-2.16,3.9-3.77-.09-.18-.27-.3-.59-.36Z"/><path class="cls-6" d="m30.9,59.45c-.71.57-1.72,1.62-2.68,2.66-.91,1-2.08,2.12-2.14,3.18.46.25.7.06.98-.04,1.06-2.31,3.24-3.48,4.58-5.66-.25-.48-.6-.26-.74-.15Z"/><path class="cls-6" d="m11.13,55.42c.48.25.76.1.84-.44-.28-.58-1.15-.12-.84.44Z"/><path class="cls-6" d="m31.14,61.19c-.06.11-.2.03-.29.08-.84.92-2.42,1.93-2.59,3.22.66.34,1.16-.47,1.75-1.11.63-.68,2.1-1.7,1.13-2.19Z"/><path class="cls-6" d="m30.23,69.93c2.47-.58,5.51-1.04,7.76-2.12.56-.27,1.21-.65,1.46-1.29-.06-.22-.53-.43-.72-.23-1.64,1.15-3.68,1.52-5.65,2.08-.72.2-1.56.45-2.29.59-.71.14-1.82-.02-2.13.91.5.66,1.05.17,1.56.05Z"/><path class="cls-6" d="m11.2,59.39c-.24-.12-.35.02-.53,0-.24.97-.22,2.01-.27,3.07-.04,1.01-.07,2.12-.03,3.15.1,2.15-.12,4.27-.06,6.29.02.54.24,1.13.27,1.66.03.57-.29,1.34.35,1.69.82-.26.48-1.18.45-1.7-.19-3.25-.12-6.85-.04-10.18.03-1.36.2-2.75-.14-3.99Z"/><path class="cls-6" d="m40.26,76.77c.96-2.27,2.07-5.13,2.49-7.37-.14-.04-.24-.09-.29-.18-.13,0-.24.05-.37.06-.9,2.34-1.87,5.22-2.76,7.37-.2.48-.74.93-.27,1.41.66.1.97-.75,1.19-1.29Z"/><path class="cls-6" d="m3.19,62.3c0,.51-.47,1.5.45,1.63.65-.83.44-2.06.16-3.28-.25-1.06-.27-3.09-1.19-3.18-.46.91.06,2.09.32,3.17.12.49.27,1.12.27,1.66Z"/><path class="cls-6" d="m29.33,74.47c1.99-.29,3.79-.73,5.58-1.31.86-.28,2.05-.5,2.39-1.44-.16-.1-.17-.27-.43-.31-.03.11-.16.03-.21.11-2.34.82-4.92,1.85-7.42,2.13-.81.1-1.92-.07-2.5.7.56.82,1.79.23,2.59.12Z"/><path class="cls-6" d="m22.65,68.95c1.89.6,3.48.98,4.17-.17-.23-.95-1.15,0-1.98-.1-1.29-.14-2.83-1.46-3.74-.65,0,.63.9.72,1.55.92Z"/><path class="cls-6" d="m27.3,79.79c2-.36,3.57-1.09,5.37-1.73.87-.31,2.09-.29,2.49-1.23-.1-.15-.2-.3-.51-.33-1.67.56-3.39,1.18-5.1,1.72-.82.26-1.58.58-2.42.73-.81.15-1.79,0-2.48.62.61.93,1.87.36,2.65.22Z"/><path class="cls-6" d="m25.03,84.77c1.16-.38,2.57-.49,3.98-.94,1.26-.4,2.94-.31,3.71-1.46-.1-.15-.11-.34-.4-.39-.11,0-.21.03-.29.08-2.08.67-4.21,1.27-6.51,1.72-.27.05-2.07.09-2.16.72-.13,1.03,1.34.37,1.67.26Z"/><path class="cls-6" d="m11.47,78.31c-2.07-.23.29,1.99,0,0h0Z"/><path class="cls-6" d="m31.25,84.54c-1.7.58-3.43,1.22-5.43,1.36-.57.04-1.51-.09-1.47.76,1.34.34,2.75.03,4.02-.23.63-.13,1.23-.34,1.84-.56.59-.21,1.38-.27,1.68-.87,0-.37-.57-.49-.64-.46Z"/><path class="cls-6" d="m35.35,87.93c-.93,1.19-1.63,3.41-2.63,4.17-.27.2-1.25.23-1.34.63-.26,1.15,1.71.12,1.96-.08,1.17-1.01,2.16-2.87,2.46-4.48-.19-.06-.19-.21-.45-.23Z"/><path class="cls-6" d="m30.59,86.61c-1.04.45-1.51.7-2.6.76-1.27-.54-1.57.65-.2.9.53.1,3.24-.31,3.26-1.17,0-.1-.22-.6-.46-.5Z"/><path class="cls-6" d="m19.16,92.57c.73.16,1.14.02,1.83.05.92.04,2.12.3,2.04-.93-.44-.36-.87.15-1.37.18-.57.03-1.7-.06-2.06-.13-6.17-1.07-9.97-4.87-13.3-7.6-.11.01-.21.03-.29.09-.79.48,1.36,2.03,2.21,2.71,1.12.9,1.92,1.46,2.97,2.25,2.31,1.73,5.44,2.83,7.96,3.38Z"/><path class="cls-6" d="m12.46,91.86c.89.36,2.23.97,2.7.33-.06-.04-.07-.09-.03-.18-.83-.86-3.09-.97-3.89-1.84-.28.02-.54.06-.6.51.16.47,1.02.86,1.82,1.18Z"/><path class="cls-6" d="m60.77,40.54c.08-.71-1.27-1.47-1.83-1.98-.8-.73-1.24-1.33-1.72-2.03-.28-1.09-.22-2.12-.37-3.27-.15-1.06-.7-2.07-.58-3.16.05-.5.37-.95.37-1.46.02-1.86-1.82-4.2-3.39-5.36-1.06-.79-1.85-1.31-3.1-1.85,2.28-3.26,4.74-6.17,7-9.45.38.5,1.49.8,2.07.65.93,2.12,1.03,5.21,1.06,7.78.01.95.11,1.94.42,2.58.38.8,1.14,1.77,1.89,2.08,1.43.6,3.22-.39,3.59-1.67.18-.62-.09-1.34-.22-2.08-.13-.73-.4-1.45-.51-2-.16-.86-.21-1.69-.41-2.58-.18-.78-.51-1.58-.71-2.5-.16-.78-.14-1.68-.31-2.64-.15-.88-.67-1.94-.6-2.55.14-1.23,1.22-2.67-.18-3.04-1.01-.26-1.07,1.23-1.99,1.3-.3-.87.03-2.01-1.07-2.17-1-.15-1.32,1.4-1.95,2.28-.42-.34-.43-1.01-1.23-1.09-.63-.06-1.56,1.3-2.03,1.99-2.85,4.17-5.89,7.68-8.99,11.02-2.23-.82-4.19-1.1-6.24-1.62-3.98-1.01-8.1-2.51-12.14-3.47-1.95-.47-4.21-.61-6.36-.95-2.25-.35-4.37-.66-6.06-.24-1.21.3-1.98.87-2.91,1.45-.4.25-.9.36-1.15.6-.42.4-.83,1.26-1.21,1.9-1.26,2.12-2.21,4.4-3.3,6.59-1.03.51-1.69,1.46-2.77,1.84-.74.26-1.46.08-1.73.77-.27.67.36,1.62.64,2.13,1.14,2.06,2.86,3.63,4.92,4.97-.95,5.62-.16,10.59-.18,15.63-.02,5.06.25,10.43-.19,15.63-.32,3.84.42,7.8.43,11.44,0,1.37-.08,2.67-.01,3.94.02.35.24.89.26,1.4.02.5-.13.92-.03,1.22.2.63,1.12,1.1,2.04,1.87,1.2,1,2.06,1.83,3.61,2.45,3.29,1.32,6.85,2.56,9.94,2.95.86.11,2.11,0,3.36.18,1.15.17,2.43.3,3.36.18.49-.06,1.76-.4,2.05-.67.61-.58.73-1.87,1.17-2.88.65-1.51,1.12-3.38,1.79-5.13,1.08-2.79,2.24-5.62,3.27-8.17.52-1.27,1.27-2.5,1.81-3.81.8-1.92,1.5-3.86,2.3-5.93.83-2.13,1.87-4.19,2.7-6.34.69-1.8,1.03-3.73,1.73-5.5,1.09-2.75,2.23-5.45,3.25-8.09,2.29-.23,5.43-.82,7.64-1.45.99-.28,2.67-.38,2.8-1.66Zm-5.67-6.78c.04.51.13,1,.24,1.48-.22.35-.64.31-1.06.28-.05-.59-.27-1.1-.14-1.79.1.21.13.47.43.57.29.04.46-.14.52-.54Zm-.32-1.77c.03.45.23.81.31,1.24-.14.08-.4-.7-.77-.33-.3-.31.02-1,.46-.91Zm-1.44,3.75c-.12-.06-.16.03-.27,0-.41-.72-.25-1.73-.52-2.53.12-.32.5-.14.65-.41.05.93.06,2.23.13,2.93Zm-1.24.05c-.25.19-.63.16-1,.12.07-.74-.07-1.96.43-2.49.53.61.31,1.62.57,2.37Zm4.67-27.1c.81,1.08,2.43,1.38,2.95-.47.39.43,1.21.87,2,.89.82,4.66,1.9,9.19,2.75,13.83-1.13,1.43-2.39-.62-2.52-1.76-.1-.88.06-1.85-.05-2.91-.18-1.77-.16-3.74-.75-5.41-.53-1.5-.8-3.22-2.55-1.94-1.72-1.88-3.08.27-4.15,1.76-1.4,1.96-2.51,3.45-3.93,5.25-.68.86-1.17,1.88-1.91,2.73-.92,1.06-1.96,2.04-2.8,3.06-.95,1.13-1.78,2.26-2.7,3.01-.44-1.03.65-1.87,1.15-2.53,4-5.34,8.83-9.63,12.51-15.52Zm-11.33,18.17c.37-.6.87-.97,1.27-1.53,1.66.45,2.83,1.15,3.24,2.25-.08.55.18,1.26-.24,1.59-1.24-.6-2.07-1.99-4.27-2.31Zm1.27,2.94c.05-.2.2-.21.28-.35.12.19.08.55-.28.35Zm.21-1.51c-.34.29-.62.67-.99.91-.17.27-.23.75-.63.59.09-.57.85-.91,1.05-1.68.19.06.37.12.56.18Zm-2.64,1.45c-.21.02-.43.01-.69-.04.44-.94,1.14-1.39,1.82-1.88.11.57-.95,1.06-1.13,1.93Zm-2.12-.23c-.33.06-.74-.06-1.11-.08.33-.56.5-1.44,1.3-1.08-.13.49-.7.83-.19,1.17ZM13.11,16c.41-.52,1.67-1.1,2.52-1.31,1.57-.39,3.7,0,5.69.3,2.26.33,4.46.57,6.02.93,5.42,1.26,10.73,3.49,15.65,4.31.44.07,1.11.22,1.86.5-1.28,1.68-2.7,3.09-3.75,5.22-.09.3-.53-.08-.66.14-.2,1.13-1.19,1.47-1.71,2.09-.26.31-.33,1.07-.86.78-.2-1.17,2.17-1.86,1.56-3.01-1.12.07-1.57,1.43-2.34,2.15-.32.11-.12.73-.23.72-1.32-.15-2.99-.97-3.97-.46-.02.94.97.73,1.58.84,2.69.51,5.85.98,8.37,1.23,2.16.22,4.12.51,5.88.27,1.29-.17,2.45-1.51,2.14-3.18-.25-1.41-1.76-2.34-3.46-2.93.46-.66.99-1.16,1.5-1.72,1.53.41,2.06.85,3.23,1.72,1.16.86,2.86,2.7,2.74,4.11-.16,1.87-2.48,2.86-3.99,3.21-1.49.35-3.54.36-5.47.38-.63,0-1.32,0-1.91-.08-2.58-.35-5.43-.63-8.11-1.24-.69-.16-1.35-.48-2.07-.65-5.68-1.38-12.34-2.68-16.59-5.48-1.87-1.23-3.54-2.21-4.19-3.95-.44-1.16-.39-3.67.58-4.9Zm27.01,13.32c-.36-.09-.63-.02-1.01-.14.65-.92,1.66-1.16,2.05-2.6.66,1.09-.81,1.5-1.04,2.74Zm10.03,6.84c-.29.04-.48.28-.9.07-.05-.75.16-1.64.25-2.46.31,0,.53-.18.9-.07-.16.86-.19,1.65-.25,2.46Zm-1.74.24c-.08.18-.37-.03-.47.11-.4-.66-.17-1.64-.17-2.51.27.02.48-.11.79-.01-.01.78-.35,1.74-.15,2.41Zm-1.45.16c-.48.11-.98.16-1.53.13-.1-.82.16-1.82.25-2.73.36-.02.72-.06,1.19.11-.05.87-.12,1.75.1,2.48Zm-2.4.12c-.78.2-1.76.04-2.64.04-.23-.79.36-2.01.51-3,.89.3,1.55.17,2.36.3-.15.92-.32,1.86-.22,2.65Zm-3.46-1.53c-.16.7-.06,1.29-.16,1.61-3.75-.33-8.18-.89-11.44-1.93-2.99-.96-7.45-2.4-11.26-3.9.29-.93.58-1.86.88-2.79,3.77,1.64,9.52,2.81,14.23,3.95,2.91.71,5.37,1.46,8.18,1.52.31.29-.29.97-.42,1.54Zm-24.11-4.7c-.59-.23-1.21-.44-1.6-.76.32-1,.61-2.07,1.01-2.93.6.24,1.09.54,1.57.84-.34.92-.55,2.1-.98,2.85Zm-2.4-1.28c-.64-.2-.91-.59-1.49-.82.27-1.2.82-1.84,1.11-2.98.57.24,1,.55,1.49.82-.46.82-.79,1.9-1.11,2.98Zm-2.27-1.42c-.38-.09-.48-.33-.83-.43.33-1.23.76-2.29,1.21-3.3.23.23.47.46.75.67-.28,1.22-.81,1.94-1.14,3.06Zm-1.13-5.88c-.28,1.19-1.54,2.48-1.69,3.41-.05.32.01.59.22.68.88.39,1.36-2.93,2.17-2.99.09,1.24-.97,2.37-1.21,3.83-.72-.36-1.29-.8-1.79-1.27.29-1.3,1.41-2.7,1.97-4.29.18.17.22.42.33.63Zm-.62-2.48c.15.12.02.39.09.56-1.02,1.15-1.48,3.39-2.48,4.56.55-1.68,1.59-3.52,2.4-5.12Zm31.86,40.52c-1.91,1.02-3.99,1.72-6.09,2.38-.03-.65,0-1.33-.08-1.95,2.33-.78,4.7-1.47,6.91-2.47.04.72-.57,1.28-.73,2.05Zm5.87-15.59c-.13.3-.39-.16-.64.06-3.27,2.7-6.9,5.26-11.16,6.22-.48.11-1.34.1-1.41.87.48.5,1.25.06,1.77-.06,3.89-.9,7.78-3.29,10.82-5.97-.35.83-.39,1.87-.91,2.61-.41.58-1.71,1.21-2.43,1.6-2.47,1.32-5.56,2.23-7.96,3.28-.09.31.11.48.22.68,3.39-.91,6.49-2.38,9.56-3.91-.22.68-.59,1.09-.76,1.86-.1.28-.49,0-.66.14-2.36,1.73-4.94,2.41-8.12,2.97-.47.08-1.48.13-1.58.55-.18.82,1.17.39,1.57.32,2.01-.34,3.72-.56,5.4-1.28,1-.43,2.13-1.26,3.01-1.51-.5,1.56-.96,3.2-1.53,4.6-.28-.13-.33-.33-.62-.28-2.21,1.04-4.77,1.41-6.88,2.65-.98-1.51-2.78-2.79-4.51-3.78-1.92-1.1-5.12-1.63-7.09-1.7-2.42-.1-6.43.71-8.08,2.01-.94.74-1.48,2.31-1.5,3.65-.02,1.52.85,2.87,1.26,4.07,4.2,3.63,12.34,4.29,16.74,3.34,1.44-.31,2.85-1.24,4.33-1.79.66-.24,1.46-.69,2.15-.99.59-.25,1.86-.44,1.32-1.42-1.62.39-3.12,1.68-4.68,1.77.2-.61.14-1.09.27-1.67,1.97-.31,3.83-1.51,5.57-1.84-1.04,2.57-1.98,5.33-3.12,7.7-.29-.17-.24-.27-.61-.28-2.35.78-4.91,1.35-7.5,2.11-.51.15-2.3.49-2.39.91-.22,1.03,2.22.13,2.43.07,2.59-.74,5.27-1.6,7.87-2.17-.71,1.62-1.6,2.9-2.14,4.85-.11-.16.04-.47-.27-.52-2.42.82-4.95,1.46-7.74,2.03-.39.08-2.49.21-2.53.78-.06,1,2.33.17,2.59.11,2.68-.55,5.62-1.05,7.84-2.35-.46,1.38-1.28,3.18-1.9,4.66-.12.33-.34-.17-.61-.02-2.3.85-4.79,1.58-7.32,2.08-.81.16-1.74.02-2.45.54.19,1.15,1.68.42,2.36.3,2.59-.47,5.61-1.3,7.74-2.03-1.04,2.36-1.8,5.25-2.78,7.71-1.19,1.04-3.21.5-5.34.25-.77-.09-1.59.08-2.19,0-2.85-.35-6.56-1.62-9.38-2.78-1.97-.81-3.45-2.35-4.66-3.3-.05-4.91-.75-10.02-.81-14.98-.02-2.12.22-4.26.26-6.4.1-4.71-.06-9.77-.06-14.57,0-.87-.24-1.74-.23-2.61,0-.79.18-1.54.12-2.33-.14-2.04,0-4.54.33-6.91,4.63,2.21,9.95,4.61,15.48,5.93,2.08.49,4.21.64,6.16,1.06,3.68.8,7.13,1.43,10.47,1.8-2.28,1.52-5.21,2.6-7.77,3.25-.29.07-1.01.07-1.05.55-.07.92,2.14.14,2.44.07,2.52-.63,4.88-2.08,7.11-3.11.23-.24.05-.53.2-.64.99.11,1.91.08,2.91.22.03.35-.68.66-1.1.97-2.62,1.97-5.68,2.87-8.87,3.96-.47.16-1.22.19-1.39.79.29.7,1.19.3,1.61.16,1.55-.54,3.22-1.08,4.76-1.75,2.1-.91,4.07-2.07,5.79-3.35.13-.18.24-.39.31-.69.75.19,1.38.18,2.04.21.37.13-.11.45-.12.66Zm-13.97,20.14c-.42.88-2.39,1.35-3.78,1.44-2.08.13-4.4.19-6.75-.29-1.84-.37-2.92-.74-4.33-1.54-1.15-.65-1.38-.8-1.96-1.67-.51-.77-1.19-1.57-.91-2.48.22-.69.44-1.38.65-2.07,2.73-1.89,7.79-2.76,12.86-.69,1.43.59,4.13,2.44,4.47,3.51.19.6.15,2.91-.26,3.77Zm16.3-22.57c-1.84.18-3.66-.15-5.69-.3-4.39-.33-8.56-.91-13.23-1.97-2.07-.47-4.45-.61-6.73-1.15-3.38-.8-7.13-2.09-10.43-3.63-4.6-2.15-8.81-4.09-10.49-7.6.93-.51,1.84-1.07,2.77-1.58,1.36,1.89,3.87,3.2,6.4,4.73,1.78,1.08,3.74,2.02,5.7,2.76,2,.76,4.38,1.43,6.25,2.14,3.56,1.35,7.14,1.97,10.41,2.58,4.7.86,9.02.59,13.14.28.8-.06,1.48-.38,2.27-.52,1.63-.28,3.09-.1,4.46-.52.79,1.1,1.6,2.18,2.8,3.07-2.21.99-4.83,1.44-7.64,1.71Z"/><path class="cls-6" d="m16.21,22.84c.83.4,1.42,1.3,2.31,1.87,1.06.68,2.55,1.3,4.05,1.62,1.62.35,3.03,1.04,4.4,1.04.36-.46-.2-.7.01-.87.68-1.11,2.34-1.61,2.43-3-.63-.18-1.15.38-1.55.74-.45.41-.8,1.03-1.3,1.34-.23.24-.22.74-.36.85-.71-.11-1.26-.17-1.7-.45.42-.53.75-.94,1.35-1.51.26-.24,1.5-1.21.66-1.54-.45-.18-1.25.87-1.62,1.25-.61.62-.92,1.26-1.54,1.53-.22-.29-.71-.06-.75-.41.64-1.12,1.65-1.53,2.2-2.81,3.43.61,7.25,1.32,11.12,2.53.73.23,2,.91,1.95-.35-2-.66-4.25-1.37-6.51-1.87-5.09-1.14-10.72-2.08-14.13-.5-.22-.46-.65-.82-.81-1.31.15-.23.09-.59.28-.88.59-.92,4.13-.86,5.19-.91,4.29-.2,8.72,1.26,13.74,2.83.63.2,1.31.61,1.91.34.21-.74-.22-.81-.44-.84-2.37-.34-6.94-2.23-9.56-2.74-2.92-.58-5.57-.44-7.81-.27-.78.06-1.54-.02-2.14.12-2.01.46-2.8,2.72-1.41,4.2Zm7.56-.34c-.62.98-1.5,1.47-2.04,2.6-.37-.06-.52-.08-.72-.23.6-.83,1.51-1.66,1.86-2.57.31.16.78-.02.9.2Zm-1.88-.15c-.23.41-.66.79-.98,1.18-.28.34-.52,1.03-1.12.79.73-.6,1.16-1.79,2.11-1.97Zm-1.85.03c.09.4-.86,1.53-1.3,1.34.44-.45.76-1.09,1.3-1.34Z"/></g></svg>