<?xml version="1.0" encoding="utf-8"?>
<!-- Generator: Adobe Illustrator 27.6.1, SVG Export Plug-In . SVG Version: 6.00 Build 0)  -->
<svg version="1.1" id="emoji-logo" xmlns="http://www.w3.org/2000/svg" xmlns:xlink="http://www.w3.org/1999/xlink" x="0px" y="0px"
	 viewBox="0 0 1024 450" style="enable-background:new 0 0 1024 450;" xml:space="preserve">
<style type="text/css">
	.st0{fill:#BFBFBF;}
	.st1{fill:#FFFFFF;}
	.st2{fill:#FFC60B;}
	.st3{fill:#1A0F09;}
	.st4{fill:#F0ECF3;}
</style>
<path class="st0" d="M522.42,182.86c-0.11,0.18-0.18,0.23-0.22,0.21C522.17,183.03,522.23,182.95,522.42,182.86z"/>
<g>
	<path class="st1" d="M13.15,350.57c0-32.95,25.3-56.53,59.34-56.53c18.89,0,34.67,6.87,44.97,19.37l-16.24,14.99
		c-7.34-8.43-16.55-12.81-27.48-12.81c-20.46,0-34.98,14.37-34.98,34.98c0,20.61,14.52,34.98,34.98,34.98
		c10.93,0,20.14-4.37,27.48-12.96l16.24,14.99c-10.31,12.65-26.08,19.52-45.13,19.52C38.45,407.1,13.15,383.52,13.15,350.57z"/>
	<path class="st1" d="M204.26,381.81h-50.75l-9.68,23.42H117.9l48.72-109.31h24.99l48.88,109.31h-26.55L204.26,381.81z
		 M196.29,362.6l-17.33-41.85l-17.33,41.85H196.29z"/>
	<path class="st1" d="M321.51,405.23l-21.08-30.45h-1.25h-22.02v30.45h-25.3V295.92h47.32c29.2,0,47.47,15.15,47.47,39.66
		c0,16.4-8.28,28.42-22.48,34.51l24.51,35.14H321.51z M297.77,316.53h-20.61v38.1h20.61c15.46,0,23.27-7.18,23.27-19.05
		C321.04,323.56,313.23,316.53,297.77,316.53z"/>
	<path class="st1" d="M366.61,295.92h49.66c35.76,0,60.28,21.55,60.28,54.65c0,33.11-24.52,54.66-60.28,54.66h-49.66V295.92z
		 M415.02,384.46c21.71,0,35.91-12.96,35.91-33.89c0-20.93-14.21-33.88-35.91-33.88h-23.11v67.77H415.02z"/>
	<path class="st1" d="M613.61,348.85h23.11v44.35c-12.02,9.06-28.58,13.9-44.2,13.9c-34.35,0-59.65-23.58-59.65-56.53
		c0-32.95,25.3-56.53,60.12-56.53c19.21,0,35.14,6.56,45.75,18.9l-16.24,14.99c-7.96-8.43-17.18-12.34-28.26-12.34
		c-21.24,0-35.76,14.21-35.76,34.98c0,20.46,14.52,34.98,35.45,34.98c6.87,0,13.27-1.25,19.68-4.68V348.85z"/>
	<path class="st1" d="M732.11,381.81h-50.75l-9.68,23.42h-25.92l48.72-109.31h24.99l48.88,109.31h-26.55L732.11,381.81z
		 M724.15,362.6l-17.33-41.85l-17.34,41.85H724.15z"/>
	<path class="st1" d="M879.18,405.23l-0.16-65.59l-32.17,54.03h-11.4l-32.01-52.63v64.18h-23.74V295.92h20.92l40.92,67.93
		l40.29-67.93h20.77l0.31,109.31H879.18z"/>
	<path class="st1" d="M1013.45,384.93v20.3h-84.64V295.92h82.61v20.3h-57.46v23.74h50.75v19.67h-50.75v25.3H1013.45z"/>
</g>
<path class="st2" d="M184.02,237.09v40.98H13.15V57.39h166.77v40.98H63.9v47.92h102.46v39.72H63.9v51.07H184.02z"/>
<path class="st2" d="M425.49,278.07l-0.32-132.41l-64.95,109.08h-23.01L272.59,148.5v129.57h-47.92V57.39h42.25l82.6,137.14
	l81.34-137.14h41.93l0.63,220.68H425.49z"/>
<path class="st2" d="M511.86,167.73c0-65.58,51.08-114.12,120.74-114.12c69.36,0,120.74,48.23,120.74,114.12
	c0,65.89-51.39,114.12-120.74,114.12C562.93,281.86,511.86,233.3,511.86,167.73z"/>
<path class="st2" d="M755.85,249.7l28.37-34.05c11.98,16.08,25.22,24.27,40.98,24.27c20.49,0,31.21-12.29,31.21-36.57V98.37h-77.56
	V57.39h128.31v143.13c0,54.54-27.43,81.34-79.44,81.34C798.09,281.86,771.93,270.51,755.85,249.7z"/>
<path class="st2" d="M957.61,57.39h51.08v220.68h-51.08V57.39z"/>
<path class="st3" d="M713.68,204.26c-1.48,6.77-4.55,13.85-10.07,20.69c-5.96,7.37-14.79,14.45-27.62,20.53
	c-11.31,5.36-21.25,7.86-29.92,8.38c-10.24,0.61-18.71-1.53-25.61-4.95c-18.01-8.92-25.29-26.56-25.29-26.56
	s31.76-19.98,53.99-30.51c20.25-9.6,53.1-21.99,58.84-24.13c0.56-0.21,0.86-0.33,0.86-0.33S718.01,184.44,713.68,204.26z"/>
<path class="st4" d="M705.91,175.39c0,0-10.05,20.88-36.03,36.19c-2.66,1.58-5.5,3.1-8.52,4.52c-19.74,9.36-36.71,10.46-46.95,9.91
	c-6.53-0.37-10.32-1.39-10.32-1.39s28.44-17.89,48.35-27.33c5.23-2.48,11.42-5.17,17.69-7.79c15.42-6.45,31.34-12.44,35.01-13.81
	C705.64,175.49,705.91,175.39,705.91,175.39z"/>
<path class="st3" d="M709.81,54.13c-11.58,4.53-34.14,13.85-55.09,25.61c-16.15,9.05-26.24,17.42-34.35,24.15
	c-6.44,5.34-12.02,9.96-18.64,13.32c-6.65,3.37-13.65,5.13-21.77,7.17c-10.22,2.57-22.94,5.76-39.78,13.44
	c-21.87,9.96-42.73,22.64-53.22,29.31c-3.27,2.08-4.41,6.25-2.66,9.72l3.88,7.65c0.95,1.86,2.71,3.28,4.83,3.87
	c1.52,0.43,3.75,1.51,5.68,4.22c0.71,0.99,1.68,2.51,2.92,4.43c5.29,8.21,15.15,23.49,24.49,29.06c11.28,6.73,28.33,5.23,46.77-4.13
	c18.87-9.57,31.79-19.56,33.52-37.25c1.54-15.8-0.49-30.32-1.47-37.3c-0.14-0.96-0.25-1.8-0.34-2.49c-0.68-5.37,2.63-7.53,6.4-9.43
	c3.76-1.91,7.46-3.31,11.39,0.41c0.5,0.48,1.11,1.07,1.81,1.75c5.05,4.91,15.56,15.14,29.22,23.23c15.29,9.05,30.98,4.54,49.85-5.03
	c0.87-0.44,1.72-0.89,2.56-1.34c16.93-9.22,27.24-21.49,28.41-33.95c1.02-10.83-5.48-27.81-8.98-36.93
	c-0.82-2.13-1.46-3.82-1.84-4.97c-1.04-3.16-0.6-5.59-0.04-7.07c0.77-2.07,0.68-4.32-0.27-6.19l-3.88-7.65
	C717.46,54.26,713.41,52.72,709.81,54.13z M707.17,73.16L707.17,73.16L707.17,73.16L707.17,73.16z M588.01,205.24L588.01,205.24
	C588.01,205.24,588.01,205.24,588.01,205.24C588.01,205.24,588.01,205.24,588.01,205.24z"/>
</svg>
